%TF.GenerationSoftware,KiCad,Pcbnew,7.0.2-0*%
%TF.CreationDate,2024-05-28T17:42:47+08:00*%
%TF.ProjectId,angle_detect,616e676c-655f-4646-9574-6563742e6b69,rev?*%
%TF.SameCoordinates,Original*%
%TF.FileFunction,Drillmap*%
%TF.FilePolarity,Positive*%
%FSLAX45Y45*%
G04 Gerber Fmt 4.5, Leading zero omitted, Abs format (unit mm)*
G04 Created by KiCad (PCBNEW 7.0.2-0) date 2024-05-28 17:42:47*
%MOMM*%
%LPD*%
G01*
G04 APERTURE LIST*
%ADD10C,0.100000*%
%ADD11C,0.200000*%
%ADD12C,0.030000*%
%ADD13C,0.060000*%
%ADD14C,0.070000*%
%ADD15C,0.170000*%
%ADD16C,0.065000*%
G04 APERTURE END LIST*
D10*
X14015720Y-4826000D02*
G75*
G03*
X13685520Y-4495800I-330200J0D01*
G01*
X5770880Y-4826000D02*
X5770880Y-8945880D01*
X6101080Y-4495800D02*
G75*
G03*
X5770880Y-4826000I0J-330200D01*
G01*
X13685520Y-4495800D02*
X6101080Y-4495800D01*
X14015720Y-4826000D02*
X14015720Y-8945880D01*
X5770880Y-8945880D02*
G75*
G03*
X6101080Y-9276080I330200J0D01*
G01*
X6101080Y-9276080D02*
X13685520Y-9276080D01*
X13685520Y-9276080D02*
G75*
G03*
X14015720Y-8945880I0J330200D01*
G01*
D11*
D12*
X6030200Y-5979400D02*
X6060200Y-6009400D01*
X6060200Y-5979400D02*
X6030200Y-6009400D01*
X6284200Y-8219680D02*
X6314200Y-8249680D01*
X6314200Y-8219680D02*
X6284200Y-8249680D01*
X6416280Y-6583920D02*
X6446280Y-6613920D01*
X6446280Y-6583920D02*
X6416280Y-6613920D01*
X6421360Y-6690600D02*
X6451360Y-6720600D01*
X6451360Y-6690600D02*
X6421360Y-6720600D01*
X6421360Y-6787120D02*
X6451360Y-6817120D01*
X6451360Y-6787120D02*
X6421360Y-6817120D01*
X6436600Y-4557000D02*
X6466600Y-4587000D01*
X6466600Y-4557000D02*
X6436600Y-4587000D01*
X6436600Y-4620500D02*
X6466600Y-4650500D01*
X6466600Y-4620500D02*
X6436600Y-4650500D01*
X6459797Y-5605683D02*
X6489797Y-5635683D01*
X6489797Y-5605683D02*
X6459797Y-5635683D01*
X6462000Y-4899900D02*
X6492000Y-4929900D01*
X6492000Y-4899900D02*
X6462000Y-4929900D01*
X6500100Y-4557000D02*
X6530100Y-4587000D01*
X6530100Y-4557000D02*
X6500100Y-4587000D01*
X6500100Y-4620500D02*
X6530100Y-4650500D01*
X6530100Y-4620500D02*
X6500100Y-4650500D01*
X6563600Y-4557000D02*
X6593600Y-4587000D01*
X6593600Y-4557000D02*
X6563600Y-4587000D01*
X6563600Y-4620500D02*
X6593600Y-4650500D01*
X6593600Y-4620500D02*
X6563600Y-4650500D01*
X6576300Y-5908280D02*
X6606300Y-5938280D01*
X6606300Y-5908280D02*
X6576300Y-5938280D01*
X6578840Y-6159740D02*
X6608840Y-6189740D01*
X6608840Y-6159740D02*
X6578840Y-6189740D01*
X6642323Y-5550157D02*
X6672323Y-5580157D01*
X6672323Y-5550157D02*
X6642323Y-5580157D01*
X6652500Y-6215620D02*
X6682500Y-6245620D01*
X6682500Y-6215620D02*
X6652500Y-6245620D01*
X6690600Y-6721080D02*
X6720600Y-6751080D01*
X6720600Y-6721080D02*
X6690600Y-6751080D01*
X6822680Y-7914880D02*
X6852680Y-7944880D01*
X6852680Y-7914880D02*
X6822680Y-7944880D01*
X6848080Y-5166600D02*
X6878080Y-5196600D01*
X6878080Y-5166600D02*
X6848080Y-5196600D01*
X6893800Y-7914880D02*
X6923800Y-7944880D01*
X6923800Y-7914880D02*
X6893800Y-7944880D01*
X6896340Y-8133320D02*
X6926340Y-8163320D01*
X6926340Y-8133320D02*
X6896340Y-8163320D01*
X6967460Y-8133320D02*
X6997460Y-8163320D01*
X6997460Y-8133320D02*
X6967460Y-8163320D01*
X6985240Y-5760960D02*
X7015240Y-5790960D01*
X7015240Y-5760960D02*
X6985240Y-5790960D01*
X7000480Y-5467410D02*
X7030480Y-5497410D01*
X7030480Y-5467410D02*
X7000480Y-5497410D01*
X7008100Y-8656560D02*
X7038100Y-8686560D01*
X7038100Y-8656560D02*
X7008100Y-8686560D01*
X7036040Y-8133320D02*
X7066040Y-8163320D01*
X7066040Y-8133320D02*
X7036040Y-8163320D01*
X7046200Y-5532360D02*
X7076200Y-5562360D01*
X7076200Y-5532360D02*
X7046200Y-5562360D01*
X7081760Y-6274040D02*
X7111760Y-6304040D01*
X7111760Y-6274040D02*
X7081760Y-6304040D01*
X7094460Y-6797280D02*
X7124460Y-6827280D01*
X7124460Y-6797280D02*
X7094460Y-6827280D01*
X7097000Y-5954000D02*
X7127000Y-5984000D01*
X7127000Y-5954000D02*
X7097000Y-5984000D01*
X7102080Y-6025120D02*
X7132080Y-6055120D01*
X7132080Y-6025120D02*
X7102080Y-6055120D01*
X7102080Y-8133320D02*
X7132080Y-8163320D01*
X7132080Y-8133320D02*
X7102080Y-8163320D01*
X7102080Y-8204440D02*
X7132080Y-8234440D01*
X7132080Y-8204440D02*
X7102080Y-8234440D01*
X7102080Y-8278100D02*
X7132080Y-8308100D01*
X7132080Y-8278100D02*
X7102080Y-8308100D01*
X7102080Y-8341600D02*
X7132080Y-8371600D01*
X7132080Y-8341600D02*
X7102080Y-8371600D01*
X7127480Y-5166600D02*
X7157480Y-5196600D01*
X7157480Y-5166600D02*
X7127480Y-5196600D01*
X7330680Y-5562840D02*
X7360680Y-5592840D01*
X7360680Y-5562840D02*
X7330680Y-5592840D01*
X7345920Y-6159740D02*
X7375920Y-6189740D01*
X7375920Y-6159740D02*
X7345920Y-6189740D01*
X7399260Y-6111480D02*
X7429260Y-6141480D01*
X7429260Y-6111480D02*
X7399260Y-6141480D01*
X7399260Y-6205460D02*
X7429260Y-6235460D01*
X7429260Y-6205460D02*
X7399260Y-6235460D01*
X7406880Y-7376400D02*
X7436880Y-7406400D01*
X7436880Y-7376400D02*
X7406880Y-7406400D01*
X7442440Y-6253720D02*
X7472440Y-6283720D01*
X7472440Y-6253720D02*
X7442440Y-6283720D01*
X7444980Y-6695680D02*
X7474980Y-6725680D01*
X7474980Y-6695680D02*
X7444980Y-6725680D01*
X7447520Y-6157200D02*
X7477520Y-6187200D01*
X7477520Y-6157200D02*
X7447520Y-6187200D01*
X7490700Y-7516100D02*
X7520700Y-7546100D01*
X7520700Y-7516100D02*
X7490700Y-7546100D01*
X7495780Y-6197840D02*
X7525780Y-6227840D01*
X7525780Y-6197840D02*
X7495780Y-6227840D01*
X7605000Y-5118340D02*
X7635000Y-5148340D01*
X7635000Y-5118340D02*
X7605000Y-5148340D01*
X7630400Y-5639040D02*
X7660400Y-5669040D01*
X7660400Y-5639040D02*
X7630400Y-5669040D01*
X7630400Y-5842240D02*
X7660400Y-5872240D01*
X7660400Y-5842240D02*
X7630400Y-5872240D01*
X7655800Y-6622020D02*
X7685800Y-6652020D01*
X7685800Y-6622020D02*
X7655800Y-6652020D01*
X7693900Y-7681200D02*
X7723900Y-7711200D01*
X7723900Y-7681200D02*
X7693900Y-7711200D01*
X7747240Y-5471400D02*
X7777240Y-5501400D01*
X7777240Y-5471400D02*
X7747240Y-5501400D01*
X7843760Y-5364720D02*
X7873760Y-5394720D01*
X7873760Y-5364720D02*
X7843760Y-5394720D01*
X7848840Y-6380741D02*
X7878840Y-6410741D01*
X7878840Y-6380741D02*
X7848840Y-6410741D01*
X7947900Y-7687050D02*
X7977900Y-7717050D01*
X7977900Y-7687050D02*
X7947900Y-7717050D01*
X8176500Y-5717410D02*
X8206500Y-5747410D01*
X8206500Y-5717410D02*
X8176500Y-5747410D01*
X8189200Y-8151100D02*
X8219200Y-8181100D01*
X8219200Y-8151100D02*
X8189200Y-8181100D01*
X8209520Y-6213080D02*
X8239520Y-6243080D01*
X8239520Y-6213080D02*
X8209520Y-6243080D01*
X8263750Y-7984430D02*
X8293750Y-8014430D01*
X8293750Y-7984430D02*
X8263750Y-8014430D01*
X8290800Y-8151100D02*
X8320800Y-8181100D01*
X8320800Y-8151100D02*
X8290800Y-8181100D01*
X8361920Y-5474860D02*
X8391920Y-5504860D01*
X8391920Y-5474860D02*
X8361920Y-5504860D01*
X8379700Y-8138400D02*
X8409700Y-8168400D01*
X8409700Y-8138400D02*
X8379700Y-8168400D01*
X8439234Y-8193166D02*
X8469234Y-8223166D01*
X8469234Y-8193166D02*
X8439234Y-8223166D01*
X8443200Y-5832310D02*
X8473200Y-5862310D01*
X8473200Y-5832310D02*
X8443200Y-5862310D01*
X8483823Y-7945377D02*
X8513823Y-7975377D01*
X8513823Y-7945377D02*
X8483823Y-7975377D01*
X8491616Y-8026484D02*
X8521616Y-8056484D01*
X8521616Y-8026484D02*
X8491616Y-8056484D01*
X8516946Y-8115454D02*
X8546946Y-8145454D01*
X8546946Y-8115454D02*
X8516946Y-8145454D01*
X8720060Y-7376400D02*
X8750060Y-7406400D01*
X8750060Y-7376400D02*
X8720060Y-7406400D01*
X8722600Y-7579600D02*
X8752600Y-7609600D01*
X8752600Y-7579600D02*
X8722600Y-7609600D01*
X8722600Y-7808200D02*
X8752600Y-7838200D01*
X8752600Y-7808200D02*
X8722600Y-7838200D01*
X8722600Y-7871700D02*
X8752600Y-7901700D01*
X8752600Y-7871700D02*
X8722600Y-7901700D01*
X8722600Y-7935200D02*
X8752600Y-7965200D01*
X8752600Y-7935200D02*
X8722600Y-7965200D01*
X8728450Y-7687050D02*
X8758450Y-7717050D01*
X8758450Y-7687050D02*
X8728450Y-7717050D01*
X8735300Y-8303500D02*
X8765300Y-8333500D01*
X8765300Y-8303500D02*
X8735300Y-8333500D01*
X8735300Y-8595600D02*
X8765300Y-8625600D01*
X8765300Y-8595600D02*
X8735300Y-8625600D01*
X8755360Y-7170400D02*
X8785360Y-7200400D01*
X8785360Y-7170400D02*
X8755360Y-7200400D01*
X8811500Y-7808200D02*
X8841500Y-7838200D01*
X8841500Y-7808200D02*
X8811500Y-7838200D01*
X8811500Y-7871700D02*
X8841500Y-7901700D01*
X8841500Y-7871700D02*
X8811500Y-7901700D01*
X8811500Y-7935200D02*
X8841500Y-7965200D01*
X8841500Y-7935200D02*
X8811500Y-7965200D01*
X8837600Y-8462340D02*
X8867600Y-8492340D01*
X8867600Y-8462340D02*
X8837600Y-8492340D01*
X8900400Y-7808200D02*
X8930400Y-7838200D01*
X8930400Y-7808200D02*
X8900400Y-7838200D01*
X8900400Y-7871700D02*
X8930400Y-7901700D01*
X8930400Y-7871700D02*
X8900400Y-7901700D01*
X8900400Y-7935200D02*
X8930400Y-7965200D01*
X8930400Y-7935200D02*
X8900400Y-7965200D01*
X8989300Y-7808200D02*
X9019300Y-7838200D01*
X9019300Y-7808200D02*
X8989300Y-7838200D01*
X8989300Y-7871700D02*
X9019300Y-7901700D01*
X9019300Y-7871700D02*
X8989300Y-7901700D01*
X8989300Y-7935200D02*
X9019300Y-7965200D01*
X9019300Y-7935200D02*
X8989300Y-7965200D01*
X9159480Y-7071600D02*
X9189480Y-7101600D01*
X9189480Y-7071600D02*
X9159480Y-7101600D01*
X10985740Y-7340840D02*
X11015740Y-7370840D01*
X11015740Y-7340840D02*
X10985740Y-7370840D01*
X10993360Y-6682980D02*
X11023360Y-6712980D01*
X11023360Y-6682980D02*
X10993360Y-6712980D01*
X11034000Y-6743940D02*
X11064000Y-6773940D01*
X11064000Y-6743940D02*
X11034000Y-6773940D01*
X11039080Y-7287500D02*
X11069080Y-7317500D01*
X11069080Y-7287500D02*
X11039080Y-7317500D01*
X11045449Y-6813809D02*
X11075449Y-6843809D01*
X11075449Y-6813809D02*
X11045449Y-6843809D01*
X11064480Y-6919200D02*
X11094480Y-6949200D01*
X11094480Y-6919200D02*
X11064480Y-6949200D01*
X11074640Y-7221460D02*
X11104640Y-7251460D01*
X11104640Y-7221460D02*
X11074640Y-7251460D01*
X11110200Y-7152880D02*
X11140200Y-7182880D01*
X11140200Y-7152880D02*
X11110200Y-7182880D01*
X11384520Y-6578840D02*
X11414520Y-6608840D01*
X11414520Y-6578840D02*
X11384520Y-6608840D01*
X11445480Y-6258800D02*
X11475480Y-6288800D01*
X11475480Y-6258800D02*
X11445480Y-6288800D01*
X11531500Y-6743940D02*
X11561500Y-6773940D01*
X11561500Y-6743940D02*
X11531500Y-6773940D01*
X11531500Y-7747240D02*
X11561500Y-7777240D01*
X11561500Y-7747240D02*
X11531500Y-7777240D01*
X11749050Y-7292580D02*
X11779050Y-7322580D01*
X11779050Y-7292580D02*
X11749050Y-7322580D01*
X11806500Y-6660120D02*
X11836500Y-6690120D01*
X11836500Y-6660120D02*
X11806500Y-6690120D01*
X11889980Y-6746480D02*
X11919980Y-6776480D01*
X11919980Y-6746480D02*
X11889980Y-6776480D01*
X11912840Y-7259560D02*
X11942840Y-7289560D01*
X11942840Y-7259560D02*
X11912840Y-7289560D01*
X11920460Y-6258800D02*
X11950460Y-6288800D01*
X11950460Y-6258800D02*
X11920460Y-6288800D01*
X12222720Y-4988800D02*
X12252720Y-5018800D01*
X12252720Y-4988800D02*
X12222720Y-5018800D01*
X12250660Y-6817600D02*
X12280660Y-6847600D01*
X12280660Y-6817600D02*
X12250660Y-6847600D01*
D13*
X8210600Y-8537340D02*
G75*
G03*
X8210600Y-8537340I-30000J0D01*
G01*
D11*
X8150600Y-8482340D02*
X8150600Y-8592340D01*
X8150600Y-8592340D02*
G75*
G03*
X8210600Y-8592340I30000J0D01*
G01*
X8210600Y-8592340D02*
X8210600Y-8482340D01*
X8210600Y-8482340D02*
G75*
G03*
X8150600Y-8482340I-30000J0D01*
G01*
D13*
X8210600Y-8957340D02*
G75*
G03*
X8210600Y-8957340I-30000J0D01*
G01*
D11*
X8150600Y-8917340D02*
X8150600Y-8997340D01*
X8150600Y-8997340D02*
G75*
G03*
X8210600Y-8997340I30000J0D01*
G01*
X8210600Y-8997340D02*
X8210600Y-8917340D01*
X8210600Y-8917340D02*
G75*
G03*
X8150600Y-8917340I-30000J0D01*
G01*
D13*
X9074600Y-8537340D02*
G75*
G03*
X9074600Y-8537340I-30000J0D01*
G01*
D11*
X9014600Y-8482340D02*
X9014600Y-8592340D01*
X9014600Y-8592340D02*
G75*
G03*
X9074600Y-8592340I30000J0D01*
G01*
X9074600Y-8592340D02*
X9074600Y-8482340D01*
X9074600Y-8482340D02*
G75*
G03*
X9014600Y-8482340I-30000J0D01*
G01*
D13*
X9074600Y-8957340D02*
G75*
G03*
X9074600Y-8957340I-30000J0D01*
G01*
D11*
X9014600Y-8917340D02*
X9014600Y-8997340D01*
X9014600Y-8997340D02*
G75*
G03*
X9074600Y-8997340I30000J0D01*
G01*
X9074600Y-8997340D02*
X9074600Y-8917340D01*
X9074600Y-8917340D02*
G75*
G03*
X9014600Y-8917340I-30000J0D01*
G01*
D14*
X9842500Y-4529380D02*
X9842500Y-4599380D01*
X9807500Y-4564380D02*
X9877500Y-4564380D01*
X9842500Y-4608120D02*
X9842500Y-4678120D01*
X9807500Y-4643120D02*
X9877500Y-4643120D01*
X9842500Y-4689400D02*
X9842500Y-4759400D01*
X9807500Y-4724400D02*
X9877500Y-4724400D01*
X9842500Y-4773220D02*
X9842500Y-4843220D01*
X9807500Y-4808220D02*
X9877500Y-4808220D01*
X9842500Y-4851960D02*
X9842500Y-4921960D01*
X9807500Y-4886960D02*
X9877500Y-4886960D01*
X9842500Y-4933240D02*
X9842500Y-5003240D01*
X9807500Y-4968240D02*
X9877500Y-4968240D01*
X9842500Y-5017060D02*
X9842500Y-5087060D01*
X9807500Y-5052060D02*
X9877500Y-5052060D01*
X9842500Y-5095800D02*
X9842500Y-5165800D01*
X9807500Y-5130800D02*
X9877500Y-5130800D01*
X9842500Y-5177080D02*
X9842500Y-5247080D01*
X9807500Y-5212080D02*
X9877500Y-5212080D01*
X9842500Y-5258360D02*
X9842500Y-5328360D01*
X9807500Y-5293360D02*
X9877500Y-5293360D01*
X9842500Y-5337100D02*
X9842500Y-5407100D01*
X9807500Y-5372100D02*
X9877500Y-5372100D01*
X9842500Y-5418380D02*
X9842500Y-5488380D01*
X9807500Y-5453380D02*
X9877500Y-5453380D01*
X9842500Y-5497120D02*
X9842500Y-5567120D01*
X9807500Y-5532120D02*
X9877500Y-5532120D01*
X9842500Y-5575860D02*
X9842500Y-5645860D01*
X9807500Y-5610860D02*
X9877500Y-5610860D01*
X9842500Y-5657140D02*
X9842500Y-5727140D01*
X9807500Y-5692140D02*
X9877500Y-5692140D01*
X9842500Y-5738420D02*
X9842500Y-5808420D01*
X9807500Y-5773420D02*
X9877500Y-5773420D01*
X9842500Y-5817160D02*
X9842500Y-5887160D01*
X9807500Y-5852160D02*
X9877500Y-5852160D01*
X9842500Y-5898440D02*
X9842500Y-5968440D01*
X9807500Y-5933440D02*
X9877500Y-5933440D01*
X9842500Y-5989880D02*
X9842500Y-6059880D01*
X9807500Y-6024880D02*
X9877500Y-6024880D01*
X9842500Y-6068620D02*
X9842500Y-6138620D01*
X9807500Y-6103620D02*
X9877500Y-6103620D01*
X9842500Y-6149900D02*
X9842500Y-6219900D01*
X9807500Y-6184900D02*
X9877500Y-6184900D01*
X9842500Y-6231180D02*
X9842500Y-6301180D01*
X9807500Y-6266180D02*
X9877500Y-6266180D01*
X9842500Y-6309920D02*
X9842500Y-6379920D01*
X9807500Y-6344920D02*
X9877500Y-6344920D01*
X9842500Y-6391200D02*
X9842500Y-6461200D01*
X9807500Y-6426200D02*
X9877500Y-6426200D01*
X9842500Y-6469940D02*
X9842500Y-6539940D01*
X9807500Y-6504940D02*
X9877500Y-6504940D01*
X9842500Y-6548680D02*
X9842500Y-6618680D01*
X9807500Y-6583680D02*
X9877500Y-6583680D01*
X9842500Y-6629960D02*
X9842500Y-6699960D01*
X9807500Y-6664960D02*
X9877500Y-6664960D01*
X9842500Y-6708700D02*
X9842500Y-6778700D01*
X9807500Y-6743700D02*
X9877500Y-6743700D01*
X9842500Y-6787440D02*
X9842500Y-6857440D01*
X9807500Y-6822440D02*
X9877500Y-6822440D01*
X9842500Y-6868720D02*
X9842500Y-6938720D01*
X9807500Y-6903720D02*
X9877500Y-6903720D01*
X9842500Y-6957620D02*
X9842500Y-7027620D01*
X9807500Y-6992620D02*
X9877500Y-6992620D01*
X9842500Y-7038900D02*
X9842500Y-7108900D01*
X9807500Y-7073900D02*
X9877500Y-7073900D01*
X9842500Y-7117640D02*
X9842500Y-7187640D01*
X9807500Y-7152640D02*
X9877500Y-7152640D01*
X9842500Y-7198920D02*
X9842500Y-7268920D01*
X9807500Y-7233920D02*
X9877500Y-7233920D01*
X9842500Y-7290360D02*
X9842500Y-7360360D01*
X9807500Y-7325360D02*
X9877500Y-7325360D01*
X9842500Y-7369100D02*
X9842500Y-7439100D01*
X9807500Y-7404100D02*
X9877500Y-7404100D01*
X9842500Y-7450380D02*
X9842500Y-7520380D01*
X9807500Y-7485380D02*
X9877500Y-7485380D01*
X9842500Y-7531660D02*
X9842500Y-7601660D01*
X9807500Y-7566660D02*
X9877500Y-7566660D01*
X9842500Y-7610400D02*
X9842500Y-7680400D01*
X9807500Y-7645400D02*
X9877500Y-7645400D01*
X9842500Y-7691680D02*
X9842500Y-7761680D01*
X9807500Y-7726680D02*
X9877500Y-7726680D01*
X9842500Y-7770420D02*
X9842500Y-7840420D01*
X9807500Y-7805420D02*
X9877500Y-7805420D01*
X9842500Y-7849160D02*
X9842500Y-7919160D01*
X9807500Y-7884160D02*
X9877500Y-7884160D01*
X9842500Y-7930440D02*
X9842500Y-8000440D01*
X9807500Y-7965440D02*
X9877500Y-7965440D01*
X9842500Y-8009180D02*
X9842500Y-8079180D01*
X9807500Y-8044180D02*
X9877500Y-8044180D01*
X9842500Y-8087920D02*
X9842500Y-8157920D01*
X9807500Y-8122920D02*
X9877500Y-8122920D01*
X9842500Y-8169200D02*
X9842500Y-8239200D01*
X9807500Y-8204200D02*
X9877500Y-8204200D01*
X9842500Y-8250480D02*
X9842500Y-8320480D01*
X9807500Y-8285480D02*
X9877500Y-8285480D01*
X9842500Y-8331760D02*
X9842500Y-8401760D01*
X9807500Y-8366760D02*
X9877500Y-8366760D01*
X9842500Y-8410500D02*
X9842500Y-8480500D01*
X9807500Y-8445500D02*
X9877500Y-8445500D01*
X9842500Y-8491780D02*
X9842500Y-8561780D01*
X9807500Y-8526780D02*
X9877500Y-8526780D01*
X9842500Y-8583220D02*
X9842500Y-8653220D01*
X9807500Y-8618220D02*
X9877500Y-8618220D01*
X9842500Y-8661960D02*
X9842500Y-8731960D01*
X9807500Y-8696960D02*
X9877500Y-8696960D01*
X9842500Y-8743240D02*
X9842500Y-8813240D01*
X9807500Y-8778240D02*
X9877500Y-8778240D01*
X9842500Y-8824520D02*
X9842500Y-8894520D01*
X9807500Y-8859520D02*
X9877500Y-8859520D01*
X9842500Y-8903260D02*
X9842500Y-8973260D01*
X9807500Y-8938260D02*
X9877500Y-8938260D01*
X9842500Y-8984540D02*
X9842500Y-9054540D01*
X9807500Y-9019540D02*
X9877500Y-9019540D01*
X9842500Y-9063280D02*
X9842500Y-9133280D01*
X9807500Y-9098280D02*
X9877500Y-9098280D01*
X9842500Y-9142020D02*
X9842500Y-9212020D01*
X9807500Y-9177020D02*
X9877500Y-9177020D01*
X9941560Y-4526840D02*
X9941560Y-4596840D01*
X9906560Y-4561840D02*
X9976560Y-4561840D01*
X9941560Y-4605580D02*
X9941560Y-4675580D01*
X9906560Y-4640580D02*
X9976560Y-4640580D01*
X9941560Y-4686860D02*
X9941560Y-4756860D01*
X9906560Y-4721860D02*
X9976560Y-4721860D01*
X9941560Y-4770680D02*
X9941560Y-4840680D01*
X9906560Y-4805680D02*
X9976560Y-4805680D01*
X9941560Y-4849420D02*
X9941560Y-4919420D01*
X9906560Y-4884420D02*
X9976560Y-4884420D01*
X9941560Y-4930700D02*
X9941560Y-5000700D01*
X9906560Y-4965700D02*
X9976560Y-4965700D01*
X9941560Y-5014520D02*
X9941560Y-5084520D01*
X9906560Y-5049520D02*
X9976560Y-5049520D01*
X9941560Y-5093260D02*
X9941560Y-5163260D01*
X9906560Y-5128260D02*
X9976560Y-5128260D01*
X9941560Y-5174540D02*
X9941560Y-5244540D01*
X9906560Y-5209540D02*
X9976560Y-5209540D01*
X9941560Y-5255820D02*
X9941560Y-5325820D01*
X9906560Y-5290820D02*
X9976560Y-5290820D01*
X9941560Y-5334560D02*
X9941560Y-5404560D01*
X9906560Y-5369560D02*
X9976560Y-5369560D01*
X9941560Y-5415840D02*
X9941560Y-5485840D01*
X9906560Y-5450840D02*
X9976560Y-5450840D01*
X9941560Y-5494580D02*
X9941560Y-5564580D01*
X9906560Y-5529580D02*
X9976560Y-5529580D01*
X9941560Y-5573320D02*
X9941560Y-5643320D01*
X9906560Y-5608320D02*
X9976560Y-5608320D01*
X9941560Y-5654600D02*
X9941560Y-5724600D01*
X9906560Y-5689600D02*
X9976560Y-5689600D01*
X9941560Y-5735880D02*
X9941560Y-5805880D01*
X9906560Y-5770880D02*
X9976560Y-5770880D01*
X9941560Y-5814620D02*
X9941560Y-5884620D01*
X9906560Y-5849620D02*
X9976560Y-5849620D01*
X9941560Y-5895900D02*
X9941560Y-5965900D01*
X9906560Y-5930900D02*
X9976560Y-5930900D01*
X9941560Y-5987340D02*
X9941560Y-6057340D01*
X9906560Y-6022340D02*
X9976560Y-6022340D01*
X9941560Y-6066080D02*
X9941560Y-6136080D01*
X9906560Y-6101080D02*
X9976560Y-6101080D01*
X9941560Y-6147360D02*
X9941560Y-6217360D01*
X9906560Y-6182360D02*
X9976560Y-6182360D01*
X9941560Y-6228640D02*
X9941560Y-6298640D01*
X9906560Y-6263640D02*
X9976560Y-6263640D01*
X9941560Y-6307380D02*
X9941560Y-6377380D01*
X9906560Y-6342380D02*
X9976560Y-6342380D01*
X9941560Y-6388660D02*
X9941560Y-6458660D01*
X9906560Y-6423660D02*
X9976560Y-6423660D01*
X9941560Y-6467400D02*
X9941560Y-6537400D01*
X9906560Y-6502400D02*
X9976560Y-6502400D01*
X9941560Y-6546140D02*
X9941560Y-6616140D01*
X9906560Y-6581140D02*
X9976560Y-6581140D01*
X9941560Y-6627420D02*
X9941560Y-6697420D01*
X9906560Y-6662420D02*
X9976560Y-6662420D01*
X9941560Y-6706160D02*
X9941560Y-6776160D01*
X9906560Y-6741160D02*
X9976560Y-6741160D01*
X9941560Y-6784900D02*
X9941560Y-6854900D01*
X9906560Y-6819900D02*
X9976560Y-6819900D01*
X9941560Y-6866180D02*
X9941560Y-6936180D01*
X9906560Y-6901180D02*
X9976560Y-6901180D01*
X9941560Y-6955080D02*
X9941560Y-7025080D01*
X9906560Y-6990080D02*
X9976560Y-6990080D01*
X9941560Y-7036360D02*
X9941560Y-7106360D01*
X9906560Y-7071360D02*
X9976560Y-7071360D01*
X9941560Y-7115100D02*
X9941560Y-7185100D01*
X9906560Y-7150100D02*
X9976560Y-7150100D01*
X9941560Y-7196380D02*
X9941560Y-7266380D01*
X9906560Y-7231380D02*
X9976560Y-7231380D01*
X9941560Y-7287820D02*
X9941560Y-7357820D01*
X9906560Y-7322820D02*
X9976560Y-7322820D01*
X9941560Y-7366560D02*
X9941560Y-7436560D01*
X9906560Y-7401560D02*
X9976560Y-7401560D01*
X9941560Y-7447840D02*
X9941560Y-7517840D01*
X9906560Y-7482840D02*
X9976560Y-7482840D01*
X9941560Y-7529120D02*
X9941560Y-7599120D01*
X9906560Y-7564120D02*
X9976560Y-7564120D01*
X9941560Y-7607860D02*
X9941560Y-7677860D01*
X9906560Y-7642860D02*
X9976560Y-7642860D01*
X9941560Y-7689140D02*
X9941560Y-7759140D01*
X9906560Y-7724140D02*
X9976560Y-7724140D01*
X9941560Y-7767880D02*
X9941560Y-7837880D01*
X9906560Y-7802880D02*
X9976560Y-7802880D01*
X9941560Y-7846620D02*
X9941560Y-7916620D01*
X9906560Y-7881620D02*
X9976560Y-7881620D01*
X9941560Y-7927900D02*
X9941560Y-7997900D01*
X9906560Y-7962900D02*
X9976560Y-7962900D01*
X9941560Y-8006640D02*
X9941560Y-8076640D01*
X9906560Y-8041640D02*
X9976560Y-8041640D01*
X9941560Y-8085380D02*
X9941560Y-8155380D01*
X9906560Y-8120380D02*
X9976560Y-8120380D01*
X9941560Y-8166660D02*
X9941560Y-8236660D01*
X9906560Y-8201660D02*
X9976560Y-8201660D01*
X9941560Y-8247940D02*
X9941560Y-8317940D01*
X9906560Y-8282940D02*
X9976560Y-8282940D01*
X9941560Y-8329220D02*
X9941560Y-8399220D01*
X9906560Y-8364220D02*
X9976560Y-8364220D01*
X9941560Y-8407960D02*
X9941560Y-8477960D01*
X9906560Y-8442960D02*
X9976560Y-8442960D01*
X9941560Y-8489240D02*
X9941560Y-8559240D01*
X9906560Y-8524240D02*
X9976560Y-8524240D01*
X9941560Y-8580680D02*
X9941560Y-8650680D01*
X9906560Y-8615680D02*
X9976560Y-8615680D01*
X9941560Y-8659420D02*
X9941560Y-8729420D01*
X9906560Y-8694420D02*
X9976560Y-8694420D01*
X9941560Y-8740700D02*
X9941560Y-8810700D01*
X9906560Y-8775700D02*
X9976560Y-8775700D01*
X9941560Y-8821980D02*
X9941560Y-8891980D01*
X9906560Y-8856980D02*
X9976560Y-8856980D01*
X9941560Y-8900720D02*
X9941560Y-8970720D01*
X9906560Y-8935720D02*
X9976560Y-8935720D01*
X9941560Y-8982000D02*
X9941560Y-9052000D01*
X9906560Y-9017000D02*
X9976560Y-9017000D01*
X9941560Y-9060740D02*
X9941560Y-9130740D01*
X9906560Y-9095740D02*
X9976560Y-9095740D01*
X9941560Y-9139480D02*
X9941560Y-9209480D01*
X9906560Y-9174480D02*
X9976560Y-9174480D01*
D10*
X6042456Y-6667756D02*
X6042456Y-6597044D01*
X5971744Y-6597044D01*
X5971744Y-6667756D01*
X6042456Y-6667756D01*
X6042456Y-6921756D02*
X6042456Y-6851044D01*
X5971744Y-6851044D01*
X5971744Y-6921756D01*
X6042456Y-6921756D01*
X6042456Y-7175756D02*
X6042456Y-7105044D01*
X5971744Y-7105044D01*
X5971744Y-7175756D01*
X6042456Y-7175756D01*
X6042456Y-7429756D02*
X6042456Y-7359044D01*
X5971744Y-7359044D01*
X5971744Y-7429756D01*
X6042456Y-7429756D01*
X6042456Y-7683756D02*
X6042456Y-7613044D01*
X5971744Y-7613044D01*
X5971744Y-7683756D01*
X6042456Y-7683756D01*
X6042456Y-7937756D02*
X6042456Y-7867044D01*
X5971744Y-7867044D01*
X5971744Y-7937756D01*
X6042456Y-7937756D01*
X6042456Y-8191756D02*
X6042456Y-8121044D01*
X5971744Y-8121044D01*
X5971744Y-8191756D01*
X6042456Y-8191756D01*
X6042456Y-8445756D02*
X6042456Y-8375044D01*
X5971744Y-8375044D01*
X5971744Y-8445756D01*
X6042456Y-8445756D01*
X6042456Y-8699756D02*
X6042456Y-8629044D01*
X5971744Y-8629044D01*
X5971744Y-8699756D01*
X6042456Y-8699756D01*
X6042456Y-8953756D02*
X6042456Y-8883044D01*
X5971744Y-8883044D01*
X5971744Y-8953756D01*
X6042456Y-8953756D01*
X7045756Y-4955336D02*
X7045756Y-4884624D01*
X6975044Y-4884624D01*
X6975044Y-4955336D01*
X7045756Y-4955336D01*
X7299756Y-4955336D02*
X7299756Y-4884624D01*
X7229044Y-4884624D01*
X7229044Y-4955336D01*
X7299756Y-4955336D01*
X7553756Y-4955336D02*
X7553756Y-4884624D01*
X7483044Y-4884624D01*
X7483044Y-4955336D01*
X7553756Y-4955336D01*
X7807756Y-4955336D02*
X7807756Y-4884624D01*
X7737044Y-4884624D01*
X7737044Y-4955336D01*
X7807756Y-4955336D01*
X9192056Y-4810556D02*
X9192056Y-4739844D01*
X9121344Y-4739844D01*
X9121344Y-4810556D01*
X9192056Y-4810556D01*
X9192056Y-5064556D02*
X9192056Y-4993844D01*
X9121344Y-4993844D01*
X9121344Y-5064556D01*
X9192056Y-5064556D01*
X9192056Y-5318556D02*
X9192056Y-5247844D01*
X9121344Y-5247844D01*
X9121344Y-5318556D01*
X9192056Y-5318556D01*
X9192056Y-5572556D02*
X9192056Y-5501844D01*
X9121344Y-5501844D01*
X9121344Y-5572556D01*
X9192056Y-5572556D01*
X13814856Y-6667756D02*
X13814856Y-6597044D01*
X13744144Y-6597044D01*
X13744144Y-6667756D01*
X13814856Y-6667756D01*
X13814856Y-6921756D02*
X13814856Y-6851044D01*
X13744144Y-6851044D01*
X13744144Y-6921756D01*
X13814856Y-6921756D01*
X13814856Y-7175756D02*
X13814856Y-7105044D01*
X13744144Y-7105044D01*
X13744144Y-7175756D01*
X13814856Y-7175756D01*
X13814856Y-7429756D02*
X13814856Y-7359044D01*
X13744144Y-7359044D01*
X13744144Y-7429756D01*
X13814856Y-7429756D01*
X13814856Y-7683756D02*
X13814856Y-7613044D01*
X13744144Y-7613044D01*
X13744144Y-7683756D01*
X13814856Y-7683756D01*
X13814856Y-7937756D02*
X13814856Y-7867044D01*
X13744144Y-7867044D01*
X13744144Y-7937756D01*
X13814856Y-7937756D01*
X13814856Y-8191756D02*
X13814856Y-8121044D01*
X13744144Y-8121044D01*
X13744144Y-8191756D01*
X13814856Y-8191756D01*
X13814856Y-8445756D02*
X13814856Y-8375044D01*
X13744144Y-8375044D01*
X13744144Y-8445756D01*
X13814856Y-8445756D01*
X13814856Y-8699756D02*
X13814856Y-8629044D01*
X13744144Y-8629044D01*
X13744144Y-8699756D01*
X13814856Y-8699756D01*
X13814856Y-8953756D02*
X13814856Y-8883044D01*
X13744144Y-8883044D01*
X13744144Y-8953756D01*
X13814856Y-8953756D01*
D15*
X9537700Y-5012600D02*
X9622700Y-4927600D01*
X9537700Y-4842600D01*
X9452700Y-4927600D01*
X9537700Y-5012600D01*
X9537700Y-5515520D02*
X9622700Y-5430520D01*
X9537700Y-5345520D01*
X9452700Y-5430520D01*
X9537700Y-5515520D01*
X9537700Y-8492400D02*
X9622700Y-8407400D01*
X9537700Y-8322400D01*
X9452700Y-8407400D01*
X9537700Y-8492400D01*
X9537700Y-8990240D02*
X9622700Y-8905240D01*
X9537700Y-8820240D01*
X9452700Y-8905240D01*
X9537700Y-8990240D01*
X10185400Y-5012600D02*
X10270400Y-4927600D01*
X10185400Y-4842600D01*
X10100400Y-4927600D01*
X10185400Y-5012600D01*
X10185400Y-5515520D02*
X10270400Y-5430520D01*
X10185400Y-5345520D01*
X10100400Y-5430520D01*
X10185400Y-5515520D01*
X10198100Y-8489860D02*
X10283100Y-8404860D01*
X10198100Y-8319860D01*
X10113100Y-8404860D01*
X10198100Y-8489860D01*
X10198100Y-8992780D02*
X10283100Y-8907780D01*
X10198100Y-8822780D01*
X10113100Y-8907780D01*
X10198100Y-8992780D01*
D16*
X8291100Y-8556840D02*
X8356100Y-8621840D01*
X8356100Y-8556840D02*
X8291100Y-8621840D01*
X8356100Y-8589340D02*
G75*
G03*
X8356100Y-8589340I-32500J0D01*
G01*
X8869100Y-8556840D02*
X8934100Y-8621840D01*
X8934100Y-8556840D02*
X8869100Y-8621840D01*
X8934100Y-8589340D02*
G75*
G03*
X8934100Y-8589340I-32500J0D01*
G01*
D11*
X6013499Y-9593604D02*
X6013499Y-9393604D01*
X6013499Y-9393604D02*
X6061118Y-9393604D01*
X6061118Y-9393604D02*
X6089689Y-9403128D01*
X6089689Y-9403128D02*
X6108737Y-9422175D01*
X6108737Y-9422175D02*
X6118261Y-9441223D01*
X6118261Y-9441223D02*
X6127785Y-9479318D01*
X6127785Y-9479318D02*
X6127785Y-9507890D01*
X6127785Y-9507890D02*
X6118261Y-9545985D01*
X6118261Y-9545985D02*
X6108737Y-9565032D01*
X6108737Y-9565032D02*
X6089689Y-9584080D01*
X6089689Y-9584080D02*
X6061118Y-9593604D01*
X6061118Y-9593604D02*
X6013499Y-9593604D01*
X6213499Y-9593604D02*
X6213499Y-9460270D01*
X6213499Y-9498366D02*
X6223023Y-9479318D01*
X6223023Y-9479318D02*
X6232547Y-9469794D01*
X6232547Y-9469794D02*
X6251594Y-9460270D01*
X6251594Y-9460270D02*
X6270642Y-9460270D01*
X6337308Y-9593604D02*
X6337308Y-9460270D01*
X6337308Y-9393604D02*
X6327785Y-9403128D01*
X6327785Y-9403128D02*
X6337308Y-9412651D01*
X6337308Y-9412651D02*
X6346832Y-9403128D01*
X6346832Y-9403128D02*
X6337308Y-9393604D01*
X6337308Y-9393604D02*
X6337308Y-9412651D01*
X6461118Y-9593604D02*
X6442070Y-9584080D01*
X6442070Y-9584080D02*
X6432547Y-9565032D01*
X6432547Y-9565032D02*
X6432547Y-9393604D01*
X6565880Y-9593604D02*
X6546832Y-9584080D01*
X6546832Y-9584080D02*
X6537308Y-9565032D01*
X6537308Y-9565032D02*
X6537308Y-9393604D01*
X6794451Y-9593604D02*
X6794451Y-9393604D01*
X6794451Y-9393604D02*
X6861118Y-9536461D01*
X6861118Y-9536461D02*
X6927785Y-9393604D01*
X6927785Y-9393604D02*
X6927785Y-9593604D01*
X7108737Y-9593604D02*
X7108737Y-9488842D01*
X7108737Y-9488842D02*
X7099213Y-9469794D01*
X7099213Y-9469794D02*
X7080166Y-9460270D01*
X7080166Y-9460270D02*
X7042070Y-9460270D01*
X7042070Y-9460270D02*
X7023023Y-9469794D01*
X7108737Y-9584080D02*
X7089689Y-9593604D01*
X7089689Y-9593604D02*
X7042070Y-9593604D01*
X7042070Y-9593604D02*
X7023023Y-9584080D01*
X7023023Y-9584080D02*
X7013499Y-9565032D01*
X7013499Y-9565032D02*
X7013499Y-9545985D01*
X7013499Y-9545985D02*
X7023023Y-9526937D01*
X7023023Y-9526937D02*
X7042070Y-9517413D01*
X7042070Y-9517413D02*
X7089689Y-9517413D01*
X7089689Y-9517413D02*
X7108737Y-9507890D01*
X7203975Y-9460270D02*
X7203975Y-9660270D01*
X7203975Y-9469794D02*
X7223023Y-9460270D01*
X7223023Y-9460270D02*
X7261118Y-9460270D01*
X7261118Y-9460270D02*
X7280166Y-9469794D01*
X7280166Y-9469794D02*
X7289689Y-9479318D01*
X7289689Y-9479318D02*
X7299213Y-9498366D01*
X7299213Y-9498366D02*
X7299213Y-9555509D01*
X7299213Y-9555509D02*
X7289689Y-9574556D01*
X7289689Y-9574556D02*
X7280166Y-9584080D01*
X7280166Y-9584080D02*
X7261118Y-9593604D01*
X7261118Y-9593604D02*
X7223023Y-9593604D01*
X7223023Y-9593604D02*
X7203975Y-9584080D01*
X7384928Y-9574556D02*
X7394451Y-9584080D01*
X7394451Y-9584080D02*
X7384928Y-9593604D01*
X7384928Y-9593604D02*
X7375404Y-9584080D01*
X7375404Y-9584080D02*
X7384928Y-9574556D01*
X7384928Y-9574556D02*
X7384928Y-9593604D01*
X7384928Y-9469794D02*
X7394451Y-9479318D01*
X7394451Y-9479318D02*
X7384928Y-9488842D01*
X7384928Y-9488842D02*
X7375404Y-9479318D01*
X7375404Y-9479318D02*
X7384928Y-9469794D01*
X7384928Y-9469794D02*
X7384928Y-9488842D01*
D12*
X5735880Y-9906080D02*
X5765880Y-9936080D01*
X5765880Y-9906080D02*
X5735880Y-9936080D01*
D11*
X6051594Y-9813604D02*
X6070642Y-9813604D01*
X6070642Y-9813604D02*
X6089689Y-9823128D01*
X6089689Y-9823128D02*
X6099213Y-9832651D01*
X6099213Y-9832651D02*
X6108737Y-9851699D01*
X6108737Y-9851699D02*
X6118261Y-9889794D01*
X6118261Y-9889794D02*
X6118261Y-9937413D01*
X6118261Y-9937413D02*
X6108737Y-9975509D01*
X6108737Y-9975509D02*
X6099213Y-9994556D01*
X6099213Y-9994556D02*
X6089689Y-10004080D01*
X6089689Y-10004080D02*
X6070642Y-10013604D01*
X6070642Y-10013604D02*
X6051594Y-10013604D01*
X6051594Y-10013604D02*
X6032547Y-10004080D01*
X6032547Y-10004080D02*
X6023023Y-9994556D01*
X6023023Y-9994556D02*
X6013499Y-9975509D01*
X6013499Y-9975509D02*
X6003975Y-9937413D01*
X6003975Y-9937413D02*
X6003975Y-9889794D01*
X6003975Y-9889794D02*
X6013499Y-9851699D01*
X6013499Y-9851699D02*
X6023023Y-9832651D01*
X6023023Y-9832651D02*
X6032547Y-9823128D01*
X6032547Y-9823128D02*
X6051594Y-9813604D01*
X6203975Y-9994556D02*
X6213499Y-10004080D01*
X6213499Y-10004080D02*
X6203975Y-10013604D01*
X6203975Y-10013604D02*
X6194451Y-10004080D01*
X6194451Y-10004080D02*
X6203975Y-9994556D01*
X6203975Y-9994556D02*
X6203975Y-10013604D01*
X6280166Y-9813604D02*
X6403975Y-9813604D01*
X6403975Y-9813604D02*
X6337308Y-9889794D01*
X6337308Y-9889794D02*
X6365880Y-9889794D01*
X6365880Y-9889794D02*
X6384928Y-9899318D01*
X6384928Y-9899318D02*
X6394451Y-9908842D01*
X6394451Y-9908842D02*
X6403975Y-9927890D01*
X6403975Y-9927890D02*
X6403975Y-9975509D01*
X6403975Y-9975509D02*
X6394451Y-9994556D01*
X6394451Y-9994556D02*
X6384928Y-10004080D01*
X6384928Y-10004080D02*
X6365880Y-10013604D01*
X6365880Y-10013604D02*
X6308737Y-10013604D01*
X6308737Y-10013604D02*
X6289689Y-10004080D01*
X6289689Y-10004080D02*
X6280166Y-9994556D01*
X6527785Y-9813604D02*
X6546832Y-9813604D01*
X6546832Y-9813604D02*
X6565880Y-9823128D01*
X6565880Y-9823128D02*
X6575404Y-9832651D01*
X6575404Y-9832651D02*
X6584928Y-9851699D01*
X6584928Y-9851699D02*
X6594451Y-9889794D01*
X6594451Y-9889794D02*
X6594451Y-9937413D01*
X6594451Y-9937413D02*
X6584928Y-9975509D01*
X6584928Y-9975509D02*
X6575404Y-9994556D01*
X6575404Y-9994556D02*
X6565880Y-10004080D01*
X6565880Y-10004080D02*
X6546832Y-10013604D01*
X6546832Y-10013604D02*
X6527785Y-10013604D01*
X6527785Y-10013604D02*
X6508737Y-10004080D01*
X6508737Y-10004080D02*
X6499213Y-9994556D01*
X6499213Y-9994556D02*
X6489689Y-9975509D01*
X6489689Y-9975509D02*
X6480166Y-9937413D01*
X6480166Y-9937413D02*
X6480166Y-9889794D01*
X6480166Y-9889794D02*
X6489689Y-9851699D01*
X6489689Y-9851699D02*
X6499213Y-9832651D01*
X6499213Y-9832651D02*
X6508737Y-9823128D01*
X6508737Y-9823128D02*
X6527785Y-9813604D01*
X6718261Y-9813604D02*
X6737309Y-9813604D01*
X6737309Y-9813604D02*
X6756356Y-9823128D01*
X6756356Y-9823128D02*
X6765880Y-9832651D01*
X6765880Y-9832651D02*
X6775404Y-9851699D01*
X6775404Y-9851699D02*
X6784928Y-9889794D01*
X6784928Y-9889794D02*
X6784928Y-9937413D01*
X6784928Y-9937413D02*
X6775404Y-9975509D01*
X6775404Y-9975509D02*
X6765880Y-9994556D01*
X6765880Y-9994556D02*
X6756356Y-10004080D01*
X6756356Y-10004080D02*
X6737309Y-10013604D01*
X6737309Y-10013604D02*
X6718261Y-10013604D01*
X6718261Y-10013604D02*
X6699213Y-10004080D01*
X6699213Y-10004080D02*
X6689689Y-9994556D01*
X6689689Y-9994556D02*
X6680166Y-9975509D01*
X6680166Y-9975509D02*
X6670642Y-9937413D01*
X6670642Y-9937413D02*
X6670642Y-9889794D01*
X6670642Y-9889794D02*
X6680166Y-9851699D01*
X6680166Y-9851699D02*
X6689689Y-9832651D01*
X6689689Y-9832651D02*
X6699213Y-9823128D01*
X6699213Y-9823128D02*
X6718261Y-9813604D01*
X6870642Y-10013604D02*
X6870642Y-9880270D01*
X6870642Y-9899318D02*
X6880166Y-9889794D01*
X6880166Y-9889794D02*
X6899213Y-9880270D01*
X6899213Y-9880270D02*
X6927785Y-9880270D01*
X6927785Y-9880270D02*
X6946832Y-9889794D01*
X6946832Y-9889794D02*
X6956356Y-9908842D01*
X6956356Y-9908842D02*
X6956356Y-10013604D01*
X6956356Y-9908842D02*
X6965880Y-9889794D01*
X6965880Y-9889794D02*
X6984928Y-9880270D01*
X6984928Y-9880270D02*
X7013499Y-9880270D01*
X7013499Y-9880270D02*
X7032547Y-9889794D01*
X7032547Y-9889794D02*
X7042070Y-9908842D01*
X7042070Y-9908842D02*
X7042070Y-10013604D01*
X7137309Y-10013604D02*
X7137309Y-9880270D01*
X7137309Y-9899318D02*
X7146832Y-9889794D01*
X7146832Y-9889794D02*
X7165880Y-9880270D01*
X7165880Y-9880270D02*
X7194451Y-9880270D01*
X7194451Y-9880270D02*
X7213499Y-9889794D01*
X7213499Y-9889794D02*
X7223023Y-9908842D01*
X7223023Y-9908842D02*
X7223023Y-10013604D01*
X7223023Y-9908842D02*
X7232547Y-9889794D01*
X7232547Y-9889794D02*
X7251594Y-9880270D01*
X7251594Y-9880270D02*
X7280166Y-9880270D01*
X7280166Y-9880270D02*
X7299213Y-9889794D01*
X7299213Y-9889794D02*
X7308737Y-9908842D01*
X7308737Y-9908842D02*
X7308737Y-10013604D01*
X7699213Y-9804080D02*
X7527785Y-10061223D01*
X7956356Y-9813604D02*
X7975404Y-9813604D01*
X7975404Y-9813604D02*
X7994452Y-9823128D01*
X7994452Y-9823128D02*
X8003975Y-9832651D01*
X8003975Y-9832651D02*
X8013499Y-9851699D01*
X8013499Y-9851699D02*
X8023023Y-9889794D01*
X8023023Y-9889794D02*
X8023023Y-9937413D01*
X8023023Y-9937413D02*
X8013499Y-9975509D01*
X8013499Y-9975509D02*
X8003975Y-9994556D01*
X8003975Y-9994556D02*
X7994452Y-10004080D01*
X7994452Y-10004080D02*
X7975404Y-10013604D01*
X7975404Y-10013604D02*
X7956356Y-10013604D01*
X7956356Y-10013604D02*
X7937309Y-10004080D01*
X7937309Y-10004080D02*
X7927785Y-9994556D01*
X7927785Y-9994556D02*
X7918261Y-9975509D01*
X7918261Y-9975509D02*
X7908737Y-9937413D01*
X7908737Y-9937413D02*
X7908737Y-9889794D01*
X7908737Y-9889794D02*
X7918261Y-9851699D01*
X7918261Y-9851699D02*
X7927785Y-9832651D01*
X7927785Y-9832651D02*
X7937309Y-9823128D01*
X7937309Y-9823128D02*
X7956356Y-9813604D01*
X8108737Y-9994556D02*
X8118261Y-10004080D01*
X8118261Y-10004080D02*
X8108737Y-10013604D01*
X8108737Y-10013604D02*
X8099213Y-10004080D01*
X8099213Y-10004080D02*
X8108737Y-9994556D01*
X8108737Y-9994556D02*
X8108737Y-10013604D01*
X8242071Y-9813604D02*
X8261118Y-9813604D01*
X8261118Y-9813604D02*
X8280166Y-9823128D01*
X8280166Y-9823128D02*
X8289690Y-9832651D01*
X8289690Y-9832651D02*
X8299213Y-9851699D01*
X8299213Y-9851699D02*
X8308737Y-9889794D01*
X8308737Y-9889794D02*
X8308737Y-9937413D01*
X8308737Y-9937413D02*
X8299213Y-9975509D01*
X8299213Y-9975509D02*
X8289690Y-9994556D01*
X8289690Y-9994556D02*
X8280166Y-10004080D01*
X8280166Y-10004080D02*
X8261118Y-10013604D01*
X8261118Y-10013604D02*
X8242071Y-10013604D01*
X8242071Y-10013604D02*
X8223023Y-10004080D01*
X8223023Y-10004080D02*
X8213499Y-9994556D01*
X8213499Y-9994556D02*
X8203975Y-9975509D01*
X8203975Y-9975509D02*
X8194452Y-9937413D01*
X8194452Y-9937413D02*
X8194452Y-9889794D01*
X8194452Y-9889794D02*
X8203975Y-9851699D01*
X8203975Y-9851699D02*
X8213499Y-9832651D01*
X8213499Y-9832651D02*
X8223023Y-9823128D01*
X8223023Y-9823128D02*
X8242071Y-9813604D01*
X8499214Y-10013604D02*
X8384928Y-10013604D01*
X8442071Y-10013604D02*
X8442071Y-9813604D01*
X8442071Y-9813604D02*
X8423023Y-9842175D01*
X8423023Y-9842175D02*
X8403975Y-9861223D01*
X8403975Y-9861223D02*
X8384928Y-9870747D01*
X8689690Y-10013604D02*
X8575404Y-10013604D01*
X8632547Y-10013604D02*
X8632547Y-9813604D01*
X8632547Y-9813604D02*
X8613499Y-9842175D01*
X8613499Y-9842175D02*
X8594452Y-9861223D01*
X8594452Y-9861223D02*
X8575404Y-9870747D01*
X8803975Y-9899318D02*
X8784928Y-9889794D01*
X8784928Y-9889794D02*
X8775404Y-9880270D01*
X8775404Y-9880270D02*
X8765880Y-9861223D01*
X8765880Y-9861223D02*
X8765880Y-9851699D01*
X8765880Y-9851699D02*
X8775404Y-9832651D01*
X8775404Y-9832651D02*
X8784928Y-9823128D01*
X8784928Y-9823128D02*
X8803975Y-9813604D01*
X8803975Y-9813604D02*
X8842071Y-9813604D01*
X8842071Y-9813604D02*
X8861118Y-9823128D01*
X8861118Y-9823128D02*
X8870642Y-9832651D01*
X8870642Y-9832651D02*
X8880166Y-9851699D01*
X8880166Y-9851699D02*
X8880166Y-9861223D01*
X8880166Y-9861223D02*
X8870642Y-9880270D01*
X8870642Y-9880270D02*
X8861118Y-9889794D01*
X8861118Y-9889794D02*
X8842071Y-9899318D01*
X8842071Y-9899318D02*
X8803975Y-9899318D01*
X8803975Y-9899318D02*
X8784928Y-9908842D01*
X8784928Y-9908842D02*
X8775404Y-9918366D01*
X8775404Y-9918366D02*
X8765880Y-9937413D01*
X8765880Y-9937413D02*
X8765880Y-9975509D01*
X8765880Y-9975509D02*
X8775404Y-9994556D01*
X8775404Y-9994556D02*
X8784928Y-10004080D01*
X8784928Y-10004080D02*
X8803975Y-10013604D01*
X8803975Y-10013604D02*
X8842071Y-10013604D01*
X8842071Y-10013604D02*
X8861118Y-10004080D01*
X8861118Y-10004080D02*
X8870642Y-9994556D01*
X8870642Y-9994556D02*
X8880166Y-9975509D01*
X8880166Y-9975509D02*
X8880166Y-9937413D01*
X8880166Y-9937413D02*
X8870642Y-9918366D01*
X8870642Y-9918366D02*
X8861118Y-9908842D01*
X8861118Y-9908842D02*
X8842071Y-9899318D01*
X8956356Y-9813604D02*
X8956356Y-9851699D01*
X9032547Y-9813604D02*
X9032547Y-9851699D01*
X9327785Y-10089794D02*
X9318261Y-10080270D01*
X9318261Y-10080270D02*
X9299214Y-10051699D01*
X9299214Y-10051699D02*
X9289690Y-10032651D01*
X9289690Y-10032651D02*
X9280166Y-10004080D01*
X9280166Y-10004080D02*
X9270642Y-9956461D01*
X9270642Y-9956461D02*
X9270642Y-9918366D01*
X9270642Y-9918366D02*
X9280166Y-9870747D01*
X9280166Y-9870747D02*
X9289690Y-9842175D01*
X9289690Y-9842175D02*
X9299214Y-9823128D01*
X9299214Y-9823128D02*
X9318261Y-9794556D01*
X9318261Y-9794556D02*
X9327785Y-9785032D01*
X9508737Y-10013604D02*
X9394452Y-10013604D01*
X9451595Y-10013604D02*
X9451595Y-9813604D01*
X9451595Y-9813604D02*
X9432547Y-9842175D01*
X9432547Y-9842175D02*
X9413499Y-9861223D01*
X9413499Y-9861223D02*
X9394452Y-9870747D01*
X9632547Y-9813604D02*
X9651595Y-9813604D01*
X9651595Y-9813604D02*
X9670642Y-9823128D01*
X9670642Y-9823128D02*
X9680166Y-9832651D01*
X9680166Y-9832651D02*
X9689690Y-9851699D01*
X9689690Y-9851699D02*
X9699214Y-9889794D01*
X9699214Y-9889794D02*
X9699214Y-9937413D01*
X9699214Y-9937413D02*
X9689690Y-9975509D01*
X9689690Y-9975509D02*
X9680166Y-9994556D01*
X9680166Y-9994556D02*
X9670642Y-10004080D01*
X9670642Y-10004080D02*
X9651595Y-10013604D01*
X9651595Y-10013604D02*
X9632547Y-10013604D01*
X9632547Y-10013604D02*
X9613499Y-10004080D01*
X9613499Y-10004080D02*
X9603976Y-9994556D01*
X9603976Y-9994556D02*
X9594452Y-9975509D01*
X9594452Y-9975509D02*
X9584928Y-9937413D01*
X9584928Y-9937413D02*
X9584928Y-9889794D01*
X9584928Y-9889794D02*
X9594452Y-9851699D01*
X9594452Y-9851699D02*
X9603976Y-9832651D01*
X9603976Y-9832651D02*
X9613499Y-9823128D01*
X9613499Y-9823128D02*
X9632547Y-9813604D01*
X9765880Y-9813604D02*
X9899214Y-9813604D01*
X9899214Y-9813604D02*
X9813499Y-10013604D01*
X10127785Y-10013604D02*
X10127785Y-9813604D01*
X10213499Y-10013604D02*
X10213499Y-9908842D01*
X10213499Y-9908842D02*
X10203976Y-9889794D01*
X10203976Y-9889794D02*
X10184928Y-9880270D01*
X10184928Y-9880270D02*
X10156357Y-9880270D01*
X10156357Y-9880270D02*
X10137309Y-9889794D01*
X10137309Y-9889794D02*
X10127785Y-9899318D01*
X10337309Y-10013604D02*
X10318261Y-10004080D01*
X10318261Y-10004080D02*
X10308738Y-9994556D01*
X10308738Y-9994556D02*
X10299214Y-9975509D01*
X10299214Y-9975509D02*
X10299214Y-9918366D01*
X10299214Y-9918366D02*
X10308738Y-9899318D01*
X10308738Y-9899318D02*
X10318261Y-9889794D01*
X10318261Y-9889794D02*
X10337309Y-9880270D01*
X10337309Y-9880270D02*
X10365880Y-9880270D01*
X10365880Y-9880270D02*
X10384928Y-9889794D01*
X10384928Y-9889794D02*
X10394452Y-9899318D01*
X10394452Y-9899318D02*
X10403976Y-9918366D01*
X10403976Y-9918366D02*
X10403976Y-9975509D01*
X10403976Y-9975509D02*
X10394452Y-9994556D01*
X10394452Y-9994556D02*
X10384928Y-10004080D01*
X10384928Y-10004080D02*
X10365880Y-10013604D01*
X10365880Y-10013604D02*
X10337309Y-10013604D01*
X10518261Y-10013604D02*
X10499214Y-10004080D01*
X10499214Y-10004080D02*
X10489690Y-9985032D01*
X10489690Y-9985032D02*
X10489690Y-9813604D01*
X10670642Y-10004080D02*
X10651595Y-10013604D01*
X10651595Y-10013604D02*
X10613499Y-10013604D01*
X10613499Y-10013604D02*
X10594452Y-10004080D01*
X10594452Y-10004080D02*
X10584928Y-9985032D01*
X10584928Y-9985032D02*
X10584928Y-9908842D01*
X10584928Y-9908842D02*
X10594452Y-9889794D01*
X10594452Y-9889794D02*
X10613499Y-9880270D01*
X10613499Y-9880270D02*
X10651595Y-9880270D01*
X10651595Y-9880270D02*
X10670642Y-9889794D01*
X10670642Y-9889794D02*
X10680166Y-9908842D01*
X10680166Y-9908842D02*
X10680166Y-9927890D01*
X10680166Y-9927890D02*
X10584928Y-9946937D01*
X10756357Y-10004080D02*
X10775404Y-10013604D01*
X10775404Y-10013604D02*
X10813499Y-10013604D01*
X10813499Y-10013604D02*
X10832547Y-10004080D01*
X10832547Y-10004080D02*
X10842071Y-9985032D01*
X10842071Y-9985032D02*
X10842071Y-9975509D01*
X10842071Y-9975509D02*
X10832547Y-9956461D01*
X10832547Y-9956461D02*
X10813499Y-9946937D01*
X10813499Y-9946937D02*
X10784928Y-9946937D01*
X10784928Y-9946937D02*
X10765880Y-9937413D01*
X10765880Y-9937413D02*
X10756357Y-9918366D01*
X10756357Y-9918366D02*
X10756357Y-9908842D01*
X10756357Y-9908842D02*
X10765880Y-9889794D01*
X10765880Y-9889794D02*
X10784928Y-9880270D01*
X10784928Y-9880270D02*
X10813499Y-9880270D01*
X10813499Y-9880270D02*
X10832547Y-9889794D01*
X10908738Y-10089794D02*
X10918261Y-10080270D01*
X10918261Y-10080270D02*
X10937309Y-10051699D01*
X10937309Y-10051699D02*
X10946833Y-10032651D01*
X10946833Y-10032651D02*
X10956357Y-10004080D01*
X10956357Y-10004080D02*
X10965880Y-9956461D01*
X10965880Y-9956461D02*
X10965880Y-9918366D01*
X10965880Y-9918366D02*
X10956357Y-9870747D01*
X10956357Y-9870747D02*
X10946833Y-9842175D01*
X10946833Y-9842175D02*
X10937309Y-9823128D01*
X10937309Y-9823128D02*
X10918261Y-9794556D01*
X10918261Y-9794556D02*
X10908738Y-9785032D01*
D13*
X5765880Y-10185080D02*
G75*
G03*
X5765880Y-10185080I-30000J0D01*
G01*
D11*
X6051594Y-10077604D02*
X6070642Y-10077604D01*
X6070642Y-10077604D02*
X6089689Y-10087128D01*
X6089689Y-10087128D02*
X6099213Y-10096651D01*
X6099213Y-10096651D02*
X6108737Y-10115699D01*
X6108737Y-10115699D02*
X6118261Y-10153794D01*
X6118261Y-10153794D02*
X6118261Y-10201413D01*
X6118261Y-10201413D02*
X6108737Y-10239509D01*
X6108737Y-10239509D02*
X6099213Y-10258556D01*
X6099213Y-10258556D02*
X6089689Y-10268080D01*
X6089689Y-10268080D02*
X6070642Y-10277604D01*
X6070642Y-10277604D02*
X6051594Y-10277604D01*
X6051594Y-10277604D02*
X6032547Y-10268080D01*
X6032547Y-10268080D02*
X6023023Y-10258556D01*
X6023023Y-10258556D02*
X6013499Y-10239509D01*
X6013499Y-10239509D02*
X6003975Y-10201413D01*
X6003975Y-10201413D02*
X6003975Y-10153794D01*
X6003975Y-10153794D02*
X6013499Y-10115699D01*
X6013499Y-10115699D02*
X6023023Y-10096651D01*
X6023023Y-10096651D02*
X6032547Y-10087128D01*
X6032547Y-10087128D02*
X6051594Y-10077604D01*
X6203975Y-10258556D02*
X6213499Y-10268080D01*
X6213499Y-10268080D02*
X6203975Y-10277604D01*
X6203975Y-10277604D02*
X6194451Y-10268080D01*
X6194451Y-10268080D02*
X6203975Y-10258556D01*
X6203975Y-10258556D02*
X6203975Y-10277604D01*
X6384928Y-10077604D02*
X6346832Y-10077604D01*
X6346832Y-10077604D02*
X6327785Y-10087128D01*
X6327785Y-10087128D02*
X6318261Y-10096651D01*
X6318261Y-10096651D02*
X6299213Y-10125223D01*
X6299213Y-10125223D02*
X6289689Y-10163318D01*
X6289689Y-10163318D02*
X6289689Y-10239509D01*
X6289689Y-10239509D02*
X6299213Y-10258556D01*
X6299213Y-10258556D02*
X6308737Y-10268080D01*
X6308737Y-10268080D02*
X6327785Y-10277604D01*
X6327785Y-10277604D02*
X6365880Y-10277604D01*
X6365880Y-10277604D02*
X6384928Y-10268080D01*
X6384928Y-10268080D02*
X6394451Y-10258556D01*
X6394451Y-10258556D02*
X6403975Y-10239509D01*
X6403975Y-10239509D02*
X6403975Y-10191890D01*
X6403975Y-10191890D02*
X6394451Y-10172842D01*
X6394451Y-10172842D02*
X6384928Y-10163318D01*
X6384928Y-10163318D02*
X6365880Y-10153794D01*
X6365880Y-10153794D02*
X6327785Y-10153794D01*
X6327785Y-10153794D02*
X6308737Y-10163318D01*
X6308737Y-10163318D02*
X6299213Y-10172842D01*
X6299213Y-10172842D02*
X6289689Y-10191890D01*
X6527785Y-10077604D02*
X6546832Y-10077604D01*
X6546832Y-10077604D02*
X6565880Y-10087128D01*
X6565880Y-10087128D02*
X6575404Y-10096651D01*
X6575404Y-10096651D02*
X6584928Y-10115699D01*
X6584928Y-10115699D02*
X6594451Y-10153794D01*
X6594451Y-10153794D02*
X6594451Y-10201413D01*
X6594451Y-10201413D02*
X6584928Y-10239509D01*
X6584928Y-10239509D02*
X6575404Y-10258556D01*
X6575404Y-10258556D02*
X6565880Y-10268080D01*
X6565880Y-10268080D02*
X6546832Y-10277604D01*
X6546832Y-10277604D02*
X6527785Y-10277604D01*
X6527785Y-10277604D02*
X6508737Y-10268080D01*
X6508737Y-10268080D02*
X6499213Y-10258556D01*
X6499213Y-10258556D02*
X6489689Y-10239509D01*
X6489689Y-10239509D02*
X6480166Y-10201413D01*
X6480166Y-10201413D02*
X6480166Y-10153794D01*
X6480166Y-10153794D02*
X6489689Y-10115699D01*
X6489689Y-10115699D02*
X6499213Y-10096651D01*
X6499213Y-10096651D02*
X6508737Y-10087128D01*
X6508737Y-10087128D02*
X6527785Y-10077604D01*
X6718261Y-10077604D02*
X6737309Y-10077604D01*
X6737309Y-10077604D02*
X6756356Y-10087128D01*
X6756356Y-10087128D02*
X6765880Y-10096651D01*
X6765880Y-10096651D02*
X6775404Y-10115699D01*
X6775404Y-10115699D02*
X6784928Y-10153794D01*
X6784928Y-10153794D02*
X6784928Y-10201413D01*
X6784928Y-10201413D02*
X6775404Y-10239509D01*
X6775404Y-10239509D02*
X6765880Y-10258556D01*
X6765880Y-10258556D02*
X6756356Y-10268080D01*
X6756356Y-10268080D02*
X6737309Y-10277604D01*
X6737309Y-10277604D02*
X6718261Y-10277604D01*
X6718261Y-10277604D02*
X6699213Y-10268080D01*
X6699213Y-10268080D02*
X6689689Y-10258556D01*
X6689689Y-10258556D02*
X6680166Y-10239509D01*
X6680166Y-10239509D02*
X6670642Y-10201413D01*
X6670642Y-10201413D02*
X6670642Y-10153794D01*
X6670642Y-10153794D02*
X6680166Y-10115699D01*
X6680166Y-10115699D02*
X6689689Y-10096651D01*
X6689689Y-10096651D02*
X6699213Y-10087128D01*
X6699213Y-10087128D02*
X6718261Y-10077604D01*
X6870642Y-10277604D02*
X6870642Y-10144270D01*
X6870642Y-10163318D02*
X6880166Y-10153794D01*
X6880166Y-10153794D02*
X6899213Y-10144270D01*
X6899213Y-10144270D02*
X6927785Y-10144270D01*
X6927785Y-10144270D02*
X6946832Y-10153794D01*
X6946832Y-10153794D02*
X6956356Y-10172842D01*
X6956356Y-10172842D02*
X6956356Y-10277604D01*
X6956356Y-10172842D02*
X6965880Y-10153794D01*
X6965880Y-10153794D02*
X6984928Y-10144270D01*
X6984928Y-10144270D02*
X7013499Y-10144270D01*
X7013499Y-10144270D02*
X7032547Y-10153794D01*
X7032547Y-10153794D02*
X7042070Y-10172842D01*
X7042070Y-10172842D02*
X7042070Y-10277604D01*
X7137309Y-10277604D02*
X7137309Y-10144270D01*
X7137309Y-10163318D02*
X7146832Y-10153794D01*
X7146832Y-10153794D02*
X7165880Y-10144270D01*
X7165880Y-10144270D02*
X7194451Y-10144270D01*
X7194451Y-10144270D02*
X7213499Y-10153794D01*
X7213499Y-10153794D02*
X7223023Y-10172842D01*
X7223023Y-10172842D02*
X7223023Y-10277604D01*
X7223023Y-10172842D02*
X7232547Y-10153794D01*
X7232547Y-10153794D02*
X7251594Y-10144270D01*
X7251594Y-10144270D02*
X7280166Y-10144270D01*
X7280166Y-10144270D02*
X7299213Y-10153794D01*
X7299213Y-10153794D02*
X7308737Y-10172842D01*
X7308737Y-10172842D02*
X7308737Y-10277604D01*
X7699213Y-10068080D02*
X7527785Y-10325223D01*
X7956356Y-10077604D02*
X7975404Y-10077604D01*
X7975404Y-10077604D02*
X7994452Y-10087128D01*
X7994452Y-10087128D02*
X8003975Y-10096651D01*
X8003975Y-10096651D02*
X8013499Y-10115699D01*
X8013499Y-10115699D02*
X8023023Y-10153794D01*
X8023023Y-10153794D02*
X8023023Y-10201413D01*
X8023023Y-10201413D02*
X8013499Y-10239509D01*
X8013499Y-10239509D02*
X8003975Y-10258556D01*
X8003975Y-10258556D02*
X7994452Y-10268080D01*
X7994452Y-10268080D02*
X7975404Y-10277604D01*
X7975404Y-10277604D02*
X7956356Y-10277604D01*
X7956356Y-10277604D02*
X7937309Y-10268080D01*
X7937309Y-10268080D02*
X7927785Y-10258556D01*
X7927785Y-10258556D02*
X7918261Y-10239509D01*
X7918261Y-10239509D02*
X7908737Y-10201413D01*
X7908737Y-10201413D02*
X7908737Y-10153794D01*
X7908737Y-10153794D02*
X7918261Y-10115699D01*
X7918261Y-10115699D02*
X7927785Y-10096651D01*
X7927785Y-10096651D02*
X7937309Y-10087128D01*
X7937309Y-10087128D02*
X7956356Y-10077604D01*
X8108737Y-10258556D02*
X8118261Y-10268080D01*
X8118261Y-10268080D02*
X8108737Y-10277604D01*
X8108737Y-10277604D02*
X8099213Y-10268080D01*
X8099213Y-10268080D02*
X8108737Y-10258556D01*
X8108737Y-10258556D02*
X8108737Y-10277604D01*
X8242071Y-10077604D02*
X8261118Y-10077604D01*
X8261118Y-10077604D02*
X8280166Y-10087128D01*
X8280166Y-10087128D02*
X8289690Y-10096651D01*
X8289690Y-10096651D02*
X8299213Y-10115699D01*
X8299213Y-10115699D02*
X8308737Y-10153794D01*
X8308737Y-10153794D02*
X8308737Y-10201413D01*
X8308737Y-10201413D02*
X8299213Y-10239509D01*
X8299213Y-10239509D02*
X8289690Y-10258556D01*
X8289690Y-10258556D02*
X8280166Y-10268080D01*
X8280166Y-10268080D02*
X8261118Y-10277604D01*
X8261118Y-10277604D02*
X8242071Y-10277604D01*
X8242071Y-10277604D02*
X8223023Y-10268080D01*
X8223023Y-10268080D02*
X8213499Y-10258556D01*
X8213499Y-10258556D02*
X8203975Y-10239509D01*
X8203975Y-10239509D02*
X8194452Y-10201413D01*
X8194452Y-10201413D02*
X8194452Y-10153794D01*
X8194452Y-10153794D02*
X8203975Y-10115699D01*
X8203975Y-10115699D02*
X8213499Y-10096651D01*
X8213499Y-10096651D02*
X8223023Y-10087128D01*
X8223023Y-10087128D02*
X8242071Y-10077604D01*
X8384928Y-10096651D02*
X8394452Y-10087128D01*
X8394452Y-10087128D02*
X8413499Y-10077604D01*
X8413499Y-10077604D02*
X8461118Y-10077604D01*
X8461118Y-10077604D02*
X8480166Y-10087128D01*
X8480166Y-10087128D02*
X8489690Y-10096651D01*
X8489690Y-10096651D02*
X8499214Y-10115699D01*
X8499214Y-10115699D02*
X8499214Y-10134747D01*
X8499214Y-10134747D02*
X8489690Y-10163318D01*
X8489690Y-10163318D02*
X8375404Y-10277604D01*
X8375404Y-10277604D02*
X8499214Y-10277604D01*
X8565880Y-10077604D02*
X8689690Y-10077604D01*
X8689690Y-10077604D02*
X8623023Y-10153794D01*
X8623023Y-10153794D02*
X8651595Y-10153794D01*
X8651595Y-10153794D02*
X8670642Y-10163318D01*
X8670642Y-10163318D02*
X8680166Y-10172842D01*
X8680166Y-10172842D02*
X8689690Y-10191890D01*
X8689690Y-10191890D02*
X8689690Y-10239509D01*
X8689690Y-10239509D02*
X8680166Y-10258556D01*
X8680166Y-10258556D02*
X8670642Y-10268080D01*
X8670642Y-10268080D02*
X8651595Y-10277604D01*
X8651595Y-10277604D02*
X8594452Y-10277604D01*
X8594452Y-10277604D02*
X8575404Y-10268080D01*
X8575404Y-10268080D02*
X8565880Y-10258556D01*
X8861118Y-10077604D02*
X8823023Y-10077604D01*
X8823023Y-10077604D02*
X8803975Y-10087128D01*
X8803975Y-10087128D02*
X8794452Y-10096651D01*
X8794452Y-10096651D02*
X8775404Y-10125223D01*
X8775404Y-10125223D02*
X8765880Y-10163318D01*
X8765880Y-10163318D02*
X8765880Y-10239509D01*
X8765880Y-10239509D02*
X8775404Y-10258556D01*
X8775404Y-10258556D02*
X8784928Y-10268080D01*
X8784928Y-10268080D02*
X8803975Y-10277604D01*
X8803975Y-10277604D02*
X8842071Y-10277604D01*
X8842071Y-10277604D02*
X8861118Y-10268080D01*
X8861118Y-10268080D02*
X8870642Y-10258556D01*
X8870642Y-10258556D02*
X8880166Y-10239509D01*
X8880166Y-10239509D02*
X8880166Y-10191890D01*
X8880166Y-10191890D02*
X8870642Y-10172842D01*
X8870642Y-10172842D02*
X8861118Y-10163318D01*
X8861118Y-10163318D02*
X8842071Y-10153794D01*
X8842071Y-10153794D02*
X8803975Y-10153794D01*
X8803975Y-10153794D02*
X8784928Y-10163318D01*
X8784928Y-10163318D02*
X8775404Y-10172842D01*
X8775404Y-10172842D02*
X8765880Y-10191890D01*
X8956356Y-10077604D02*
X8956356Y-10115699D01*
X9032547Y-10077604D02*
X9032547Y-10115699D01*
X9327785Y-10353794D02*
X9318261Y-10344270D01*
X9318261Y-10344270D02*
X9299214Y-10315699D01*
X9299214Y-10315699D02*
X9289690Y-10296651D01*
X9289690Y-10296651D02*
X9280166Y-10268080D01*
X9280166Y-10268080D02*
X9270642Y-10220461D01*
X9270642Y-10220461D02*
X9270642Y-10182366D01*
X9270642Y-10182366D02*
X9280166Y-10134747D01*
X9280166Y-10134747D02*
X9289690Y-10106175D01*
X9289690Y-10106175D02*
X9299214Y-10087128D01*
X9299214Y-10087128D02*
X9318261Y-10058556D01*
X9318261Y-10058556D02*
X9327785Y-10049032D01*
X9442071Y-10077604D02*
X9461118Y-10077604D01*
X9461118Y-10077604D02*
X9480166Y-10087128D01*
X9480166Y-10087128D02*
X9489690Y-10096651D01*
X9489690Y-10096651D02*
X9499214Y-10115699D01*
X9499214Y-10115699D02*
X9508737Y-10153794D01*
X9508737Y-10153794D02*
X9508737Y-10201413D01*
X9508737Y-10201413D02*
X9499214Y-10239509D01*
X9499214Y-10239509D02*
X9489690Y-10258556D01*
X9489690Y-10258556D02*
X9480166Y-10268080D01*
X9480166Y-10268080D02*
X9461118Y-10277604D01*
X9461118Y-10277604D02*
X9442071Y-10277604D01*
X9442071Y-10277604D02*
X9423023Y-10268080D01*
X9423023Y-10268080D02*
X9413499Y-10258556D01*
X9413499Y-10258556D02*
X9403976Y-10239509D01*
X9403976Y-10239509D02*
X9394452Y-10201413D01*
X9394452Y-10201413D02*
X9394452Y-10153794D01*
X9394452Y-10153794D02*
X9403976Y-10115699D01*
X9403976Y-10115699D02*
X9413499Y-10096651D01*
X9413499Y-10096651D02*
X9423023Y-10087128D01*
X9423023Y-10087128D02*
X9442071Y-10077604D01*
X9746833Y-10277604D02*
X9746833Y-10077604D01*
X9832547Y-10277604D02*
X9832547Y-10172842D01*
X9832547Y-10172842D02*
X9823023Y-10153794D01*
X9823023Y-10153794D02*
X9803976Y-10144270D01*
X9803976Y-10144270D02*
X9775404Y-10144270D01*
X9775404Y-10144270D02*
X9756357Y-10153794D01*
X9756357Y-10153794D02*
X9746833Y-10163318D01*
X9956357Y-10277604D02*
X9937309Y-10268080D01*
X9937309Y-10268080D02*
X9927785Y-10258556D01*
X9927785Y-10258556D02*
X9918261Y-10239509D01*
X9918261Y-10239509D02*
X9918261Y-10182366D01*
X9918261Y-10182366D02*
X9927785Y-10163318D01*
X9927785Y-10163318D02*
X9937309Y-10153794D01*
X9937309Y-10153794D02*
X9956357Y-10144270D01*
X9956357Y-10144270D02*
X9984928Y-10144270D01*
X9984928Y-10144270D02*
X10003976Y-10153794D01*
X10003976Y-10153794D02*
X10013499Y-10163318D01*
X10013499Y-10163318D02*
X10023023Y-10182366D01*
X10023023Y-10182366D02*
X10023023Y-10239509D01*
X10023023Y-10239509D02*
X10013499Y-10258556D01*
X10013499Y-10258556D02*
X10003976Y-10268080D01*
X10003976Y-10268080D02*
X9984928Y-10277604D01*
X9984928Y-10277604D02*
X9956357Y-10277604D01*
X10137309Y-10277604D02*
X10118261Y-10268080D01*
X10118261Y-10268080D02*
X10108738Y-10249032D01*
X10108738Y-10249032D02*
X10108738Y-10077604D01*
X10289690Y-10268080D02*
X10270642Y-10277604D01*
X10270642Y-10277604D02*
X10232547Y-10277604D01*
X10232547Y-10277604D02*
X10213499Y-10268080D01*
X10213499Y-10268080D02*
X10203976Y-10249032D01*
X10203976Y-10249032D02*
X10203976Y-10172842D01*
X10203976Y-10172842D02*
X10213499Y-10153794D01*
X10213499Y-10153794D02*
X10232547Y-10144270D01*
X10232547Y-10144270D02*
X10270642Y-10144270D01*
X10270642Y-10144270D02*
X10289690Y-10153794D01*
X10289690Y-10153794D02*
X10299214Y-10172842D01*
X10299214Y-10172842D02*
X10299214Y-10191890D01*
X10299214Y-10191890D02*
X10203976Y-10210937D01*
X10375404Y-10268080D02*
X10394452Y-10277604D01*
X10394452Y-10277604D02*
X10432547Y-10277604D01*
X10432547Y-10277604D02*
X10451595Y-10268080D01*
X10451595Y-10268080D02*
X10461119Y-10249032D01*
X10461119Y-10249032D02*
X10461119Y-10239509D01*
X10461119Y-10239509D02*
X10451595Y-10220461D01*
X10451595Y-10220461D02*
X10432547Y-10210937D01*
X10432547Y-10210937D02*
X10403976Y-10210937D01*
X10403976Y-10210937D02*
X10384928Y-10201413D01*
X10384928Y-10201413D02*
X10375404Y-10182366D01*
X10375404Y-10182366D02*
X10375404Y-10172842D01*
X10375404Y-10172842D02*
X10384928Y-10153794D01*
X10384928Y-10153794D02*
X10403976Y-10144270D01*
X10403976Y-10144270D02*
X10432547Y-10144270D01*
X10432547Y-10144270D02*
X10451595Y-10153794D01*
X10699214Y-10201413D02*
X10851595Y-10201413D01*
X10775404Y-10277604D02*
X10775404Y-10125223D01*
X11184928Y-10144270D02*
X11184928Y-10277604D01*
X11137309Y-10068080D02*
X11089690Y-10210937D01*
X11089690Y-10210937D02*
X11213499Y-10210937D01*
X11432547Y-10268080D02*
X11451595Y-10277604D01*
X11451595Y-10277604D02*
X11489690Y-10277604D01*
X11489690Y-10277604D02*
X11508738Y-10268080D01*
X11508738Y-10268080D02*
X11518261Y-10249032D01*
X11518261Y-10249032D02*
X11518261Y-10239509D01*
X11518261Y-10239509D02*
X11508738Y-10220461D01*
X11508738Y-10220461D02*
X11489690Y-10210937D01*
X11489690Y-10210937D02*
X11461119Y-10210937D01*
X11461119Y-10210937D02*
X11442071Y-10201413D01*
X11442071Y-10201413D02*
X11432547Y-10182366D01*
X11432547Y-10182366D02*
X11432547Y-10172842D01*
X11432547Y-10172842D02*
X11442071Y-10153794D01*
X11442071Y-10153794D02*
X11461119Y-10144270D01*
X11461119Y-10144270D02*
X11489690Y-10144270D01*
X11489690Y-10144270D02*
X11508738Y-10153794D01*
X11632547Y-10277604D02*
X11613500Y-10268080D01*
X11613500Y-10268080D02*
X11603976Y-10249032D01*
X11603976Y-10249032D02*
X11603976Y-10077604D01*
X11737309Y-10277604D02*
X11718261Y-10268080D01*
X11718261Y-10268080D02*
X11708738Y-10258556D01*
X11708738Y-10258556D02*
X11699214Y-10239509D01*
X11699214Y-10239509D02*
X11699214Y-10182366D01*
X11699214Y-10182366D02*
X11708738Y-10163318D01*
X11708738Y-10163318D02*
X11718261Y-10153794D01*
X11718261Y-10153794D02*
X11737309Y-10144270D01*
X11737309Y-10144270D02*
X11765881Y-10144270D01*
X11765881Y-10144270D02*
X11784928Y-10153794D01*
X11784928Y-10153794D02*
X11794452Y-10163318D01*
X11794452Y-10163318D02*
X11803976Y-10182366D01*
X11803976Y-10182366D02*
X11803976Y-10239509D01*
X11803976Y-10239509D02*
X11794452Y-10258556D01*
X11794452Y-10258556D02*
X11784928Y-10268080D01*
X11784928Y-10268080D02*
X11765881Y-10277604D01*
X11765881Y-10277604D02*
X11737309Y-10277604D01*
X11861119Y-10144270D02*
X11937309Y-10144270D01*
X11889690Y-10077604D02*
X11889690Y-10249032D01*
X11889690Y-10249032D02*
X11899214Y-10268080D01*
X11899214Y-10268080D02*
X11918261Y-10277604D01*
X11918261Y-10277604D02*
X11937309Y-10277604D01*
X11994452Y-10268080D02*
X12013500Y-10277604D01*
X12013500Y-10277604D02*
X12051595Y-10277604D01*
X12051595Y-10277604D02*
X12070642Y-10268080D01*
X12070642Y-10268080D02*
X12080166Y-10249032D01*
X12080166Y-10249032D02*
X12080166Y-10239509D01*
X12080166Y-10239509D02*
X12070642Y-10220461D01*
X12070642Y-10220461D02*
X12051595Y-10210937D01*
X12051595Y-10210937D02*
X12023023Y-10210937D01*
X12023023Y-10210937D02*
X12003976Y-10201413D01*
X12003976Y-10201413D02*
X11994452Y-10182366D01*
X11994452Y-10182366D02*
X11994452Y-10172842D01*
X11994452Y-10172842D02*
X12003976Y-10153794D01*
X12003976Y-10153794D02*
X12023023Y-10144270D01*
X12023023Y-10144270D02*
X12051595Y-10144270D01*
X12051595Y-10144270D02*
X12070642Y-10153794D01*
X12146833Y-10353794D02*
X12156357Y-10344270D01*
X12156357Y-10344270D02*
X12175404Y-10315699D01*
X12175404Y-10315699D02*
X12184928Y-10296651D01*
X12184928Y-10296651D02*
X12194452Y-10268080D01*
X12194452Y-10268080D02*
X12203976Y-10220461D01*
X12203976Y-10220461D02*
X12203976Y-10182366D01*
X12203976Y-10182366D02*
X12194452Y-10134747D01*
X12194452Y-10134747D02*
X12184928Y-10106175D01*
X12184928Y-10106175D02*
X12175404Y-10087128D01*
X12175404Y-10087128D02*
X12156357Y-10058556D01*
X12156357Y-10058556D02*
X12146833Y-10049032D01*
D14*
X5730880Y-10414080D02*
X5730880Y-10484080D01*
X5695880Y-10449080D02*
X5765880Y-10449080D01*
D11*
X6051594Y-10341604D02*
X6070642Y-10341604D01*
X6070642Y-10341604D02*
X6089689Y-10351128D01*
X6089689Y-10351128D02*
X6099213Y-10360651D01*
X6099213Y-10360651D02*
X6108737Y-10379699D01*
X6108737Y-10379699D02*
X6118261Y-10417794D01*
X6118261Y-10417794D02*
X6118261Y-10465413D01*
X6118261Y-10465413D02*
X6108737Y-10503509D01*
X6108737Y-10503509D02*
X6099213Y-10522556D01*
X6099213Y-10522556D02*
X6089689Y-10532080D01*
X6089689Y-10532080D02*
X6070642Y-10541604D01*
X6070642Y-10541604D02*
X6051594Y-10541604D01*
X6051594Y-10541604D02*
X6032547Y-10532080D01*
X6032547Y-10532080D02*
X6023023Y-10522556D01*
X6023023Y-10522556D02*
X6013499Y-10503509D01*
X6013499Y-10503509D02*
X6003975Y-10465413D01*
X6003975Y-10465413D02*
X6003975Y-10417794D01*
X6003975Y-10417794D02*
X6013499Y-10379699D01*
X6013499Y-10379699D02*
X6023023Y-10360651D01*
X6023023Y-10360651D02*
X6032547Y-10351128D01*
X6032547Y-10351128D02*
X6051594Y-10341604D01*
X6203975Y-10522556D02*
X6213499Y-10532080D01*
X6213499Y-10532080D02*
X6203975Y-10541604D01*
X6203975Y-10541604D02*
X6194451Y-10532080D01*
X6194451Y-10532080D02*
X6203975Y-10522556D01*
X6203975Y-10522556D02*
X6203975Y-10541604D01*
X6280166Y-10341604D02*
X6413499Y-10341604D01*
X6413499Y-10341604D02*
X6327785Y-10541604D01*
X6527785Y-10341604D02*
X6546832Y-10341604D01*
X6546832Y-10341604D02*
X6565880Y-10351128D01*
X6565880Y-10351128D02*
X6575404Y-10360651D01*
X6575404Y-10360651D02*
X6584928Y-10379699D01*
X6584928Y-10379699D02*
X6594451Y-10417794D01*
X6594451Y-10417794D02*
X6594451Y-10465413D01*
X6594451Y-10465413D02*
X6584928Y-10503509D01*
X6584928Y-10503509D02*
X6575404Y-10522556D01*
X6575404Y-10522556D02*
X6565880Y-10532080D01*
X6565880Y-10532080D02*
X6546832Y-10541604D01*
X6546832Y-10541604D02*
X6527785Y-10541604D01*
X6527785Y-10541604D02*
X6508737Y-10532080D01*
X6508737Y-10532080D02*
X6499213Y-10522556D01*
X6499213Y-10522556D02*
X6489689Y-10503509D01*
X6489689Y-10503509D02*
X6480166Y-10465413D01*
X6480166Y-10465413D02*
X6480166Y-10417794D01*
X6480166Y-10417794D02*
X6489689Y-10379699D01*
X6489689Y-10379699D02*
X6499213Y-10360651D01*
X6499213Y-10360651D02*
X6508737Y-10351128D01*
X6508737Y-10351128D02*
X6527785Y-10341604D01*
X6718261Y-10341604D02*
X6737309Y-10341604D01*
X6737309Y-10341604D02*
X6756356Y-10351128D01*
X6756356Y-10351128D02*
X6765880Y-10360651D01*
X6765880Y-10360651D02*
X6775404Y-10379699D01*
X6775404Y-10379699D02*
X6784928Y-10417794D01*
X6784928Y-10417794D02*
X6784928Y-10465413D01*
X6784928Y-10465413D02*
X6775404Y-10503509D01*
X6775404Y-10503509D02*
X6765880Y-10522556D01*
X6765880Y-10522556D02*
X6756356Y-10532080D01*
X6756356Y-10532080D02*
X6737309Y-10541604D01*
X6737309Y-10541604D02*
X6718261Y-10541604D01*
X6718261Y-10541604D02*
X6699213Y-10532080D01*
X6699213Y-10532080D02*
X6689689Y-10522556D01*
X6689689Y-10522556D02*
X6680166Y-10503509D01*
X6680166Y-10503509D02*
X6670642Y-10465413D01*
X6670642Y-10465413D02*
X6670642Y-10417794D01*
X6670642Y-10417794D02*
X6680166Y-10379699D01*
X6680166Y-10379699D02*
X6689689Y-10360651D01*
X6689689Y-10360651D02*
X6699213Y-10351128D01*
X6699213Y-10351128D02*
X6718261Y-10341604D01*
X6870642Y-10541604D02*
X6870642Y-10408270D01*
X6870642Y-10427318D02*
X6880166Y-10417794D01*
X6880166Y-10417794D02*
X6899213Y-10408270D01*
X6899213Y-10408270D02*
X6927785Y-10408270D01*
X6927785Y-10408270D02*
X6946832Y-10417794D01*
X6946832Y-10417794D02*
X6956356Y-10436842D01*
X6956356Y-10436842D02*
X6956356Y-10541604D01*
X6956356Y-10436842D02*
X6965880Y-10417794D01*
X6965880Y-10417794D02*
X6984928Y-10408270D01*
X6984928Y-10408270D02*
X7013499Y-10408270D01*
X7013499Y-10408270D02*
X7032547Y-10417794D01*
X7032547Y-10417794D02*
X7042070Y-10436842D01*
X7042070Y-10436842D02*
X7042070Y-10541604D01*
X7137309Y-10541604D02*
X7137309Y-10408270D01*
X7137309Y-10427318D02*
X7146832Y-10417794D01*
X7146832Y-10417794D02*
X7165880Y-10408270D01*
X7165880Y-10408270D02*
X7194451Y-10408270D01*
X7194451Y-10408270D02*
X7213499Y-10417794D01*
X7213499Y-10417794D02*
X7223023Y-10436842D01*
X7223023Y-10436842D02*
X7223023Y-10541604D01*
X7223023Y-10436842D02*
X7232547Y-10417794D01*
X7232547Y-10417794D02*
X7251594Y-10408270D01*
X7251594Y-10408270D02*
X7280166Y-10408270D01*
X7280166Y-10408270D02*
X7299213Y-10417794D01*
X7299213Y-10417794D02*
X7308737Y-10436842D01*
X7308737Y-10436842D02*
X7308737Y-10541604D01*
X7699213Y-10332080D02*
X7527785Y-10589223D01*
X7956356Y-10341604D02*
X7975404Y-10341604D01*
X7975404Y-10341604D02*
X7994452Y-10351128D01*
X7994452Y-10351128D02*
X8003975Y-10360651D01*
X8003975Y-10360651D02*
X8013499Y-10379699D01*
X8013499Y-10379699D02*
X8023023Y-10417794D01*
X8023023Y-10417794D02*
X8023023Y-10465413D01*
X8023023Y-10465413D02*
X8013499Y-10503509D01*
X8013499Y-10503509D02*
X8003975Y-10522556D01*
X8003975Y-10522556D02*
X7994452Y-10532080D01*
X7994452Y-10532080D02*
X7975404Y-10541604D01*
X7975404Y-10541604D02*
X7956356Y-10541604D01*
X7956356Y-10541604D02*
X7937309Y-10532080D01*
X7937309Y-10532080D02*
X7927785Y-10522556D01*
X7927785Y-10522556D02*
X7918261Y-10503509D01*
X7918261Y-10503509D02*
X7908737Y-10465413D01*
X7908737Y-10465413D02*
X7908737Y-10417794D01*
X7908737Y-10417794D02*
X7918261Y-10379699D01*
X7918261Y-10379699D02*
X7927785Y-10360651D01*
X7927785Y-10360651D02*
X7937309Y-10351128D01*
X7937309Y-10351128D02*
X7956356Y-10341604D01*
X8108737Y-10522556D02*
X8118261Y-10532080D01*
X8118261Y-10532080D02*
X8108737Y-10541604D01*
X8108737Y-10541604D02*
X8099213Y-10532080D01*
X8099213Y-10532080D02*
X8108737Y-10522556D01*
X8108737Y-10522556D02*
X8108737Y-10541604D01*
X8242071Y-10341604D02*
X8261118Y-10341604D01*
X8261118Y-10341604D02*
X8280166Y-10351128D01*
X8280166Y-10351128D02*
X8289690Y-10360651D01*
X8289690Y-10360651D02*
X8299213Y-10379699D01*
X8299213Y-10379699D02*
X8308737Y-10417794D01*
X8308737Y-10417794D02*
X8308737Y-10465413D01*
X8308737Y-10465413D02*
X8299213Y-10503509D01*
X8299213Y-10503509D02*
X8289690Y-10522556D01*
X8289690Y-10522556D02*
X8280166Y-10532080D01*
X8280166Y-10532080D02*
X8261118Y-10541604D01*
X8261118Y-10541604D02*
X8242071Y-10541604D01*
X8242071Y-10541604D02*
X8223023Y-10532080D01*
X8223023Y-10532080D02*
X8213499Y-10522556D01*
X8213499Y-10522556D02*
X8203975Y-10503509D01*
X8203975Y-10503509D02*
X8194452Y-10465413D01*
X8194452Y-10465413D02*
X8194452Y-10417794D01*
X8194452Y-10417794D02*
X8203975Y-10379699D01*
X8203975Y-10379699D02*
X8213499Y-10360651D01*
X8213499Y-10360651D02*
X8223023Y-10351128D01*
X8223023Y-10351128D02*
X8242071Y-10341604D01*
X8384928Y-10360651D02*
X8394452Y-10351128D01*
X8394452Y-10351128D02*
X8413499Y-10341604D01*
X8413499Y-10341604D02*
X8461118Y-10341604D01*
X8461118Y-10341604D02*
X8480166Y-10351128D01*
X8480166Y-10351128D02*
X8489690Y-10360651D01*
X8489690Y-10360651D02*
X8499214Y-10379699D01*
X8499214Y-10379699D02*
X8499214Y-10398747D01*
X8499214Y-10398747D02*
X8489690Y-10427318D01*
X8489690Y-10427318D02*
X8375404Y-10541604D01*
X8375404Y-10541604D02*
X8499214Y-10541604D01*
X8565880Y-10341604D02*
X8699214Y-10341604D01*
X8699214Y-10341604D02*
X8613499Y-10541604D01*
X8861118Y-10341604D02*
X8823023Y-10341604D01*
X8823023Y-10341604D02*
X8803975Y-10351128D01*
X8803975Y-10351128D02*
X8794452Y-10360651D01*
X8794452Y-10360651D02*
X8775404Y-10389223D01*
X8775404Y-10389223D02*
X8765880Y-10427318D01*
X8765880Y-10427318D02*
X8765880Y-10503509D01*
X8765880Y-10503509D02*
X8775404Y-10522556D01*
X8775404Y-10522556D02*
X8784928Y-10532080D01*
X8784928Y-10532080D02*
X8803975Y-10541604D01*
X8803975Y-10541604D02*
X8842071Y-10541604D01*
X8842071Y-10541604D02*
X8861118Y-10532080D01*
X8861118Y-10532080D02*
X8870642Y-10522556D01*
X8870642Y-10522556D02*
X8880166Y-10503509D01*
X8880166Y-10503509D02*
X8880166Y-10455890D01*
X8880166Y-10455890D02*
X8870642Y-10436842D01*
X8870642Y-10436842D02*
X8861118Y-10427318D01*
X8861118Y-10427318D02*
X8842071Y-10417794D01*
X8842071Y-10417794D02*
X8803975Y-10417794D01*
X8803975Y-10417794D02*
X8784928Y-10427318D01*
X8784928Y-10427318D02*
X8775404Y-10436842D01*
X8775404Y-10436842D02*
X8765880Y-10455890D01*
X8956356Y-10341604D02*
X8956356Y-10379699D01*
X9032547Y-10341604D02*
X9032547Y-10379699D01*
X9327785Y-10617794D02*
X9318261Y-10608270D01*
X9318261Y-10608270D02*
X9299214Y-10579699D01*
X9299214Y-10579699D02*
X9289690Y-10560651D01*
X9289690Y-10560651D02*
X9280166Y-10532080D01*
X9280166Y-10532080D02*
X9270642Y-10484461D01*
X9270642Y-10484461D02*
X9270642Y-10446366D01*
X9270642Y-10446366D02*
X9280166Y-10398747D01*
X9280166Y-10398747D02*
X9289690Y-10370175D01*
X9289690Y-10370175D02*
X9299214Y-10351128D01*
X9299214Y-10351128D02*
X9318261Y-10322556D01*
X9318261Y-10322556D02*
X9327785Y-10313032D01*
X9508737Y-10541604D02*
X9394452Y-10541604D01*
X9451595Y-10541604D02*
X9451595Y-10341604D01*
X9451595Y-10341604D02*
X9432547Y-10370175D01*
X9432547Y-10370175D02*
X9413499Y-10389223D01*
X9413499Y-10389223D02*
X9394452Y-10398747D01*
X9699214Y-10541604D02*
X9584928Y-10541604D01*
X9642071Y-10541604D02*
X9642071Y-10341604D01*
X9642071Y-10341604D02*
X9623023Y-10370175D01*
X9623023Y-10370175D02*
X9603976Y-10389223D01*
X9603976Y-10389223D02*
X9584928Y-10398747D01*
X9870642Y-10341604D02*
X9832547Y-10341604D01*
X9832547Y-10341604D02*
X9813499Y-10351128D01*
X9813499Y-10351128D02*
X9803976Y-10360651D01*
X9803976Y-10360651D02*
X9784928Y-10389223D01*
X9784928Y-10389223D02*
X9775404Y-10427318D01*
X9775404Y-10427318D02*
X9775404Y-10503509D01*
X9775404Y-10503509D02*
X9784928Y-10522556D01*
X9784928Y-10522556D02*
X9794452Y-10532080D01*
X9794452Y-10532080D02*
X9813499Y-10541604D01*
X9813499Y-10541604D02*
X9851595Y-10541604D01*
X9851595Y-10541604D02*
X9870642Y-10532080D01*
X9870642Y-10532080D02*
X9880166Y-10522556D01*
X9880166Y-10522556D02*
X9889690Y-10503509D01*
X9889690Y-10503509D02*
X9889690Y-10455890D01*
X9889690Y-10455890D02*
X9880166Y-10436842D01*
X9880166Y-10436842D02*
X9870642Y-10427318D01*
X9870642Y-10427318D02*
X9851595Y-10417794D01*
X9851595Y-10417794D02*
X9813499Y-10417794D01*
X9813499Y-10417794D02*
X9794452Y-10427318D01*
X9794452Y-10427318D02*
X9784928Y-10436842D01*
X9784928Y-10436842D02*
X9775404Y-10455890D01*
X10127785Y-10541604D02*
X10127785Y-10341604D01*
X10213499Y-10541604D02*
X10213499Y-10436842D01*
X10213499Y-10436842D02*
X10203976Y-10417794D01*
X10203976Y-10417794D02*
X10184928Y-10408270D01*
X10184928Y-10408270D02*
X10156357Y-10408270D01*
X10156357Y-10408270D02*
X10137309Y-10417794D01*
X10137309Y-10417794D02*
X10127785Y-10427318D01*
X10337309Y-10541604D02*
X10318261Y-10532080D01*
X10318261Y-10532080D02*
X10308738Y-10522556D01*
X10308738Y-10522556D02*
X10299214Y-10503509D01*
X10299214Y-10503509D02*
X10299214Y-10446366D01*
X10299214Y-10446366D02*
X10308738Y-10427318D01*
X10308738Y-10427318D02*
X10318261Y-10417794D01*
X10318261Y-10417794D02*
X10337309Y-10408270D01*
X10337309Y-10408270D02*
X10365880Y-10408270D01*
X10365880Y-10408270D02*
X10384928Y-10417794D01*
X10384928Y-10417794D02*
X10394452Y-10427318D01*
X10394452Y-10427318D02*
X10403976Y-10446366D01*
X10403976Y-10446366D02*
X10403976Y-10503509D01*
X10403976Y-10503509D02*
X10394452Y-10522556D01*
X10394452Y-10522556D02*
X10384928Y-10532080D01*
X10384928Y-10532080D02*
X10365880Y-10541604D01*
X10365880Y-10541604D02*
X10337309Y-10541604D01*
X10518261Y-10541604D02*
X10499214Y-10532080D01*
X10499214Y-10532080D02*
X10489690Y-10513032D01*
X10489690Y-10513032D02*
X10489690Y-10341604D01*
X10670642Y-10532080D02*
X10651595Y-10541604D01*
X10651595Y-10541604D02*
X10613499Y-10541604D01*
X10613499Y-10541604D02*
X10594452Y-10532080D01*
X10594452Y-10532080D02*
X10584928Y-10513032D01*
X10584928Y-10513032D02*
X10584928Y-10436842D01*
X10584928Y-10436842D02*
X10594452Y-10417794D01*
X10594452Y-10417794D02*
X10613499Y-10408270D01*
X10613499Y-10408270D02*
X10651595Y-10408270D01*
X10651595Y-10408270D02*
X10670642Y-10417794D01*
X10670642Y-10417794D02*
X10680166Y-10436842D01*
X10680166Y-10436842D02*
X10680166Y-10455890D01*
X10680166Y-10455890D02*
X10584928Y-10474937D01*
X10756357Y-10532080D02*
X10775404Y-10541604D01*
X10775404Y-10541604D02*
X10813499Y-10541604D01*
X10813499Y-10541604D02*
X10832547Y-10532080D01*
X10832547Y-10532080D02*
X10842071Y-10513032D01*
X10842071Y-10513032D02*
X10842071Y-10503509D01*
X10842071Y-10503509D02*
X10832547Y-10484461D01*
X10832547Y-10484461D02*
X10813499Y-10474937D01*
X10813499Y-10474937D02*
X10784928Y-10474937D01*
X10784928Y-10474937D02*
X10765880Y-10465413D01*
X10765880Y-10465413D02*
X10756357Y-10446366D01*
X10756357Y-10446366D02*
X10756357Y-10436842D01*
X10756357Y-10436842D02*
X10765880Y-10417794D01*
X10765880Y-10417794D02*
X10784928Y-10408270D01*
X10784928Y-10408270D02*
X10813499Y-10408270D01*
X10813499Y-10408270D02*
X10832547Y-10417794D01*
X10908738Y-10617794D02*
X10918261Y-10608270D01*
X10918261Y-10608270D02*
X10937309Y-10579699D01*
X10937309Y-10579699D02*
X10946833Y-10560651D01*
X10946833Y-10560651D02*
X10956357Y-10532080D01*
X10956357Y-10532080D02*
X10965880Y-10484461D01*
X10965880Y-10484461D02*
X10965880Y-10446366D01*
X10965880Y-10446366D02*
X10956357Y-10398747D01*
X10956357Y-10398747D02*
X10946833Y-10370175D01*
X10946833Y-10370175D02*
X10937309Y-10351128D01*
X10937309Y-10351128D02*
X10918261Y-10322556D01*
X10918261Y-10322556D02*
X10908738Y-10313032D01*
D10*
X5751236Y-10748436D02*
X5751236Y-10677724D01*
X5680524Y-10677724D01*
X5680524Y-10748436D01*
X5751236Y-10748436D01*
D11*
X6118261Y-10805604D02*
X6003975Y-10805604D01*
X6061118Y-10805604D02*
X6061118Y-10605604D01*
X6061118Y-10605604D02*
X6042070Y-10634175D01*
X6042070Y-10634175D02*
X6023023Y-10653223D01*
X6023023Y-10653223D02*
X6003975Y-10662747D01*
X6203975Y-10786556D02*
X6213499Y-10796080D01*
X6213499Y-10796080D02*
X6203975Y-10805604D01*
X6203975Y-10805604D02*
X6194451Y-10796080D01*
X6194451Y-10796080D02*
X6203975Y-10786556D01*
X6203975Y-10786556D02*
X6203975Y-10805604D01*
X6337308Y-10605604D02*
X6356356Y-10605604D01*
X6356356Y-10605604D02*
X6375404Y-10615128D01*
X6375404Y-10615128D02*
X6384928Y-10624651D01*
X6384928Y-10624651D02*
X6394451Y-10643699D01*
X6394451Y-10643699D02*
X6403975Y-10681794D01*
X6403975Y-10681794D02*
X6403975Y-10729413D01*
X6403975Y-10729413D02*
X6394451Y-10767509D01*
X6394451Y-10767509D02*
X6384928Y-10786556D01*
X6384928Y-10786556D02*
X6375404Y-10796080D01*
X6375404Y-10796080D02*
X6356356Y-10805604D01*
X6356356Y-10805604D02*
X6337308Y-10805604D01*
X6337308Y-10805604D02*
X6318261Y-10796080D01*
X6318261Y-10796080D02*
X6308737Y-10786556D01*
X6308737Y-10786556D02*
X6299213Y-10767509D01*
X6299213Y-10767509D02*
X6289689Y-10729413D01*
X6289689Y-10729413D02*
X6289689Y-10681794D01*
X6289689Y-10681794D02*
X6299213Y-10643699D01*
X6299213Y-10643699D02*
X6308737Y-10624651D01*
X6308737Y-10624651D02*
X6318261Y-10615128D01*
X6318261Y-10615128D02*
X6337308Y-10605604D01*
X6527785Y-10605604D02*
X6546832Y-10605604D01*
X6546832Y-10605604D02*
X6565880Y-10615128D01*
X6565880Y-10615128D02*
X6575404Y-10624651D01*
X6575404Y-10624651D02*
X6584928Y-10643699D01*
X6584928Y-10643699D02*
X6594451Y-10681794D01*
X6594451Y-10681794D02*
X6594451Y-10729413D01*
X6594451Y-10729413D02*
X6584928Y-10767509D01*
X6584928Y-10767509D02*
X6575404Y-10786556D01*
X6575404Y-10786556D02*
X6565880Y-10796080D01*
X6565880Y-10796080D02*
X6546832Y-10805604D01*
X6546832Y-10805604D02*
X6527785Y-10805604D01*
X6527785Y-10805604D02*
X6508737Y-10796080D01*
X6508737Y-10796080D02*
X6499213Y-10786556D01*
X6499213Y-10786556D02*
X6489689Y-10767509D01*
X6489689Y-10767509D02*
X6480166Y-10729413D01*
X6480166Y-10729413D02*
X6480166Y-10681794D01*
X6480166Y-10681794D02*
X6489689Y-10643699D01*
X6489689Y-10643699D02*
X6499213Y-10624651D01*
X6499213Y-10624651D02*
X6508737Y-10615128D01*
X6508737Y-10615128D02*
X6527785Y-10605604D01*
X6718261Y-10605604D02*
X6737309Y-10605604D01*
X6737309Y-10605604D02*
X6756356Y-10615128D01*
X6756356Y-10615128D02*
X6765880Y-10624651D01*
X6765880Y-10624651D02*
X6775404Y-10643699D01*
X6775404Y-10643699D02*
X6784928Y-10681794D01*
X6784928Y-10681794D02*
X6784928Y-10729413D01*
X6784928Y-10729413D02*
X6775404Y-10767509D01*
X6775404Y-10767509D02*
X6765880Y-10786556D01*
X6765880Y-10786556D02*
X6756356Y-10796080D01*
X6756356Y-10796080D02*
X6737309Y-10805604D01*
X6737309Y-10805604D02*
X6718261Y-10805604D01*
X6718261Y-10805604D02*
X6699213Y-10796080D01*
X6699213Y-10796080D02*
X6689689Y-10786556D01*
X6689689Y-10786556D02*
X6680166Y-10767509D01*
X6680166Y-10767509D02*
X6670642Y-10729413D01*
X6670642Y-10729413D02*
X6670642Y-10681794D01*
X6670642Y-10681794D02*
X6680166Y-10643699D01*
X6680166Y-10643699D02*
X6689689Y-10624651D01*
X6689689Y-10624651D02*
X6699213Y-10615128D01*
X6699213Y-10615128D02*
X6718261Y-10605604D01*
X6870642Y-10805604D02*
X6870642Y-10672270D01*
X6870642Y-10691318D02*
X6880166Y-10681794D01*
X6880166Y-10681794D02*
X6899213Y-10672270D01*
X6899213Y-10672270D02*
X6927785Y-10672270D01*
X6927785Y-10672270D02*
X6946832Y-10681794D01*
X6946832Y-10681794D02*
X6956356Y-10700842D01*
X6956356Y-10700842D02*
X6956356Y-10805604D01*
X6956356Y-10700842D02*
X6965880Y-10681794D01*
X6965880Y-10681794D02*
X6984928Y-10672270D01*
X6984928Y-10672270D02*
X7013499Y-10672270D01*
X7013499Y-10672270D02*
X7032547Y-10681794D01*
X7032547Y-10681794D02*
X7042070Y-10700842D01*
X7042070Y-10700842D02*
X7042070Y-10805604D01*
X7137309Y-10805604D02*
X7137309Y-10672270D01*
X7137309Y-10691318D02*
X7146832Y-10681794D01*
X7146832Y-10681794D02*
X7165880Y-10672270D01*
X7165880Y-10672270D02*
X7194451Y-10672270D01*
X7194451Y-10672270D02*
X7213499Y-10681794D01*
X7213499Y-10681794D02*
X7223023Y-10700842D01*
X7223023Y-10700842D02*
X7223023Y-10805604D01*
X7223023Y-10700842D02*
X7232547Y-10681794D01*
X7232547Y-10681794D02*
X7251594Y-10672270D01*
X7251594Y-10672270D02*
X7280166Y-10672270D01*
X7280166Y-10672270D02*
X7299213Y-10681794D01*
X7299213Y-10681794D02*
X7308737Y-10700842D01*
X7308737Y-10700842D02*
X7308737Y-10805604D01*
X7699213Y-10596080D02*
X7527785Y-10853223D01*
X7956356Y-10605604D02*
X7975404Y-10605604D01*
X7975404Y-10605604D02*
X7994452Y-10615128D01*
X7994452Y-10615128D02*
X8003975Y-10624651D01*
X8003975Y-10624651D02*
X8013499Y-10643699D01*
X8013499Y-10643699D02*
X8023023Y-10681794D01*
X8023023Y-10681794D02*
X8023023Y-10729413D01*
X8023023Y-10729413D02*
X8013499Y-10767509D01*
X8013499Y-10767509D02*
X8003975Y-10786556D01*
X8003975Y-10786556D02*
X7994452Y-10796080D01*
X7994452Y-10796080D02*
X7975404Y-10805604D01*
X7975404Y-10805604D02*
X7956356Y-10805604D01*
X7956356Y-10805604D02*
X7937309Y-10796080D01*
X7937309Y-10796080D02*
X7927785Y-10786556D01*
X7927785Y-10786556D02*
X7918261Y-10767509D01*
X7918261Y-10767509D02*
X7908737Y-10729413D01*
X7908737Y-10729413D02*
X7908737Y-10681794D01*
X7908737Y-10681794D02*
X7918261Y-10643699D01*
X7918261Y-10643699D02*
X7927785Y-10624651D01*
X7927785Y-10624651D02*
X7937309Y-10615128D01*
X7937309Y-10615128D02*
X7956356Y-10605604D01*
X8108737Y-10786556D02*
X8118261Y-10796080D01*
X8118261Y-10796080D02*
X8108737Y-10805604D01*
X8108737Y-10805604D02*
X8099213Y-10796080D01*
X8099213Y-10796080D02*
X8108737Y-10786556D01*
X8108737Y-10786556D02*
X8108737Y-10805604D01*
X8242071Y-10605604D02*
X8261118Y-10605604D01*
X8261118Y-10605604D02*
X8280166Y-10615128D01*
X8280166Y-10615128D02*
X8289690Y-10624651D01*
X8289690Y-10624651D02*
X8299213Y-10643699D01*
X8299213Y-10643699D02*
X8308737Y-10681794D01*
X8308737Y-10681794D02*
X8308737Y-10729413D01*
X8308737Y-10729413D02*
X8299213Y-10767509D01*
X8299213Y-10767509D02*
X8289690Y-10786556D01*
X8289690Y-10786556D02*
X8280166Y-10796080D01*
X8280166Y-10796080D02*
X8261118Y-10805604D01*
X8261118Y-10805604D02*
X8242071Y-10805604D01*
X8242071Y-10805604D02*
X8223023Y-10796080D01*
X8223023Y-10796080D02*
X8213499Y-10786556D01*
X8213499Y-10786556D02*
X8203975Y-10767509D01*
X8203975Y-10767509D02*
X8194452Y-10729413D01*
X8194452Y-10729413D02*
X8194452Y-10681794D01*
X8194452Y-10681794D02*
X8203975Y-10643699D01*
X8203975Y-10643699D02*
X8213499Y-10624651D01*
X8213499Y-10624651D02*
X8223023Y-10615128D01*
X8223023Y-10615128D02*
X8242071Y-10605604D01*
X8375404Y-10605604D02*
X8499214Y-10605604D01*
X8499214Y-10605604D02*
X8432547Y-10681794D01*
X8432547Y-10681794D02*
X8461118Y-10681794D01*
X8461118Y-10681794D02*
X8480166Y-10691318D01*
X8480166Y-10691318D02*
X8489690Y-10700842D01*
X8489690Y-10700842D02*
X8499214Y-10719890D01*
X8499214Y-10719890D02*
X8499214Y-10767509D01*
X8499214Y-10767509D02*
X8489690Y-10786556D01*
X8489690Y-10786556D02*
X8480166Y-10796080D01*
X8480166Y-10796080D02*
X8461118Y-10805604D01*
X8461118Y-10805604D02*
X8403975Y-10805604D01*
X8403975Y-10805604D02*
X8384928Y-10796080D01*
X8384928Y-10796080D02*
X8375404Y-10786556D01*
X8594452Y-10805604D02*
X8632547Y-10805604D01*
X8632547Y-10805604D02*
X8651595Y-10796080D01*
X8651595Y-10796080D02*
X8661118Y-10786556D01*
X8661118Y-10786556D02*
X8680166Y-10757985D01*
X8680166Y-10757985D02*
X8689690Y-10719890D01*
X8689690Y-10719890D02*
X8689690Y-10643699D01*
X8689690Y-10643699D02*
X8680166Y-10624651D01*
X8680166Y-10624651D02*
X8670642Y-10615128D01*
X8670642Y-10615128D02*
X8651595Y-10605604D01*
X8651595Y-10605604D02*
X8613499Y-10605604D01*
X8613499Y-10605604D02*
X8594452Y-10615128D01*
X8594452Y-10615128D02*
X8584928Y-10624651D01*
X8584928Y-10624651D02*
X8575404Y-10643699D01*
X8575404Y-10643699D02*
X8575404Y-10691318D01*
X8575404Y-10691318D02*
X8584928Y-10710366D01*
X8584928Y-10710366D02*
X8594452Y-10719890D01*
X8594452Y-10719890D02*
X8613499Y-10729413D01*
X8613499Y-10729413D02*
X8651595Y-10729413D01*
X8651595Y-10729413D02*
X8670642Y-10719890D01*
X8670642Y-10719890D02*
X8680166Y-10710366D01*
X8680166Y-10710366D02*
X8689690Y-10691318D01*
X8861118Y-10672270D02*
X8861118Y-10805604D01*
X8813499Y-10596080D02*
X8765880Y-10738937D01*
X8765880Y-10738937D02*
X8889690Y-10738937D01*
X8956356Y-10605604D02*
X8956356Y-10643699D01*
X9032547Y-10605604D02*
X9032547Y-10643699D01*
X9327785Y-10881794D02*
X9318261Y-10872270D01*
X9318261Y-10872270D02*
X9299214Y-10843699D01*
X9299214Y-10843699D02*
X9289690Y-10824651D01*
X9289690Y-10824651D02*
X9280166Y-10796080D01*
X9280166Y-10796080D02*
X9270642Y-10748461D01*
X9270642Y-10748461D02*
X9270642Y-10710366D01*
X9270642Y-10710366D02*
X9280166Y-10662747D01*
X9280166Y-10662747D02*
X9289690Y-10634175D01*
X9289690Y-10634175D02*
X9299214Y-10615128D01*
X9299214Y-10615128D02*
X9318261Y-10586556D01*
X9318261Y-10586556D02*
X9327785Y-10577032D01*
X9394452Y-10624651D02*
X9403976Y-10615128D01*
X9403976Y-10615128D02*
X9423023Y-10605604D01*
X9423023Y-10605604D02*
X9470642Y-10605604D01*
X9470642Y-10605604D02*
X9489690Y-10615128D01*
X9489690Y-10615128D02*
X9499214Y-10624651D01*
X9499214Y-10624651D02*
X9508737Y-10643699D01*
X9508737Y-10643699D02*
X9508737Y-10662747D01*
X9508737Y-10662747D02*
X9499214Y-10691318D01*
X9499214Y-10691318D02*
X9384928Y-10805604D01*
X9384928Y-10805604D02*
X9508737Y-10805604D01*
X9623023Y-10691318D02*
X9603976Y-10681794D01*
X9603976Y-10681794D02*
X9594452Y-10672270D01*
X9594452Y-10672270D02*
X9584928Y-10653223D01*
X9584928Y-10653223D02*
X9584928Y-10643699D01*
X9584928Y-10643699D02*
X9594452Y-10624651D01*
X9594452Y-10624651D02*
X9603976Y-10615128D01*
X9603976Y-10615128D02*
X9623023Y-10605604D01*
X9623023Y-10605604D02*
X9661118Y-10605604D01*
X9661118Y-10605604D02*
X9680166Y-10615128D01*
X9680166Y-10615128D02*
X9689690Y-10624651D01*
X9689690Y-10624651D02*
X9699214Y-10643699D01*
X9699214Y-10643699D02*
X9699214Y-10653223D01*
X9699214Y-10653223D02*
X9689690Y-10672270D01*
X9689690Y-10672270D02*
X9680166Y-10681794D01*
X9680166Y-10681794D02*
X9661118Y-10691318D01*
X9661118Y-10691318D02*
X9623023Y-10691318D01*
X9623023Y-10691318D02*
X9603976Y-10700842D01*
X9603976Y-10700842D02*
X9594452Y-10710366D01*
X9594452Y-10710366D02*
X9584928Y-10729413D01*
X9584928Y-10729413D02*
X9584928Y-10767509D01*
X9584928Y-10767509D02*
X9594452Y-10786556D01*
X9594452Y-10786556D02*
X9603976Y-10796080D01*
X9603976Y-10796080D02*
X9623023Y-10805604D01*
X9623023Y-10805604D02*
X9661118Y-10805604D01*
X9661118Y-10805604D02*
X9680166Y-10796080D01*
X9680166Y-10796080D02*
X9689690Y-10786556D01*
X9689690Y-10786556D02*
X9699214Y-10767509D01*
X9699214Y-10767509D02*
X9699214Y-10729413D01*
X9699214Y-10729413D02*
X9689690Y-10710366D01*
X9689690Y-10710366D02*
X9680166Y-10700842D01*
X9680166Y-10700842D02*
X9661118Y-10691318D01*
X9937309Y-10805604D02*
X9937309Y-10605604D01*
X10023023Y-10805604D02*
X10023023Y-10700842D01*
X10023023Y-10700842D02*
X10013499Y-10681794D01*
X10013499Y-10681794D02*
X9994452Y-10672270D01*
X9994452Y-10672270D02*
X9965880Y-10672270D01*
X9965880Y-10672270D02*
X9946833Y-10681794D01*
X9946833Y-10681794D02*
X9937309Y-10691318D01*
X10146833Y-10805604D02*
X10127785Y-10796080D01*
X10127785Y-10796080D02*
X10118261Y-10786556D01*
X10118261Y-10786556D02*
X10108738Y-10767509D01*
X10108738Y-10767509D02*
X10108738Y-10710366D01*
X10108738Y-10710366D02*
X10118261Y-10691318D01*
X10118261Y-10691318D02*
X10127785Y-10681794D01*
X10127785Y-10681794D02*
X10146833Y-10672270D01*
X10146833Y-10672270D02*
X10175404Y-10672270D01*
X10175404Y-10672270D02*
X10194452Y-10681794D01*
X10194452Y-10681794D02*
X10203976Y-10691318D01*
X10203976Y-10691318D02*
X10213499Y-10710366D01*
X10213499Y-10710366D02*
X10213499Y-10767509D01*
X10213499Y-10767509D02*
X10203976Y-10786556D01*
X10203976Y-10786556D02*
X10194452Y-10796080D01*
X10194452Y-10796080D02*
X10175404Y-10805604D01*
X10175404Y-10805604D02*
X10146833Y-10805604D01*
X10327785Y-10805604D02*
X10308738Y-10796080D01*
X10308738Y-10796080D02*
X10299214Y-10777032D01*
X10299214Y-10777032D02*
X10299214Y-10605604D01*
X10480166Y-10796080D02*
X10461119Y-10805604D01*
X10461119Y-10805604D02*
X10423023Y-10805604D01*
X10423023Y-10805604D02*
X10403976Y-10796080D01*
X10403976Y-10796080D02*
X10394452Y-10777032D01*
X10394452Y-10777032D02*
X10394452Y-10700842D01*
X10394452Y-10700842D02*
X10403976Y-10681794D01*
X10403976Y-10681794D02*
X10423023Y-10672270D01*
X10423023Y-10672270D02*
X10461119Y-10672270D01*
X10461119Y-10672270D02*
X10480166Y-10681794D01*
X10480166Y-10681794D02*
X10489690Y-10700842D01*
X10489690Y-10700842D02*
X10489690Y-10719890D01*
X10489690Y-10719890D02*
X10394452Y-10738937D01*
X10565880Y-10796080D02*
X10584928Y-10805604D01*
X10584928Y-10805604D02*
X10623023Y-10805604D01*
X10623023Y-10805604D02*
X10642071Y-10796080D01*
X10642071Y-10796080D02*
X10651595Y-10777032D01*
X10651595Y-10777032D02*
X10651595Y-10767509D01*
X10651595Y-10767509D02*
X10642071Y-10748461D01*
X10642071Y-10748461D02*
X10623023Y-10738937D01*
X10623023Y-10738937D02*
X10594452Y-10738937D01*
X10594452Y-10738937D02*
X10575404Y-10729413D01*
X10575404Y-10729413D02*
X10565880Y-10710366D01*
X10565880Y-10710366D02*
X10565880Y-10700842D01*
X10565880Y-10700842D02*
X10575404Y-10681794D01*
X10575404Y-10681794D02*
X10594452Y-10672270D01*
X10594452Y-10672270D02*
X10623023Y-10672270D01*
X10623023Y-10672270D02*
X10642071Y-10681794D01*
X10718261Y-10881794D02*
X10727785Y-10872270D01*
X10727785Y-10872270D02*
X10746833Y-10843699D01*
X10746833Y-10843699D02*
X10756357Y-10824651D01*
X10756357Y-10824651D02*
X10765880Y-10796080D01*
X10765880Y-10796080D02*
X10775404Y-10748461D01*
X10775404Y-10748461D02*
X10775404Y-10710366D01*
X10775404Y-10710366D02*
X10765880Y-10662747D01*
X10765880Y-10662747D02*
X10756357Y-10634175D01*
X10756357Y-10634175D02*
X10746833Y-10615128D01*
X10746833Y-10615128D02*
X10727785Y-10586556D01*
X10727785Y-10586556D02*
X10718261Y-10577032D01*
D15*
X5680880Y-11062080D02*
X5765880Y-10977080D01*
X5680880Y-10892080D01*
X5595880Y-10977080D01*
X5680880Y-11062080D01*
D11*
X6118261Y-11069604D02*
X6003975Y-11069604D01*
X6061118Y-11069604D02*
X6061118Y-10869604D01*
X6061118Y-10869604D02*
X6042070Y-10898175D01*
X6042070Y-10898175D02*
X6023023Y-10917223D01*
X6023023Y-10917223D02*
X6003975Y-10926747D01*
X6203975Y-11050556D02*
X6213499Y-11060080D01*
X6213499Y-11060080D02*
X6203975Y-11069604D01*
X6203975Y-11069604D02*
X6194451Y-11060080D01*
X6194451Y-11060080D02*
X6203975Y-11050556D01*
X6203975Y-11050556D02*
X6203975Y-11069604D01*
X6280166Y-10869604D02*
X6413499Y-10869604D01*
X6413499Y-10869604D02*
X6327785Y-11069604D01*
X6527785Y-10869604D02*
X6546832Y-10869604D01*
X6546832Y-10869604D02*
X6565880Y-10879128D01*
X6565880Y-10879128D02*
X6575404Y-10888651D01*
X6575404Y-10888651D02*
X6584928Y-10907699D01*
X6584928Y-10907699D02*
X6594451Y-10945794D01*
X6594451Y-10945794D02*
X6594451Y-10993413D01*
X6594451Y-10993413D02*
X6584928Y-11031509D01*
X6584928Y-11031509D02*
X6575404Y-11050556D01*
X6575404Y-11050556D02*
X6565880Y-11060080D01*
X6565880Y-11060080D02*
X6546832Y-11069604D01*
X6546832Y-11069604D02*
X6527785Y-11069604D01*
X6527785Y-11069604D02*
X6508737Y-11060080D01*
X6508737Y-11060080D02*
X6499213Y-11050556D01*
X6499213Y-11050556D02*
X6489689Y-11031509D01*
X6489689Y-11031509D02*
X6480166Y-10993413D01*
X6480166Y-10993413D02*
X6480166Y-10945794D01*
X6480166Y-10945794D02*
X6489689Y-10907699D01*
X6489689Y-10907699D02*
X6499213Y-10888651D01*
X6499213Y-10888651D02*
X6508737Y-10879128D01*
X6508737Y-10879128D02*
X6527785Y-10869604D01*
X6718261Y-10869604D02*
X6737309Y-10869604D01*
X6737309Y-10869604D02*
X6756356Y-10879128D01*
X6756356Y-10879128D02*
X6765880Y-10888651D01*
X6765880Y-10888651D02*
X6775404Y-10907699D01*
X6775404Y-10907699D02*
X6784928Y-10945794D01*
X6784928Y-10945794D02*
X6784928Y-10993413D01*
X6784928Y-10993413D02*
X6775404Y-11031509D01*
X6775404Y-11031509D02*
X6765880Y-11050556D01*
X6765880Y-11050556D02*
X6756356Y-11060080D01*
X6756356Y-11060080D02*
X6737309Y-11069604D01*
X6737309Y-11069604D02*
X6718261Y-11069604D01*
X6718261Y-11069604D02*
X6699213Y-11060080D01*
X6699213Y-11060080D02*
X6689689Y-11050556D01*
X6689689Y-11050556D02*
X6680166Y-11031509D01*
X6680166Y-11031509D02*
X6670642Y-10993413D01*
X6670642Y-10993413D02*
X6670642Y-10945794D01*
X6670642Y-10945794D02*
X6680166Y-10907699D01*
X6680166Y-10907699D02*
X6689689Y-10888651D01*
X6689689Y-10888651D02*
X6699213Y-10879128D01*
X6699213Y-10879128D02*
X6718261Y-10869604D01*
X6870642Y-11069604D02*
X6870642Y-10936270D01*
X6870642Y-10955318D02*
X6880166Y-10945794D01*
X6880166Y-10945794D02*
X6899213Y-10936270D01*
X6899213Y-10936270D02*
X6927785Y-10936270D01*
X6927785Y-10936270D02*
X6946832Y-10945794D01*
X6946832Y-10945794D02*
X6956356Y-10964842D01*
X6956356Y-10964842D02*
X6956356Y-11069604D01*
X6956356Y-10964842D02*
X6965880Y-10945794D01*
X6965880Y-10945794D02*
X6984928Y-10936270D01*
X6984928Y-10936270D02*
X7013499Y-10936270D01*
X7013499Y-10936270D02*
X7032547Y-10945794D01*
X7032547Y-10945794D02*
X7042070Y-10964842D01*
X7042070Y-10964842D02*
X7042070Y-11069604D01*
X7137309Y-11069604D02*
X7137309Y-10936270D01*
X7137309Y-10955318D02*
X7146832Y-10945794D01*
X7146832Y-10945794D02*
X7165880Y-10936270D01*
X7165880Y-10936270D02*
X7194451Y-10936270D01*
X7194451Y-10936270D02*
X7213499Y-10945794D01*
X7213499Y-10945794D02*
X7223023Y-10964842D01*
X7223023Y-10964842D02*
X7223023Y-11069604D01*
X7223023Y-10964842D02*
X7232547Y-10945794D01*
X7232547Y-10945794D02*
X7251594Y-10936270D01*
X7251594Y-10936270D02*
X7280166Y-10936270D01*
X7280166Y-10936270D02*
X7299213Y-10945794D01*
X7299213Y-10945794D02*
X7308737Y-10964842D01*
X7308737Y-10964842D02*
X7308737Y-11069604D01*
X7699213Y-10860080D02*
X7527785Y-11117223D01*
X7956356Y-10869604D02*
X7975404Y-10869604D01*
X7975404Y-10869604D02*
X7994452Y-10879128D01*
X7994452Y-10879128D02*
X8003975Y-10888651D01*
X8003975Y-10888651D02*
X8013499Y-10907699D01*
X8013499Y-10907699D02*
X8023023Y-10945794D01*
X8023023Y-10945794D02*
X8023023Y-10993413D01*
X8023023Y-10993413D02*
X8013499Y-11031509D01*
X8013499Y-11031509D02*
X8003975Y-11050556D01*
X8003975Y-11050556D02*
X7994452Y-11060080D01*
X7994452Y-11060080D02*
X7975404Y-11069604D01*
X7975404Y-11069604D02*
X7956356Y-11069604D01*
X7956356Y-11069604D02*
X7937309Y-11060080D01*
X7937309Y-11060080D02*
X7927785Y-11050556D01*
X7927785Y-11050556D02*
X7918261Y-11031509D01*
X7918261Y-11031509D02*
X7908737Y-10993413D01*
X7908737Y-10993413D02*
X7908737Y-10945794D01*
X7908737Y-10945794D02*
X7918261Y-10907699D01*
X7918261Y-10907699D02*
X7927785Y-10888651D01*
X7927785Y-10888651D02*
X7937309Y-10879128D01*
X7937309Y-10879128D02*
X7956356Y-10869604D01*
X8108737Y-11050556D02*
X8118261Y-11060080D01*
X8118261Y-11060080D02*
X8108737Y-11069604D01*
X8108737Y-11069604D02*
X8099213Y-11060080D01*
X8099213Y-11060080D02*
X8108737Y-11050556D01*
X8108737Y-11050556D02*
X8108737Y-11069604D01*
X8242071Y-10869604D02*
X8261118Y-10869604D01*
X8261118Y-10869604D02*
X8280166Y-10879128D01*
X8280166Y-10879128D02*
X8289690Y-10888651D01*
X8289690Y-10888651D02*
X8299213Y-10907699D01*
X8299213Y-10907699D02*
X8308737Y-10945794D01*
X8308737Y-10945794D02*
X8308737Y-10993413D01*
X8308737Y-10993413D02*
X8299213Y-11031509D01*
X8299213Y-11031509D02*
X8289690Y-11050556D01*
X8289690Y-11050556D02*
X8280166Y-11060080D01*
X8280166Y-11060080D02*
X8261118Y-11069604D01*
X8261118Y-11069604D02*
X8242071Y-11069604D01*
X8242071Y-11069604D02*
X8223023Y-11060080D01*
X8223023Y-11060080D02*
X8213499Y-11050556D01*
X8213499Y-11050556D02*
X8203975Y-11031509D01*
X8203975Y-11031509D02*
X8194452Y-10993413D01*
X8194452Y-10993413D02*
X8194452Y-10945794D01*
X8194452Y-10945794D02*
X8203975Y-10907699D01*
X8203975Y-10907699D02*
X8213499Y-10888651D01*
X8213499Y-10888651D02*
X8223023Y-10879128D01*
X8223023Y-10879128D02*
X8242071Y-10869604D01*
X8480166Y-10869604D02*
X8442071Y-10869604D01*
X8442071Y-10869604D02*
X8423023Y-10879128D01*
X8423023Y-10879128D02*
X8413499Y-10888651D01*
X8413499Y-10888651D02*
X8394452Y-10917223D01*
X8394452Y-10917223D02*
X8384928Y-10955318D01*
X8384928Y-10955318D02*
X8384928Y-11031509D01*
X8384928Y-11031509D02*
X8394452Y-11050556D01*
X8394452Y-11050556D02*
X8403975Y-11060080D01*
X8403975Y-11060080D02*
X8423023Y-11069604D01*
X8423023Y-11069604D02*
X8461118Y-11069604D01*
X8461118Y-11069604D02*
X8480166Y-11060080D01*
X8480166Y-11060080D02*
X8489690Y-11050556D01*
X8489690Y-11050556D02*
X8499214Y-11031509D01*
X8499214Y-11031509D02*
X8499214Y-10983890D01*
X8499214Y-10983890D02*
X8489690Y-10964842D01*
X8489690Y-10964842D02*
X8480166Y-10955318D01*
X8480166Y-10955318D02*
X8461118Y-10945794D01*
X8461118Y-10945794D02*
X8423023Y-10945794D01*
X8423023Y-10945794D02*
X8403975Y-10955318D01*
X8403975Y-10955318D02*
X8394452Y-10964842D01*
X8394452Y-10964842D02*
X8384928Y-10983890D01*
X8670642Y-10869604D02*
X8632547Y-10869604D01*
X8632547Y-10869604D02*
X8613499Y-10879128D01*
X8613499Y-10879128D02*
X8603975Y-10888651D01*
X8603975Y-10888651D02*
X8584928Y-10917223D01*
X8584928Y-10917223D02*
X8575404Y-10955318D01*
X8575404Y-10955318D02*
X8575404Y-11031509D01*
X8575404Y-11031509D02*
X8584928Y-11050556D01*
X8584928Y-11050556D02*
X8594452Y-11060080D01*
X8594452Y-11060080D02*
X8613499Y-11069604D01*
X8613499Y-11069604D02*
X8651595Y-11069604D01*
X8651595Y-11069604D02*
X8670642Y-11060080D01*
X8670642Y-11060080D02*
X8680166Y-11050556D01*
X8680166Y-11050556D02*
X8689690Y-11031509D01*
X8689690Y-11031509D02*
X8689690Y-10983890D01*
X8689690Y-10983890D02*
X8680166Y-10964842D01*
X8680166Y-10964842D02*
X8670642Y-10955318D01*
X8670642Y-10955318D02*
X8651595Y-10945794D01*
X8651595Y-10945794D02*
X8613499Y-10945794D01*
X8613499Y-10945794D02*
X8594452Y-10955318D01*
X8594452Y-10955318D02*
X8584928Y-10964842D01*
X8584928Y-10964842D02*
X8575404Y-10983890D01*
X8784928Y-11069604D02*
X8823023Y-11069604D01*
X8823023Y-11069604D02*
X8842071Y-11060080D01*
X8842071Y-11060080D02*
X8851595Y-11050556D01*
X8851595Y-11050556D02*
X8870642Y-11021985D01*
X8870642Y-11021985D02*
X8880166Y-10983890D01*
X8880166Y-10983890D02*
X8880166Y-10907699D01*
X8880166Y-10907699D02*
X8870642Y-10888651D01*
X8870642Y-10888651D02*
X8861118Y-10879128D01*
X8861118Y-10879128D02*
X8842071Y-10869604D01*
X8842071Y-10869604D02*
X8803975Y-10869604D01*
X8803975Y-10869604D02*
X8784928Y-10879128D01*
X8784928Y-10879128D02*
X8775404Y-10888651D01*
X8775404Y-10888651D02*
X8765880Y-10907699D01*
X8765880Y-10907699D02*
X8765880Y-10955318D01*
X8765880Y-10955318D02*
X8775404Y-10974366D01*
X8775404Y-10974366D02*
X8784928Y-10983890D01*
X8784928Y-10983890D02*
X8803975Y-10993413D01*
X8803975Y-10993413D02*
X8842071Y-10993413D01*
X8842071Y-10993413D02*
X8861118Y-10983890D01*
X8861118Y-10983890D02*
X8870642Y-10974366D01*
X8870642Y-10974366D02*
X8880166Y-10955318D01*
X8956356Y-10869604D02*
X8956356Y-10907699D01*
X9032547Y-10869604D02*
X9032547Y-10907699D01*
X9327785Y-11145794D02*
X9318261Y-11136270D01*
X9318261Y-11136270D02*
X9299214Y-11107699D01*
X9299214Y-11107699D02*
X9289690Y-11088651D01*
X9289690Y-11088651D02*
X9280166Y-11060080D01*
X9280166Y-11060080D02*
X9270642Y-11012461D01*
X9270642Y-11012461D02*
X9270642Y-10974366D01*
X9270642Y-10974366D02*
X9280166Y-10926747D01*
X9280166Y-10926747D02*
X9289690Y-10898175D01*
X9289690Y-10898175D02*
X9299214Y-10879128D01*
X9299214Y-10879128D02*
X9318261Y-10850556D01*
X9318261Y-10850556D02*
X9327785Y-10841032D01*
X9432547Y-10955318D02*
X9413499Y-10945794D01*
X9413499Y-10945794D02*
X9403976Y-10936270D01*
X9403976Y-10936270D02*
X9394452Y-10917223D01*
X9394452Y-10917223D02*
X9394452Y-10907699D01*
X9394452Y-10907699D02*
X9403976Y-10888651D01*
X9403976Y-10888651D02*
X9413499Y-10879128D01*
X9413499Y-10879128D02*
X9432547Y-10869604D01*
X9432547Y-10869604D02*
X9470642Y-10869604D01*
X9470642Y-10869604D02*
X9489690Y-10879128D01*
X9489690Y-10879128D02*
X9499214Y-10888651D01*
X9499214Y-10888651D02*
X9508737Y-10907699D01*
X9508737Y-10907699D02*
X9508737Y-10917223D01*
X9508737Y-10917223D02*
X9499214Y-10936270D01*
X9499214Y-10936270D02*
X9489690Y-10945794D01*
X9489690Y-10945794D02*
X9470642Y-10955318D01*
X9470642Y-10955318D02*
X9432547Y-10955318D01*
X9432547Y-10955318D02*
X9413499Y-10964842D01*
X9413499Y-10964842D02*
X9403976Y-10974366D01*
X9403976Y-10974366D02*
X9394452Y-10993413D01*
X9394452Y-10993413D02*
X9394452Y-11031509D01*
X9394452Y-11031509D02*
X9403976Y-11050556D01*
X9403976Y-11050556D02*
X9413499Y-11060080D01*
X9413499Y-11060080D02*
X9432547Y-11069604D01*
X9432547Y-11069604D02*
X9470642Y-11069604D01*
X9470642Y-11069604D02*
X9489690Y-11060080D01*
X9489690Y-11060080D02*
X9499214Y-11050556D01*
X9499214Y-11050556D02*
X9508737Y-11031509D01*
X9508737Y-11031509D02*
X9508737Y-10993413D01*
X9508737Y-10993413D02*
X9499214Y-10974366D01*
X9499214Y-10974366D02*
X9489690Y-10964842D01*
X9489690Y-10964842D02*
X9470642Y-10955318D01*
X9746833Y-11069604D02*
X9746833Y-10869604D01*
X9832547Y-11069604D02*
X9832547Y-10964842D01*
X9832547Y-10964842D02*
X9823023Y-10945794D01*
X9823023Y-10945794D02*
X9803976Y-10936270D01*
X9803976Y-10936270D02*
X9775404Y-10936270D01*
X9775404Y-10936270D02*
X9756357Y-10945794D01*
X9756357Y-10945794D02*
X9746833Y-10955318D01*
X9956357Y-11069604D02*
X9937309Y-11060080D01*
X9937309Y-11060080D02*
X9927785Y-11050556D01*
X9927785Y-11050556D02*
X9918261Y-11031509D01*
X9918261Y-11031509D02*
X9918261Y-10974366D01*
X9918261Y-10974366D02*
X9927785Y-10955318D01*
X9927785Y-10955318D02*
X9937309Y-10945794D01*
X9937309Y-10945794D02*
X9956357Y-10936270D01*
X9956357Y-10936270D02*
X9984928Y-10936270D01*
X9984928Y-10936270D02*
X10003976Y-10945794D01*
X10003976Y-10945794D02*
X10013499Y-10955318D01*
X10013499Y-10955318D02*
X10023023Y-10974366D01*
X10023023Y-10974366D02*
X10023023Y-11031509D01*
X10023023Y-11031509D02*
X10013499Y-11050556D01*
X10013499Y-11050556D02*
X10003976Y-11060080D01*
X10003976Y-11060080D02*
X9984928Y-11069604D01*
X9984928Y-11069604D02*
X9956357Y-11069604D01*
X10137309Y-11069604D02*
X10118261Y-11060080D01*
X10118261Y-11060080D02*
X10108738Y-11041032D01*
X10108738Y-11041032D02*
X10108738Y-10869604D01*
X10289690Y-11060080D02*
X10270642Y-11069604D01*
X10270642Y-11069604D02*
X10232547Y-11069604D01*
X10232547Y-11069604D02*
X10213499Y-11060080D01*
X10213499Y-11060080D02*
X10203976Y-11041032D01*
X10203976Y-11041032D02*
X10203976Y-10964842D01*
X10203976Y-10964842D02*
X10213499Y-10945794D01*
X10213499Y-10945794D02*
X10232547Y-10936270D01*
X10232547Y-10936270D02*
X10270642Y-10936270D01*
X10270642Y-10936270D02*
X10289690Y-10945794D01*
X10289690Y-10945794D02*
X10299214Y-10964842D01*
X10299214Y-10964842D02*
X10299214Y-10983890D01*
X10299214Y-10983890D02*
X10203976Y-11002937D01*
X10375404Y-11060080D02*
X10394452Y-11069604D01*
X10394452Y-11069604D02*
X10432547Y-11069604D01*
X10432547Y-11069604D02*
X10451595Y-11060080D01*
X10451595Y-11060080D02*
X10461119Y-11041032D01*
X10461119Y-11041032D02*
X10461119Y-11031509D01*
X10461119Y-11031509D02*
X10451595Y-11012461D01*
X10451595Y-11012461D02*
X10432547Y-11002937D01*
X10432547Y-11002937D02*
X10403976Y-11002937D01*
X10403976Y-11002937D02*
X10384928Y-10993413D01*
X10384928Y-10993413D02*
X10375404Y-10974366D01*
X10375404Y-10974366D02*
X10375404Y-10964842D01*
X10375404Y-10964842D02*
X10384928Y-10945794D01*
X10384928Y-10945794D02*
X10403976Y-10936270D01*
X10403976Y-10936270D02*
X10432547Y-10936270D01*
X10432547Y-10936270D02*
X10451595Y-10945794D01*
X10527785Y-11145794D02*
X10537309Y-11136270D01*
X10537309Y-11136270D02*
X10556357Y-11107699D01*
X10556357Y-11107699D02*
X10565880Y-11088651D01*
X10565880Y-11088651D02*
X10575404Y-11060080D01*
X10575404Y-11060080D02*
X10584928Y-11012461D01*
X10584928Y-11012461D02*
X10584928Y-10974366D01*
X10584928Y-10974366D02*
X10575404Y-10926747D01*
X10575404Y-10926747D02*
X10565880Y-10898175D01*
X10565880Y-10898175D02*
X10556357Y-10879128D01*
X10556357Y-10879128D02*
X10537309Y-10850556D01*
X10537309Y-10850556D02*
X10527785Y-10841032D01*
D16*
X5700880Y-11234580D02*
X5765880Y-11299580D01*
X5765880Y-11234580D02*
X5700880Y-11299580D01*
X5765880Y-11267080D02*
G75*
G03*
X5765880Y-11267080I-32500J0D01*
G01*
D11*
X6051594Y-11159604D02*
X6070642Y-11159604D01*
X6070642Y-11159604D02*
X6089689Y-11169128D01*
X6089689Y-11169128D02*
X6099213Y-11178651D01*
X6099213Y-11178651D02*
X6108737Y-11197699D01*
X6108737Y-11197699D02*
X6118261Y-11235794D01*
X6118261Y-11235794D02*
X6118261Y-11283413D01*
X6118261Y-11283413D02*
X6108737Y-11321508D01*
X6108737Y-11321508D02*
X6099213Y-11340556D01*
X6099213Y-11340556D02*
X6089689Y-11350080D01*
X6089689Y-11350080D02*
X6070642Y-11359604D01*
X6070642Y-11359604D02*
X6051594Y-11359604D01*
X6051594Y-11359604D02*
X6032547Y-11350080D01*
X6032547Y-11350080D02*
X6023023Y-11340556D01*
X6023023Y-11340556D02*
X6013499Y-11321508D01*
X6013499Y-11321508D02*
X6003975Y-11283413D01*
X6003975Y-11283413D02*
X6003975Y-11235794D01*
X6003975Y-11235794D02*
X6013499Y-11197699D01*
X6013499Y-11197699D02*
X6023023Y-11178651D01*
X6023023Y-11178651D02*
X6032547Y-11169128D01*
X6032547Y-11169128D02*
X6051594Y-11159604D01*
X6203975Y-11340556D02*
X6213499Y-11350080D01*
X6213499Y-11350080D02*
X6203975Y-11359604D01*
X6203975Y-11359604D02*
X6194451Y-11350080D01*
X6194451Y-11350080D02*
X6203975Y-11340556D01*
X6203975Y-11340556D02*
X6203975Y-11359604D01*
X6384928Y-11159604D02*
X6346832Y-11159604D01*
X6346832Y-11159604D02*
X6327785Y-11169128D01*
X6327785Y-11169128D02*
X6318261Y-11178651D01*
X6318261Y-11178651D02*
X6299213Y-11207223D01*
X6299213Y-11207223D02*
X6289689Y-11245318D01*
X6289689Y-11245318D02*
X6289689Y-11321508D01*
X6289689Y-11321508D02*
X6299213Y-11340556D01*
X6299213Y-11340556D02*
X6308737Y-11350080D01*
X6308737Y-11350080D02*
X6327785Y-11359604D01*
X6327785Y-11359604D02*
X6365880Y-11359604D01*
X6365880Y-11359604D02*
X6384928Y-11350080D01*
X6384928Y-11350080D02*
X6394451Y-11340556D01*
X6394451Y-11340556D02*
X6403975Y-11321508D01*
X6403975Y-11321508D02*
X6403975Y-11273889D01*
X6403975Y-11273889D02*
X6394451Y-11254842D01*
X6394451Y-11254842D02*
X6384928Y-11245318D01*
X6384928Y-11245318D02*
X6365880Y-11235794D01*
X6365880Y-11235794D02*
X6327785Y-11235794D01*
X6327785Y-11235794D02*
X6308737Y-11245318D01*
X6308737Y-11245318D02*
X6299213Y-11254842D01*
X6299213Y-11254842D02*
X6289689Y-11273889D01*
X6584928Y-11159604D02*
X6489689Y-11159604D01*
X6489689Y-11159604D02*
X6480166Y-11254842D01*
X6480166Y-11254842D02*
X6489689Y-11245318D01*
X6489689Y-11245318D02*
X6508737Y-11235794D01*
X6508737Y-11235794D02*
X6556356Y-11235794D01*
X6556356Y-11235794D02*
X6575404Y-11245318D01*
X6575404Y-11245318D02*
X6584928Y-11254842D01*
X6584928Y-11254842D02*
X6594451Y-11273889D01*
X6594451Y-11273889D02*
X6594451Y-11321508D01*
X6594451Y-11321508D02*
X6584928Y-11340556D01*
X6584928Y-11340556D02*
X6575404Y-11350080D01*
X6575404Y-11350080D02*
X6556356Y-11359604D01*
X6556356Y-11359604D02*
X6508737Y-11359604D01*
X6508737Y-11359604D02*
X6489689Y-11350080D01*
X6489689Y-11350080D02*
X6480166Y-11340556D01*
X6718261Y-11159604D02*
X6737309Y-11159604D01*
X6737309Y-11159604D02*
X6756356Y-11169128D01*
X6756356Y-11169128D02*
X6765880Y-11178651D01*
X6765880Y-11178651D02*
X6775404Y-11197699D01*
X6775404Y-11197699D02*
X6784928Y-11235794D01*
X6784928Y-11235794D02*
X6784928Y-11283413D01*
X6784928Y-11283413D02*
X6775404Y-11321508D01*
X6775404Y-11321508D02*
X6765880Y-11340556D01*
X6765880Y-11340556D02*
X6756356Y-11350080D01*
X6756356Y-11350080D02*
X6737309Y-11359604D01*
X6737309Y-11359604D02*
X6718261Y-11359604D01*
X6718261Y-11359604D02*
X6699213Y-11350080D01*
X6699213Y-11350080D02*
X6689689Y-11340556D01*
X6689689Y-11340556D02*
X6680166Y-11321508D01*
X6680166Y-11321508D02*
X6670642Y-11283413D01*
X6670642Y-11283413D02*
X6670642Y-11235794D01*
X6670642Y-11235794D02*
X6680166Y-11197699D01*
X6680166Y-11197699D02*
X6689689Y-11178651D01*
X6689689Y-11178651D02*
X6699213Y-11169128D01*
X6699213Y-11169128D02*
X6718261Y-11159604D01*
X6870642Y-11359604D02*
X6870642Y-11226270D01*
X6870642Y-11245318D02*
X6880166Y-11235794D01*
X6880166Y-11235794D02*
X6899213Y-11226270D01*
X6899213Y-11226270D02*
X6927785Y-11226270D01*
X6927785Y-11226270D02*
X6946832Y-11235794D01*
X6946832Y-11235794D02*
X6956356Y-11254842D01*
X6956356Y-11254842D02*
X6956356Y-11359604D01*
X6956356Y-11254842D02*
X6965880Y-11235794D01*
X6965880Y-11235794D02*
X6984928Y-11226270D01*
X6984928Y-11226270D02*
X7013499Y-11226270D01*
X7013499Y-11226270D02*
X7032547Y-11235794D01*
X7032547Y-11235794D02*
X7042070Y-11254842D01*
X7042070Y-11254842D02*
X7042070Y-11359604D01*
X7137309Y-11359604D02*
X7137309Y-11226270D01*
X7137309Y-11245318D02*
X7146832Y-11235794D01*
X7146832Y-11235794D02*
X7165880Y-11226270D01*
X7165880Y-11226270D02*
X7194451Y-11226270D01*
X7194451Y-11226270D02*
X7213499Y-11235794D01*
X7213499Y-11235794D02*
X7223023Y-11254842D01*
X7223023Y-11254842D02*
X7223023Y-11359604D01*
X7223023Y-11254842D02*
X7232547Y-11235794D01*
X7232547Y-11235794D02*
X7251594Y-11226270D01*
X7251594Y-11226270D02*
X7280166Y-11226270D01*
X7280166Y-11226270D02*
X7299213Y-11235794D01*
X7299213Y-11235794D02*
X7308737Y-11254842D01*
X7308737Y-11254842D02*
X7308737Y-11359604D01*
X7699213Y-11150080D02*
X7527785Y-11407223D01*
X7956356Y-11159604D02*
X7975404Y-11159604D01*
X7975404Y-11159604D02*
X7994452Y-11169128D01*
X7994452Y-11169128D02*
X8003975Y-11178651D01*
X8003975Y-11178651D02*
X8013499Y-11197699D01*
X8013499Y-11197699D02*
X8023023Y-11235794D01*
X8023023Y-11235794D02*
X8023023Y-11283413D01*
X8023023Y-11283413D02*
X8013499Y-11321508D01*
X8013499Y-11321508D02*
X8003975Y-11340556D01*
X8003975Y-11340556D02*
X7994452Y-11350080D01*
X7994452Y-11350080D02*
X7975404Y-11359604D01*
X7975404Y-11359604D02*
X7956356Y-11359604D01*
X7956356Y-11359604D02*
X7937309Y-11350080D01*
X7937309Y-11350080D02*
X7927785Y-11340556D01*
X7927785Y-11340556D02*
X7918261Y-11321508D01*
X7918261Y-11321508D02*
X7908737Y-11283413D01*
X7908737Y-11283413D02*
X7908737Y-11235794D01*
X7908737Y-11235794D02*
X7918261Y-11197699D01*
X7918261Y-11197699D02*
X7927785Y-11178651D01*
X7927785Y-11178651D02*
X7937309Y-11169128D01*
X7937309Y-11169128D02*
X7956356Y-11159604D01*
X8108737Y-11340556D02*
X8118261Y-11350080D01*
X8118261Y-11350080D02*
X8108737Y-11359604D01*
X8108737Y-11359604D02*
X8099213Y-11350080D01*
X8099213Y-11350080D02*
X8108737Y-11340556D01*
X8108737Y-11340556D02*
X8108737Y-11359604D01*
X8242071Y-11159604D02*
X8261118Y-11159604D01*
X8261118Y-11159604D02*
X8280166Y-11169128D01*
X8280166Y-11169128D02*
X8289690Y-11178651D01*
X8289690Y-11178651D02*
X8299213Y-11197699D01*
X8299213Y-11197699D02*
X8308737Y-11235794D01*
X8308737Y-11235794D02*
X8308737Y-11283413D01*
X8308737Y-11283413D02*
X8299213Y-11321508D01*
X8299213Y-11321508D02*
X8289690Y-11340556D01*
X8289690Y-11340556D02*
X8280166Y-11350080D01*
X8280166Y-11350080D02*
X8261118Y-11359604D01*
X8261118Y-11359604D02*
X8242071Y-11359604D01*
X8242071Y-11359604D02*
X8223023Y-11350080D01*
X8223023Y-11350080D02*
X8213499Y-11340556D01*
X8213499Y-11340556D02*
X8203975Y-11321508D01*
X8203975Y-11321508D02*
X8194452Y-11283413D01*
X8194452Y-11283413D02*
X8194452Y-11235794D01*
X8194452Y-11235794D02*
X8203975Y-11197699D01*
X8203975Y-11197699D02*
X8213499Y-11178651D01*
X8213499Y-11178651D02*
X8223023Y-11169128D01*
X8223023Y-11169128D02*
X8242071Y-11159604D01*
X8384928Y-11178651D02*
X8394452Y-11169128D01*
X8394452Y-11169128D02*
X8413499Y-11159604D01*
X8413499Y-11159604D02*
X8461118Y-11159604D01*
X8461118Y-11159604D02*
X8480166Y-11169128D01*
X8480166Y-11169128D02*
X8489690Y-11178651D01*
X8489690Y-11178651D02*
X8499214Y-11197699D01*
X8499214Y-11197699D02*
X8499214Y-11216747D01*
X8499214Y-11216747D02*
X8489690Y-11245318D01*
X8489690Y-11245318D02*
X8375404Y-11359604D01*
X8375404Y-11359604D02*
X8499214Y-11359604D01*
X8680166Y-11159604D02*
X8584928Y-11159604D01*
X8584928Y-11159604D02*
X8575404Y-11254842D01*
X8575404Y-11254842D02*
X8584928Y-11245318D01*
X8584928Y-11245318D02*
X8603975Y-11235794D01*
X8603975Y-11235794D02*
X8651595Y-11235794D01*
X8651595Y-11235794D02*
X8670642Y-11245318D01*
X8670642Y-11245318D02*
X8680166Y-11254842D01*
X8680166Y-11254842D02*
X8689690Y-11273889D01*
X8689690Y-11273889D02*
X8689690Y-11321508D01*
X8689690Y-11321508D02*
X8680166Y-11340556D01*
X8680166Y-11340556D02*
X8670642Y-11350080D01*
X8670642Y-11350080D02*
X8651595Y-11359604D01*
X8651595Y-11359604D02*
X8603975Y-11359604D01*
X8603975Y-11359604D02*
X8584928Y-11350080D01*
X8584928Y-11350080D02*
X8575404Y-11340556D01*
X8861118Y-11159604D02*
X8823023Y-11159604D01*
X8823023Y-11159604D02*
X8803975Y-11169128D01*
X8803975Y-11169128D02*
X8794452Y-11178651D01*
X8794452Y-11178651D02*
X8775404Y-11207223D01*
X8775404Y-11207223D02*
X8765880Y-11245318D01*
X8765880Y-11245318D02*
X8765880Y-11321508D01*
X8765880Y-11321508D02*
X8775404Y-11340556D01*
X8775404Y-11340556D02*
X8784928Y-11350080D01*
X8784928Y-11350080D02*
X8803975Y-11359604D01*
X8803975Y-11359604D02*
X8842071Y-11359604D01*
X8842071Y-11359604D02*
X8861118Y-11350080D01*
X8861118Y-11350080D02*
X8870642Y-11340556D01*
X8870642Y-11340556D02*
X8880166Y-11321508D01*
X8880166Y-11321508D02*
X8880166Y-11273889D01*
X8880166Y-11273889D02*
X8870642Y-11254842D01*
X8870642Y-11254842D02*
X8861118Y-11245318D01*
X8861118Y-11245318D02*
X8842071Y-11235794D01*
X8842071Y-11235794D02*
X8803975Y-11235794D01*
X8803975Y-11235794D02*
X8784928Y-11245318D01*
X8784928Y-11245318D02*
X8775404Y-11254842D01*
X8775404Y-11254842D02*
X8765880Y-11273889D01*
X8956356Y-11159604D02*
X8956356Y-11197699D01*
X9032547Y-11159604D02*
X9032547Y-11197699D01*
X9327785Y-11435794D02*
X9318261Y-11426270D01*
X9318261Y-11426270D02*
X9299214Y-11397699D01*
X9299214Y-11397699D02*
X9289690Y-11378651D01*
X9289690Y-11378651D02*
X9280166Y-11350080D01*
X9280166Y-11350080D02*
X9270642Y-11302461D01*
X9270642Y-11302461D02*
X9270642Y-11264366D01*
X9270642Y-11264366D02*
X9280166Y-11216747D01*
X9280166Y-11216747D02*
X9289690Y-11188175D01*
X9289690Y-11188175D02*
X9299214Y-11169128D01*
X9299214Y-11169128D02*
X9318261Y-11140556D01*
X9318261Y-11140556D02*
X9327785Y-11131032D01*
X9394452Y-11178651D02*
X9403976Y-11169128D01*
X9403976Y-11169128D02*
X9423023Y-11159604D01*
X9423023Y-11159604D02*
X9470642Y-11159604D01*
X9470642Y-11159604D02*
X9489690Y-11169128D01*
X9489690Y-11169128D02*
X9499214Y-11178651D01*
X9499214Y-11178651D02*
X9508737Y-11197699D01*
X9508737Y-11197699D02*
X9508737Y-11216747D01*
X9508737Y-11216747D02*
X9499214Y-11245318D01*
X9499214Y-11245318D02*
X9384928Y-11359604D01*
X9384928Y-11359604D02*
X9508737Y-11359604D01*
X9746833Y-11359604D02*
X9746833Y-11159604D01*
X9832547Y-11359604D02*
X9832547Y-11254842D01*
X9832547Y-11254842D02*
X9823023Y-11235794D01*
X9823023Y-11235794D02*
X9803976Y-11226270D01*
X9803976Y-11226270D02*
X9775404Y-11226270D01*
X9775404Y-11226270D02*
X9756357Y-11235794D01*
X9756357Y-11235794D02*
X9746833Y-11245318D01*
X9956357Y-11359604D02*
X9937309Y-11350080D01*
X9937309Y-11350080D02*
X9927785Y-11340556D01*
X9927785Y-11340556D02*
X9918261Y-11321508D01*
X9918261Y-11321508D02*
X9918261Y-11264366D01*
X9918261Y-11264366D02*
X9927785Y-11245318D01*
X9927785Y-11245318D02*
X9937309Y-11235794D01*
X9937309Y-11235794D02*
X9956357Y-11226270D01*
X9956357Y-11226270D02*
X9984928Y-11226270D01*
X9984928Y-11226270D02*
X10003976Y-11235794D01*
X10003976Y-11235794D02*
X10013499Y-11245318D01*
X10013499Y-11245318D02*
X10023023Y-11264366D01*
X10023023Y-11264366D02*
X10023023Y-11321508D01*
X10023023Y-11321508D02*
X10013499Y-11340556D01*
X10013499Y-11340556D02*
X10003976Y-11350080D01*
X10003976Y-11350080D02*
X9984928Y-11359604D01*
X9984928Y-11359604D02*
X9956357Y-11359604D01*
X10137309Y-11359604D02*
X10118261Y-11350080D01*
X10118261Y-11350080D02*
X10108738Y-11331032D01*
X10108738Y-11331032D02*
X10108738Y-11159604D01*
X10289690Y-11350080D02*
X10270642Y-11359604D01*
X10270642Y-11359604D02*
X10232547Y-11359604D01*
X10232547Y-11359604D02*
X10213499Y-11350080D01*
X10213499Y-11350080D02*
X10203976Y-11331032D01*
X10203976Y-11331032D02*
X10203976Y-11254842D01*
X10203976Y-11254842D02*
X10213499Y-11235794D01*
X10213499Y-11235794D02*
X10232547Y-11226270D01*
X10232547Y-11226270D02*
X10270642Y-11226270D01*
X10270642Y-11226270D02*
X10289690Y-11235794D01*
X10289690Y-11235794D02*
X10299214Y-11254842D01*
X10299214Y-11254842D02*
X10299214Y-11273889D01*
X10299214Y-11273889D02*
X10203976Y-11292937D01*
X10375404Y-11350080D02*
X10394452Y-11359604D01*
X10394452Y-11359604D02*
X10432547Y-11359604D01*
X10432547Y-11359604D02*
X10451595Y-11350080D01*
X10451595Y-11350080D02*
X10461119Y-11331032D01*
X10461119Y-11331032D02*
X10461119Y-11321508D01*
X10461119Y-11321508D02*
X10451595Y-11302461D01*
X10451595Y-11302461D02*
X10432547Y-11292937D01*
X10432547Y-11292937D02*
X10403976Y-11292937D01*
X10403976Y-11292937D02*
X10384928Y-11283413D01*
X10384928Y-11283413D02*
X10375404Y-11264366D01*
X10375404Y-11264366D02*
X10375404Y-11254842D01*
X10375404Y-11254842D02*
X10384928Y-11235794D01*
X10384928Y-11235794D02*
X10403976Y-11226270D01*
X10403976Y-11226270D02*
X10432547Y-11226270D01*
X10432547Y-11226270D02*
X10451595Y-11235794D01*
X10527785Y-11435794D02*
X10537309Y-11426270D01*
X10537309Y-11426270D02*
X10556357Y-11397699D01*
X10556357Y-11397699D02*
X10565880Y-11378651D01*
X10565880Y-11378651D02*
X10575404Y-11350080D01*
X10575404Y-11350080D02*
X10584928Y-11302461D01*
X10584928Y-11302461D02*
X10584928Y-11264366D01*
X10584928Y-11264366D02*
X10575404Y-11216747D01*
X10575404Y-11216747D02*
X10565880Y-11188175D01*
X10565880Y-11188175D02*
X10556357Y-11169128D01*
X10556357Y-11169128D02*
X10537309Y-11140556D01*
X10537309Y-11140556D02*
X10527785Y-11131032D01*
X10889690Y-11435794D02*
X10880166Y-11426270D01*
X10880166Y-11426270D02*
X10861119Y-11397699D01*
X10861119Y-11397699D02*
X10851595Y-11378651D01*
X10851595Y-11378651D02*
X10842071Y-11350080D01*
X10842071Y-11350080D02*
X10832547Y-11302461D01*
X10832547Y-11302461D02*
X10832547Y-11264366D01*
X10832547Y-11264366D02*
X10842071Y-11216747D01*
X10842071Y-11216747D02*
X10851595Y-11188175D01*
X10851595Y-11188175D02*
X10861119Y-11169128D01*
X10861119Y-11169128D02*
X10880166Y-11140556D01*
X10880166Y-11140556D02*
X10889690Y-11131032D01*
X10965880Y-11226270D02*
X10965880Y-11359604D01*
X10965880Y-11245318D02*
X10975404Y-11235794D01*
X10975404Y-11235794D02*
X10994452Y-11226270D01*
X10994452Y-11226270D02*
X11023023Y-11226270D01*
X11023023Y-11226270D02*
X11042071Y-11235794D01*
X11042071Y-11235794D02*
X11051595Y-11254842D01*
X11051595Y-11254842D02*
X11051595Y-11359604D01*
X11175404Y-11359604D02*
X11156357Y-11350080D01*
X11156357Y-11350080D02*
X11146833Y-11340556D01*
X11146833Y-11340556D02*
X11137309Y-11321508D01*
X11137309Y-11321508D02*
X11137309Y-11264366D01*
X11137309Y-11264366D02*
X11146833Y-11245318D01*
X11146833Y-11245318D02*
X11156357Y-11235794D01*
X11156357Y-11235794D02*
X11175404Y-11226270D01*
X11175404Y-11226270D02*
X11203976Y-11226270D01*
X11203976Y-11226270D02*
X11223023Y-11235794D01*
X11223023Y-11235794D02*
X11232547Y-11245318D01*
X11232547Y-11245318D02*
X11242071Y-11264366D01*
X11242071Y-11264366D02*
X11242071Y-11321508D01*
X11242071Y-11321508D02*
X11232547Y-11340556D01*
X11232547Y-11340556D02*
X11223023Y-11350080D01*
X11223023Y-11350080D02*
X11203976Y-11359604D01*
X11203976Y-11359604D02*
X11175404Y-11359604D01*
X11299214Y-11226270D02*
X11375404Y-11226270D01*
X11327785Y-11159604D02*
X11327785Y-11331032D01*
X11327785Y-11331032D02*
X11337309Y-11350080D01*
X11337309Y-11350080D02*
X11356357Y-11359604D01*
X11356357Y-11359604D02*
X11375404Y-11359604D01*
X11594452Y-11226270D02*
X11594452Y-11426270D01*
X11594452Y-11235794D02*
X11613499Y-11226270D01*
X11613499Y-11226270D02*
X11651595Y-11226270D01*
X11651595Y-11226270D02*
X11670642Y-11235794D01*
X11670642Y-11235794D02*
X11680166Y-11245318D01*
X11680166Y-11245318D02*
X11689690Y-11264366D01*
X11689690Y-11264366D02*
X11689690Y-11321508D01*
X11689690Y-11321508D02*
X11680166Y-11340556D01*
X11680166Y-11340556D02*
X11670642Y-11350080D01*
X11670642Y-11350080D02*
X11651595Y-11359604D01*
X11651595Y-11359604D02*
X11613499Y-11359604D01*
X11613499Y-11359604D02*
X11594452Y-11350080D01*
X11803976Y-11359604D02*
X11784928Y-11350080D01*
X11784928Y-11350080D02*
X11775404Y-11331032D01*
X11775404Y-11331032D02*
X11775404Y-11159604D01*
X11965880Y-11359604D02*
X11965880Y-11254842D01*
X11965880Y-11254842D02*
X11956357Y-11235794D01*
X11956357Y-11235794D02*
X11937309Y-11226270D01*
X11937309Y-11226270D02*
X11899214Y-11226270D01*
X11899214Y-11226270D02*
X11880166Y-11235794D01*
X11965880Y-11350080D02*
X11946833Y-11359604D01*
X11946833Y-11359604D02*
X11899214Y-11359604D01*
X11899214Y-11359604D02*
X11880166Y-11350080D01*
X11880166Y-11350080D02*
X11870642Y-11331032D01*
X11870642Y-11331032D02*
X11870642Y-11311985D01*
X11870642Y-11311985D02*
X11880166Y-11292937D01*
X11880166Y-11292937D02*
X11899214Y-11283413D01*
X11899214Y-11283413D02*
X11946833Y-11283413D01*
X11946833Y-11283413D02*
X11965880Y-11273889D01*
X12032547Y-11226270D02*
X12108738Y-11226270D01*
X12061119Y-11159604D02*
X12061119Y-11331032D01*
X12061119Y-11331032D02*
X12070642Y-11350080D01*
X12070642Y-11350080D02*
X12089690Y-11359604D01*
X12089690Y-11359604D02*
X12108738Y-11359604D01*
X12251595Y-11350080D02*
X12232547Y-11359604D01*
X12232547Y-11359604D02*
X12194452Y-11359604D01*
X12194452Y-11359604D02*
X12175404Y-11350080D01*
X12175404Y-11350080D02*
X12165880Y-11331032D01*
X12165880Y-11331032D02*
X12165880Y-11254842D01*
X12165880Y-11254842D02*
X12175404Y-11235794D01*
X12175404Y-11235794D02*
X12194452Y-11226270D01*
X12194452Y-11226270D02*
X12232547Y-11226270D01*
X12232547Y-11226270D02*
X12251595Y-11235794D01*
X12251595Y-11235794D02*
X12261119Y-11254842D01*
X12261119Y-11254842D02*
X12261119Y-11273889D01*
X12261119Y-11273889D02*
X12165880Y-11292937D01*
X12432547Y-11359604D02*
X12432547Y-11159604D01*
X12432547Y-11350080D02*
X12413500Y-11359604D01*
X12413500Y-11359604D02*
X12375404Y-11359604D01*
X12375404Y-11359604D02*
X12356357Y-11350080D01*
X12356357Y-11350080D02*
X12346833Y-11340556D01*
X12346833Y-11340556D02*
X12337309Y-11321508D01*
X12337309Y-11321508D02*
X12337309Y-11264366D01*
X12337309Y-11264366D02*
X12346833Y-11245318D01*
X12346833Y-11245318D02*
X12356357Y-11235794D01*
X12356357Y-11235794D02*
X12375404Y-11226270D01*
X12375404Y-11226270D02*
X12413500Y-11226270D01*
X12413500Y-11226270D02*
X12432547Y-11235794D01*
X12508738Y-11435794D02*
X12518261Y-11426270D01*
X12518261Y-11426270D02*
X12537309Y-11397699D01*
X12537309Y-11397699D02*
X12546833Y-11378651D01*
X12546833Y-11378651D02*
X12556357Y-11350080D01*
X12556357Y-11350080D02*
X12565880Y-11302461D01*
X12565880Y-11302461D02*
X12565880Y-11264366D01*
X12565880Y-11264366D02*
X12556357Y-11216747D01*
X12556357Y-11216747D02*
X12546833Y-11188175D01*
X12546833Y-11188175D02*
X12537309Y-11169128D01*
X12537309Y-11169128D02*
X12518261Y-11140556D01*
X12518261Y-11140556D02*
X12508738Y-11131032D01*
M02*
