%TF.GenerationSoftware,KiCad,Pcbnew,7.0.2-0*%
%TF.CreationDate,2024-05-28T17:42:11+08:00*%
%TF.ProjectId,angle_detect,616e676c-655f-4646-9574-6563742e6b69,rev?*%
%TF.SameCoordinates,Original*%
%TF.FileFunction,Legend,Bot*%
%TF.FilePolarity,Positive*%
%FSLAX46Y46*%
G04 Gerber Fmt 4.6, Leading zero omitted, Abs format (unit mm)*
G04 Created by KiCad (PCBNEW 7.0.2-0) date 2024-05-28 17:42:11*
%MOMM*%
%LPD*%
G01*
G04 APERTURE LIST*
%ADD10R,1.700000X1.700000*%
%ADD11O,1.700000X1.700000*%
%ADD12C,0.650000*%
%ADD13O,1.000000X2.100000*%
%ADD14O,1.000000X1.800000*%
%TA.AperFunction,Profile*%
%ADD15C,0.100000*%
%TD*%
G04 APERTURE END LIST*
%LPC*%
D10*
%TO.C,J2*%
X137795000Y-66324000D03*
D11*
X137795000Y-68864000D03*
X137795000Y-71404000D03*
X137795000Y-73944000D03*
X137795000Y-76484000D03*
X137795000Y-79024000D03*
X137795000Y-81564000D03*
X137795000Y-84104000D03*
X137795000Y-86644000D03*
X137795000Y-89184000D03*
%TD*%
%TO.C,J4*%
X91567000Y-47752000D03*
X91567000Y-50292000D03*
X91567000Y-52832000D03*
D10*
X91567000Y-55372000D03*
%TD*%
D12*
%TO.C,J3*%
X83236000Y-85893400D03*
X89016000Y-85893400D03*
D13*
X81806000Y-85373400D03*
D14*
X81806000Y-89573400D03*
D13*
X90446000Y-85373400D03*
D14*
X90446000Y-89573400D03*
%TD*%
D10*
%TO.C,J5*%
X70104000Y-49199800D03*
D11*
X72644000Y-49199800D03*
X75184000Y-49199800D03*
X77724000Y-49199800D03*
%TD*%
D10*
%TO.C,J1*%
X60071000Y-66324000D03*
D11*
X60071000Y-68864000D03*
X60071000Y-71404000D03*
X60071000Y-73944000D03*
X60071000Y-76484000D03*
X60071000Y-79024000D03*
X60071000Y-81564000D03*
X60071000Y-84104000D03*
X60071000Y-86644000D03*
X60071000Y-89184000D03*
%TD*%
%LPD*%
D15*
X140157200Y-48260000D02*
G75*
G03*
X136855200Y-44958000I-3302000J0D01*
G01*
X57708800Y-48260000D02*
X57708800Y-89458800D01*
X61010800Y-44958000D02*
G75*
G03*
X57708800Y-48260000I0J-3302000D01*
G01*
X136855200Y-44958000D02*
X61010800Y-44958000D01*
X140157200Y-48260000D02*
X140157200Y-89458800D01*
X57708800Y-89458800D02*
G75*
G03*
X61010800Y-92760800I3302000J0D01*
G01*
X61010800Y-92760800D02*
X136855200Y-92760800D01*
X136855200Y-92760800D02*
G75*
G03*
X140157200Y-89458800I0J3302000D01*
G01*
M02*
