M48
; DRILL file {KiCad 7.0.2-0} date 2024 May 28, Tuesday 17:42:43
; FORMAT={-:-/ absolute / metric / decimal}
; #@! TF.CreationDate,2024-05-28T17:42:43+08:00
; #@! TF.GenerationSoftware,Kicad,Pcbnew,7.0.2-0
; #@! TF.FileFunction,MixedPlating,1,2
FMAT,2
METRIC
; #@! TA.AperFunction,Plated,PTH,ViaDrill
T1C0.300
; #@! TA.AperFunction,Plated,PTH,ComponentDrill
T2C0.600
; #@! TA.AperFunction,Plated,PTH,ViaDrill
T3C0.700
; #@! TA.AperFunction,Plated,PTH,ComponentDrill
T4C1.000
; #@! TA.AperFunction,Plated,PTH,ViaDrill
T5C1.700
; #@! TA.AperFunction,NonPlated,NPTH,ComponentDrill
T6C0.650
%
G90
G05
T1
X60.452Y-59.944
X62.992Y-82.347
X64.313Y-65.989
X64.364Y-67.056
X64.364Y-68.021
X64.516Y-45.72
X64.516Y-46.355
X64.748Y-56.207
X64.77Y-49.149
X65.151Y-45.72
X65.151Y-46.355
X65.786Y-45.72
X65.786Y-46.355
X65.913Y-59.233
X65.938Y-61.747
X66.573Y-55.652
X66.675Y-62.306
X67.056Y-67.361
X68.377Y-79.299
X68.631Y-51.816
X69.088Y-79.299
X69.113Y-81.483
X69.825Y-81.483
X70.002Y-57.76
X70.155Y-54.824
X70.231Y-86.716
X70.51Y-81.483
X70.612Y-55.474
X70.968Y-62.89
X71.095Y-68.123
X71.12Y-59.69
X71.171Y-60.401
X71.171Y-81.483
X71.171Y-82.194
X71.171Y-82.931
X71.171Y-83.566
X71.425Y-51.816
X73.457Y-55.778
X73.609Y-61.747
X74.143Y-61.265
X74.143Y-62.205
X74.219Y-73.914
X74.574Y-62.687
X74.6Y-67.107
X74.625Y-61.722
X75.057Y-75.311
X75.108Y-62.128
X76.2Y-51.333
X76.454Y-56.54
X76.454Y-58.572
X76.708Y-66.37
X77.089Y-76.962
X77.622Y-54.864
X78.588Y-53.797
X78.638Y-63.957
X79.629Y-77.02
X81.915Y-57.324
X82.042Y-81.661
X82.245Y-62.281
X82.787Y-79.994
X83.058Y-81.661
X83.769Y-54.899
X83.947Y-81.534
X84.542Y-82.082
X84.582Y-58.473
X84.988Y-79.604
X85.066Y-80.415
X85.319Y-81.305
X87.351Y-73.914
X87.376Y-75.946
X87.376Y-78.232
X87.376Y-78.867
X87.376Y-79.502
X87.434Y-77.02
X87.503Y-83.185
X87.503Y-86.106
X87.704Y-71.854
X88.265Y-78.232
X88.265Y-78.867
X88.265Y-79.502
X88.526Y-84.773
X89.154Y-78.232
X89.154Y-78.867
X89.154Y-79.502
X90.043Y-78.232
X90.043Y-78.867
X90.043Y-79.502
X91.745Y-70.866
X110.007Y-73.558
X110.084Y-66.98
X110.49Y-67.589
X110.541Y-73.025
X110.604Y-68.288
X110.795Y-69.342
X110.896Y-72.365
X111.252Y-71.679
X113.995Y-65.938
X114.605Y-62.738
X115.465Y-67.589
X115.465Y-77.622
X117.64Y-73.076
X118.215Y-66.751
X119.05Y-67.615
X119.278Y-72.746
X119.355Y-62.738
X122.377Y-50.038
X122.657Y-68.326
T3
X98.425Y-45.644
X98.425Y-46.431
X98.425Y-47.244
X98.425Y-48.082
X98.425Y-48.87
X98.425Y-49.682
X98.425Y-50.521
X98.425Y-51.308
X98.425Y-52.121
X98.425Y-52.934
X98.425Y-53.721
X98.425Y-54.534
X98.425Y-55.321
X98.425Y-56.109
X98.425Y-56.921
X98.425Y-57.734
X98.425Y-58.522
X98.425Y-59.334
X98.425Y-60.249
X98.425Y-61.036
X98.425Y-61.849
X98.425Y-62.662
X98.425Y-63.449
X98.425Y-64.262
X98.425Y-65.049
X98.425Y-65.837
X98.425Y-66.65
X98.425Y-67.437
X98.425Y-68.224
X98.425Y-69.037
X98.425Y-69.926
X98.425Y-70.739
X98.425Y-71.526
X98.425Y-72.339
X98.425Y-73.254
X98.425Y-74.041
X98.425Y-74.854
X98.425Y-75.667
X98.425Y-76.454
X98.425Y-77.267
X98.425Y-78.054
X98.425Y-78.842
X98.425Y-79.654
X98.425Y-80.442
X98.425Y-81.229
X98.425Y-82.042
X98.425Y-82.855
X98.425Y-83.668
X98.425Y-84.455
X98.425Y-85.268
X98.425Y-86.182
X98.425Y-86.97
X98.425Y-87.782
X98.425Y-88.595
X98.425Y-89.383
X98.425Y-90.195
X98.425Y-90.983
X98.425Y-91.77
X99.416Y-45.618
X99.416Y-46.406
X99.416Y-47.219
X99.416Y-48.057
X99.416Y-48.844
X99.416Y-49.657
X99.416Y-50.495
X99.416Y-51.283
X99.416Y-52.095
X99.416Y-52.908
X99.416Y-53.696
X99.416Y-54.508
X99.416Y-55.296
X99.416Y-56.083
X99.416Y-56.896
X99.416Y-57.709
X99.416Y-58.496
X99.416Y-59.309
X99.416Y-60.223
X99.416Y-61.011
X99.416Y-61.824
X99.416Y-62.636
X99.416Y-63.424
X99.416Y-64.237
X99.416Y-65.024
X99.416Y-65.811
X99.416Y-66.624
X99.416Y-67.412
X99.416Y-68.199
X99.416Y-69.012
X99.416Y-69.901
X99.416Y-70.714
X99.416Y-71.501
X99.416Y-72.314
X99.416Y-73.228
X99.416Y-74.016
X99.416Y-74.828
X99.416Y-75.641
X99.416Y-76.429
X99.416Y-77.241
X99.416Y-78.029
X99.416Y-78.816
X99.416Y-79.629
X99.416Y-80.416
X99.416Y-81.204
X99.416Y-82.017
X99.416Y-82.829
X99.416Y-83.642
X99.416Y-84.43
X99.416Y-85.242
X99.416Y-86.157
X99.416Y-86.944
X99.416Y-87.757
X99.416Y-88.57
X99.416Y-89.357
X99.416Y-90.17
X99.416Y-90.957
X99.416Y-91.745
T4
X60.071Y-66.324
X60.071Y-68.864
X60.071Y-71.404
X60.071Y-73.944
X60.071Y-76.484
X60.071Y-79.024
X60.071Y-81.564
X60.071Y-84.104
X60.071Y-86.644
X60.071Y-89.184
X70.104Y-49.2
X72.644Y-49.2
X75.184Y-49.2
X77.724Y-49.2
X91.567Y-47.752
X91.567Y-50.292
X91.567Y-52.832
X91.567Y-55.372
X137.795Y-66.324
X137.795Y-68.864
X137.795Y-71.404
X137.795Y-73.944
X137.795Y-76.484
X137.795Y-79.024
X137.795Y-81.564
X137.795Y-84.104
X137.795Y-86.644
X137.795Y-89.184
T5
X95.377Y-49.276
X95.377Y-54.305
X95.377Y-84.074
X95.377Y-89.052
X101.854Y-49.276
X101.854Y-54.305
X101.981Y-84.049
X101.981Y-89.078
T6
X83.236Y-85.893
X89.016Y-85.893
T2
G00X81.806Y-84.823
M15
G01X81.806Y-85.923
M16
G05
G00X81.806Y-89.173
M15
G01X81.806Y-89.973
M16
G05
G00X90.446Y-84.823
M15
G01X90.446Y-85.923
M16
G05
G00X90.446Y-89.173
M15
G01X90.446Y-89.973
M16
G05
T0
M30
