%TF.GenerationSoftware,KiCad,Pcbnew,7.0.2-0*%
%TF.CreationDate,2024-05-28T17:42:11+08:00*%
%TF.ProjectId,angle_detect,616e676c-655f-4646-9574-6563742e6b69,rev?*%
%TF.SameCoordinates,Original*%
%TF.FileFunction,Legend,Top*%
%TF.FilePolarity,Positive*%
%FSLAX46Y46*%
G04 Gerber Fmt 4.6, Leading zero omitted, Abs format (unit mm)*
G04 Created by KiCad (PCBNEW 7.0.2-0) date 2024-05-28 17:42:11*
%MOMM*%
%LPD*%
G01*
G04 APERTURE LIST*
G04 Aperture macros list*
%AMRoundRect*
0 Rectangle with rounded corners*
0 $1 Rounding radius*
0 $2 $3 $4 $5 $6 $7 $8 $9 X,Y pos of 4 corners*
0 Add a 4 corners polygon primitive as box body*
4,1,4,$2,$3,$4,$5,$6,$7,$8,$9,$2,$3,0*
0 Add four circle primitives for the rounded corners*
1,1,$1+$1,$2,$3*
1,1,$1+$1,$4,$5*
1,1,$1+$1,$6,$7*
1,1,$1+$1,$8,$9*
0 Add four rect primitives between the rounded corners*
20,1,$1+$1,$2,$3,$4,$5,0*
20,1,$1+$1,$4,$5,$6,$7,0*
20,1,$1+$1,$6,$7,$8,$9,0*
20,1,$1+$1,$8,$9,$2,$3,0*%
G04 Aperture macros list end*
%ADD10C,0.150000*%
%ADD11C,0.120000*%
%ADD12R,0.800000X0.900000*%
%ADD13RoundRect,0.237500X-0.237500X0.250000X-0.237500X-0.250000X0.237500X-0.250000X0.237500X0.250000X0*%
%ADD14R,1.700000X1.700000*%
%ADD15O,1.700000X1.700000*%
%ADD16RoundRect,0.225000X0.225000X0.250000X-0.225000X0.250000X-0.225000X-0.250000X0.225000X-0.250000X0*%
%ADD17RoundRect,0.062500X0.062500X-0.337500X0.062500X0.337500X-0.062500X0.337500X-0.062500X-0.337500X0*%
%ADD18RoundRect,0.062500X0.337500X-0.062500X0.337500X0.062500X-0.337500X0.062500X-0.337500X-0.062500X0*%
%ADD19R,3.350000X3.350000*%
%ADD20RoundRect,0.237500X-0.237500X0.300000X-0.237500X-0.300000X0.237500X-0.300000X0.237500X0.300000X0*%
%ADD21R,1.100000X0.300000*%
%ADD22R,3.100000X2.300000*%
%ADD23RoundRect,0.218750X-0.256250X0.218750X-0.256250X-0.218750X0.256250X-0.218750X0.256250X0.218750X0*%
%ADD24RoundRect,0.225000X0.250000X-0.225000X0.250000X0.225000X-0.250000X0.225000X-0.250000X-0.225000X0*%
%ADD25RoundRect,0.075000X-0.700000X-0.075000X0.700000X-0.075000X0.700000X0.075000X-0.700000X0.075000X0*%
%ADD26RoundRect,0.075000X-0.075000X-0.700000X0.075000X-0.700000X0.075000X0.700000X-0.075000X0.700000X0*%
%ADD27RoundRect,0.237500X0.300000X0.237500X-0.300000X0.237500X-0.300000X-0.237500X0.300000X-0.237500X0*%
%ADD28C,0.650000*%
%ADD29R,0.600000X1.240000*%
%ADD30R,0.300000X1.240000*%
%ADD31O,1.000000X2.100000*%
%ADD32O,1.000000X1.800000*%
%ADD33RoundRect,0.237500X0.237500X-0.250000X0.237500X0.250000X-0.237500X0.250000X-0.237500X-0.250000X0*%
%ADD34RoundRect,0.237500X-0.300000X-0.237500X0.300000X-0.237500X0.300000X0.237500X-0.300000X0.237500X0*%
%ADD35R,1.500000X2.000000*%
%ADD36R,3.800000X2.000000*%
%ADD37RoundRect,0.237500X0.237500X-0.300000X0.237500X0.300000X-0.237500X0.300000X-0.237500X-0.300000X0*%
%ADD38R,1.500000X0.900000*%
%ADD39R,0.900000X1.700000*%
%ADD40RoundRect,0.237500X0.237500X-0.287500X0.237500X0.287500X-0.237500X0.287500X-0.237500X-0.287500X0*%
%TA.AperFunction,Profile*%
%ADD41C,0.100000*%
%TD*%
G04 APERTURE END LIST*
D10*
X99974400Y-44983400D02*
X99974400Y-92786200D01*
X98933000Y-44958000D02*
X98933000Y-92760800D01*
X97790000Y-44983400D02*
X97790000Y-92786200D01*
X130459180Y-53333638D02*
X129459180Y-53666971D01*
X129459180Y-53666971D02*
X130459180Y-54000304D01*
X129459180Y-54857447D02*
X129459180Y-54286019D01*
X129459180Y-54571733D02*
X130459180Y-54571733D01*
X130459180Y-54571733D02*
X130316323Y-54476495D01*
X130316323Y-54476495D02*
X130221085Y-54381257D01*
X130221085Y-54381257D02*
X130173466Y-54286019D01*
X129554419Y-55286019D02*
X129506800Y-55333638D01*
X129506800Y-55333638D02*
X129459180Y-55286019D01*
X129459180Y-55286019D02*
X129506800Y-55238400D01*
X129506800Y-55238400D02*
X129554419Y-55286019D01*
X129554419Y-55286019D02*
X129459180Y-55286019D01*
X129459180Y-56286018D02*
X129459180Y-55714590D01*
X129459180Y-56000304D02*
X130459180Y-56000304D01*
X130459180Y-56000304D02*
X130316323Y-55905066D01*
X130316323Y-55905066D02*
X130221085Y-55809828D01*
X130221085Y-55809828D02*
X130173466Y-55714590D01*
X93713276Y-62923600D02*
X93856133Y-62971219D01*
X93856133Y-62971219D02*
X94094228Y-62971219D01*
X94094228Y-62971219D02*
X94189466Y-62923600D01*
X94189466Y-62923600D02*
X94237085Y-62875980D01*
X94237085Y-62875980D02*
X94284704Y-62780742D01*
X94284704Y-62780742D02*
X94284704Y-62685504D01*
X94284704Y-62685504D02*
X94237085Y-62590266D01*
X94237085Y-62590266D02*
X94189466Y-62542647D01*
X94189466Y-62542647D02*
X94094228Y-62495028D01*
X94094228Y-62495028D02*
X93903752Y-62447409D01*
X93903752Y-62447409D02*
X93808514Y-62399790D01*
X93808514Y-62399790D02*
X93760895Y-62352171D01*
X93760895Y-62352171D02*
X93713276Y-62256933D01*
X93713276Y-62256933D02*
X93713276Y-62161695D01*
X93713276Y-62161695D02*
X93760895Y-62066457D01*
X93760895Y-62066457D02*
X93808514Y-62018838D01*
X93808514Y-62018838D02*
X93903752Y-61971219D01*
X93903752Y-61971219D02*
X94141847Y-61971219D01*
X94141847Y-61971219D02*
X94284704Y-62018838D01*
X94713276Y-62971219D02*
X94713276Y-61971219D01*
X94713276Y-61971219D02*
X94951371Y-61971219D01*
X94951371Y-61971219D02*
X95094228Y-62018838D01*
X95094228Y-62018838D02*
X95189466Y-62114076D01*
X95189466Y-62114076D02*
X95237085Y-62209314D01*
X95237085Y-62209314D02*
X95284704Y-62399790D01*
X95284704Y-62399790D02*
X95284704Y-62542647D01*
X95284704Y-62542647D02*
X95237085Y-62733123D01*
X95237085Y-62733123D02*
X95189466Y-62828361D01*
X95189466Y-62828361D02*
X95094228Y-62923600D01*
X95094228Y-62923600D02*
X94951371Y-62971219D01*
X94951371Y-62971219D02*
X94713276Y-62971219D01*
X95665657Y-62685504D02*
X96141847Y-62685504D01*
X95570419Y-62971219D02*
X95903752Y-61971219D01*
X95903752Y-61971219D02*
X96237085Y-62971219D01*
X66794038Y-49326895D02*
X66746419Y-49422133D01*
X66746419Y-49422133D02*
X66746419Y-49564990D01*
X66746419Y-49564990D02*
X66794038Y-49707847D01*
X66794038Y-49707847D02*
X66889276Y-49803085D01*
X66889276Y-49803085D02*
X66984514Y-49850704D01*
X66984514Y-49850704D02*
X67174990Y-49898323D01*
X67174990Y-49898323D02*
X67317847Y-49898323D01*
X67317847Y-49898323D02*
X67508323Y-49850704D01*
X67508323Y-49850704D02*
X67603561Y-49803085D01*
X67603561Y-49803085D02*
X67698800Y-49707847D01*
X67698800Y-49707847D02*
X67746419Y-49564990D01*
X67746419Y-49564990D02*
X67746419Y-49469752D01*
X67746419Y-49469752D02*
X67698800Y-49326895D01*
X67698800Y-49326895D02*
X67651180Y-49279276D01*
X67651180Y-49279276D02*
X67317847Y-49279276D01*
X67317847Y-49279276D02*
X67317847Y-49469752D01*
X67746419Y-48850704D02*
X66746419Y-48850704D01*
X66746419Y-48850704D02*
X67746419Y-48279276D01*
X67746419Y-48279276D02*
X66746419Y-48279276D01*
X67746419Y-47803085D02*
X66746419Y-47803085D01*
X66746419Y-47803085D02*
X66746419Y-47564990D01*
X66746419Y-47564990D02*
X66794038Y-47422133D01*
X66794038Y-47422133D02*
X66889276Y-47326895D01*
X66889276Y-47326895D02*
X66984514Y-47279276D01*
X66984514Y-47279276D02*
X67174990Y-47231657D01*
X67174990Y-47231657D02*
X67317847Y-47231657D01*
X67317847Y-47231657D02*
X67508323Y-47279276D01*
X67508323Y-47279276D02*
X67603561Y-47326895D01*
X67603561Y-47326895D02*
X67698800Y-47422133D01*
X67698800Y-47422133D02*
X67746419Y-47564990D01*
X67746419Y-47564990D02*
X67746419Y-47803085D01*
X80103800Y-45885076D02*
X80056180Y-46027933D01*
X80056180Y-46027933D02*
X80056180Y-46266028D01*
X80056180Y-46266028D02*
X80103800Y-46361266D01*
X80103800Y-46361266D02*
X80151419Y-46408885D01*
X80151419Y-46408885D02*
X80246657Y-46456504D01*
X80246657Y-46456504D02*
X80341895Y-46456504D01*
X80341895Y-46456504D02*
X80437133Y-46408885D01*
X80437133Y-46408885D02*
X80484752Y-46361266D01*
X80484752Y-46361266D02*
X80532371Y-46266028D01*
X80532371Y-46266028D02*
X80579990Y-46075552D01*
X80579990Y-46075552D02*
X80627609Y-45980314D01*
X80627609Y-45980314D02*
X80675228Y-45932695D01*
X80675228Y-45932695D02*
X80770466Y-45885076D01*
X80770466Y-45885076D02*
X80865704Y-45885076D01*
X80865704Y-45885076D02*
X80960942Y-45932695D01*
X80960942Y-45932695D02*
X81008561Y-45980314D01*
X81008561Y-45980314D02*
X81056180Y-46075552D01*
X81056180Y-46075552D02*
X81056180Y-46313647D01*
X81056180Y-46313647D02*
X81008561Y-46456504D01*
X81056180Y-46789838D02*
X80056180Y-47027933D01*
X80056180Y-47027933D02*
X80770466Y-47218409D01*
X80770466Y-47218409D02*
X80056180Y-47408885D01*
X80056180Y-47408885D02*
X81056180Y-47646981D01*
X80151419Y-48599361D02*
X80103800Y-48551742D01*
X80103800Y-48551742D02*
X80056180Y-48408885D01*
X80056180Y-48408885D02*
X80056180Y-48313647D01*
X80056180Y-48313647D02*
X80103800Y-48170790D01*
X80103800Y-48170790D02*
X80199038Y-48075552D01*
X80199038Y-48075552D02*
X80294276Y-48027933D01*
X80294276Y-48027933D02*
X80484752Y-47980314D01*
X80484752Y-47980314D02*
X80627609Y-47980314D01*
X80627609Y-47980314D02*
X80818085Y-48027933D01*
X80818085Y-48027933D02*
X80913323Y-48075552D01*
X80913323Y-48075552D02*
X81008561Y-48170790D01*
X81008561Y-48170790D02*
X81056180Y-48313647D01*
X81056180Y-48313647D02*
X81056180Y-48408885D01*
X81056180Y-48408885D02*
X81008561Y-48551742D01*
X81008561Y-48551742D02*
X80960942Y-48599361D01*
X80056180Y-49504123D02*
X80056180Y-49027933D01*
X80056180Y-49027933D02*
X81056180Y-49027933D01*
X80056180Y-49837457D02*
X81056180Y-49837457D01*
X80056180Y-50408885D02*
X80627609Y-49980314D01*
X81056180Y-50408885D02*
X80484752Y-49837457D01*
X93687876Y-60409000D02*
X93830733Y-60456619D01*
X93830733Y-60456619D02*
X94068828Y-60456619D01*
X94068828Y-60456619D02*
X94164066Y-60409000D01*
X94164066Y-60409000D02*
X94211685Y-60361380D01*
X94211685Y-60361380D02*
X94259304Y-60266142D01*
X94259304Y-60266142D02*
X94259304Y-60170904D01*
X94259304Y-60170904D02*
X94211685Y-60075666D01*
X94211685Y-60075666D02*
X94164066Y-60028047D01*
X94164066Y-60028047D02*
X94068828Y-59980428D01*
X94068828Y-59980428D02*
X93878352Y-59932809D01*
X93878352Y-59932809D02*
X93783114Y-59885190D01*
X93783114Y-59885190D02*
X93735495Y-59837571D01*
X93735495Y-59837571D02*
X93687876Y-59742333D01*
X93687876Y-59742333D02*
X93687876Y-59647095D01*
X93687876Y-59647095D02*
X93735495Y-59551857D01*
X93735495Y-59551857D02*
X93783114Y-59504238D01*
X93783114Y-59504238D02*
X93878352Y-59456619D01*
X93878352Y-59456619D02*
X94116447Y-59456619D01*
X94116447Y-59456619D02*
X94259304Y-59504238D01*
X95259304Y-60361380D02*
X95211685Y-60409000D01*
X95211685Y-60409000D02*
X95068828Y-60456619D01*
X95068828Y-60456619D02*
X94973590Y-60456619D01*
X94973590Y-60456619D02*
X94830733Y-60409000D01*
X94830733Y-60409000D02*
X94735495Y-60313761D01*
X94735495Y-60313761D02*
X94687876Y-60218523D01*
X94687876Y-60218523D02*
X94640257Y-60028047D01*
X94640257Y-60028047D02*
X94640257Y-59885190D01*
X94640257Y-59885190D02*
X94687876Y-59694714D01*
X94687876Y-59694714D02*
X94735495Y-59599476D01*
X94735495Y-59599476D02*
X94830733Y-59504238D01*
X94830733Y-59504238D02*
X94973590Y-59456619D01*
X94973590Y-59456619D02*
X95068828Y-59456619D01*
X95068828Y-59456619D02*
X95211685Y-59504238D01*
X95211685Y-59504238D02*
X95259304Y-59551857D01*
X96164066Y-60456619D02*
X95687876Y-60456619D01*
X95687876Y-60456619D02*
X95687876Y-59456619D01*
X72615323Y-91724019D02*
X72281990Y-91247828D01*
X72043895Y-91724019D02*
X72043895Y-90724019D01*
X72043895Y-90724019D02*
X72424847Y-90724019D01*
X72424847Y-90724019D02*
X72520085Y-90771638D01*
X72520085Y-90771638D02*
X72567704Y-90819257D01*
X72567704Y-90819257D02*
X72615323Y-90914495D01*
X72615323Y-90914495D02*
X72615323Y-91057352D01*
X72615323Y-91057352D02*
X72567704Y-91152590D01*
X72567704Y-91152590D02*
X72520085Y-91200209D01*
X72520085Y-91200209D02*
X72424847Y-91247828D01*
X72424847Y-91247828D02*
X72043895Y-91247828D01*
X72996276Y-91676400D02*
X73139133Y-91724019D01*
X73139133Y-91724019D02*
X73377228Y-91724019D01*
X73377228Y-91724019D02*
X73472466Y-91676400D01*
X73472466Y-91676400D02*
X73520085Y-91628780D01*
X73520085Y-91628780D02*
X73567704Y-91533542D01*
X73567704Y-91533542D02*
X73567704Y-91438304D01*
X73567704Y-91438304D02*
X73520085Y-91343066D01*
X73520085Y-91343066D02*
X73472466Y-91295447D01*
X73472466Y-91295447D02*
X73377228Y-91247828D01*
X73377228Y-91247828D02*
X73186752Y-91200209D01*
X73186752Y-91200209D02*
X73091514Y-91152590D01*
X73091514Y-91152590D02*
X73043895Y-91104971D01*
X73043895Y-91104971D02*
X72996276Y-91009733D01*
X72996276Y-91009733D02*
X72996276Y-90914495D01*
X72996276Y-90914495D02*
X73043895Y-90819257D01*
X73043895Y-90819257D02*
X73091514Y-90771638D01*
X73091514Y-90771638D02*
X73186752Y-90724019D01*
X73186752Y-90724019D02*
X73424847Y-90724019D01*
X73424847Y-90724019D02*
X73567704Y-90771638D01*
X73853419Y-90724019D02*
X74424847Y-90724019D01*
X74139133Y-91724019D02*
X74139133Y-90724019D01*
X62928428Y-87669609D02*
X62595095Y-87669609D01*
X62595095Y-88193419D02*
X62595095Y-87193419D01*
X62595095Y-87193419D02*
X63071285Y-87193419D01*
X63404619Y-88145800D02*
X63547476Y-88193419D01*
X63547476Y-88193419D02*
X63785571Y-88193419D01*
X63785571Y-88193419D02*
X63880809Y-88145800D01*
X63880809Y-88145800D02*
X63928428Y-88098180D01*
X63928428Y-88098180D02*
X63976047Y-88002942D01*
X63976047Y-88002942D02*
X63976047Y-87907704D01*
X63976047Y-87907704D02*
X63928428Y-87812466D01*
X63928428Y-87812466D02*
X63880809Y-87764847D01*
X63880809Y-87764847D02*
X63785571Y-87717228D01*
X63785571Y-87717228D02*
X63595095Y-87669609D01*
X63595095Y-87669609D02*
X63499857Y-87621990D01*
X63499857Y-87621990D02*
X63452238Y-87574371D01*
X63452238Y-87574371D02*
X63404619Y-87479133D01*
X63404619Y-87479133D02*
X63404619Y-87383895D01*
X63404619Y-87383895D02*
X63452238Y-87288657D01*
X63452238Y-87288657D02*
X63499857Y-87241038D01*
X63499857Y-87241038D02*
X63595095Y-87193419D01*
X63595095Y-87193419D02*
X63833190Y-87193419D01*
X63833190Y-87193419D02*
X63976047Y-87241038D01*
X64595095Y-87717228D02*
X64595095Y-88193419D01*
X64261762Y-87193419D02*
X64595095Y-87717228D01*
X64595095Y-87717228D02*
X64928428Y-87193419D01*
X65261762Y-88193419D02*
X65261762Y-87193419D01*
X65261762Y-87193419D02*
X65833190Y-88193419D01*
X65833190Y-88193419D02*
X65833190Y-87193419D01*
X66880809Y-88098180D02*
X66833190Y-88145800D01*
X66833190Y-88145800D02*
X66690333Y-88193419D01*
X66690333Y-88193419D02*
X66595095Y-88193419D01*
X66595095Y-88193419D02*
X66452238Y-88145800D01*
X66452238Y-88145800D02*
X66357000Y-88050561D01*
X66357000Y-88050561D02*
X66309381Y-87955323D01*
X66309381Y-87955323D02*
X66261762Y-87764847D01*
X66261762Y-87764847D02*
X66261762Y-87621990D01*
X66261762Y-87621990D02*
X66309381Y-87431514D01*
X66309381Y-87431514D02*
X66357000Y-87336276D01*
X66357000Y-87336276D02*
X66452238Y-87241038D01*
X66452238Y-87241038D02*
X66595095Y-87193419D01*
X66595095Y-87193419D02*
X66690333Y-87193419D01*
X66690333Y-87193419D02*
X66833190Y-87241038D01*
X66833190Y-87241038D02*
X66880809Y-87288657D01*
%TO.C,Y2*%
X65426228Y-51910190D02*
X65902419Y-51910190D01*
X64902419Y-52243523D02*
X65426228Y-51910190D01*
X65426228Y-51910190D02*
X64902419Y-51576857D01*
X64997657Y-51291142D02*
X64950038Y-51243523D01*
X64950038Y-51243523D02*
X64902419Y-51148285D01*
X64902419Y-51148285D02*
X64902419Y-50910190D01*
X64902419Y-50910190D02*
X64950038Y-50814952D01*
X64950038Y-50814952D02*
X64997657Y-50767333D01*
X64997657Y-50767333D02*
X65092895Y-50719714D01*
X65092895Y-50719714D02*
X65188133Y-50719714D01*
X65188133Y-50719714D02*
X65330990Y-50767333D01*
X65330990Y-50767333D02*
X65902419Y-51338761D01*
X65902419Y-51338761D02*
X65902419Y-50719714D01*
%TO.C,J2*%
X137461666Y-63016619D02*
X137461666Y-63730904D01*
X137461666Y-63730904D02*
X137414047Y-63873761D01*
X137414047Y-63873761D02*
X137318809Y-63969000D01*
X137318809Y-63969000D02*
X137175952Y-64016619D01*
X137175952Y-64016619D02*
X137080714Y-64016619D01*
X137890238Y-63111857D02*
X137937857Y-63064238D01*
X137937857Y-63064238D02*
X138033095Y-63016619D01*
X138033095Y-63016619D02*
X138271190Y-63016619D01*
X138271190Y-63016619D02*
X138366428Y-63064238D01*
X138366428Y-63064238D02*
X138414047Y-63111857D01*
X138414047Y-63111857D02*
X138461666Y-63207095D01*
X138461666Y-63207095D02*
X138461666Y-63302333D01*
X138461666Y-63302333D02*
X138414047Y-63445190D01*
X138414047Y-63445190D02*
X137842619Y-64016619D01*
X137842619Y-64016619D02*
X138461666Y-64016619D01*
%TO.C,R8*%
X75273219Y-70779466D02*
X74797028Y-71112799D01*
X75273219Y-71350894D02*
X74273219Y-71350894D01*
X74273219Y-71350894D02*
X74273219Y-70969942D01*
X74273219Y-70969942D02*
X74320838Y-70874704D01*
X74320838Y-70874704D02*
X74368457Y-70827085D01*
X74368457Y-70827085D02*
X74463695Y-70779466D01*
X74463695Y-70779466D02*
X74606552Y-70779466D01*
X74606552Y-70779466D02*
X74701790Y-70827085D01*
X74701790Y-70827085D02*
X74749409Y-70874704D01*
X74749409Y-70874704D02*
X74797028Y-70969942D01*
X74797028Y-70969942D02*
X74797028Y-71350894D01*
X74701790Y-70208037D02*
X74654171Y-70303275D01*
X74654171Y-70303275D02*
X74606552Y-70350894D01*
X74606552Y-70350894D02*
X74511314Y-70398513D01*
X74511314Y-70398513D02*
X74463695Y-70398513D01*
X74463695Y-70398513D02*
X74368457Y-70350894D01*
X74368457Y-70350894D02*
X74320838Y-70303275D01*
X74320838Y-70303275D02*
X74273219Y-70208037D01*
X74273219Y-70208037D02*
X74273219Y-70017561D01*
X74273219Y-70017561D02*
X74320838Y-69922323D01*
X74320838Y-69922323D02*
X74368457Y-69874704D01*
X74368457Y-69874704D02*
X74463695Y-69827085D01*
X74463695Y-69827085D02*
X74511314Y-69827085D01*
X74511314Y-69827085D02*
X74606552Y-69874704D01*
X74606552Y-69874704D02*
X74654171Y-69922323D01*
X74654171Y-69922323D02*
X74701790Y-70017561D01*
X74701790Y-70017561D02*
X74701790Y-70208037D01*
X74701790Y-70208037D02*
X74749409Y-70303275D01*
X74749409Y-70303275D02*
X74797028Y-70350894D01*
X74797028Y-70350894D02*
X74892266Y-70398513D01*
X74892266Y-70398513D02*
X75082742Y-70398513D01*
X75082742Y-70398513D02*
X75177980Y-70350894D01*
X75177980Y-70350894D02*
X75225600Y-70303275D01*
X75225600Y-70303275D02*
X75273219Y-70208037D01*
X75273219Y-70208037D02*
X75273219Y-70017561D01*
X75273219Y-70017561D02*
X75225600Y-69922323D01*
X75225600Y-69922323D02*
X75177980Y-69874704D01*
X75177980Y-69874704D02*
X75082742Y-69827085D01*
X75082742Y-69827085D02*
X74892266Y-69827085D01*
X74892266Y-69827085D02*
X74797028Y-69874704D01*
X74797028Y-69874704D02*
X74749409Y-69922323D01*
X74749409Y-69922323D02*
X74701790Y-70017561D01*
%TO.C,C4*%
X70940933Y-75355780D02*
X70893314Y-75403400D01*
X70893314Y-75403400D02*
X70750457Y-75451019D01*
X70750457Y-75451019D02*
X70655219Y-75451019D01*
X70655219Y-75451019D02*
X70512362Y-75403400D01*
X70512362Y-75403400D02*
X70417124Y-75308161D01*
X70417124Y-75308161D02*
X70369505Y-75212923D01*
X70369505Y-75212923D02*
X70321886Y-75022447D01*
X70321886Y-75022447D02*
X70321886Y-74879590D01*
X70321886Y-74879590D02*
X70369505Y-74689114D01*
X70369505Y-74689114D02*
X70417124Y-74593876D01*
X70417124Y-74593876D02*
X70512362Y-74498638D01*
X70512362Y-74498638D02*
X70655219Y-74451019D01*
X70655219Y-74451019D02*
X70750457Y-74451019D01*
X70750457Y-74451019D02*
X70893314Y-74498638D01*
X70893314Y-74498638D02*
X70940933Y-74546257D01*
X71798076Y-74784352D02*
X71798076Y-75451019D01*
X71559981Y-74403400D02*
X71321886Y-75117685D01*
X71321886Y-75117685D02*
X71940933Y-75117685D01*
%TO.C,C3*%
X70940333Y-76905180D02*
X70892714Y-76952800D01*
X70892714Y-76952800D02*
X70749857Y-77000419D01*
X70749857Y-77000419D02*
X70654619Y-77000419D01*
X70654619Y-77000419D02*
X70511762Y-76952800D01*
X70511762Y-76952800D02*
X70416524Y-76857561D01*
X70416524Y-76857561D02*
X70368905Y-76762323D01*
X70368905Y-76762323D02*
X70321286Y-76571847D01*
X70321286Y-76571847D02*
X70321286Y-76428990D01*
X70321286Y-76428990D02*
X70368905Y-76238514D01*
X70368905Y-76238514D02*
X70416524Y-76143276D01*
X70416524Y-76143276D02*
X70511762Y-76048038D01*
X70511762Y-76048038D02*
X70654619Y-76000419D01*
X70654619Y-76000419D02*
X70749857Y-76000419D01*
X70749857Y-76000419D02*
X70892714Y-76048038D01*
X70892714Y-76048038D02*
X70940333Y-76095657D01*
X71273667Y-76000419D02*
X71892714Y-76000419D01*
X71892714Y-76000419D02*
X71559381Y-76381371D01*
X71559381Y-76381371D02*
X71702238Y-76381371D01*
X71702238Y-76381371D02*
X71797476Y-76428990D01*
X71797476Y-76428990D02*
X71845095Y-76476609D01*
X71845095Y-76476609D02*
X71892714Y-76571847D01*
X71892714Y-76571847D02*
X71892714Y-76809942D01*
X71892714Y-76809942D02*
X71845095Y-76905180D01*
X71845095Y-76905180D02*
X71797476Y-76952800D01*
X71797476Y-76952800D02*
X71702238Y-77000419D01*
X71702238Y-77000419D02*
X71416524Y-77000419D01*
X71416524Y-77000419D02*
X71321286Y-76952800D01*
X71321286Y-76952800D02*
X71273667Y-76905180D01*
%TO.C,R6*%
X68542219Y-52844366D02*
X68066028Y-53177699D01*
X68542219Y-53415794D02*
X67542219Y-53415794D01*
X67542219Y-53415794D02*
X67542219Y-53034842D01*
X67542219Y-53034842D02*
X67589838Y-52939604D01*
X67589838Y-52939604D02*
X67637457Y-52891985D01*
X67637457Y-52891985D02*
X67732695Y-52844366D01*
X67732695Y-52844366D02*
X67875552Y-52844366D01*
X67875552Y-52844366D02*
X67970790Y-52891985D01*
X67970790Y-52891985D02*
X68018409Y-52939604D01*
X68018409Y-52939604D02*
X68066028Y-53034842D01*
X68066028Y-53034842D02*
X68066028Y-53415794D01*
X67542219Y-51987223D02*
X67542219Y-52177699D01*
X67542219Y-52177699D02*
X67589838Y-52272937D01*
X67589838Y-52272937D02*
X67637457Y-52320556D01*
X67637457Y-52320556D02*
X67780314Y-52415794D01*
X67780314Y-52415794D02*
X67970790Y-52463413D01*
X67970790Y-52463413D02*
X68351742Y-52463413D01*
X68351742Y-52463413D02*
X68446980Y-52415794D01*
X68446980Y-52415794D02*
X68494600Y-52368175D01*
X68494600Y-52368175D02*
X68542219Y-52272937D01*
X68542219Y-52272937D02*
X68542219Y-52082461D01*
X68542219Y-52082461D02*
X68494600Y-51987223D01*
X68494600Y-51987223D02*
X68446980Y-51939604D01*
X68446980Y-51939604D02*
X68351742Y-51891985D01*
X68351742Y-51891985D02*
X68113647Y-51891985D01*
X68113647Y-51891985D02*
X68018409Y-51939604D01*
X68018409Y-51939604D02*
X67970790Y-51987223D01*
X67970790Y-51987223D02*
X67923171Y-52082461D01*
X67923171Y-52082461D02*
X67923171Y-52272937D01*
X67923171Y-52272937D02*
X67970790Y-52368175D01*
X67970790Y-52368175D02*
X68018409Y-52415794D01*
X68018409Y-52415794D02*
X68113647Y-52463413D01*
%TO.C,J4*%
X91233666Y-57604619D02*
X91233666Y-58318904D01*
X91233666Y-58318904D02*
X91186047Y-58461761D01*
X91186047Y-58461761D02*
X91090809Y-58557000D01*
X91090809Y-58557000D02*
X90947952Y-58604619D01*
X90947952Y-58604619D02*
X90852714Y-58604619D01*
X92138428Y-57937952D02*
X92138428Y-58604619D01*
X91900333Y-57557000D02*
X91662238Y-58271285D01*
X91662238Y-58271285D02*
X92281285Y-58271285D01*
%TO.C,U3*%
X78974619Y-76707904D02*
X79784142Y-76707904D01*
X79784142Y-76707904D02*
X79879380Y-76660285D01*
X79879380Y-76660285D02*
X79927000Y-76612666D01*
X79927000Y-76612666D02*
X79974619Y-76517428D01*
X79974619Y-76517428D02*
X79974619Y-76326952D01*
X79974619Y-76326952D02*
X79927000Y-76231714D01*
X79927000Y-76231714D02*
X79879380Y-76184095D01*
X79879380Y-76184095D02*
X79784142Y-76136476D01*
X79784142Y-76136476D02*
X78974619Y-76136476D01*
X78974619Y-75755523D02*
X78974619Y-75136476D01*
X78974619Y-75136476D02*
X79355571Y-75469809D01*
X79355571Y-75469809D02*
X79355571Y-75326952D01*
X79355571Y-75326952D02*
X79403190Y-75231714D01*
X79403190Y-75231714D02*
X79450809Y-75184095D01*
X79450809Y-75184095D02*
X79546047Y-75136476D01*
X79546047Y-75136476D02*
X79784142Y-75136476D01*
X79784142Y-75136476D02*
X79879380Y-75184095D01*
X79879380Y-75184095D02*
X79927000Y-75231714D01*
X79927000Y-75231714D02*
X79974619Y-75326952D01*
X79974619Y-75326952D02*
X79974619Y-75612666D01*
X79974619Y-75612666D02*
X79927000Y-75707904D01*
X79927000Y-75707904D02*
X79879380Y-75755523D01*
%TO.C,C12*%
X71393380Y-71254857D02*
X71441000Y-71302476D01*
X71441000Y-71302476D02*
X71488619Y-71445333D01*
X71488619Y-71445333D02*
X71488619Y-71540571D01*
X71488619Y-71540571D02*
X71441000Y-71683428D01*
X71441000Y-71683428D02*
X71345761Y-71778666D01*
X71345761Y-71778666D02*
X71250523Y-71826285D01*
X71250523Y-71826285D02*
X71060047Y-71873904D01*
X71060047Y-71873904D02*
X70917190Y-71873904D01*
X70917190Y-71873904D02*
X70726714Y-71826285D01*
X70726714Y-71826285D02*
X70631476Y-71778666D01*
X70631476Y-71778666D02*
X70536238Y-71683428D01*
X70536238Y-71683428D02*
X70488619Y-71540571D01*
X70488619Y-71540571D02*
X70488619Y-71445333D01*
X70488619Y-71445333D02*
X70536238Y-71302476D01*
X70536238Y-71302476D02*
X70583857Y-71254857D01*
X71488619Y-70302476D02*
X71488619Y-70873904D01*
X71488619Y-70588190D02*
X70488619Y-70588190D01*
X70488619Y-70588190D02*
X70631476Y-70683428D01*
X70631476Y-70683428D02*
X70726714Y-70778666D01*
X70726714Y-70778666D02*
X70774333Y-70873904D01*
X70583857Y-69921523D02*
X70536238Y-69873904D01*
X70536238Y-69873904D02*
X70488619Y-69778666D01*
X70488619Y-69778666D02*
X70488619Y-69540571D01*
X70488619Y-69540571D02*
X70536238Y-69445333D01*
X70536238Y-69445333D02*
X70583857Y-69397714D01*
X70583857Y-69397714D02*
X70679095Y-69350095D01*
X70679095Y-69350095D02*
X70774333Y-69350095D01*
X70774333Y-69350095D02*
X70917190Y-69397714D01*
X70917190Y-69397714D02*
X71488619Y-69969142D01*
X71488619Y-69969142D02*
X71488619Y-69350095D01*
%TO.C,J6*%
X87131619Y-70437333D02*
X87845904Y-70437333D01*
X87845904Y-70437333D02*
X87988761Y-70484952D01*
X87988761Y-70484952D02*
X88084000Y-70580190D01*
X88084000Y-70580190D02*
X88131619Y-70723047D01*
X88131619Y-70723047D02*
X88131619Y-70818285D01*
X87131619Y-69532571D02*
X87131619Y-69723047D01*
X87131619Y-69723047D02*
X87179238Y-69818285D01*
X87179238Y-69818285D02*
X87226857Y-69865904D01*
X87226857Y-69865904D02*
X87369714Y-69961142D01*
X87369714Y-69961142D02*
X87560190Y-70008761D01*
X87560190Y-70008761D02*
X87941142Y-70008761D01*
X87941142Y-70008761D02*
X88036380Y-69961142D01*
X88036380Y-69961142D02*
X88084000Y-69913523D01*
X88084000Y-69913523D02*
X88131619Y-69818285D01*
X88131619Y-69818285D02*
X88131619Y-69627809D01*
X88131619Y-69627809D02*
X88084000Y-69532571D01*
X88084000Y-69532571D02*
X88036380Y-69484952D01*
X88036380Y-69484952D02*
X87941142Y-69437333D01*
X87941142Y-69437333D02*
X87703047Y-69437333D01*
X87703047Y-69437333D02*
X87607809Y-69484952D01*
X87607809Y-69484952D02*
X87560190Y-69532571D01*
X87560190Y-69532571D02*
X87512571Y-69627809D01*
X87512571Y-69627809D02*
X87512571Y-69818285D01*
X87512571Y-69818285D02*
X87560190Y-69913523D01*
X87560190Y-69913523D02*
X87607809Y-69961142D01*
X87607809Y-69961142D02*
X87703047Y-70008761D01*
%TO.C,C6*%
X65713980Y-74423866D02*
X65761600Y-74471485D01*
X65761600Y-74471485D02*
X65809219Y-74614342D01*
X65809219Y-74614342D02*
X65809219Y-74709580D01*
X65809219Y-74709580D02*
X65761600Y-74852437D01*
X65761600Y-74852437D02*
X65666361Y-74947675D01*
X65666361Y-74947675D02*
X65571123Y-74995294D01*
X65571123Y-74995294D02*
X65380647Y-75042913D01*
X65380647Y-75042913D02*
X65237790Y-75042913D01*
X65237790Y-75042913D02*
X65047314Y-74995294D01*
X65047314Y-74995294D02*
X64952076Y-74947675D01*
X64952076Y-74947675D02*
X64856838Y-74852437D01*
X64856838Y-74852437D02*
X64809219Y-74709580D01*
X64809219Y-74709580D02*
X64809219Y-74614342D01*
X64809219Y-74614342D02*
X64856838Y-74471485D01*
X64856838Y-74471485D02*
X64904457Y-74423866D01*
X64809219Y-73566723D02*
X64809219Y-73757199D01*
X64809219Y-73757199D02*
X64856838Y-73852437D01*
X64856838Y-73852437D02*
X64904457Y-73900056D01*
X64904457Y-73900056D02*
X65047314Y-73995294D01*
X65047314Y-73995294D02*
X65237790Y-74042913D01*
X65237790Y-74042913D02*
X65618742Y-74042913D01*
X65618742Y-74042913D02*
X65713980Y-73995294D01*
X65713980Y-73995294D02*
X65761600Y-73947675D01*
X65761600Y-73947675D02*
X65809219Y-73852437D01*
X65809219Y-73852437D02*
X65809219Y-73661961D01*
X65809219Y-73661961D02*
X65761600Y-73566723D01*
X65761600Y-73566723D02*
X65713980Y-73519104D01*
X65713980Y-73519104D02*
X65618742Y-73471485D01*
X65618742Y-73471485D02*
X65380647Y-73471485D01*
X65380647Y-73471485D02*
X65285409Y-73519104D01*
X65285409Y-73519104D02*
X65237790Y-73566723D01*
X65237790Y-73566723D02*
X65190171Y-73661961D01*
X65190171Y-73661961D02*
X65190171Y-73852437D01*
X65190171Y-73852437D02*
X65237790Y-73947675D01*
X65237790Y-73947675D02*
X65285409Y-73995294D01*
X65285409Y-73995294D02*
X65380647Y-74042913D01*
%TO.C,R7*%
X75247819Y-81524766D02*
X74771628Y-81858099D01*
X75247819Y-82096194D02*
X74247819Y-82096194D01*
X74247819Y-82096194D02*
X74247819Y-81715242D01*
X74247819Y-81715242D02*
X74295438Y-81620004D01*
X74295438Y-81620004D02*
X74343057Y-81572385D01*
X74343057Y-81572385D02*
X74438295Y-81524766D01*
X74438295Y-81524766D02*
X74581152Y-81524766D01*
X74581152Y-81524766D02*
X74676390Y-81572385D01*
X74676390Y-81572385D02*
X74724009Y-81620004D01*
X74724009Y-81620004D02*
X74771628Y-81715242D01*
X74771628Y-81715242D02*
X74771628Y-82096194D01*
X74247819Y-81191432D02*
X74247819Y-80524766D01*
X74247819Y-80524766D02*
X75247819Y-80953337D01*
%TO.C,U1*%
X72948895Y-50711219D02*
X72948895Y-51520742D01*
X72948895Y-51520742D02*
X72996514Y-51615980D01*
X72996514Y-51615980D02*
X73044133Y-51663600D01*
X73044133Y-51663600D02*
X73139371Y-51711219D01*
X73139371Y-51711219D02*
X73329847Y-51711219D01*
X73329847Y-51711219D02*
X73425085Y-51663600D01*
X73425085Y-51663600D02*
X73472704Y-51615980D01*
X73472704Y-51615980D02*
X73520323Y-51520742D01*
X73520323Y-51520742D02*
X73520323Y-50711219D01*
X74520323Y-51711219D02*
X73948895Y-51711219D01*
X74234609Y-51711219D02*
X74234609Y-50711219D01*
X74234609Y-50711219D02*
X74139371Y-50854076D01*
X74139371Y-50854076D02*
X74044133Y-50949314D01*
X74044133Y-50949314D02*
X73948895Y-50996933D01*
%TO.C,C7*%
X63239433Y-49648980D02*
X63191814Y-49696600D01*
X63191814Y-49696600D02*
X63048957Y-49744219D01*
X63048957Y-49744219D02*
X62953719Y-49744219D01*
X62953719Y-49744219D02*
X62810862Y-49696600D01*
X62810862Y-49696600D02*
X62715624Y-49601361D01*
X62715624Y-49601361D02*
X62668005Y-49506123D01*
X62668005Y-49506123D02*
X62620386Y-49315647D01*
X62620386Y-49315647D02*
X62620386Y-49172790D01*
X62620386Y-49172790D02*
X62668005Y-48982314D01*
X62668005Y-48982314D02*
X62715624Y-48887076D01*
X62715624Y-48887076D02*
X62810862Y-48791838D01*
X62810862Y-48791838D02*
X62953719Y-48744219D01*
X62953719Y-48744219D02*
X63048957Y-48744219D01*
X63048957Y-48744219D02*
X63191814Y-48791838D01*
X63191814Y-48791838D02*
X63239433Y-48839457D01*
X63572767Y-48744219D02*
X64239433Y-48744219D01*
X64239433Y-48744219D02*
X63810862Y-49744219D01*
%TO.C,C2*%
X86633380Y-70524666D02*
X86681000Y-70572285D01*
X86681000Y-70572285D02*
X86728619Y-70715142D01*
X86728619Y-70715142D02*
X86728619Y-70810380D01*
X86728619Y-70810380D02*
X86681000Y-70953237D01*
X86681000Y-70953237D02*
X86585761Y-71048475D01*
X86585761Y-71048475D02*
X86490523Y-71096094D01*
X86490523Y-71096094D02*
X86300047Y-71143713D01*
X86300047Y-71143713D02*
X86157190Y-71143713D01*
X86157190Y-71143713D02*
X85966714Y-71096094D01*
X85966714Y-71096094D02*
X85871476Y-71048475D01*
X85871476Y-71048475D02*
X85776238Y-70953237D01*
X85776238Y-70953237D02*
X85728619Y-70810380D01*
X85728619Y-70810380D02*
X85728619Y-70715142D01*
X85728619Y-70715142D02*
X85776238Y-70572285D01*
X85776238Y-70572285D02*
X85823857Y-70524666D01*
X85823857Y-70143713D02*
X85776238Y-70096094D01*
X85776238Y-70096094D02*
X85728619Y-70000856D01*
X85728619Y-70000856D02*
X85728619Y-69762761D01*
X85728619Y-69762761D02*
X85776238Y-69667523D01*
X85776238Y-69667523D02*
X85823857Y-69619904D01*
X85823857Y-69619904D02*
X85919095Y-69572285D01*
X85919095Y-69572285D02*
X86014333Y-69572285D01*
X86014333Y-69572285D02*
X86157190Y-69619904D01*
X86157190Y-69619904D02*
X86728619Y-70191332D01*
X86728619Y-70191332D02*
X86728619Y-69572285D01*
%TO.C,C14*%
X66135580Y-58987757D02*
X66183200Y-59035376D01*
X66183200Y-59035376D02*
X66230819Y-59178233D01*
X66230819Y-59178233D02*
X66230819Y-59273471D01*
X66230819Y-59273471D02*
X66183200Y-59416328D01*
X66183200Y-59416328D02*
X66087961Y-59511566D01*
X66087961Y-59511566D02*
X65992723Y-59559185D01*
X65992723Y-59559185D02*
X65802247Y-59606804D01*
X65802247Y-59606804D02*
X65659390Y-59606804D01*
X65659390Y-59606804D02*
X65468914Y-59559185D01*
X65468914Y-59559185D02*
X65373676Y-59511566D01*
X65373676Y-59511566D02*
X65278438Y-59416328D01*
X65278438Y-59416328D02*
X65230819Y-59273471D01*
X65230819Y-59273471D02*
X65230819Y-59178233D01*
X65230819Y-59178233D02*
X65278438Y-59035376D01*
X65278438Y-59035376D02*
X65326057Y-58987757D01*
X66230819Y-58035376D02*
X66230819Y-58606804D01*
X66230819Y-58321090D02*
X65230819Y-58321090D01*
X65230819Y-58321090D02*
X65373676Y-58416328D01*
X65373676Y-58416328D02*
X65468914Y-58511566D01*
X65468914Y-58511566D02*
X65516533Y-58606804D01*
X65564152Y-57178233D02*
X66230819Y-57178233D01*
X65183200Y-57416328D02*
X65897485Y-57654423D01*
X65897485Y-57654423D02*
X65897485Y-57035376D01*
%TO.C,J5*%
X67296619Y-45148133D02*
X68010904Y-45148133D01*
X68010904Y-45148133D02*
X68153761Y-45195752D01*
X68153761Y-45195752D02*
X68249000Y-45290990D01*
X68249000Y-45290990D02*
X68296619Y-45433847D01*
X68296619Y-45433847D02*
X68296619Y-45529085D01*
X67296619Y-44195752D02*
X67296619Y-44671942D01*
X67296619Y-44671942D02*
X67772809Y-44719561D01*
X67772809Y-44719561D02*
X67725190Y-44671942D01*
X67725190Y-44671942D02*
X67677571Y-44576704D01*
X67677571Y-44576704D02*
X67677571Y-44338609D01*
X67677571Y-44338609D02*
X67725190Y-44243371D01*
X67725190Y-44243371D02*
X67772809Y-44195752D01*
X67772809Y-44195752D02*
X67868047Y-44148133D01*
X67868047Y-44148133D02*
X68106142Y-44148133D01*
X68106142Y-44148133D02*
X68201380Y-44195752D01*
X68201380Y-44195752D02*
X68249000Y-44243371D01*
X68249000Y-44243371D02*
X68296619Y-44338609D01*
X68296619Y-44338609D02*
X68296619Y-44576704D01*
X68296619Y-44576704D02*
X68249000Y-44671942D01*
X68249000Y-44671942D02*
X68201380Y-44719561D01*
%TO.C,R5*%
X61846819Y-58508566D02*
X61370628Y-58841899D01*
X61846819Y-59079994D02*
X60846819Y-59079994D01*
X60846819Y-59079994D02*
X60846819Y-58699042D01*
X60846819Y-58699042D02*
X60894438Y-58603804D01*
X60894438Y-58603804D02*
X60942057Y-58556185D01*
X60942057Y-58556185D02*
X61037295Y-58508566D01*
X61037295Y-58508566D02*
X61180152Y-58508566D01*
X61180152Y-58508566D02*
X61275390Y-58556185D01*
X61275390Y-58556185D02*
X61323009Y-58603804D01*
X61323009Y-58603804D02*
X61370628Y-58699042D01*
X61370628Y-58699042D02*
X61370628Y-59079994D01*
X60846819Y-57603804D02*
X60846819Y-58079994D01*
X60846819Y-58079994D02*
X61323009Y-58127613D01*
X61323009Y-58127613D02*
X61275390Y-58079994D01*
X61275390Y-58079994D02*
X61227771Y-57984756D01*
X61227771Y-57984756D02*
X61227771Y-57746661D01*
X61227771Y-57746661D02*
X61275390Y-57651423D01*
X61275390Y-57651423D02*
X61323009Y-57603804D01*
X61323009Y-57603804D02*
X61418247Y-57556185D01*
X61418247Y-57556185D02*
X61656342Y-57556185D01*
X61656342Y-57556185D02*
X61751580Y-57603804D01*
X61751580Y-57603804D02*
X61799200Y-57651423D01*
X61799200Y-57651423D02*
X61846819Y-57746661D01*
X61846819Y-57746661D02*
X61846819Y-57984756D01*
X61846819Y-57984756D02*
X61799200Y-58079994D01*
X61799200Y-58079994D02*
X61751580Y-58127613D01*
%TO.C,C8*%
X63338833Y-53951780D02*
X63291214Y-53999400D01*
X63291214Y-53999400D02*
X63148357Y-54047019D01*
X63148357Y-54047019D02*
X63053119Y-54047019D01*
X63053119Y-54047019D02*
X62910262Y-53999400D01*
X62910262Y-53999400D02*
X62815024Y-53904161D01*
X62815024Y-53904161D02*
X62767405Y-53808923D01*
X62767405Y-53808923D02*
X62719786Y-53618447D01*
X62719786Y-53618447D02*
X62719786Y-53475590D01*
X62719786Y-53475590D02*
X62767405Y-53285114D01*
X62767405Y-53285114D02*
X62815024Y-53189876D01*
X62815024Y-53189876D02*
X62910262Y-53094638D01*
X62910262Y-53094638D02*
X63053119Y-53047019D01*
X63053119Y-53047019D02*
X63148357Y-53047019D01*
X63148357Y-53047019D02*
X63291214Y-53094638D01*
X63291214Y-53094638D02*
X63338833Y-53142257D01*
X63910262Y-53475590D02*
X63815024Y-53427971D01*
X63815024Y-53427971D02*
X63767405Y-53380352D01*
X63767405Y-53380352D02*
X63719786Y-53285114D01*
X63719786Y-53285114D02*
X63719786Y-53237495D01*
X63719786Y-53237495D02*
X63767405Y-53142257D01*
X63767405Y-53142257D02*
X63815024Y-53094638D01*
X63815024Y-53094638D02*
X63910262Y-53047019D01*
X63910262Y-53047019D02*
X64100738Y-53047019D01*
X64100738Y-53047019D02*
X64195976Y-53094638D01*
X64195976Y-53094638D02*
X64243595Y-53142257D01*
X64243595Y-53142257D02*
X64291214Y-53237495D01*
X64291214Y-53237495D02*
X64291214Y-53285114D01*
X64291214Y-53285114D02*
X64243595Y-53380352D01*
X64243595Y-53380352D02*
X64195976Y-53427971D01*
X64195976Y-53427971D02*
X64100738Y-53475590D01*
X64100738Y-53475590D02*
X63910262Y-53475590D01*
X63910262Y-53475590D02*
X63815024Y-53523209D01*
X63815024Y-53523209D02*
X63767405Y-53570828D01*
X63767405Y-53570828D02*
X63719786Y-53666066D01*
X63719786Y-53666066D02*
X63719786Y-53856542D01*
X63719786Y-53856542D02*
X63767405Y-53951780D01*
X63767405Y-53951780D02*
X63815024Y-53999400D01*
X63815024Y-53999400D02*
X63910262Y-54047019D01*
X63910262Y-54047019D02*
X64100738Y-54047019D01*
X64100738Y-54047019D02*
X64195976Y-53999400D01*
X64195976Y-53999400D02*
X64243595Y-53951780D01*
X64243595Y-53951780D02*
X64291214Y-53856542D01*
X64291214Y-53856542D02*
X64291214Y-53666066D01*
X64291214Y-53666066D02*
X64243595Y-53570828D01*
X64243595Y-53570828D02*
X64195976Y-53523209D01*
X64195976Y-53523209D02*
X64100738Y-53475590D01*
%TO.C,J1*%
X59737666Y-63016619D02*
X59737666Y-63730904D01*
X59737666Y-63730904D02*
X59690047Y-63873761D01*
X59690047Y-63873761D02*
X59594809Y-63969000D01*
X59594809Y-63969000D02*
X59451952Y-64016619D01*
X59451952Y-64016619D02*
X59356714Y-64016619D01*
X60737666Y-64016619D02*
X60166238Y-64016619D01*
X60451952Y-64016619D02*
X60451952Y-63016619D01*
X60451952Y-63016619D02*
X60356714Y-63159476D01*
X60356714Y-63159476D02*
X60261476Y-63254714D01*
X60261476Y-63254714D02*
X60166238Y-63302333D01*
%TO.C,U4*%
X72288619Y-81127104D02*
X73098142Y-81127104D01*
X73098142Y-81127104D02*
X73193380Y-81079485D01*
X73193380Y-81079485D02*
X73241000Y-81031866D01*
X73241000Y-81031866D02*
X73288619Y-80936628D01*
X73288619Y-80936628D02*
X73288619Y-80746152D01*
X73288619Y-80746152D02*
X73241000Y-80650914D01*
X73241000Y-80650914D02*
X73193380Y-80603295D01*
X73193380Y-80603295D02*
X73098142Y-80555676D01*
X73098142Y-80555676D02*
X72288619Y-80555676D01*
X72621952Y-79650914D02*
X73288619Y-79650914D01*
X72241000Y-79889009D02*
X72955285Y-80127104D01*
X72955285Y-80127104D02*
X72955285Y-79508057D01*
%TO.C,J8*%
X109496619Y-70437333D02*
X110210904Y-70437333D01*
X110210904Y-70437333D02*
X110353761Y-70484952D01*
X110353761Y-70484952D02*
X110449000Y-70580190D01*
X110449000Y-70580190D02*
X110496619Y-70723047D01*
X110496619Y-70723047D02*
X110496619Y-70818285D01*
X109925190Y-69818285D02*
X109877571Y-69913523D01*
X109877571Y-69913523D02*
X109829952Y-69961142D01*
X109829952Y-69961142D02*
X109734714Y-70008761D01*
X109734714Y-70008761D02*
X109687095Y-70008761D01*
X109687095Y-70008761D02*
X109591857Y-69961142D01*
X109591857Y-69961142D02*
X109544238Y-69913523D01*
X109544238Y-69913523D02*
X109496619Y-69818285D01*
X109496619Y-69818285D02*
X109496619Y-69627809D01*
X109496619Y-69627809D02*
X109544238Y-69532571D01*
X109544238Y-69532571D02*
X109591857Y-69484952D01*
X109591857Y-69484952D02*
X109687095Y-69437333D01*
X109687095Y-69437333D02*
X109734714Y-69437333D01*
X109734714Y-69437333D02*
X109829952Y-69484952D01*
X109829952Y-69484952D02*
X109877571Y-69532571D01*
X109877571Y-69532571D02*
X109925190Y-69627809D01*
X109925190Y-69627809D02*
X109925190Y-69818285D01*
X109925190Y-69818285D02*
X109972809Y-69913523D01*
X109972809Y-69913523D02*
X110020428Y-69961142D01*
X110020428Y-69961142D02*
X110115666Y-70008761D01*
X110115666Y-70008761D02*
X110306142Y-70008761D01*
X110306142Y-70008761D02*
X110401380Y-69961142D01*
X110401380Y-69961142D02*
X110449000Y-69913523D01*
X110449000Y-69913523D02*
X110496619Y-69818285D01*
X110496619Y-69818285D02*
X110496619Y-69627809D01*
X110496619Y-69627809D02*
X110449000Y-69532571D01*
X110449000Y-69532571D02*
X110401380Y-69484952D01*
X110401380Y-69484952D02*
X110306142Y-69437333D01*
X110306142Y-69437333D02*
X110115666Y-69437333D01*
X110115666Y-69437333D02*
X110020428Y-69484952D01*
X110020428Y-69484952D02*
X109972809Y-69532571D01*
X109972809Y-69532571D02*
X109925190Y-69627809D01*
%TO.C,C11*%
X69920180Y-71252657D02*
X69967800Y-71300276D01*
X69967800Y-71300276D02*
X70015419Y-71443133D01*
X70015419Y-71443133D02*
X70015419Y-71538371D01*
X70015419Y-71538371D02*
X69967800Y-71681228D01*
X69967800Y-71681228D02*
X69872561Y-71776466D01*
X69872561Y-71776466D02*
X69777323Y-71824085D01*
X69777323Y-71824085D02*
X69586847Y-71871704D01*
X69586847Y-71871704D02*
X69443990Y-71871704D01*
X69443990Y-71871704D02*
X69253514Y-71824085D01*
X69253514Y-71824085D02*
X69158276Y-71776466D01*
X69158276Y-71776466D02*
X69063038Y-71681228D01*
X69063038Y-71681228D02*
X69015419Y-71538371D01*
X69015419Y-71538371D02*
X69015419Y-71443133D01*
X69015419Y-71443133D02*
X69063038Y-71300276D01*
X69063038Y-71300276D02*
X69110657Y-71252657D01*
X70015419Y-70300276D02*
X70015419Y-70871704D01*
X70015419Y-70585990D02*
X69015419Y-70585990D01*
X69015419Y-70585990D02*
X69158276Y-70681228D01*
X69158276Y-70681228D02*
X69253514Y-70776466D01*
X69253514Y-70776466D02*
X69301133Y-70871704D01*
X70015419Y-69347895D02*
X70015419Y-69919323D01*
X70015419Y-69633609D02*
X69015419Y-69633609D01*
X69015419Y-69633609D02*
X69158276Y-69728847D01*
X69158276Y-69728847D02*
X69253514Y-69824085D01*
X69253514Y-69824085D02*
X69301133Y-69919323D01*
%TO.C,D3*%
X116101905Y-77114619D02*
X116101905Y-76114619D01*
X116101905Y-76114619D02*
X116340000Y-76114619D01*
X116340000Y-76114619D02*
X116482857Y-76162238D01*
X116482857Y-76162238D02*
X116578095Y-76257476D01*
X116578095Y-76257476D02*
X116625714Y-76352714D01*
X116625714Y-76352714D02*
X116673333Y-76543190D01*
X116673333Y-76543190D02*
X116673333Y-76686047D01*
X116673333Y-76686047D02*
X116625714Y-76876523D01*
X116625714Y-76876523D02*
X116578095Y-76971761D01*
X116578095Y-76971761D02*
X116482857Y-77067000D01*
X116482857Y-77067000D02*
X116340000Y-77114619D01*
X116340000Y-77114619D02*
X116101905Y-77114619D01*
X117006667Y-76114619D02*
X117625714Y-76114619D01*
X117625714Y-76114619D02*
X117292381Y-76495571D01*
X117292381Y-76495571D02*
X117435238Y-76495571D01*
X117435238Y-76495571D02*
X117530476Y-76543190D01*
X117530476Y-76543190D02*
X117578095Y-76590809D01*
X117578095Y-76590809D02*
X117625714Y-76686047D01*
X117625714Y-76686047D02*
X117625714Y-76924142D01*
X117625714Y-76924142D02*
X117578095Y-77019380D01*
X117578095Y-77019380D02*
X117530476Y-77067000D01*
X117530476Y-77067000D02*
X117435238Y-77114619D01*
X117435238Y-77114619D02*
X117149524Y-77114619D01*
X117149524Y-77114619D02*
X117054286Y-77067000D01*
X117054286Y-77067000D02*
X117006667Y-77019380D01*
X121275714Y-75214619D02*
X120704286Y-75214619D01*
X120990000Y-75214619D02*
X120990000Y-74214619D01*
X120990000Y-74214619D02*
X120894762Y-74357476D01*
X120894762Y-74357476D02*
X120799524Y-74452714D01*
X120799524Y-74452714D02*
X120704286Y-74500333D01*
%TO.C,C10*%
X68446980Y-71253757D02*
X68494600Y-71301376D01*
X68494600Y-71301376D02*
X68542219Y-71444233D01*
X68542219Y-71444233D02*
X68542219Y-71539471D01*
X68542219Y-71539471D02*
X68494600Y-71682328D01*
X68494600Y-71682328D02*
X68399361Y-71777566D01*
X68399361Y-71777566D02*
X68304123Y-71825185D01*
X68304123Y-71825185D02*
X68113647Y-71872804D01*
X68113647Y-71872804D02*
X67970790Y-71872804D01*
X67970790Y-71872804D02*
X67780314Y-71825185D01*
X67780314Y-71825185D02*
X67685076Y-71777566D01*
X67685076Y-71777566D02*
X67589838Y-71682328D01*
X67589838Y-71682328D02*
X67542219Y-71539471D01*
X67542219Y-71539471D02*
X67542219Y-71444233D01*
X67542219Y-71444233D02*
X67589838Y-71301376D01*
X67589838Y-71301376D02*
X67637457Y-71253757D01*
X68542219Y-70301376D02*
X68542219Y-70872804D01*
X68542219Y-70587090D02*
X67542219Y-70587090D01*
X67542219Y-70587090D02*
X67685076Y-70682328D01*
X67685076Y-70682328D02*
X67780314Y-70777566D01*
X67780314Y-70777566D02*
X67827933Y-70872804D01*
X67542219Y-69682328D02*
X67542219Y-69587090D01*
X67542219Y-69587090D02*
X67589838Y-69491852D01*
X67589838Y-69491852D02*
X67637457Y-69444233D01*
X67637457Y-69444233D02*
X67732695Y-69396614D01*
X67732695Y-69396614D02*
X67923171Y-69348995D01*
X67923171Y-69348995D02*
X68161266Y-69348995D01*
X68161266Y-69348995D02*
X68351742Y-69396614D01*
X68351742Y-69396614D02*
X68446980Y-69444233D01*
X68446980Y-69444233D02*
X68494600Y-69491852D01*
X68494600Y-69491852D02*
X68542219Y-69587090D01*
X68542219Y-69587090D02*
X68542219Y-69682328D01*
X68542219Y-69682328D02*
X68494600Y-69777566D01*
X68494600Y-69777566D02*
X68446980Y-69825185D01*
X68446980Y-69825185D02*
X68351742Y-69872804D01*
X68351742Y-69872804D02*
X68161266Y-69920423D01*
X68161266Y-69920423D02*
X67923171Y-69920423D01*
X67923171Y-69920423D02*
X67732695Y-69872804D01*
X67732695Y-69872804D02*
X67637457Y-69825185D01*
X67637457Y-69825185D02*
X67589838Y-69777566D01*
X67589838Y-69777566D02*
X67542219Y-69682328D01*
%TO.C,R3*%
X94831219Y-77941466D02*
X94355028Y-78274799D01*
X94831219Y-78512894D02*
X93831219Y-78512894D01*
X93831219Y-78512894D02*
X93831219Y-78131942D01*
X93831219Y-78131942D02*
X93878838Y-78036704D01*
X93878838Y-78036704D02*
X93926457Y-77989085D01*
X93926457Y-77989085D02*
X94021695Y-77941466D01*
X94021695Y-77941466D02*
X94164552Y-77941466D01*
X94164552Y-77941466D02*
X94259790Y-77989085D01*
X94259790Y-77989085D02*
X94307409Y-78036704D01*
X94307409Y-78036704D02*
X94355028Y-78131942D01*
X94355028Y-78131942D02*
X94355028Y-78512894D01*
X93831219Y-77608132D02*
X93831219Y-76989085D01*
X93831219Y-76989085D02*
X94212171Y-77322418D01*
X94212171Y-77322418D02*
X94212171Y-77179561D01*
X94212171Y-77179561D02*
X94259790Y-77084323D01*
X94259790Y-77084323D02*
X94307409Y-77036704D01*
X94307409Y-77036704D02*
X94402647Y-76989085D01*
X94402647Y-76989085D02*
X94640742Y-76989085D01*
X94640742Y-76989085D02*
X94735980Y-77036704D01*
X94735980Y-77036704D02*
X94783600Y-77084323D01*
X94783600Y-77084323D02*
X94831219Y-77179561D01*
X94831219Y-77179561D02*
X94831219Y-77465275D01*
X94831219Y-77465275D02*
X94783600Y-77560513D01*
X94783600Y-77560513D02*
X94735980Y-77608132D01*
%TO.C,D4*%
X116101905Y-89814619D02*
X116101905Y-88814619D01*
X116101905Y-88814619D02*
X116340000Y-88814619D01*
X116340000Y-88814619D02*
X116482857Y-88862238D01*
X116482857Y-88862238D02*
X116578095Y-88957476D01*
X116578095Y-88957476D02*
X116625714Y-89052714D01*
X116625714Y-89052714D02*
X116673333Y-89243190D01*
X116673333Y-89243190D02*
X116673333Y-89386047D01*
X116673333Y-89386047D02*
X116625714Y-89576523D01*
X116625714Y-89576523D02*
X116578095Y-89671761D01*
X116578095Y-89671761D02*
X116482857Y-89767000D01*
X116482857Y-89767000D02*
X116340000Y-89814619D01*
X116340000Y-89814619D02*
X116101905Y-89814619D01*
X117530476Y-89147952D02*
X117530476Y-89814619D01*
X117292381Y-88767000D02*
X117054286Y-89481285D01*
X117054286Y-89481285D02*
X117673333Y-89481285D01*
X121275714Y-87914619D02*
X120704286Y-87914619D01*
X120990000Y-87914619D02*
X120990000Y-86914619D01*
X120990000Y-86914619D02*
X120894762Y-87057476D01*
X120894762Y-87057476D02*
X120799524Y-87152714D01*
X120799524Y-87152714D02*
X120704286Y-87200333D01*
%TO.C,C1*%
X77607033Y-79506180D02*
X77559414Y-79553800D01*
X77559414Y-79553800D02*
X77416557Y-79601419D01*
X77416557Y-79601419D02*
X77321319Y-79601419D01*
X77321319Y-79601419D02*
X77178462Y-79553800D01*
X77178462Y-79553800D02*
X77083224Y-79458561D01*
X77083224Y-79458561D02*
X77035605Y-79363323D01*
X77035605Y-79363323D02*
X76987986Y-79172847D01*
X76987986Y-79172847D02*
X76987986Y-79029990D01*
X76987986Y-79029990D02*
X77035605Y-78839514D01*
X77035605Y-78839514D02*
X77083224Y-78744276D01*
X77083224Y-78744276D02*
X77178462Y-78649038D01*
X77178462Y-78649038D02*
X77321319Y-78601419D01*
X77321319Y-78601419D02*
X77416557Y-78601419D01*
X77416557Y-78601419D02*
X77559414Y-78649038D01*
X77559414Y-78649038D02*
X77607033Y-78696657D01*
X78559414Y-79601419D02*
X77987986Y-79601419D01*
X78273700Y-79601419D02*
X78273700Y-78601419D01*
X78273700Y-78601419D02*
X78178462Y-78744276D01*
X78178462Y-78744276D02*
X78083224Y-78839514D01*
X78083224Y-78839514D02*
X77987986Y-78887133D01*
%TO.C,D2*%
X116101905Y-66599019D02*
X116101905Y-65599019D01*
X116101905Y-65599019D02*
X116340000Y-65599019D01*
X116340000Y-65599019D02*
X116482857Y-65646638D01*
X116482857Y-65646638D02*
X116578095Y-65741876D01*
X116578095Y-65741876D02*
X116625714Y-65837114D01*
X116625714Y-65837114D02*
X116673333Y-66027590D01*
X116673333Y-66027590D02*
X116673333Y-66170447D01*
X116673333Y-66170447D02*
X116625714Y-66360923D01*
X116625714Y-66360923D02*
X116578095Y-66456161D01*
X116578095Y-66456161D02*
X116482857Y-66551400D01*
X116482857Y-66551400D02*
X116340000Y-66599019D01*
X116340000Y-66599019D02*
X116101905Y-66599019D01*
X117054286Y-65694257D02*
X117101905Y-65646638D01*
X117101905Y-65646638D02*
X117197143Y-65599019D01*
X117197143Y-65599019D02*
X117435238Y-65599019D01*
X117435238Y-65599019D02*
X117530476Y-65646638D01*
X117530476Y-65646638D02*
X117578095Y-65694257D01*
X117578095Y-65694257D02*
X117625714Y-65789495D01*
X117625714Y-65789495D02*
X117625714Y-65884733D01*
X117625714Y-65884733D02*
X117578095Y-66027590D01*
X117578095Y-66027590D02*
X117006667Y-66599019D01*
X117006667Y-66599019D02*
X117625714Y-66599019D01*
X121275714Y-64699019D02*
X120704286Y-64699019D01*
X120990000Y-64699019D02*
X120990000Y-63699019D01*
X120990000Y-63699019D02*
X120894762Y-63841876D01*
X120894762Y-63841876D02*
X120799524Y-63937114D01*
X120799524Y-63937114D02*
X120704286Y-63984733D01*
%TO.C,C9*%
X66973780Y-70777566D02*
X67021400Y-70825185D01*
X67021400Y-70825185D02*
X67069019Y-70968042D01*
X67069019Y-70968042D02*
X67069019Y-71063280D01*
X67069019Y-71063280D02*
X67021400Y-71206137D01*
X67021400Y-71206137D02*
X66926161Y-71301375D01*
X66926161Y-71301375D02*
X66830923Y-71348994D01*
X66830923Y-71348994D02*
X66640447Y-71396613D01*
X66640447Y-71396613D02*
X66497590Y-71396613D01*
X66497590Y-71396613D02*
X66307114Y-71348994D01*
X66307114Y-71348994D02*
X66211876Y-71301375D01*
X66211876Y-71301375D02*
X66116638Y-71206137D01*
X66116638Y-71206137D02*
X66069019Y-71063280D01*
X66069019Y-71063280D02*
X66069019Y-70968042D01*
X66069019Y-70968042D02*
X66116638Y-70825185D01*
X66116638Y-70825185D02*
X66164257Y-70777566D01*
X67069019Y-70301375D02*
X67069019Y-70110899D01*
X67069019Y-70110899D02*
X67021400Y-70015661D01*
X67021400Y-70015661D02*
X66973780Y-69968042D01*
X66973780Y-69968042D02*
X66830923Y-69872804D01*
X66830923Y-69872804D02*
X66640447Y-69825185D01*
X66640447Y-69825185D02*
X66259495Y-69825185D01*
X66259495Y-69825185D02*
X66164257Y-69872804D01*
X66164257Y-69872804D02*
X66116638Y-69920423D01*
X66116638Y-69920423D02*
X66069019Y-70015661D01*
X66069019Y-70015661D02*
X66069019Y-70206137D01*
X66069019Y-70206137D02*
X66116638Y-70301375D01*
X66116638Y-70301375D02*
X66164257Y-70348994D01*
X66164257Y-70348994D02*
X66259495Y-70396613D01*
X66259495Y-70396613D02*
X66497590Y-70396613D01*
X66497590Y-70396613D02*
X66592828Y-70348994D01*
X66592828Y-70348994D02*
X66640447Y-70301375D01*
X66640447Y-70301375D02*
X66688066Y-70206137D01*
X66688066Y-70206137D02*
X66688066Y-70015661D01*
X66688066Y-70015661D02*
X66640447Y-69920423D01*
X66640447Y-69920423D02*
X66592828Y-69872804D01*
X66592828Y-69872804D02*
X66497590Y-69825185D01*
%TO.C,C5*%
X67390380Y-74474666D02*
X67438000Y-74522285D01*
X67438000Y-74522285D02*
X67485619Y-74665142D01*
X67485619Y-74665142D02*
X67485619Y-74760380D01*
X67485619Y-74760380D02*
X67438000Y-74903237D01*
X67438000Y-74903237D02*
X67342761Y-74998475D01*
X67342761Y-74998475D02*
X67247523Y-75046094D01*
X67247523Y-75046094D02*
X67057047Y-75093713D01*
X67057047Y-75093713D02*
X66914190Y-75093713D01*
X66914190Y-75093713D02*
X66723714Y-75046094D01*
X66723714Y-75046094D02*
X66628476Y-74998475D01*
X66628476Y-74998475D02*
X66533238Y-74903237D01*
X66533238Y-74903237D02*
X66485619Y-74760380D01*
X66485619Y-74760380D02*
X66485619Y-74665142D01*
X66485619Y-74665142D02*
X66533238Y-74522285D01*
X66533238Y-74522285D02*
X66580857Y-74474666D01*
X66485619Y-73569904D02*
X66485619Y-74046094D01*
X66485619Y-74046094D02*
X66961809Y-74093713D01*
X66961809Y-74093713D02*
X66914190Y-74046094D01*
X66914190Y-74046094D02*
X66866571Y-73950856D01*
X66866571Y-73950856D02*
X66866571Y-73712761D01*
X66866571Y-73712761D02*
X66914190Y-73617523D01*
X66914190Y-73617523D02*
X66961809Y-73569904D01*
X66961809Y-73569904D02*
X67057047Y-73522285D01*
X67057047Y-73522285D02*
X67295142Y-73522285D01*
X67295142Y-73522285D02*
X67390380Y-73569904D01*
X67390380Y-73569904D02*
X67438000Y-73617523D01*
X67438000Y-73617523D02*
X67485619Y-73712761D01*
X67485619Y-73712761D02*
X67485619Y-73950856D01*
X67485619Y-73950856D02*
X67438000Y-74046094D01*
X67438000Y-74046094D02*
X67390380Y-74093713D01*
%TO.C,D5*%
X72464019Y-78690694D02*
X71464019Y-78690694D01*
X71464019Y-78690694D02*
X71464019Y-78452599D01*
X71464019Y-78452599D02*
X71511638Y-78309742D01*
X71511638Y-78309742D02*
X71606876Y-78214504D01*
X71606876Y-78214504D02*
X71702114Y-78166885D01*
X71702114Y-78166885D02*
X71892590Y-78119266D01*
X71892590Y-78119266D02*
X72035447Y-78119266D01*
X72035447Y-78119266D02*
X72225923Y-78166885D01*
X72225923Y-78166885D02*
X72321161Y-78214504D01*
X72321161Y-78214504D02*
X72416400Y-78309742D01*
X72416400Y-78309742D02*
X72464019Y-78452599D01*
X72464019Y-78452599D02*
X72464019Y-78690694D01*
X71464019Y-77214504D02*
X71464019Y-77690694D01*
X71464019Y-77690694D02*
X71940209Y-77738313D01*
X71940209Y-77738313D02*
X71892590Y-77690694D01*
X71892590Y-77690694D02*
X71844971Y-77595456D01*
X71844971Y-77595456D02*
X71844971Y-77357361D01*
X71844971Y-77357361D02*
X71892590Y-77262123D01*
X71892590Y-77262123D02*
X71940209Y-77214504D01*
X71940209Y-77214504D02*
X72035447Y-77166885D01*
X72035447Y-77166885D02*
X72273542Y-77166885D01*
X72273542Y-77166885D02*
X72368780Y-77214504D01*
X72368780Y-77214504D02*
X72416400Y-77262123D01*
X72416400Y-77262123D02*
X72464019Y-77357361D01*
X72464019Y-77357361D02*
X72464019Y-77595456D01*
X72464019Y-77595456D02*
X72416400Y-77690694D01*
X72416400Y-77690694D02*
X72368780Y-77738313D01*
%TO.C,C13*%
X72866580Y-71252657D02*
X72914200Y-71300276D01*
X72914200Y-71300276D02*
X72961819Y-71443133D01*
X72961819Y-71443133D02*
X72961819Y-71538371D01*
X72961819Y-71538371D02*
X72914200Y-71681228D01*
X72914200Y-71681228D02*
X72818961Y-71776466D01*
X72818961Y-71776466D02*
X72723723Y-71824085D01*
X72723723Y-71824085D02*
X72533247Y-71871704D01*
X72533247Y-71871704D02*
X72390390Y-71871704D01*
X72390390Y-71871704D02*
X72199914Y-71824085D01*
X72199914Y-71824085D02*
X72104676Y-71776466D01*
X72104676Y-71776466D02*
X72009438Y-71681228D01*
X72009438Y-71681228D02*
X71961819Y-71538371D01*
X71961819Y-71538371D02*
X71961819Y-71443133D01*
X71961819Y-71443133D02*
X72009438Y-71300276D01*
X72009438Y-71300276D02*
X72057057Y-71252657D01*
X72961819Y-70300276D02*
X72961819Y-70871704D01*
X72961819Y-70585990D02*
X71961819Y-70585990D01*
X71961819Y-70585990D02*
X72104676Y-70681228D01*
X72104676Y-70681228D02*
X72199914Y-70776466D01*
X72199914Y-70776466D02*
X72247533Y-70871704D01*
X71961819Y-69966942D02*
X71961819Y-69347895D01*
X71961819Y-69347895D02*
X72342771Y-69681228D01*
X72342771Y-69681228D02*
X72342771Y-69538371D01*
X72342771Y-69538371D02*
X72390390Y-69443133D01*
X72390390Y-69443133D02*
X72438009Y-69395514D01*
X72438009Y-69395514D02*
X72533247Y-69347895D01*
X72533247Y-69347895D02*
X72771342Y-69347895D01*
X72771342Y-69347895D02*
X72866580Y-69395514D01*
X72866580Y-69395514D02*
X72914200Y-69443133D01*
X72914200Y-69443133D02*
X72961819Y-69538371D01*
X72961819Y-69538371D02*
X72961819Y-69824085D01*
X72961819Y-69824085D02*
X72914200Y-69919323D01*
X72914200Y-69919323D02*
X72866580Y-69966942D01*
%TO.C,D1*%
X115847905Y-55016619D02*
X115847905Y-54016619D01*
X115847905Y-54016619D02*
X116086000Y-54016619D01*
X116086000Y-54016619D02*
X116228857Y-54064238D01*
X116228857Y-54064238D02*
X116324095Y-54159476D01*
X116324095Y-54159476D02*
X116371714Y-54254714D01*
X116371714Y-54254714D02*
X116419333Y-54445190D01*
X116419333Y-54445190D02*
X116419333Y-54588047D01*
X116419333Y-54588047D02*
X116371714Y-54778523D01*
X116371714Y-54778523D02*
X116324095Y-54873761D01*
X116324095Y-54873761D02*
X116228857Y-54969000D01*
X116228857Y-54969000D02*
X116086000Y-55016619D01*
X116086000Y-55016619D02*
X115847905Y-55016619D01*
X117371714Y-55016619D02*
X116800286Y-55016619D01*
X117086000Y-55016619D02*
X117086000Y-54016619D01*
X117086000Y-54016619D02*
X116990762Y-54159476D01*
X116990762Y-54159476D02*
X116895524Y-54254714D01*
X116895524Y-54254714D02*
X116800286Y-54302333D01*
X121021714Y-53116619D02*
X120450286Y-53116619D01*
X120736000Y-53116619D02*
X120736000Y-52116619D01*
X120736000Y-52116619D02*
X120640762Y-52259476D01*
X120640762Y-52259476D02*
X120545524Y-52354714D01*
X120545524Y-52354714D02*
X120450286Y-52402333D01*
D11*
%TO.C,Y2*%
X64589800Y-50084000D02*
X62289800Y-50084000D01*
X62289800Y-50084000D02*
X62289800Y-52784000D01*
%TO.C,R2*%
X90692500Y-81429776D02*
X90692500Y-81939224D01*
X89647500Y-81429776D02*
X89647500Y-81939224D01*
%TO.C,J2*%
X136465000Y-67594000D02*
X136465000Y-90514000D01*
X136465000Y-67594000D02*
X139125000Y-67594000D01*
X136465000Y-90514000D02*
X139125000Y-90514000D01*
X137795000Y-64994000D02*
X139125000Y-64994000D01*
X139125000Y-64994000D02*
X139125000Y-66324000D01*
X139125000Y-67594000D02*
X139125000Y-90514000D01*
%TO.C,R8*%
X73903100Y-70358076D02*
X73903100Y-70867524D01*
X72858100Y-70358076D02*
X72858100Y-70867524D01*
%TO.C,C4*%
X71248180Y-74068400D02*
X70967020Y-74068400D01*
X71248180Y-73048400D02*
X70967020Y-73048400D01*
%TO.C,C3*%
X71247580Y-75617800D02*
X70966420Y-75617800D01*
X71247580Y-74597800D02*
X70966420Y-74597800D01*
%TO.C,R6*%
X67172100Y-52422976D02*
X67172100Y-52932424D01*
X66127100Y-52422976D02*
X66127100Y-52932424D01*
%TO.C,J4*%
X90237000Y-54102000D02*
X90237000Y-46422000D01*
X90237000Y-56702000D02*
X90237000Y-55372000D01*
X91567000Y-56702000D02*
X90237000Y-56702000D01*
X92897000Y-46422000D02*
X90237000Y-46422000D01*
X92897000Y-54102000D02*
X90237000Y-54102000D01*
X92897000Y-54102000D02*
X92897000Y-46422000D01*
%TO.C,U3*%
X85922000Y-78556000D02*
X85197000Y-78556000D01*
X80702000Y-77831000D02*
X80702000Y-78556000D01*
X85922000Y-77831000D02*
X85922000Y-78556000D01*
X80702000Y-74061000D02*
X80702000Y-73336000D01*
X85922000Y-74061000D02*
X85922000Y-73336000D01*
X80702000Y-73336000D02*
X81427000Y-73336000D01*
X85922000Y-73336000D02*
X85197000Y-73336000D01*
%TO.C,C12*%
X70106000Y-70465733D02*
X70106000Y-70758267D01*
X69086000Y-70465733D02*
X69086000Y-70758267D01*
%TO.C,J6*%
X92809000Y-75429000D02*
X93409000Y-75429000D01*
X92809000Y-75319000D02*
X92809000Y-75429000D01*
X90219000Y-72554000D02*
X90619000Y-72354000D01*
X90619000Y-72354000D02*
X90219000Y-72154000D01*
X90219000Y-72154000D02*
X90219000Y-72554000D01*
X92809000Y-64889000D02*
X92809000Y-64779000D01*
X92809000Y-64779000D02*
X93409000Y-64779000D01*
%TO.C,power_led1*%
X95375400Y-76289800D02*
X93905400Y-76289800D01*
X93905400Y-76289800D02*
X93905400Y-78574800D01*
X95375400Y-78574800D02*
X95375400Y-76289800D01*
%TO.C,C6*%
X66266600Y-74397780D02*
X66266600Y-74116620D01*
X67286600Y-74397780D02*
X67286600Y-74116620D01*
%TO.C,G\u002A\u002A\u002A*%
G36*
X135607319Y-51426506D02*
G01*
X135607319Y-51651104D01*
X134591673Y-51651104D01*
X133576028Y-51651104D01*
X134091432Y-52166806D01*
X134606837Y-52682508D01*
X134606152Y-52968213D01*
X134605468Y-53253918D01*
X134131434Y-52768151D01*
X134017765Y-52652155D01*
X133912956Y-52546130D01*
X133820444Y-52453481D01*
X133743665Y-52377613D01*
X133686057Y-52321929D01*
X133651055Y-52289835D01*
X133641891Y-52283224D01*
X133622270Y-52294387D01*
X133572122Y-52326043D01*
X133494848Y-52375961D01*
X133393853Y-52441912D01*
X133272537Y-52521666D01*
X133134306Y-52612993D01*
X132982560Y-52713663D01*
X132830470Y-52814931D01*
X132669307Y-52922282D01*
X132518639Y-53022365D01*
X132381843Y-53112957D01*
X132262294Y-53191836D01*
X132163368Y-53256779D01*
X132088440Y-53305563D01*
X132040888Y-53335966D01*
X132024154Y-53345799D01*
X132020380Y-53326634D01*
X132017352Y-53274144D01*
X132015334Y-53195840D01*
X132014591Y-53099229D01*
X132014628Y-53075260D01*
X132015506Y-52804722D01*
X132677659Y-52375944D01*
X133339812Y-51947165D01*
X133192846Y-51799135D01*
X133045881Y-51651104D01*
X132529815Y-51651104D01*
X132013750Y-51651104D01*
X132013750Y-51426506D01*
X132013750Y-51201908D01*
X133810534Y-51201908D01*
X135607319Y-51201908D01*
X135607319Y-51426506D01*
G37*
G36*
X133068842Y-45893227D02*
G01*
X133083750Y-45999781D01*
X133091867Y-46072497D01*
X133090413Y-46118178D01*
X133076610Y-46143623D01*
X133047678Y-46155635D01*
X133000836Y-46161015D01*
X132958057Y-46164294D01*
X132784039Y-46192852D01*
X132641710Y-46246489D01*
X132531425Y-46324872D01*
X132453540Y-46427670D01*
X132408409Y-46554551D01*
X132396096Y-46689529D01*
X132408978Y-46837837D01*
X132446381Y-46956343D01*
X132510781Y-47049623D01*
X132604658Y-47122251D01*
X132641048Y-47141739D01*
X132738589Y-47189770D01*
X134167849Y-47199979D01*
X135597110Y-47210188D01*
X135602870Y-47451007D01*
X135608631Y-47691827D01*
X134183819Y-47684716D01*
X133905341Y-47683257D01*
X133664646Y-47681799D01*
X133458683Y-47680256D01*
X133284399Y-47678544D01*
X133138743Y-47676577D01*
X133018661Y-47674268D01*
X132921102Y-47671532D01*
X132843014Y-47668284D01*
X132781344Y-47664437D01*
X132733040Y-47659906D01*
X132695049Y-47654605D01*
X132664321Y-47648448D01*
X132637802Y-47641350D01*
X132637611Y-47641293D01*
X132446204Y-47567457D01*
X132287533Y-47469676D01*
X132160407Y-47346733D01*
X132063636Y-47197413D01*
X131996029Y-47020500D01*
X131983935Y-46973481D01*
X131962046Y-46833189D01*
X131955259Y-46674680D01*
X131963407Y-46516114D01*
X131986324Y-46375647D01*
X131989540Y-46362841D01*
X132053788Y-46188957D01*
X132148356Y-46042305D01*
X132272958Y-45923081D01*
X132427306Y-45831484D01*
X132611114Y-45767712D01*
X132824093Y-45731964D01*
X132912142Y-45725791D01*
X133044859Y-45719674D01*
X133068842Y-45893227D01*
G37*
G36*
X134606837Y-53917503D02*
G01*
X134606837Y-54121683D01*
X134430410Y-54121683D01*
X134253984Y-54121683D01*
X134336460Y-54188042D01*
X134465737Y-54317509D01*
X134564562Y-54471072D01*
X134631581Y-54644178D01*
X134665438Y-54832271D01*
X134664778Y-55030795D01*
X134637249Y-55199376D01*
X134583448Y-55370275D01*
X134508774Y-55509434D01*
X134410024Y-55621927D01*
X134332220Y-55682604D01*
X134286787Y-55712849D01*
X134244720Y-55738410D01*
X134202231Y-55759714D01*
X134155533Y-55777188D01*
X134100840Y-55791260D01*
X134034366Y-55802357D01*
X133952322Y-55810905D01*
X133850922Y-55817333D01*
X133726380Y-55822066D01*
X133574909Y-55825532D01*
X133392721Y-55828159D01*
X133176030Y-55830374D01*
X133009128Y-55831844D01*
X132013750Y-55840424D01*
X132013750Y-55616229D01*
X132013750Y-55392034D01*
X132917247Y-55382361D01*
X133151285Y-55379655D01*
X133348300Y-55376703D01*
X133512105Y-55373103D01*
X133646512Y-55368453D01*
X133755334Y-55362350D01*
X133842383Y-55354393D01*
X133911473Y-55344178D01*
X133966415Y-55331305D01*
X134011022Y-55315370D01*
X134049108Y-55295971D01*
X134084484Y-55272706D01*
X134105656Y-55256983D01*
X134189696Y-55168034D01*
X134246488Y-55053414D01*
X134274818Y-54918914D01*
X134273472Y-54770323D01*
X134241234Y-54613433D01*
X134240864Y-54612211D01*
X134208206Y-54519981D01*
X134168937Y-54448812D01*
X134111563Y-54379220D01*
X134090234Y-54356897D01*
X134049795Y-54316042D01*
X134012398Y-54281798D01*
X133974140Y-54253551D01*
X133931122Y-54230685D01*
X133879442Y-54212587D01*
X133815199Y-54198643D01*
X133734493Y-54188236D01*
X133633422Y-54180754D01*
X133508085Y-54175582D01*
X133354582Y-54172105D01*
X133169012Y-54169708D01*
X132947474Y-54167778D01*
X132886620Y-54167301D01*
X132013750Y-54160488D01*
X132013750Y-53936906D01*
X132013750Y-53713323D01*
X133310293Y-53713323D01*
X134606837Y-53713323D01*
X134606837Y-53917503D01*
G37*
G36*
X133310293Y-48267058D02*
G01*
X133412383Y-48267962D01*
X133644910Y-48289300D01*
X133846243Y-48331366D01*
X134021394Y-48396005D01*
X134175377Y-48485060D01*
X134311405Y-48598612D01*
X134449295Y-48756079D01*
X134551207Y-48925546D01*
X134619368Y-49112139D01*
X134656007Y-49320983D01*
X134662030Y-49405124D01*
X134658774Y-49631634D01*
X134625276Y-49833758D01*
X134559814Y-50016333D01*
X134460666Y-50184198D01*
X134330084Y-50338158D01*
X134228179Y-50433738D01*
X134131468Y-50504710D01*
X134036042Y-50556932D01*
X133915169Y-50609645D01*
X133799232Y-50647544D01*
X133678528Y-50672250D01*
X133543358Y-50685383D01*
X133384019Y-50688563D01*
X133262780Y-50686056D01*
X133096639Y-50678392D01*
X132961164Y-50665854D01*
X132846287Y-50646451D01*
X132741939Y-50618188D01*
X132638051Y-50579074D01*
X132570685Y-50549072D01*
X132427115Y-50461796D01*
X132292849Y-50340785D01*
X132173631Y-50192984D01*
X132075208Y-50025339D01*
X132012963Y-49874738D01*
X131983721Y-49755349D01*
X131965297Y-49611645D01*
X131961938Y-49537472D01*
X132330057Y-49537472D01*
X132352467Y-49691370D01*
X132371512Y-49756202D01*
X132436294Y-49882248D01*
X132535402Y-49992028D01*
X132664984Y-50083770D01*
X132821188Y-50155702D01*
X133000164Y-50206055D01*
X133198059Y-50233056D01*
X133411023Y-50234935D01*
X133412383Y-50234864D01*
X133627235Y-50210875D01*
X133810612Y-50162314D01*
X133964442Y-50088101D01*
X134090651Y-49987157D01*
X134191167Y-49858402D01*
X134237472Y-49772648D01*
X134264520Y-49708367D01*
X134280601Y-49647605D01*
X134288339Y-49575669D01*
X134290357Y-49477868D01*
X134290357Y-49476587D01*
X134288418Y-49378712D01*
X134280808Y-49306698D01*
X134264841Y-49245681D01*
X134237828Y-49180794D01*
X134236291Y-49177505D01*
X134150797Y-49037021D01*
X134038151Y-48923619D01*
X133897214Y-48836749D01*
X133726847Y-48775859D01*
X133525910Y-48740398D01*
X133310293Y-48729759D01*
X133092247Y-48740002D01*
X132906386Y-48770537D01*
X132754340Y-48821071D01*
X132725915Y-48834677D01*
X132640627Y-48888829D01*
X132551167Y-48962642D01*
X132471896Y-49043167D01*
X132422708Y-49108095D01*
X132366101Y-49234139D01*
X132334909Y-49381163D01*
X132330057Y-49537472D01*
X131961938Y-49537472D01*
X131958378Y-49458870D01*
X131963652Y-49312268D01*
X131981806Y-49187082D01*
X131981937Y-49186506D01*
X132041223Y-49003748D01*
X132132503Y-48823943D01*
X132232096Y-48681513D01*
X132373484Y-48538534D01*
X132542059Y-48425572D01*
X132737990Y-48342567D01*
X132961447Y-48289461D01*
X133212599Y-48266193D01*
X133310293Y-48267058D01*
G37*
G36*
X133480427Y-56358613D02*
G01*
X133565518Y-56371521D01*
X133722441Y-56395327D01*
X133942568Y-56463265D01*
X134138919Y-56561635D01*
X134309607Y-56689649D01*
X134452742Y-56846514D01*
X134477615Y-56880875D01*
X134558743Y-57019605D01*
X134615162Y-57170552D01*
X134649671Y-57342863D01*
X134662504Y-57484966D01*
X134657359Y-57713732D01*
X134616785Y-57925094D01*
X134541855Y-58117047D01*
X134433638Y-58287588D01*
X134293205Y-58434713D01*
X134121626Y-58556417D01*
X134077039Y-58581039D01*
X133917929Y-58647990D01*
X133731439Y-58698175D01*
X133528436Y-58729129D01*
X133385030Y-58737971D01*
X133208203Y-58742227D01*
X133202903Y-57772741D01*
X133197763Y-56832641D01*
X133565518Y-56832641D01*
X133565518Y-57560724D01*
X133565518Y-58288807D01*
X133642086Y-58276003D01*
X133811403Y-58237093D01*
X133948798Y-58180580D01*
X134060749Y-58102761D01*
X134153730Y-57999933D01*
X134173132Y-57972329D01*
X134249126Y-57825713D01*
X134289876Y-57669222D01*
X134295973Y-57509632D01*
X134268011Y-57353719D01*
X134206584Y-57208259D01*
X134112285Y-57080029D01*
X134093296Y-57060692D01*
X133991129Y-56980280D01*
X133866781Y-56911463D01*
X133737411Y-56862773D01*
X133662504Y-56846477D01*
X133565518Y-56832641D01*
X133197763Y-56832641D01*
X133197602Y-56803254D01*
X133075781Y-56819914D01*
X132876700Y-56863693D01*
X132705924Y-56936621D01*
X132563692Y-57038536D01*
X132450247Y-57169275D01*
X132384046Y-57286474D01*
X132357131Y-57352218D01*
X132341139Y-57415584D01*
X132333428Y-57491434D01*
X132331383Y-57582535D01*
X132332897Y-57680005D01*
X132340088Y-57751572D01*
X132355589Y-57812055D01*
X132382035Y-57876274D01*
X132384587Y-57881769D01*
X132470561Y-58019310D01*
X132588703Y-58132103D01*
X132725609Y-58214169D01*
X132780058Y-58240396D01*
X132816994Y-58263113D01*
X132838665Y-58290080D01*
X132847322Y-58329056D01*
X132845213Y-58387799D01*
X132834587Y-58474068D01*
X132823647Y-58552391D01*
X132811884Y-58633032D01*
X132798750Y-58685832D01*
X132777710Y-58712743D01*
X132742231Y-58715720D01*
X132685780Y-58696714D01*
X132601820Y-58657678D01*
X132552161Y-58633532D01*
X132379697Y-58530745D01*
X132238704Y-58403905D01*
X132124939Y-58248766D01*
X132075458Y-58156174D01*
X132035366Y-58063587D01*
X132000527Y-57967022D01*
X131977282Y-57884443D01*
X131974319Y-57869742D01*
X131959114Y-57737884D01*
X131954969Y-57585944D01*
X131961582Y-57432348D01*
X131978651Y-57295524D01*
X131984205Y-57267527D01*
X132047326Y-57065781D01*
X132143548Y-56882690D01*
X132269533Y-56722625D01*
X132421944Y-56589957D01*
X132568197Y-56502764D01*
X132696502Y-56445831D01*
X132819459Y-56405099D01*
X132949506Y-56377719D01*
X133099082Y-56360844D01*
X133218412Y-56353912D01*
X133480427Y-56358613D01*
G37*
G36*
X134606837Y-59450783D02*
G01*
X134606837Y-59654963D01*
X134430331Y-59654963D01*
X134253825Y-59654963D01*
X134385092Y-59775245D01*
X134506582Y-59907548D01*
X134592543Y-60051347D01*
X134644786Y-60211438D01*
X134665118Y-60392615D01*
X134662862Y-60511615D01*
X134636776Y-60695590D01*
X134582726Y-60854412D01*
X134501967Y-60985741D01*
X134395755Y-61087239D01*
X134332888Y-61126392D01*
X134280192Y-61156185D01*
X134246454Y-61178792D01*
X134239748Y-61186278D01*
X134255196Y-61202913D01*
X134294158Y-61234083D01*
X134323580Y-61255549D01*
X134404332Y-61327252D01*
X134486142Y-61424344D01*
X134558848Y-61532950D01*
X134612289Y-61639193D01*
X134620520Y-61661063D01*
X134643114Y-61757113D01*
X134656125Y-61878897D01*
X134659548Y-62012512D01*
X134653378Y-62144055D01*
X134637613Y-62259621D01*
X134620711Y-62324010D01*
X134568129Y-62429219D01*
X134488680Y-62533993D01*
X134394202Y-62624876D01*
X134302763Y-62685371D01*
X134255814Y-62708140D01*
X134210902Y-62727309D01*
X134164154Y-62743188D01*
X134111697Y-62756086D01*
X134049656Y-62766312D01*
X133974159Y-62774175D01*
X133881332Y-62779985D01*
X133767301Y-62784051D01*
X133628192Y-62786681D01*
X133460134Y-62788187D01*
X133259251Y-62788875D01*
X133021670Y-62789057D01*
X133004023Y-62789058D01*
X132023959Y-62789127D01*
X132018194Y-62560342D01*
X132012429Y-62331557D01*
X132998258Y-62325535D01*
X133224506Y-62324106D01*
X133413600Y-62322711D01*
X133569222Y-62321179D01*
X133695055Y-62319337D01*
X133794781Y-62317014D01*
X133872081Y-62314037D01*
X133930637Y-62310237D01*
X133974132Y-62305440D01*
X134006247Y-62299474D01*
X134030664Y-62292169D01*
X134051066Y-62283352D01*
X134065759Y-62275745D01*
X134162584Y-62208179D01*
X134228425Y-62123171D01*
X134266301Y-62015068D01*
X134279235Y-61878215D01*
X134279252Y-61876187D01*
X134261217Y-61722402D01*
X134207229Y-61581594D01*
X134121113Y-61459519D01*
X134006694Y-61361932D01*
X133900748Y-61306712D01*
X133870810Y-61295025D01*
X133841973Y-61285354D01*
X133810153Y-61277477D01*
X133771267Y-61271170D01*
X133721232Y-61266209D01*
X133655964Y-61262370D01*
X133571380Y-61259430D01*
X133463398Y-61257164D01*
X133327933Y-61255351D01*
X133160902Y-61253765D01*
X132958223Y-61252183D01*
X132896829Y-61251727D01*
X132013750Y-61245195D01*
X132013750Y-61022875D01*
X132013750Y-60800555D01*
X132988710Y-60794359D01*
X133213713Y-60792878D01*
X133401638Y-60791430D01*
X133556241Y-60789837D01*
X133681280Y-60787924D01*
X133780512Y-60785513D01*
X133857694Y-60782428D01*
X133916583Y-60778492D01*
X133960935Y-60773528D01*
X133994508Y-60767361D01*
X134021060Y-60759812D01*
X134044346Y-60750706D01*
X134059171Y-60744026D01*
X134159860Y-60675768D01*
X134212306Y-60612827D01*
X134240890Y-60565618D01*
X134258116Y-60521773D01*
X134266795Y-60468444D01*
X134269738Y-60392784D01*
X134269939Y-60349369D01*
X134268219Y-60256634D01*
X134260947Y-60189398D01*
X134244960Y-60132395D01*
X134217095Y-60070359D01*
X134208685Y-60053796D01*
X134137082Y-59942329D01*
X134047232Y-59857777D01*
X133929860Y-59792168D01*
X133881316Y-59772488D01*
X133850477Y-59761349D01*
X133819925Y-59752137D01*
X133785530Y-59744635D01*
X133743163Y-59738627D01*
X133688691Y-59733896D01*
X133617985Y-59730224D01*
X133526914Y-59727394D01*
X133411347Y-59725190D01*
X133267155Y-59723394D01*
X133090207Y-59721790D01*
X132886620Y-59720236D01*
X132013750Y-59713822D01*
X132013750Y-59480212D01*
X132013750Y-59246603D01*
X133310293Y-59246603D01*
X134606837Y-59246603D01*
X134606837Y-59450783D01*
G37*
%TO.C,R7*%
X73877700Y-81103376D02*
X73877700Y-81612824D01*
X72832700Y-81103376D02*
X72832700Y-81612824D01*
%TO.C,U1*%
X68600800Y-53538600D02*
X68600800Y-54488600D01*
X68600800Y-54488600D02*
X67260800Y-54488600D01*
X68600800Y-63758600D02*
X68600800Y-62808600D01*
X69550800Y-53538600D02*
X68600800Y-53538600D01*
X69550800Y-63758600D02*
X68600800Y-63758600D01*
X77870800Y-53538600D02*
X78820800Y-53538600D01*
X77870800Y-63758600D02*
X78820800Y-63758600D01*
X78820800Y-53538600D02*
X78820800Y-54488600D01*
X78820800Y-63758600D02*
X78820800Y-62808600D01*
%TO.C,C7*%
X63552367Y-48361600D02*
X63259833Y-48361600D01*
X63552367Y-47341600D02*
X63259833Y-47341600D01*
%TO.C,C2*%
X85346000Y-70211733D02*
X85346000Y-70504267D01*
X84326000Y-70211733D02*
X84326000Y-70504267D01*
%TO.C,C14*%
X64848200Y-58198633D02*
X64848200Y-58491167D01*
X63828200Y-58198633D02*
X63828200Y-58491167D01*
%TO.C,J3*%
X81546000Y-86648400D02*
X81546000Y-88568400D01*
X81546000Y-92283400D02*
X81546000Y-90578400D01*
X90706000Y-88568400D02*
X90706000Y-86648400D01*
X90706000Y-90578400D02*
X90706000Y-92283400D01*
X90706000Y-92283400D02*
X81546000Y-92283400D01*
%TO.C,J5*%
X68834000Y-50469800D02*
X68834000Y-49199800D01*
X70104000Y-50469800D02*
X68834000Y-50469800D01*
X72264000Y-48156871D02*
X72264000Y-47759800D01*
X73024000Y-48156871D02*
X73024000Y-47759800D01*
X74804000Y-48156871D02*
X74804000Y-47759800D01*
X75564000Y-48156871D02*
X75564000Y-47759800D01*
X77344000Y-48156871D02*
X77344000Y-47759800D01*
X78104000Y-48156871D02*
X78104000Y-47759800D01*
X69724000Y-48089800D02*
X69724000Y-47759800D01*
X70484000Y-48089800D02*
X70484000Y-47759800D01*
X68774000Y-47759800D02*
X79054000Y-47759800D01*
X71374000Y-47759800D02*
X71374000Y-45099800D01*
X73914000Y-47759800D02*
X73914000Y-45099800D01*
X76454000Y-47759800D02*
X76454000Y-45099800D01*
X79054000Y-47759800D02*
X79054000Y-45099800D01*
X68774000Y-45099800D02*
X68774000Y-47759800D01*
X69724000Y-45099800D02*
X69724000Y-39099800D01*
X69784000Y-45099800D02*
X69784000Y-39099800D01*
X69904000Y-45099800D02*
X69904000Y-39099800D01*
X70024000Y-45099800D02*
X70024000Y-39099800D01*
X70144000Y-45099800D02*
X70144000Y-39099800D01*
X70264000Y-45099800D02*
X70264000Y-39099800D01*
X70384000Y-45099800D02*
X70384000Y-39099800D01*
X72264000Y-45099800D02*
X72264000Y-39099800D01*
X74804000Y-45099800D02*
X74804000Y-39099800D01*
X77344000Y-45099800D02*
X77344000Y-39099800D01*
X79054000Y-45099800D02*
X68774000Y-45099800D01*
X69724000Y-39099800D02*
X70484000Y-39099800D01*
X70484000Y-39099800D02*
X70484000Y-45099800D01*
X72264000Y-39099800D02*
X73024000Y-39099800D01*
X73024000Y-39099800D02*
X73024000Y-45099800D01*
X74804000Y-39099800D02*
X75564000Y-39099800D01*
X75564000Y-39099800D02*
X75564000Y-45099800D01*
X77344000Y-39099800D02*
X78104000Y-39099800D01*
X78104000Y-39099800D02*
X78104000Y-45099800D01*
%TO.C,R1*%
X89168500Y-81429776D02*
X89168500Y-81939224D01*
X88123500Y-81429776D02*
X88123500Y-81939224D01*
%TO.C,R5*%
X62291700Y-58596624D02*
X62291700Y-58087176D01*
X63336700Y-58596624D02*
X63336700Y-58087176D01*
%TO.C,C8*%
X63359233Y-54504400D02*
X63651767Y-54504400D01*
X63359233Y-55524400D02*
X63651767Y-55524400D01*
%TO.C,J1*%
X58741000Y-67594000D02*
X58741000Y-90514000D01*
X58741000Y-67594000D02*
X61401000Y-67594000D01*
X58741000Y-90514000D02*
X61401000Y-90514000D01*
X60071000Y-64994000D02*
X61401000Y-64994000D01*
X61401000Y-64994000D02*
X61401000Y-66324000D01*
X61401000Y-67594000D02*
X61401000Y-90514000D01*
%TO.C,U4*%
X71736000Y-76265200D02*
X71736000Y-82275200D01*
X64916000Y-78515200D02*
X64916000Y-82275200D01*
X71736000Y-82275200D02*
X70476000Y-82275200D01*
X64916000Y-82275200D02*
X66176000Y-82275200D01*
%TO.C,J8*%
X104894000Y-64779000D02*
X104294000Y-64779000D01*
X104894000Y-64889000D02*
X104894000Y-64779000D01*
X107484000Y-67654000D02*
X107084000Y-67854000D01*
X107084000Y-67854000D02*
X107484000Y-68054000D01*
X107484000Y-68054000D02*
X107484000Y-67654000D01*
X104894000Y-75319000D02*
X104894000Y-75429000D01*
X104894000Y-75429000D02*
X104294000Y-75429000D01*
%TO.C,R4*%
X83809100Y-47880176D02*
X83809100Y-48389624D01*
X82764100Y-47880176D02*
X82764100Y-48389624D01*
%TO.C,R9*%
X62621900Y-62738724D02*
X62621900Y-62229276D01*
X63666900Y-62738724D02*
X63666900Y-62229276D01*
%TO.C,C11*%
X68632800Y-70463533D02*
X68632800Y-70756067D01*
X67612800Y-70463533D02*
X67612800Y-70756067D01*
%TO.C,C15*%
X64260000Y-62630267D02*
X64260000Y-62337733D01*
X65280000Y-62630267D02*
X65280000Y-62337733D01*
%TO.C,D3*%
X120490000Y-75902000D02*
X113190000Y-75902000D01*
X120490000Y-70402000D02*
X113190000Y-70402000D01*
X113190000Y-70402000D02*
X113190000Y-71552000D01*
%TO.C,SW2*%
X75489800Y-85112400D02*
X78789800Y-85112400D01*
X75489800Y-85412400D02*
X75489800Y-85112400D01*
X75489800Y-87612400D02*
X75489800Y-87912400D01*
X75489800Y-87912400D02*
X78789800Y-87912400D01*
X78789800Y-85112400D02*
X78789800Y-85412400D01*
X78789800Y-87912400D02*
X78789800Y-87612400D01*
%TO.C,user_led1*%
X86112133Y-46759400D02*
X86404667Y-46759400D01*
X86112133Y-47779400D02*
X86404667Y-47779400D01*
%TO.C,C10*%
X67159600Y-70464633D02*
X67159600Y-70757167D01*
X66139600Y-70464633D02*
X66139600Y-70757167D01*
%TO.C,R3*%
X93461100Y-77520076D02*
X93461100Y-78029524D01*
X92416100Y-77520076D02*
X92416100Y-78029524D01*
%TO.C,D4*%
X120490000Y-88602000D02*
X113190000Y-88602000D01*
X120490000Y-83102000D02*
X113190000Y-83102000D01*
X113190000Y-83102000D02*
X113190000Y-84252000D01*
%TO.C,C1*%
X77627433Y-80058800D02*
X77919967Y-80058800D01*
X77627433Y-81078800D02*
X77919967Y-81078800D01*
%TO.C,D2*%
X120490000Y-65386400D02*
X113190000Y-65386400D01*
X120490000Y-59886400D02*
X113190000Y-59886400D01*
X113190000Y-59886400D02*
X113190000Y-61036400D01*
%TO.C,C9*%
X65686400Y-70464633D02*
X65686400Y-70757167D01*
X64666400Y-70464633D02*
X64666400Y-70757167D01*
%TO.C,C5*%
X67943000Y-74448580D02*
X67943000Y-74167420D01*
X68963000Y-74448580D02*
X68963000Y-74167420D01*
%TO.C,D5*%
X72696400Y-79612600D02*
X74166400Y-79612600D01*
X74166400Y-79612600D02*
X74166400Y-77152600D01*
X72696400Y-77152600D02*
X72696400Y-79612600D01*
%TO.C,C13*%
X71579200Y-70463533D02*
X71579200Y-70756067D01*
X70559200Y-70463533D02*
X70559200Y-70756067D01*
%TO.C,D1*%
X120236000Y-53804000D02*
X112936000Y-53804000D01*
X120236000Y-48304000D02*
X112936000Y-48304000D01*
X112936000Y-48304000D02*
X112936000Y-49454000D01*
%TO.C,SW1*%
X75489800Y-88693800D02*
X78789800Y-88693800D01*
X75489800Y-88993800D02*
X75489800Y-88693800D01*
X75489800Y-91193800D02*
X75489800Y-91493800D01*
X75489800Y-91493800D02*
X78789800Y-91493800D01*
X78789800Y-88693800D02*
X78789800Y-88993800D01*
X78789800Y-91493800D02*
X78789800Y-91193800D01*
%TD*%
%LPC*%
D12*
%TO.C,Y2*%
X62889800Y-50734000D03*
X62889800Y-52134000D03*
X63989800Y-52134000D03*
X63989800Y-50734000D03*
%TD*%
D13*
%TO.C,R2*%
X90170000Y-80772000D03*
X90170000Y-82597000D03*
%TD*%
D14*
%TO.C,J2*%
X137795000Y-66324000D03*
D15*
X137795000Y-68864000D03*
X137795000Y-71404000D03*
X137795000Y-73944000D03*
X137795000Y-76484000D03*
X137795000Y-79024000D03*
X137795000Y-81564000D03*
X137795000Y-84104000D03*
X137795000Y-86644000D03*
X137795000Y-89184000D03*
%TD*%
D13*
%TO.C,R8*%
X73380600Y-69700300D03*
X73380600Y-71525300D03*
%TD*%
D16*
%TO.C,C4*%
X71882600Y-73558400D03*
X70332600Y-73558400D03*
%TD*%
%TO.C,C3*%
X71882000Y-75107800D03*
X70332000Y-75107800D03*
%TD*%
D13*
%TO.C,R6*%
X66649600Y-51765200D03*
X66649600Y-53590200D03*
%TD*%
D15*
%TO.C,J4*%
X91567000Y-47752000D03*
X91567000Y-50292000D03*
X91567000Y-52832000D03*
D14*
X91567000Y-55372000D03*
%TD*%
D17*
%TO.C,U3*%
X81812000Y-78396000D03*
X82312000Y-78396000D03*
X82812000Y-78396000D03*
X83312000Y-78396000D03*
X83812000Y-78396000D03*
X84312000Y-78396000D03*
X84812000Y-78396000D03*
D18*
X85762000Y-77446000D03*
X85762000Y-76946000D03*
X85762000Y-76446000D03*
X85762000Y-75946000D03*
X85762000Y-75446000D03*
X85762000Y-74946000D03*
X85762000Y-74446000D03*
D17*
X84812000Y-73496000D03*
X84312000Y-73496000D03*
X83812000Y-73496000D03*
X83312000Y-73496000D03*
X82812000Y-73496000D03*
X82312000Y-73496000D03*
X81812000Y-73496000D03*
D18*
X80862000Y-74446000D03*
X80862000Y-74946000D03*
X80862000Y-75446000D03*
X80862000Y-75946000D03*
X80862000Y-76446000D03*
X80862000Y-76946000D03*
X80862000Y-77446000D03*
D19*
X83312000Y-75946000D03*
%TD*%
D20*
%TO.C,C12*%
X69596000Y-69749500D03*
X69596000Y-71474500D03*
%TD*%
D21*
%TO.C,J6*%
X89419000Y-72354000D03*
X89419000Y-71854000D03*
X89419000Y-71354000D03*
X89419000Y-70854000D03*
X89419000Y-70354000D03*
X89419000Y-69854000D03*
X89419000Y-69354000D03*
X89419000Y-68854000D03*
X89419000Y-68354000D03*
X89419000Y-67854000D03*
D22*
X91119000Y-74024000D03*
X91119000Y-66184000D03*
%TD*%
D23*
%TO.C,power_led1*%
X94640400Y-76987300D03*
X94640400Y-78562300D03*
%TD*%
D24*
%TO.C,C6*%
X66776600Y-75032200D03*
X66776600Y-73482200D03*
%TD*%
D13*
%TO.C,R7*%
X73355200Y-80445600D03*
X73355200Y-82270600D03*
%TD*%
D25*
%TO.C,U1*%
X68035800Y-54898600D03*
X68035800Y-55398600D03*
X68035800Y-55898600D03*
X68035800Y-56398600D03*
X68035800Y-56898600D03*
X68035800Y-57398600D03*
X68035800Y-57898600D03*
X68035800Y-58398600D03*
X68035800Y-58898600D03*
X68035800Y-59398600D03*
X68035800Y-59898600D03*
X68035800Y-60398600D03*
X68035800Y-60898600D03*
X68035800Y-61398600D03*
X68035800Y-61898600D03*
X68035800Y-62398600D03*
D26*
X69960800Y-64323600D03*
X70460800Y-64323600D03*
X70960800Y-64323600D03*
X71460800Y-64323600D03*
X71960800Y-64323600D03*
X72460800Y-64323600D03*
X72960800Y-64323600D03*
X73460800Y-64323600D03*
X73960800Y-64323600D03*
X74460800Y-64323600D03*
X74960800Y-64323600D03*
X75460800Y-64323600D03*
X75960800Y-64323600D03*
X76460800Y-64323600D03*
X76960800Y-64323600D03*
X77460800Y-64323600D03*
D25*
X79385800Y-62398600D03*
X79385800Y-61898600D03*
X79385800Y-61398600D03*
X79385800Y-60898600D03*
X79385800Y-60398600D03*
X79385800Y-59898600D03*
X79385800Y-59398600D03*
X79385800Y-58898600D03*
X79385800Y-58398600D03*
X79385800Y-57898600D03*
X79385800Y-57398600D03*
X79385800Y-56898600D03*
X79385800Y-56398600D03*
X79385800Y-55898600D03*
X79385800Y-55398600D03*
X79385800Y-54898600D03*
D26*
X77460800Y-52973600D03*
X76960800Y-52973600D03*
X76460800Y-52973600D03*
X75960800Y-52973600D03*
X75460800Y-52973600D03*
X74960800Y-52973600D03*
X74460800Y-52973600D03*
X73960800Y-52973600D03*
X73460800Y-52973600D03*
X72960800Y-52973600D03*
X72460800Y-52973600D03*
X71960800Y-52973600D03*
X71460800Y-52973600D03*
X70960800Y-52973600D03*
X70460800Y-52973600D03*
X69960800Y-52973600D03*
%TD*%
D27*
%TO.C,C7*%
X64268600Y-47851600D03*
X62543600Y-47851600D03*
%TD*%
D20*
%TO.C,C2*%
X84836000Y-69495500D03*
X84836000Y-71220500D03*
%TD*%
%TO.C,C14*%
X64338200Y-57482400D03*
X64338200Y-59207400D03*
%TD*%
D28*
%TO.C,J3*%
X83236000Y-85893400D03*
X89016000Y-85893400D03*
D29*
X82926000Y-84773400D03*
X83726000Y-84773400D03*
D30*
X84876000Y-84773400D03*
X85876000Y-84773400D03*
X86376000Y-84773400D03*
X87376000Y-84773400D03*
D29*
X88526000Y-84773400D03*
X89326000Y-84773400D03*
X89326000Y-84773400D03*
X88526000Y-84773400D03*
D30*
X87876000Y-84773400D03*
X86876000Y-84773400D03*
X85376000Y-84773400D03*
X84376000Y-84773400D03*
D29*
X83726000Y-84773400D03*
X82926000Y-84773400D03*
D31*
X81806000Y-85373400D03*
D32*
X81806000Y-89573400D03*
D31*
X90446000Y-85373400D03*
D32*
X90446000Y-89573400D03*
%TD*%
D14*
%TO.C,J5*%
X70104000Y-49199800D03*
D15*
X72644000Y-49199800D03*
X75184000Y-49199800D03*
X77724000Y-49199800D03*
%TD*%
D13*
%TO.C,R1*%
X88646000Y-80772000D03*
X88646000Y-82597000D03*
%TD*%
D33*
%TO.C,R5*%
X62814200Y-59254400D03*
X62814200Y-57429400D03*
%TD*%
D34*
%TO.C,C8*%
X62643000Y-55014400D03*
X64368000Y-55014400D03*
%TD*%
D14*
%TO.C,J1*%
X60071000Y-66324000D03*
D15*
X60071000Y-68864000D03*
X60071000Y-71404000D03*
X60071000Y-73944000D03*
X60071000Y-76484000D03*
X60071000Y-79024000D03*
X60071000Y-81564000D03*
X60071000Y-84104000D03*
X60071000Y-86644000D03*
X60071000Y-89184000D03*
%TD*%
D35*
%TO.C,U4*%
X70626000Y-77215200D03*
X68326000Y-77215200D03*
D36*
X68326000Y-83515200D03*
D35*
X66026000Y-77215200D03*
%TD*%
D21*
%TO.C,J8*%
X108284000Y-67854000D03*
X108284000Y-68354000D03*
X108284000Y-68854000D03*
X108284000Y-69354000D03*
X108284000Y-69854000D03*
X108284000Y-70354000D03*
X108284000Y-70854000D03*
X108284000Y-71354000D03*
X108284000Y-71854000D03*
X108284000Y-72354000D03*
D22*
X106584000Y-66184000D03*
X106584000Y-74024000D03*
%TD*%
D13*
%TO.C,R4*%
X83286600Y-47222400D03*
X83286600Y-49047400D03*
%TD*%
D33*
%TO.C,R9*%
X63144400Y-63396500D03*
X63144400Y-61571500D03*
%TD*%
D20*
%TO.C,C11*%
X68122800Y-69747300D03*
X68122800Y-71472300D03*
%TD*%
D37*
%TO.C,C15*%
X64770000Y-63346500D03*
X64770000Y-61621500D03*
%TD*%
D38*
%TO.C,D3*%
X119290000Y-74802000D03*
X119290000Y-71502000D03*
X114390000Y-71502000D03*
X114390000Y-74802000D03*
%TD*%
D39*
%TO.C,SW2*%
X75439800Y-86512400D03*
X78839800Y-86512400D03*
%TD*%
D34*
%TO.C,user_led1*%
X85395900Y-47269400D03*
X87120900Y-47269400D03*
%TD*%
D20*
%TO.C,C10*%
X66649600Y-69748400D03*
X66649600Y-71473400D03*
%TD*%
D13*
%TO.C,R3*%
X92938600Y-76862300D03*
X92938600Y-78687300D03*
%TD*%
D38*
%TO.C,D4*%
X119290000Y-87502000D03*
X119290000Y-84202000D03*
X114390000Y-84202000D03*
X114390000Y-87502000D03*
%TD*%
D34*
%TO.C,C1*%
X76911200Y-80568800D03*
X78636200Y-80568800D03*
%TD*%
D38*
%TO.C,D2*%
X119290000Y-64286400D03*
X119290000Y-60986400D03*
X114390000Y-60986400D03*
X114390000Y-64286400D03*
%TD*%
D20*
%TO.C,C9*%
X65176400Y-69748400D03*
X65176400Y-71473400D03*
%TD*%
D24*
%TO.C,C5*%
X68453000Y-75083000D03*
X68453000Y-73533000D03*
%TD*%
D40*
%TO.C,D5*%
X73431400Y-78827600D03*
X73431400Y-77077600D03*
%TD*%
D20*
%TO.C,C13*%
X71069200Y-69747300D03*
X71069200Y-71472300D03*
%TD*%
D38*
%TO.C,D1*%
X119036000Y-52704000D03*
X119036000Y-49404000D03*
X114136000Y-49404000D03*
X114136000Y-52704000D03*
%TD*%
D39*
%TO.C,SW1*%
X75439800Y-90093800D03*
X78839800Y-90093800D03*
%TD*%
%LPD*%
D41*
X140157200Y-48260000D02*
G75*
G03*
X136855200Y-44958000I-3302000J0D01*
G01*
X57708800Y-48260000D02*
X57708800Y-89458800D01*
X61010800Y-44958000D02*
G75*
G03*
X57708800Y-48260000I0J-3302000D01*
G01*
X136855200Y-44958000D02*
X61010800Y-44958000D01*
X140157200Y-48260000D02*
X140157200Y-89458800D01*
X57708800Y-89458800D02*
G75*
G03*
X61010800Y-92760800I3302000J0D01*
G01*
X61010800Y-92760800D02*
X136855200Y-92760800D01*
X136855200Y-92760800D02*
G75*
G03*
X140157200Y-89458800I0J3302000D01*
G01*
M02*
