%TF.GenerationSoftware,KiCad,Pcbnew,7.0.2-0*%
%TF.CreationDate,2024-06-12T14:29:37+08:00*%
%TF.ProjectId,angle_detect,616e676c-655f-4646-9574-6563742e6b69,rev?*%
%TF.SameCoordinates,Original*%
%TF.FileFunction,Copper,L2,Bot*%
%TF.FilePolarity,Positive*%
%FSLAX46Y46*%
G04 Gerber Fmt 4.6, Leading zero omitted, Abs format (unit mm)*
G04 Created by KiCad (PCBNEW 7.0.2-0) date 2024-06-12 14:29:37*
%MOMM*%
%LPD*%
G01*
G04 APERTURE LIST*
G04 Aperture macros list*
%AMRoundRect*
0 Rectangle with rounded corners*
0 $1 Rounding radius*
0 $2 $3 $4 $5 $6 $7 $8 $9 X,Y pos of 4 corners*
0 Add a 4 corners polygon primitive as box body*
4,1,4,$2,$3,$4,$5,$6,$7,$8,$9,$2,$3,0*
0 Add four circle primitives for the rounded corners*
1,1,$1+$1,$2,$3*
1,1,$1+$1,$4,$5*
1,1,$1+$1,$6,$7*
1,1,$1+$1,$8,$9*
0 Add four rect primitives between the rounded corners*
20,1,$1+$1,$2,$3,$4,$5,0*
20,1,$1+$1,$4,$5,$6,$7,0*
20,1,$1+$1,$6,$7,$8,$9,0*
20,1,$1+$1,$8,$9,$2,$3,0*%
G04 Aperture macros list end*
%TA.AperFunction,ComponentPad*%
%ADD10RoundRect,0.250000X-0.620000X0.620000X-0.620000X-0.620000X0.620000X-0.620000X0.620000X0.620000X0*%
%TD*%
%TA.AperFunction,ComponentPad*%
%ADD11C,1.740000*%
%TD*%
%TA.AperFunction,ComponentPad*%
%ADD12R,1.700000X1.700000*%
%TD*%
%TA.AperFunction,ComponentPad*%
%ADD13O,1.700000X1.700000*%
%TD*%
%TA.AperFunction,ComponentPad*%
%ADD14O,1.000000X2.100000*%
%TD*%
%TA.AperFunction,ComponentPad*%
%ADD15O,1.000000X1.800000*%
%TD*%
%TA.AperFunction,ComponentPad*%
%ADD16RoundRect,0.250000X0.620000X-0.620000X0.620000X0.620000X-0.620000X0.620000X-0.620000X-0.620000X0*%
%TD*%
%TA.AperFunction,ViaPad*%
%ADD17C,1.000000*%
%TD*%
%TA.AperFunction,ViaPad*%
%ADD18C,1.900000*%
%TD*%
%TA.AperFunction,ViaPad*%
%ADD19C,0.500000*%
%TD*%
%TA.AperFunction,Conductor*%
%ADD20C,0.200000*%
%TD*%
%TA.AperFunction,Conductor*%
%ADD21C,0.300000*%
%TD*%
%TA.AperFunction,Profile*%
%ADD22C,0.100000*%
%TD*%
G04 APERTURE END LIST*
D10*
%TO.P,J2,1,Pin_1*%
%TO.N,+3.3V*%
X86475000Y-141351000D03*
D11*
%TO.P,J2,2,Pin_2*%
X86475000Y-143891000D03*
%TO.P,J2,3,Pin_3*%
%TO.N,GND*%
X86475000Y-146431000D03*
%TO.P,J2,4,Pin_4*%
X86475000Y-148971000D03*
%TO.P,J2,5,Pin_5*%
%TO.N,/MPU_SDA*%
X86475000Y-151511000D03*
%TO.P,J2,6,Pin_6*%
%TO.N,/MPU_SCL*%
X86475000Y-154051000D03*
%TO.P,J2,7,Pin_7*%
%TO.N,/AD1*%
X86475000Y-156591000D03*
%TD*%
D12*
%TO.P,J4,1,Pin_1*%
%TO.N,/OLED_SDA*%
X77978000Y-142494000D03*
D13*
%TO.P,J4,2,Pin_2*%
%TO.N,/OLED_SCL*%
X77978000Y-139954000D03*
%TO.P,J4,3,Pin_3*%
%TO.N,+3.3V*%
X77978000Y-137414000D03*
%TO.P,J4,4,Pin_4*%
%TO.N,GND*%
X77978000Y-134874000D03*
%TD*%
D12*
%TO.P,J6,1,Pin_1*%
%TO.N,+3.3V*%
X51816000Y-140208000D03*
D13*
%TO.P,J6,2,Pin_2*%
%TO.N,/BOOT*%
X51816000Y-137668000D03*
%TO.P,J6,3,Pin_3*%
%TO.N,GND*%
X51816000Y-135128000D03*
%TD*%
D14*
%TO.P,J3,S1,SHIELD*%
%TO.N,GND*%
X62482000Y-162678000D03*
D15*
X62482000Y-166878000D03*
D14*
X71122000Y-162678000D03*
D15*
X71122000Y-166878000D03*
%TD*%
D12*
%TO.P,J5,1,Pin_1*%
%TO.N,GND*%
X61976000Y-130302000D03*
D13*
%TO.P,J5,2,Pin_2*%
%TO.N,+3.3V*%
X64516000Y-130302000D03*
%TO.P,J5,3,Pin_3*%
%TO.N,/SWCLK*%
X67056000Y-130302000D03*
%TO.P,J5,4,Pin_4*%
%TO.N,/SWDIO*%
X69596000Y-130302000D03*
%TD*%
D16*
%TO.P,J1,1,Pin_1*%
%TO.N,/AD1_B*%
X95123000Y-156591000D03*
D11*
%TO.P,J1,2,Pin_2*%
%TO.N,/MPU_SCL_B*%
X95123000Y-154051000D03*
%TO.P,J1,3,Pin_3*%
%TO.N,/MPU_SDA_B*%
X95123000Y-151511000D03*
%TO.P,J1,4,Pin_4*%
%TO.N,/GND_B*%
X95123000Y-148971000D03*
%TO.P,J1,5,Pin_5*%
X95123000Y-146431000D03*
%TO.P,J1,6,Pin_6*%
%TO.N,/3.3V_B*%
X95123000Y-143891000D03*
%TO.P,J1,7,Pin_7*%
X95123000Y-141351000D03*
%TD*%
D17*
%TO.N,*%
X90678000Y-155956000D03*
X90678000Y-137668000D03*
D18*
X93472000Y-167767000D03*
D17*
X90678000Y-130810000D03*
X90678000Y-166370000D03*
X90678000Y-167513000D03*
X90678000Y-162814000D03*
X90678000Y-141097000D03*
X90678000Y-150241000D03*
X90678000Y-160528000D03*
X90678000Y-129667000D03*
X90678000Y-134239000D03*
X90678000Y-169799000D03*
D18*
X87630000Y-162814000D03*
D17*
X90678000Y-158242000D03*
X90678000Y-152527000D03*
X90678000Y-149098000D03*
X90678000Y-142240000D03*
X90678000Y-147955000D03*
X90678000Y-151384000D03*
X90678000Y-136525000D03*
D18*
X87630000Y-136271000D03*
X87630000Y-131318000D03*
X93472000Y-162814000D03*
D17*
X90678000Y-133096000D03*
X90678000Y-153670000D03*
X90678000Y-154813000D03*
X90678000Y-138811000D03*
X90678000Y-131953000D03*
X90678000Y-144526000D03*
X90678000Y-135382000D03*
X90678000Y-159385000D03*
X90678000Y-157099000D03*
X90678000Y-168656000D03*
X90678000Y-161671000D03*
X90678000Y-143383000D03*
X90678000Y-139954000D03*
X90678000Y-164084000D03*
D18*
X93472000Y-131445000D03*
X87630000Y-167767000D03*
X93472000Y-136398000D03*
D17*
X90678000Y-145669000D03*
X90678000Y-165227000D03*
X90678000Y-146812000D03*
D19*
%TO.N,GND*%
X74041000Y-146939000D03*
X74803000Y-144272000D03*
X72390000Y-136144000D03*
X64389000Y-143510000D03*
X63754000Y-143510000D03*
X55753000Y-135001000D03*
X56388000Y-135001000D03*
X74676000Y-146939000D03*
X54483000Y-134366000D03*
X74041000Y-143637000D03*
X55118000Y-141859000D03*
X53848000Y-136906000D03*
X68072000Y-147574000D03*
X53848000Y-136271000D03*
X75565000Y-143637000D03*
X63754000Y-144907000D03*
X75946000Y-146939000D03*
X53848000Y-135636000D03*
X56141556Y-135882444D03*
X57023000Y-134366000D03*
X55118000Y-142494000D03*
X66040000Y-148082000D03*
X56388000Y-134366000D03*
X53848000Y-142494000D03*
X55618444Y-136913556D03*
X53848000Y-141859000D03*
X54483000Y-141224000D03*
X65024000Y-144907000D03*
X53848000Y-134366000D03*
X53848000Y-140589000D03*
X54483000Y-135636000D03*
X61468000Y-133350000D03*
X64389000Y-144907000D03*
X55118000Y-135001000D03*
X54483000Y-135001000D03*
X74041000Y-144272000D03*
X74803000Y-143002000D03*
X75565000Y-143002000D03*
X72085200Y-132081100D03*
X53848000Y-141224000D03*
X54483000Y-141859000D03*
X76581000Y-146939000D03*
X57023000Y-135001000D03*
X53848000Y-135001000D03*
X65024000Y-143510000D03*
X74041000Y-143002000D03*
X75565000Y-144272000D03*
X55118000Y-135636000D03*
X55753000Y-142494000D03*
X77216000Y-146939000D03*
X63119000Y-143510000D03*
X75311000Y-146939000D03*
X74803000Y-143637000D03*
X63119000Y-144907000D03*
X55118000Y-134366000D03*
X54483000Y-142494000D03*
X55753000Y-134366000D03*
%TO.N,+5V*%
X68580000Y-163322000D03*
X65024000Y-163322000D03*
X75131000Y-166116000D03*
X53594000Y-165354000D03*
%TO.N,+3.3V*%
X79883000Y-156718000D03*
X78994000Y-155956000D03*
X81534000Y-138430000D03*
X80772000Y-159766000D03*
X80772000Y-158242000D03*
X78994000Y-156718000D03*
X80772000Y-159004000D03*
X78994000Y-155194000D03*
X78105000Y-156718000D03*
X81534000Y-143002000D03*
X80772000Y-143764000D03*
X81534000Y-134620000D03*
X78232000Y-148590000D03*
X78994000Y-159004000D03*
X79883000Y-160528000D03*
X80772000Y-140716000D03*
X80772000Y-155194000D03*
X80772000Y-156718000D03*
X81534000Y-136906000D03*
X69850000Y-132461000D03*
X81534000Y-139192000D03*
X60960000Y-132038500D03*
X80772000Y-136144000D03*
X80772000Y-160528000D03*
X79883000Y-155956000D03*
X78105000Y-160528000D03*
X81534000Y-143764000D03*
X80772000Y-157480000D03*
X78105000Y-158242000D03*
X81534000Y-137668000D03*
X81534000Y-140716000D03*
X80772000Y-141478000D03*
X80772000Y-139192000D03*
X80772000Y-136906000D03*
X81534000Y-139954000D03*
X80772000Y-137668000D03*
X78105000Y-159766000D03*
X78994000Y-157480000D03*
X81534000Y-136144000D03*
X79883000Y-155194000D03*
X79883000Y-159766000D03*
X80772000Y-135382000D03*
X80772000Y-134620000D03*
X78994000Y-159766000D03*
X71120000Y-148971000D03*
X80772000Y-139954000D03*
X60768497Y-133350000D03*
X80772000Y-142240000D03*
X79883000Y-158242000D03*
X81534000Y-141478000D03*
X78994000Y-158242000D03*
X78105000Y-155194000D03*
X80772000Y-143002000D03*
X71755000Y-134366000D03*
X68326000Y-148844000D03*
X78105000Y-159004000D03*
X81534000Y-135382000D03*
X79883000Y-157480000D03*
X80772000Y-155956000D03*
X79883000Y-159004000D03*
X66040000Y-131826000D03*
X78105000Y-157480000D03*
X81534000Y-142240000D03*
X78105000Y-155956000D03*
X80772000Y-138430000D03*
X84074000Y-153289000D03*
X78994000Y-160528000D03*
%TO.N,NRST*%
X58166000Y-145583500D03*
X60706000Y-139700000D03*
%TO.N,/user_button*%
X61255500Y-140716000D03*
X59436000Y-146050000D03*
%TO.N,/rgb*%
X61976000Y-140208000D03*
X66675000Y-159258000D03*
%TO.N,/MPU_SCL_B*%
X101036056Y-152963944D03*
X100076000Y-154051000D03*
%TO.N,/MPU_SCL*%
X67564000Y-137922000D03*
X71374000Y-145373500D03*
X69596000Y-147574000D03*
%TO.N,/MPU_SDA*%
X66040000Y-138176000D03*
X68826444Y-139961556D03*
X72136000Y-155610500D03*
X68961000Y-147574000D03*
%TO.N,/AD0*%
X70358000Y-147574000D03*
X79593500Y-153670000D03*
%TO.N,/AD1*%
X68271000Y-143510000D03*
X66294000Y-143510000D03*
%TO.N,/D+*%
X67834923Y-163921500D03*
X66548000Y-164084000D03*
%TO.N,/GND_B*%
X112014000Y-151384000D03*
X106299000Y-151384000D03*
%TO.N,/3.3V_B*%
X101727000Y-156210000D03*
X108712000Y-152781000D03*
X101600000Y-152146000D03*
X108712000Y-154927500D03*
%TD*%
D20*
%TO.N,GND*%
X77978000Y-134874000D02*
X76708000Y-136144000D01*
X75311000Y-146939000D02*
X75311000Y-144526000D01*
X72390000Y-136144000D02*
X74041000Y-137795000D01*
X76708000Y-136144000D02*
X72390000Y-136144000D01*
X63754000Y-144907000D02*
X63754000Y-143510000D01*
X72390000Y-132385900D02*
X72085200Y-132081100D01*
X55618444Y-136405556D02*
X56141556Y-135882444D01*
X64389000Y-144907000D02*
X64389000Y-143510000D01*
X72390000Y-136144000D02*
X72390000Y-132385900D01*
X66548000Y-147574000D02*
X66040000Y-148082000D01*
X74676000Y-144399000D02*
X74803000Y-144272000D01*
X65024000Y-144907000D02*
X65024000Y-143510000D01*
X74676000Y-146939000D02*
X74676000Y-144399000D01*
X61976000Y-132842000D02*
X61468000Y-133350000D01*
X55618444Y-136913556D02*
X55618444Y-136405556D01*
X61976000Y-130302000D02*
X61976000Y-132842000D01*
X74041000Y-137795000D02*
X74041000Y-143002000D01*
X75311000Y-144526000D02*
X75565000Y-144272000D01*
X74041000Y-146939000D02*
X74041000Y-144272000D01*
X63119000Y-144907000D02*
X63119000Y-143510000D01*
X68072000Y-147574000D02*
X66548000Y-147574000D01*
D21*
%TO.N,+5V*%
X62992000Y-165354000D02*
X53594000Y-165354000D01*
X70886000Y-165628000D02*
X74643000Y-165628000D01*
X74643000Y-165628000D02*
X75131000Y-166116000D01*
X65024000Y-163322000D02*
X68580000Y-163322000D01*
X68580000Y-163322000D02*
X70886000Y-165628000D01*
X65024000Y-163322000D02*
X62992000Y-165354000D01*
%TO.N,+3.3V*%
X70612000Y-133223000D02*
X71755000Y-134366000D01*
X80518000Y-137414000D02*
X80772000Y-137668000D01*
X77978000Y-137414000D02*
X80518000Y-137414000D01*
X69215000Y-131826000D02*
X70612000Y-133223000D01*
X82169000Y-155194000D02*
X80772000Y-155194000D01*
X68453000Y-148971000D02*
X68326000Y-148844000D01*
X78994000Y-149352000D02*
X78232000Y-148590000D01*
X66040000Y-131826000D02*
X69215000Y-131826000D01*
X71120000Y-148971000D02*
X68453000Y-148971000D01*
X60768497Y-132230003D02*
X60768497Y-133350000D01*
X78994000Y-155194000D02*
X78994000Y-149352000D01*
X80772000Y-135382000D02*
X80518000Y-135128000D01*
X60960000Y-132038500D02*
X60768497Y-132230003D01*
X84074000Y-153289000D02*
X82169000Y-155194000D01*
X80518000Y-135128000D02*
X80264000Y-135128000D01*
D20*
%TO.N,NRST*%
X60706000Y-144018000D02*
X60706000Y-139700000D01*
X58166000Y-145583500D02*
X59140500Y-145583500D01*
X59140500Y-145583500D02*
X60706000Y-144018000D01*
%TO.N,/user_button*%
X61255500Y-144230500D02*
X61255500Y-140716000D01*
X59436000Y-146050000D02*
X61255500Y-144230500D01*
%TO.N,/rgb*%
X66675000Y-159258000D02*
X64389000Y-156972000D01*
X61976000Y-156972000D02*
X61341000Y-156337000D01*
X61976000Y-146431000D02*
X61976000Y-140208000D01*
X61341000Y-147066000D02*
X61976000Y-146431000D01*
X64389000Y-156972000D02*
X61976000Y-156972000D01*
X61341000Y-156337000D02*
X61341000Y-147066000D01*
%TO.N,/MPU_SCL_B*%
X100076000Y-154051000D02*
X100076000Y-153924000D01*
X100076000Y-153924000D02*
X101036056Y-152963944D01*
%TO.N,/MPU_SCL*%
X71374000Y-145780182D02*
X69596000Y-147558182D01*
X69596000Y-147574000D02*
X69596000Y-139954000D01*
X69596000Y-147558182D02*
X69596000Y-147574000D01*
X71374000Y-145373500D02*
X71374000Y-145780182D01*
X69596000Y-139954000D02*
X67564000Y-137922000D01*
%TO.N,/MPU_SDA*%
X68961000Y-146304000D02*
X68961000Y-147574000D01*
X68820500Y-140956500D02*
X68770500Y-140906500D01*
X68826444Y-140850556D02*
X68770500Y-140906500D01*
X69088000Y-146177000D02*
X68961000Y-146304000D01*
X69088000Y-141097000D02*
X69088000Y-146177000D01*
X87645000Y-152681000D02*
X86475000Y-151511000D01*
X68826444Y-140850556D02*
X68841556Y-140850556D01*
X72136000Y-155610500D02*
X77603500Y-161078000D01*
X83642630Y-161078000D02*
X87645000Y-157075630D01*
X68770500Y-140906500D02*
X66040000Y-138176000D01*
X68826444Y-139961556D02*
X68826444Y-140850556D01*
X77603500Y-161078000D02*
X83642630Y-161078000D01*
X68841556Y-140850556D02*
X69088000Y-141097000D01*
X87645000Y-157075630D02*
X87645000Y-152681000D01*
%TO.N,/AD0*%
X77993818Y-147574000D02*
X79593500Y-149173682D01*
X77470000Y-147574000D02*
X77993818Y-147574000D01*
X70358000Y-147574000D02*
X77470000Y-147574000D01*
X79593500Y-149173682D02*
X79593500Y-153670000D01*
%TO.N,/AD1*%
X66294000Y-143510000D02*
X68271000Y-143510000D01*
%TO.N,/D+*%
X66548000Y-164084000D02*
X66548000Y-164592000D01*
X67310000Y-164846000D02*
X67834923Y-164321077D01*
X66802000Y-164846000D02*
X67310000Y-164846000D01*
X66548000Y-164592000D02*
X66802000Y-164846000D01*
X67834923Y-164321077D02*
X67834923Y-163921500D01*
D21*
%TO.N,/GND_B*%
X106299000Y-151384000D02*
X112014000Y-151384000D01*
D20*
%TO.N,/3.3V_B*%
X108712000Y-152781000D02*
X108712000Y-154927500D01*
D21*
X101636056Y-156119056D02*
X101727000Y-156210000D01*
X101600000Y-152146000D02*
X101636056Y-152182056D01*
X101636056Y-152182056D02*
X101636056Y-156119056D01*
%TD*%
%TA.AperFunction,Conductor*%
%TO.N,+3.3V*%
G36*
X81477039Y-154705685D02*
G01*
X81522794Y-154758489D01*
X81534000Y-154810000D01*
X81534000Y-160653500D01*
X81514315Y-160720539D01*
X81461511Y-160766294D01*
X81410000Y-160777500D01*
X77848000Y-160777500D01*
X77780961Y-160757815D01*
X77735206Y-160705011D01*
X77724000Y-160653500D01*
X77724000Y-154810000D01*
X77743685Y-154742961D01*
X77796489Y-154697206D01*
X77848000Y-154686000D01*
X81410000Y-154686000D01*
X81477039Y-154705685D01*
G37*
%TD.AperFunction*%
%TD*%
%TA.AperFunction,Conductor*%
%TO.N,+3.3V*%
G36*
X88843039Y-134131685D02*
G01*
X88888794Y-134184489D01*
X88900000Y-134236000D01*
X88900000Y-135713176D01*
X88880315Y-135780215D01*
X88827511Y-135825970D01*
X88758353Y-135835914D01*
X88694797Y-135806889D01*
X88665000Y-135768447D01*
X88612368Y-135662747D01*
X88483873Y-135492594D01*
X88326301Y-135348947D01*
X88145017Y-135236701D01*
X87946198Y-135159679D01*
X87946197Y-135159679D01*
X87736610Y-135120500D01*
X87523390Y-135120500D01*
X87383664Y-135146619D01*
X87313801Y-135159679D01*
X87114982Y-135236701D01*
X86933698Y-135348947D01*
X86776126Y-135492594D01*
X86647631Y-135662747D01*
X86552595Y-135853609D01*
X86494243Y-136058689D01*
X86474571Y-136270999D01*
X86494243Y-136483310D01*
X86552595Y-136688390D01*
X86647631Y-136879252D01*
X86776126Y-137049405D01*
X86776128Y-137049407D01*
X86933698Y-137193052D01*
X87114981Y-137305298D01*
X87313802Y-137382321D01*
X87523390Y-137421500D01*
X87523392Y-137421500D01*
X87736608Y-137421500D01*
X87736610Y-137421500D01*
X87946198Y-137382321D01*
X88145019Y-137305298D01*
X88326302Y-137193052D01*
X88483872Y-137049407D01*
X88612366Y-136879255D01*
X88612366Y-136879253D01*
X88612368Y-136879252D01*
X88665000Y-136773552D01*
X88712502Y-136722315D01*
X88780165Y-136704893D01*
X88846505Y-136726818D01*
X88890461Y-136781129D01*
X88900000Y-136828823D01*
X88900000Y-144148000D01*
X88880315Y-144215039D01*
X88827511Y-144260794D01*
X88776000Y-144272000D01*
X87951078Y-144272000D01*
X87884039Y-144252315D01*
X87838284Y-144199511D01*
X87828340Y-144130353D01*
X87830871Y-144117564D01*
X87830946Y-144117265D01*
X87849695Y-143890999D01*
X87830946Y-143664737D01*
X87775209Y-143444635D01*
X87684006Y-143236715D01*
X87604511Y-143115039D01*
X86996700Y-143722850D01*
X86993360Y-143706775D01*
X86924435Y-143573754D01*
X86822177Y-143464263D01*
X86694170Y-143386420D01*
X86640941Y-143371506D01*
X87269388Y-142743057D01*
X87270724Y-142737183D01*
X87320591Y-142688243D01*
X87339991Y-142679922D01*
X87414121Y-142655357D01*
X87563345Y-142563316D01*
X87687316Y-142439345D01*
X87779357Y-142290122D01*
X87834506Y-142123696D01*
X87844680Y-142024109D01*
X87845000Y-142017831D01*
X87845000Y-141601000D01*
X86964546Y-141601000D01*
X87013618Y-141462926D01*
X87023842Y-141313458D01*
X86993360Y-141166775D01*
X86959279Y-141101000D01*
X87844999Y-141101000D01*
X87844999Y-140684170D01*
X87844678Y-140677888D01*
X87834506Y-140578304D01*
X87779357Y-140411877D01*
X87687316Y-140262654D01*
X87563345Y-140138683D01*
X87414122Y-140046642D01*
X87247696Y-139991493D01*
X87148109Y-139981319D01*
X87141832Y-139981000D01*
X86725000Y-139981000D01*
X86725000Y-140865168D01*
X86694170Y-140846420D01*
X86549909Y-140806000D01*
X86437720Y-140806000D01*
X86326578Y-140821276D01*
X86225000Y-140865397D01*
X86225000Y-139981000D01*
X85808171Y-139981000D01*
X85801888Y-139981321D01*
X85702304Y-139991493D01*
X85535877Y-140046642D01*
X85386654Y-140138683D01*
X85262683Y-140262654D01*
X85170642Y-140411877D01*
X85115493Y-140578303D01*
X85105319Y-140677890D01*
X85105000Y-140684168D01*
X85105000Y-141101000D01*
X85985454Y-141101000D01*
X85936382Y-141239074D01*
X85926158Y-141388542D01*
X85956640Y-141535225D01*
X85990721Y-141601000D01*
X85105001Y-141601000D01*
X85105001Y-142017829D01*
X85105321Y-142024111D01*
X85115493Y-142123695D01*
X85170642Y-142290122D01*
X85262683Y-142439345D01*
X85386654Y-142563316D01*
X85535877Y-142655357D01*
X85610007Y-142679922D01*
X85667452Y-142719695D01*
X85674714Y-142737162D01*
X86307231Y-143369679D01*
X86189164Y-143420963D01*
X86072950Y-143515511D01*
X85986553Y-143637907D01*
X85955559Y-143725112D01*
X85345487Y-143115040D01*
X85265990Y-143236719D01*
X85174791Y-143444634D01*
X85119053Y-143664737D01*
X85100304Y-143891000D01*
X85119053Y-144117265D01*
X85119129Y-144117564D01*
X85119113Y-144117986D01*
X85119902Y-144127507D01*
X85118751Y-144127602D01*
X85116501Y-144187385D01*
X85076543Y-144244701D01*
X85011941Y-144271315D01*
X84998922Y-144272000D01*
X82042000Y-144272000D01*
X80134000Y-144272000D01*
X80066961Y-144252315D01*
X80021206Y-144199511D01*
X80010000Y-144148000D01*
X80010000Y-134236000D01*
X80029685Y-134168961D01*
X80082489Y-134123206D01*
X80134000Y-134112000D01*
X88776000Y-134112000D01*
X88843039Y-134131685D01*
G37*
%TD.AperFunction*%
%TD*%
%TA.AperFunction,Conductor*%
%TO.N,GND*%
G36*
X50708203Y-134131685D02*
G01*
X50753958Y-134184489D01*
X50763902Y-134253647D01*
X50742739Y-134307123D01*
X50642400Y-134450421D01*
X50542569Y-134664507D01*
X50485364Y-134877999D01*
X50485364Y-134878000D01*
X51382314Y-134878000D01*
X51356507Y-134918156D01*
X51316000Y-135056111D01*
X51316000Y-135199889D01*
X51356507Y-135337844D01*
X51382314Y-135378000D01*
X50485364Y-135378000D01*
X50542569Y-135591492D01*
X50642399Y-135805576D01*
X50777893Y-135999081D01*
X50944918Y-136166106D01*
X51130595Y-136296119D01*
X51174219Y-136350696D01*
X51181412Y-136420195D01*
X51149890Y-136482549D01*
X51130595Y-136499269D01*
X50944595Y-136629508D01*
X50777505Y-136796598D01*
X50641965Y-136990170D01*
X50542097Y-137204336D01*
X50480936Y-137432592D01*
X50460340Y-137667999D01*
X50480936Y-137903407D01*
X50525709Y-138070502D01*
X50542097Y-138131663D01*
X50641965Y-138345830D01*
X50777505Y-138539401D01*
X50777508Y-138539404D01*
X50899430Y-138661326D01*
X50932915Y-138722649D01*
X50927931Y-138792341D01*
X50886059Y-138848274D01*
X50855083Y-138865189D01*
X50723669Y-138914204D01*
X50608454Y-139000454D01*
X50522204Y-139115668D01*
X50471910Y-139250515D01*
X50471909Y-139250517D01*
X50465500Y-139310127D01*
X50465500Y-139313448D01*
X50465500Y-139313449D01*
X50465500Y-141102560D01*
X50465500Y-141102578D01*
X50465501Y-141105872D01*
X50471909Y-141165483D01*
X50522204Y-141300331D01*
X50608454Y-141415546D01*
X50723669Y-141501796D01*
X50858517Y-141552091D01*
X50918127Y-141558500D01*
X52713872Y-141558499D01*
X52773483Y-141552091D01*
X52908331Y-141501796D01*
X53023546Y-141415546D01*
X53109796Y-141300331D01*
X53160091Y-141165483D01*
X53166500Y-141105873D01*
X53166499Y-139310128D01*
X53160091Y-139250517D01*
X53109796Y-139115669D01*
X53023546Y-139000454D01*
X52908331Y-138914204D01*
X52846898Y-138891291D01*
X52776916Y-138865189D01*
X52720983Y-138823317D01*
X52696566Y-138757853D01*
X52711418Y-138689580D01*
X52732563Y-138661332D01*
X52854495Y-138539401D01*
X52990035Y-138345830D01*
X53089903Y-138131663D01*
X53151063Y-137903408D01*
X53171659Y-137668000D01*
X53151063Y-137432592D01*
X53089903Y-137204337D01*
X52990035Y-136990171D01*
X52854495Y-136796599D01*
X52687401Y-136629505D01*
X52501402Y-136499267D01*
X52457780Y-136444692D01*
X52450587Y-136375193D01*
X52482109Y-136312839D01*
X52501405Y-136296119D01*
X52687078Y-136166109D01*
X52854106Y-135999081D01*
X52989600Y-135805576D01*
X53089430Y-135591492D01*
X53146636Y-135378000D01*
X52249686Y-135378000D01*
X52275493Y-135337844D01*
X52316000Y-135199889D01*
X52316000Y-135056111D01*
X52275493Y-134918156D01*
X52249686Y-134878000D01*
X53146636Y-134878000D01*
X53146635Y-134877999D01*
X53089430Y-134664507D01*
X52989599Y-134450421D01*
X52889261Y-134307123D01*
X52866934Y-134240917D01*
X52883944Y-134173150D01*
X52934892Y-134125337D01*
X52990836Y-134112000D01*
X57788000Y-134112000D01*
X57855039Y-134131685D01*
X57900794Y-134184489D01*
X57912000Y-134236000D01*
X57912000Y-142878000D01*
X57892315Y-142945039D01*
X57839511Y-142990794D01*
X57788000Y-143002000D01*
X50162000Y-143002000D01*
X50094961Y-142982315D01*
X50049206Y-142929511D01*
X50038000Y-142878000D01*
X50038000Y-134236000D01*
X50057685Y-134168961D01*
X50110489Y-134123206D01*
X50162000Y-134112000D01*
X50641164Y-134112000D01*
X50708203Y-134131685D01*
G37*
%TD.AperFunction*%
%TD*%
%TA.AperFunction,Conductor*%
%TO.N,GND*%
G36*
X76016039Y-142386685D02*
G01*
X76061794Y-142439489D01*
X76073000Y-142491000D01*
X76073000Y-144783000D01*
X76053315Y-144850039D01*
X76000511Y-144895794D01*
X75949000Y-144907000D01*
X73403000Y-144907000D01*
X73335961Y-144887315D01*
X73290206Y-144834511D01*
X73279000Y-144783000D01*
X73279000Y-142491000D01*
X73298685Y-142423961D01*
X73351489Y-142378206D01*
X73403000Y-142367000D01*
X75949000Y-142367000D01*
X76016039Y-142386685D01*
G37*
%TD.AperFunction*%
%TD*%
D22*
X49276000Y-167259000D02*
G75*
G03*
X52705000Y-170688000I3429000J0D01*
G01*
X128701800Y-170764200D02*
G75*
G03*
X132130800Y-167335200I0J3429000D01*
G01*
X52705000Y-128524000D02*
X128701800Y-128600200D01*
X49276000Y-167259000D02*
X49276000Y-131953000D01*
X132130800Y-132029200D02*
X132130800Y-167335200D01*
X52705000Y-128524000D02*
G75*
G03*
X49276000Y-131953000I0J-3429000D01*
G01*
X128701800Y-170764200D02*
X52705000Y-170688000D01*
X132130800Y-132029200D02*
G75*
G03*
X128701800Y-128600200I-3429000J0D01*
G01*
M02*
