%TF.GenerationSoftware,KiCad,Pcbnew,7.0.2-0*%
%TF.CreationDate,2024-06-08T13:48:43+08:00*%
%TF.ProjectId,angle_detect,616e676c-655f-4646-9574-6563742e6b69,rev?*%
%TF.SameCoordinates,Original*%
%TF.FileFunction,Legend,Top*%
%TF.FilePolarity,Positive*%
%FSLAX46Y46*%
G04 Gerber Fmt 4.6, Leading zero omitted, Abs format (unit mm)*
G04 Created by KiCad (PCBNEW 7.0.2-0) date 2024-06-08 13:48:43*
%MOMM*%
%LPD*%
G01*
G04 APERTURE LIST*
G04 Aperture macros list*
%AMRoundRect*
0 Rectangle with rounded corners*
0 $1 Rounding radius*
0 $2 $3 $4 $5 $6 $7 $8 $9 X,Y pos of 4 corners*
0 Add a 4 corners polygon primitive as box body*
4,1,4,$2,$3,$4,$5,$6,$7,$8,$9,$2,$3,0*
0 Add four circle primitives for the rounded corners*
1,1,$1+$1,$2,$3*
1,1,$1+$1,$4,$5*
1,1,$1+$1,$6,$7*
1,1,$1+$1,$8,$9*
0 Add four rect primitives between the rounded corners*
20,1,$1+$1,$2,$3,$4,$5,0*
20,1,$1+$1,$4,$5,$6,$7,0*
20,1,$1+$1,$6,$7,$8,$9,0*
20,1,$1+$1,$8,$9,$2,$3,0*%
G04 Aperture macros list end*
%ADD10C,0.150000*%
%ADD11C,0.120000*%
%ADD12RoundRect,0.237500X0.237500X-0.250000X0.237500X0.250000X-0.237500X0.250000X-0.237500X-0.250000X0*%
%ADD13RoundRect,0.250000X-0.620000X0.620000X-0.620000X-0.620000X0.620000X-0.620000X0.620000X0.620000X0*%
%ADD14C,1.740000*%
%ADD15RoundRect,0.225000X0.225000X0.250000X-0.225000X0.250000X-0.225000X-0.250000X0.225000X-0.250000X0*%
%ADD16R,1.700000X1.700000*%
%ADD17O,1.700000X1.700000*%
%ADD18R,0.300000X1.400000*%
%ADD19RoundRect,0.050000X0.050000X-0.225000X0.050000X0.225000X-0.050000X0.225000X-0.050000X-0.225000X0*%
%ADD20RoundRect,0.050000X0.225000X0.050000X-0.225000X0.050000X-0.225000X-0.050000X0.225000X-0.050000X0*%
%ADD21RoundRect,0.237500X-0.237500X0.300000X-0.237500X-0.300000X0.237500X-0.300000X0.237500X0.300000X0*%
%ADD22RoundRect,0.218750X0.218750X0.256250X-0.218750X0.256250X-0.218750X-0.256250X0.218750X-0.256250X0*%
%ADD23RoundRect,0.237500X-0.300000X-0.237500X0.300000X-0.237500X0.300000X0.237500X-0.300000X0.237500X0*%
%ADD24R,0.800000X0.900000*%
%ADD25RoundRect,0.225000X0.250000X-0.225000X0.250000X0.225000X-0.250000X0.225000X-0.250000X-0.225000X0*%
%ADD26RoundRect,0.237500X0.300000X0.237500X-0.300000X0.237500X-0.300000X-0.237500X0.300000X-0.237500X0*%
%ADD27RoundRect,0.237500X0.250000X0.237500X-0.250000X0.237500X-0.250000X-0.237500X0.250000X-0.237500X0*%
%ADD28RoundRect,0.075000X-0.700000X-0.075000X0.700000X-0.075000X0.700000X0.075000X-0.700000X0.075000X0*%
%ADD29RoundRect,0.075000X-0.075000X-0.700000X0.075000X-0.700000X0.075000X0.700000X-0.075000X0.700000X0*%
%ADD30RoundRect,0.237500X0.237500X-0.300000X0.237500X0.300000X-0.237500X0.300000X-0.237500X-0.300000X0*%
%ADD31C,0.650000*%
%ADD32R,0.600000X1.240000*%
%ADD33R,0.300000X1.240000*%
%ADD34O,1.000000X2.100000*%
%ADD35O,1.000000X1.800000*%
%ADD36RoundRect,0.237500X-0.237500X0.250000X-0.237500X-0.250000X0.237500X-0.250000X0.237500X0.250000X0*%
%ADD37RoundRect,0.250000X0.620000X-0.620000X0.620000X0.620000X-0.620000X0.620000X-0.620000X-0.620000X0*%
%ADD38R,1.500000X2.000000*%
%ADD39R,3.800000X2.000000*%
%ADD40RoundRect,0.237500X-0.250000X-0.237500X0.250000X-0.237500X0.250000X0.237500X-0.250000X0.237500X0*%
%ADD41R,1.700000X0.900000*%
%ADD42RoundRect,0.218750X-0.218750X-0.256250X0.218750X-0.256250X0.218750X0.256250X-0.218750X0.256250X0*%
%ADD43R,0.900000X1.500000*%
%TA.AperFunction,Profile*%
%ADD44C,0.100000*%
%TD*%
G04 APERTURE END LIST*
D10*
%TO.C,J2*%
X89687619Y-149304333D02*
X90401904Y-149304333D01*
X90401904Y-149304333D02*
X90544761Y-149351952D01*
X90544761Y-149351952D02*
X90640000Y-149447190D01*
X90640000Y-149447190D02*
X90687619Y-149590047D01*
X90687619Y-149590047D02*
X90687619Y-149685285D01*
X89782857Y-148875761D02*
X89735238Y-148828142D01*
X89735238Y-148828142D02*
X89687619Y-148732904D01*
X89687619Y-148732904D02*
X89687619Y-148494809D01*
X89687619Y-148494809D02*
X89735238Y-148399571D01*
X89735238Y-148399571D02*
X89782857Y-148351952D01*
X89782857Y-148351952D02*
X89878095Y-148304333D01*
X89878095Y-148304333D02*
X89973333Y-148304333D01*
X89973333Y-148304333D02*
X90116190Y-148351952D01*
X90116190Y-148351952D02*
X90687619Y-148923380D01*
X90687619Y-148923380D02*
X90687619Y-148304333D01*
%TO.C,R8*%
X101521619Y-152924166D02*
X101045428Y-153257499D01*
X101521619Y-153495594D02*
X100521619Y-153495594D01*
X100521619Y-153495594D02*
X100521619Y-153114642D01*
X100521619Y-153114642D02*
X100569238Y-153019404D01*
X100569238Y-153019404D02*
X100616857Y-152971785D01*
X100616857Y-152971785D02*
X100712095Y-152924166D01*
X100712095Y-152924166D02*
X100854952Y-152924166D01*
X100854952Y-152924166D02*
X100950190Y-152971785D01*
X100950190Y-152971785D02*
X100997809Y-153019404D01*
X100997809Y-153019404D02*
X101045428Y-153114642D01*
X101045428Y-153114642D02*
X101045428Y-153495594D01*
X100950190Y-152352737D02*
X100902571Y-152447975D01*
X100902571Y-152447975D02*
X100854952Y-152495594D01*
X100854952Y-152495594D02*
X100759714Y-152543213D01*
X100759714Y-152543213D02*
X100712095Y-152543213D01*
X100712095Y-152543213D02*
X100616857Y-152495594D01*
X100616857Y-152495594D02*
X100569238Y-152447975D01*
X100569238Y-152447975D02*
X100521619Y-152352737D01*
X100521619Y-152352737D02*
X100521619Y-152162261D01*
X100521619Y-152162261D02*
X100569238Y-152067023D01*
X100569238Y-152067023D02*
X100616857Y-152019404D01*
X100616857Y-152019404D02*
X100712095Y-151971785D01*
X100712095Y-151971785D02*
X100759714Y-151971785D01*
X100759714Y-151971785D02*
X100854952Y-152019404D01*
X100854952Y-152019404D02*
X100902571Y-152067023D01*
X100902571Y-152067023D02*
X100950190Y-152162261D01*
X100950190Y-152162261D02*
X100950190Y-152352737D01*
X100950190Y-152352737D02*
X100997809Y-152447975D01*
X100997809Y-152447975D02*
X101045428Y-152495594D01*
X101045428Y-152495594D02*
X101140666Y-152543213D01*
X101140666Y-152543213D02*
X101331142Y-152543213D01*
X101331142Y-152543213D02*
X101426380Y-152495594D01*
X101426380Y-152495594D02*
X101474000Y-152447975D01*
X101474000Y-152447975D02*
X101521619Y-152352737D01*
X101521619Y-152352737D02*
X101521619Y-152162261D01*
X101521619Y-152162261D02*
X101474000Y-152067023D01*
X101474000Y-152067023D02*
X101426380Y-152019404D01*
X101426380Y-152019404D02*
X101331142Y-151971785D01*
X101331142Y-151971785D02*
X101140666Y-151971785D01*
X101140666Y-151971785D02*
X101045428Y-152019404D01*
X101045428Y-152019404D02*
X100997809Y-152067023D01*
X100997809Y-152067023D02*
X100950190Y-152162261D01*
%TO.C,C4*%
X52157333Y-161055380D02*
X52109714Y-161103000D01*
X52109714Y-161103000D02*
X51966857Y-161150619D01*
X51966857Y-161150619D02*
X51871619Y-161150619D01*
X51871619Y-161150619D02*
X51728762Y-161103000D01*
X51728762Y-161103000D02*
X51633524Y-161007761D01*
X51633524Y-161007761D02*
X51585905Y-160912523D01*
X51585905Y-160912523D02*
X51538286Y-160722047D01*
X51538286Y-160722047D02*
X51538286Y-160579190D01*
X51538286Y-160579190D02*
X51585905Y-160388714D01*
X51585905Y-160388714D02*
X51633524Y-160293476D01*
X51633524Y-160293476D02*
X51728762Y-160198238D01*
X51728762Y-160198238D02*
X51871619Y-160150619D01*
X51871619Y-160150619D02*
X51966857Y-160150619D01*
X51966857Y-160150619D02*
X52109714Y-160198238D01*
X52109714Y-160198238D02*
X52157333Y-160245857D01*
X53014476Y-160483952D02*
X53014476Y-161150619D01*
X52776381Y-160103000D02*
X52538286Y-160817285D01*
X52538286Y-160817285D02*
X53157333Y-160817285D01*
%TO.C,C3*%
X52144333Y-159531380D02*
X52096714Y-159579000D01*
X52096714Y-159579000D02*
X51953857Y-159626619D01*
X51953857Y-159626619D02*
X51858619Y-159626619D01*
X51858619Y-159626619D02*
X51715762Y-159579000D01*
X51715762Y-159579000D02*
X51620524Y-159483761D01*
X51620524Y-159483761D02*
X51572905Y-159388523D01*
X51572905Y-159388523D02*
X51525286Y-159198047D01*
X51525286Y-159198047D02*
X51525286Y-159055190D01*
X51525286Y-159055190D02*
X51572905Y-158864714D01*
X51572905Y-158864714D02*
X51620524Y-158769476D01*
X51620524Y-158769476D02*
X51715762Y-158674238D01*
X51715762Y-158674238D02*
X51858619Y-158626619D01*
X51858619Y-158626619D02*
X51953857Y-158626619D01*
X51953857Y-158626619D02*
X52096714Y-158674238D01*
X52096714Y-158674238D02*
X52144333Y-158721857D01*
X52477667Y-158626619D02*
X53096714Y-158626619D01*
X53096714Y-158626619D02*
X52763381Y-159007571D01*
X52763381Y-159007571D02*
X52906238Y-159007571D01*
X52906238Y-159007571D02*
X53001476Y-159055190D01*
X53001476Y-159055190D02*
X53049095Y-159102809D01*
X53049095Y-159102809D02*
X53096714Y-159198047D01*
X53096714Y-159198047D02*
X53096714Y-159436142D01*
X53096714Y-159436142D02*
X53049095Y-159531380D01*
X53049095Y-159531380D02*
X53001476Y-159579000D01*
X53001476Y-159579000D02*
X52906238Y-159626619D01*
X52906238Y-159626619D02*
X52620524Y-159626619D01*
X52620524Y-159626619D02*
X52525286Y-159579000D01*
X52525286Y-159579000D02*
X52477667Y-159531380D01*
%TO.C,R11*%
X69390619Y-152638357D02*
X68914428Y-152971690D01*
X69390619Y-153209785D02*
X68390619Y-153209785D01*
X68390619Y-153209785D02*
X68390619Y-152828833D01*
X68390619Y-152828833D02*
X68438238Y-152733595D01*
X68438238Y-152733595D02*
X68485857Y-152685976D01*
X68485857Y-152685976D02*
X68581095Y-152638357D01*
X68581095Y-152638357D02*
X68723952Y-152638357D01*
X68723952Y-152638357D02*
X68819190Y-152685976D01*
X68819190Y-152685976D02*
X68866809Y-152733595D01*
X68866809Y-152733595D02*
X68914428Y-152828833D01*
X68914428Y-152828833D02*
X68914428Y-153209785D01*
X69390619Y-151685976D02*
X69390619Y-152257404D01*
X69390619Y-151971690D02*
X68390619Y-151971690D01*
X68390619Y-151971690D02*
X68533476Y-152066928D01*
X68533476Y-152066928D02*
X68628714Y-152162166D01*
X68628714Y-152162166D02*
X68676333Y-152257404D01*
X69390619Y-150733595D02*
X69390619Y-151305023D01*
X69390619Y-151019309D02*
X68390619Y-151019309D01*
X68390619Y-151019309D02*
X68533476Y-151114547D01*
X68533476Y-151114547D02*
X68628714Y-151209785D01*
X68628714Y-151209785D02*
X68676333Y-151305023D01*
%TO.C,J4*%
X75206266Y-133701619D02*
X75206266Y-134415904D01*
X75206266Y-134415904D02*
X75158647Y-134558761D01*
X75158647Y-134558761D02*
X75063409Y-134654000D01*
X75063409Y-134654000D02*
X74920552Y-134701619D01*
X74920552Y-134701619D02*
X74825314Y-134701619D01*
X76111028Y-134034952D02*
X76111028Y-134701619D01*
X75872933Y-133654000D02*
X75634838Y-134368285D01*
X75634838Y-134368285D02*
X76253885Y-134368285D01*
%TO.C,U5*%
X60870619Y-156971904D02*
X61680142Y-156971904D01*
X61680142Y-156971904D02*
X61775380Y-156924285D01*
X61775380Y-156924285D02*
X61823000Y-156876666D01*
X61823000Y-156876666D02*
X61870619Y-156781428D01*
X61870619Y-156781428D02*
X61870619Y-156590952D01*
X61870619Y-156590952D02*
X61823000Y-156495714D01*
X61823000Y-156495714D02*
X61775380Y-156448095D01*
X61775380Y-156448095D02*
X61680142Y-156400476D01*
X61680142Y-156400476D02*
X60870619Y-156400476D01*
X60870619Y-155448095D02*
X60870619Y-155924285D01*
X60870619Y-155924285D02*
X61346809Y-155971904D01*
X61346809Y-155971904D02*
X61299190Y-155924285D01*
X61299190Y-155924285D02*
X61251571Y-155829047D01*
X61251571Y-155829047D02*
X61251571Y-155590952D01*
X61251571Y-155590952D02*
X61299190Y-155495714D01*
X61299190Y-155495714D02*
X61346809Y-155448095D01*
X61346809Y-155448095D02*
X61442047Y-155400476D01*
X61442047Y-155400476D02*
X61680142Y-155400476D01*
X61680142Y-155400476D02*
X61775380Y-155448095D01*
X61775380Y-155448095D02*
X61823000Y-155495714D01*
X61823000Y-155495714D02*
X61870619Y-155590952D01*
X61870619Y-155590952D02*
X61870619Y-155829047D01*
X61870619Y-155829047D02*
X61823000Y-155924285D01*
X61823000Y-155924285D02*
X61775380Y-155971904D01*
%TO.C,R13*%
X71168619Y-151669357D02*
X70692428Y-152002690D01*
X71168619Y-152240785D02*
X70168619Y-152240785D01*
X70168619Y-152240785D02*
X70168619Y-151859833D01*
X70168619Y-151859833D02*
X70216238Y-151764595D01*
X70216238Y-151764595D02*
X70263857Y-151716976D01*
X70263857Y-151716976D02*
X70359095Y-151669357D01*
X70359095Y-151669357D02*
X70501952Y-151669357D01*
X70501952Y-151669357D02*
X70597190Y-151716976D01*
X70597190Y-151716976D02*
X70644809Y-151764595D01*
X70644809Y-151764595D02*
X70692428Y-151859833D01*
X70692428Y-151859833D02*
X70692428Y-152240785D01*
X71168619Y-150716976D02*
X71168619Y-151288404D01*
X71168619Y-151002690D02*
X70168619Y-151002690D01*
X70168619Y-151002690D02*
X70311476Y-151097928D01*
X70311476Y-151097928D02*
X70406714Y-151193166D01*
X70406714Y-151193166D02*
X70454333Y-151288404D01*
X70168619Y-150383642D02*
X70168619Y-149764595D01*
X70168619Y-149764595D02*
X70549571Y-150097928D01*
X70549571Y-150097928D02*
X70549571Y-149955071D01*
X70549571Y-149955071D02*
X70597190Y-149859833D01*
X70597190Y-149859833D02*
X70644809Y-149812214D01*
X70644809Y-149812214D02*
X70740047Y-149764595D01*
X70740047Y-149764595D02*
X70978142Y-149764595D01*
X70978142Y-149764595D02*
X71073380Y-149812214D01*
X71073380Y-149812214D02*
X71121000Y-149859833D01*
X71121000Y-149859833D02*
X71168619Y-149955071D01*
X71168619Y-149955071D02*
X71168619Y-150240785D01*
X71168619Y-150240785D02*
X71121000Y-150336023D01*
X71121000Y-150336023D02*
X71073380Y-150383642D01*
%TO.C,U3*%
X71396619Y-154939904D02*
X72206142Y-154939904D01*
X72206142Y-154939904D02*
X72301380Y-154892285D01*
X72301380Y-154892285D02*
X72349000Y-154844666D01*
X72349000Y-154844666D02*
X72396619Y-154749428D01*
X72396619Y-154749428D02*
X72396619Y-154558952D01*
X72396619Y-154558952D02*
X72349000Y-154463714D01*
X72349000Y-154463714D02*
X72301380Y-154416095D01*
X72301380Y-154416095D02*
X72206142Y-154368476D01*
X72206142Y-154368476D02*
X71396619Y-154368476D01*
X71396619Y-153987523D02*
X71396619Y-153368476D01*
X71396619Y-153368476D02*
X71777571Y-153701809D01*
X71777571Y-153701809D02*
X71777571Y-153558952D01*
X71777571Y-153558952D02*
X71825190Y-153463714D01*
X71825190Y-153463714D02*
X71872809Y-153416095D01*
X71872809Y-153416095D02*
X71968047Y-153368476D01*
X71968047Y-153368476D02*
X72206142Y-153368476D01*
X72206142Y-153368476D02*
X72301380Y-153416095D01*
X72301380Y-153416095D02*
X72349000Y-153463714D01*
X72349000Y-153463714D02*
X72396619Y-153558952D01*
X72396619Y-153558952D02*
X72396619Y-153844666D01*
X72396619Y-153844666D02*
X72349000Y-153939904D01*
X72349000Y-153939904D02*
X72301380Y-153987523D01*
%TO.C,C12*%
X78302180Y-131862557D02*
X78349800Y-131910176D01*
X78349800Y-131910176D02*
X78397419Y-132053033D01*
X78397419Y-132053033D02*
X78397419Y-132148271D01*
X78397419Y-132148271D02*
X78349800Y-132291128D01*
X78349800Y-132291128D02*
X78254561Y-132386366D01*
X78254561Y-132386366D02*
X78159323Y-132433985D01*
X78159323Y-132433985D02*
X77968847Y-132481604D01*
X77968847Y-132481604D02*
X77825990Y-132481604D01*
X77825990Y-132481604D02*
X77635514Y-132433985D01*
X77635514Y-132433985D02*
X77540276Y-132386366D01*
X77540276Y-132386366D02*
X77445038Y-132291128D01*
X77445038Y-132291128D02*
X77397419Y-132148271D01*
X77397419Y-132148271D02*
X77397419Y-132053033D01*
X77397419Y-132053033D02*
X77445038Y-131910176D01*
X77445038Y-131910176D02*
X77492657Y-131862557D01*
X78397419Y-130910176D02*
X78397419Y-131481604D01*
X78397419Y-131195890D02*
X77397419Y-131195890D01*
X77397419Y-131195890D02*
X77540276Y-131291128D01*
X77540276Y-131291128D02*
X77635514Y-131386366D01*
X77635514Y-131386366D02*
X77683133Y-131481604D01*
X77492657Y-130529223D02*
X77445038Y-130481604D01*
X77445038Y-130481604D02*
X77397419Y-130386366D01*
X77397419Y-130386366D02*
X77397419Y-130148271D01*
X77397419Y-130148271D02*
X77445038Y-130053033D01*
X77445038Y-130053033D02*
X77492657Y-130005414D01*
X77492657Y-130005414D02*
X77587895Y-129957795D01*
X77587895Y-129957795D02*
X77683133Y-129957795D01*
X77683133Y-129957795D02*
X77825990Y-130005414D01*
X77825990Y-130005414D02*
X78397419Y-130576842D01*
X78397419Y-130576842D02*
X78397419Y-129957795D01*
%TO.C,uart_led1*%
X63740165Y-151847952D02*
X63740165Y-152514619D01*
X63311594Y-151847952D02*
X63311594Y-152371761D01*
X63311594Y-152371761D02*
X63359213Y-152467000D01*
X63359213Y-152467000D02*
X63454451Y-152514619D01*
X63454451Y-152514619D02*
X63597308Y-152514619D01*
X63597308Y-152514619D02*
X63692546Y-152467000D01*
X63692546Y-152467000D02*
X63740165Y-152419380D01*
X64644927Y-152514619D02*
X64644927Y-151990809D01*
X64644927Y-151990809D02*
X64597308Y-151895571D01*
X64597308Y-151895571D02*
X64502070Y-151847952D01*
X64502070Y-151847952D02*
X64311594Y-151847952D01*
X64311594Y-151847952D02*
X64216356Y-151895571D01*
X64644927Y-152467000D02*
X64549689Y-152514619D01*
X64549689Y-152514619D02*
X64311594Y-152514619D01*
X64311594Y-152514619D02*
X64216356Y-152467000D01*
X64216356Y-152467000D02*
X64168737Y-152371761D01*
X64168737Y-152371761D02*
X64168737Y-152276523D01*
X64168737Y-152276523D02*
X64216356Y-152181285D01*
X64216356Y-152181285D02*
X64311594Y-152133666D01*
X64311594Y-152133666D02*
X64549689Y-152133666D01*
X64549689Y-152133666D02*
X64644927Y-152086047D01*
X65121118Y-152514619D02*
X65121118Y-151847952D01*
X65121118Y-152038428D02*
X65168737Y-151943190D01*
X65168737Y-151943190D02*
X65216356Y-151895571D01*
X65216356Y-151895571D02*
X65311594Y-151847952D01*
X65311594Y-151847952D02*
X65406832Y-151847952D01*
X65597309Y-151847952D02*
X65978261Y-151847952D01*
X65740166Y-151514619D02*
X65740166Y-152371761D01*
X65740166Y-152371761D02*
X65787785Y-152467000D01*
X65787785Y-152467000D02*
X65883023Y-152514619D01*
X65883023Y-152514619D02*
X65978261Y-152514619D01*
X66073500Y-152609857D02*
X66835404Y-152609857D01*
X67216357Y-152514619D02*
X67121119Y-152467000D01*
X67121119Y-152467000D02*
X67073500Y-152371761D01*
X67073500Y-152371761D02*
X67073500Y-151514619D01*
X67978262Y-152467000D02*
X67883024Y-152514619D01*
X67883024Y-152514619D02*
X67692548Y-152514619D01*
X67692548Y-152514619D02*
X67597310Y-152467000D01*
X67597310Y-152467000D02*
X67549691Y-152371761D01*
X67549691Y-152371761D02*
X67549691Y-151990809D01*
X67549691Y-151990809D02*
X67597310Y-151895571D01*
X67597310Y-151895571D02*
X67692548Y-151847952D01*
X67692548Y-151847952D02*
X67883024Y-151847952D01*
X67883024Y-151847952D02*
X67978262Y-151895571D01*
X67978262Y-151895571D02*
X68025881Y-151990809D01*
X68025881Y-151990809D02*
X68025881Y-152086047D01*
X68025881Y-152086047D02*
X67549691Y-152181285D01*
X68883024Y-152514619D02*
X68883024Y-151514619D01*
X68883024Y-152467000D02*
X68787786Y-152514619D01*
X68787786Y-152514619D02*
X68597310Y-152514619D01*
X68597310Y-152514619D02*
X68502072Y-152467000D01*
X68502072Y-152467000D02*
X68454453Y-152419380D01*
X68454453Y-152419380D02*
X68406834Y-152324142D01*
X68406834Y-152324142D02*
X68406834Y-152038428D01*
X68406834Y-152038428D02*
X68454453Y-151943190D01*
X68454453Y-151943190D02*
X68502072Y-151895571D01*
X68502072Y-151895571D02*
X68597310Y-151847952D01*
X68597310Y-151847952D02*
X68787786Y-151847952D01*
X68787786Y-151847952D02*
X68883024Y-151895571D01*
X69883024Y-152514619D02*
X69311596Y-152514619D01*
X69597310Y-152514619D02*
X69597310Y-151514619D01*
X69597310Y-151514619D02*
X69502072Y-151657476D01*
X69502072Y-151657476D02*
X69406834Y-151752714D01*
X69406834Y-151752714D02*
X69311596Y-151800333D01*
%TO.C,C17*%
X79597642Y-149686380D02*
X79550023Y-149734000D01*
X79550023Y-149734000D02*
X79407166Y-149781619D01*
X79407166Y-149781619D02*
X79311928Y-149781619D01*
X79311928Y-149781619D02*
X79169071Y-149734000D01*
X79169071Y-149734000D02*
X79073833Y-149638761D01*
X79073833Y-149638761D02*
X79026214Y-149543523D01*
X79026214Y-149543523D02*
X78978595Y-149353047D01*
X78978595Y-149353047D02*
X78978595Y-149210190D01*
X78978595Y-149210190D02*
X79026214Y-149019714D01*
X79026214Y-149019714D02*
X79073833Y-148924476D01*
X79073833Y-148924476D02*
X79169071Y-148829238D01*
X79169071Y-148829238D02*
X79311928Y-148781619D01*
X79311928Y-148781619D02*
X79407166Y-148781619D01*
X79407166Y-148781619D02*
X79550023Y-148829238D01*
X79550023Y-148829238D02*
X79597642Y-148876857D01*
X80550023Y-149781619D02*
X79978595Y-149781619D01*
X80264309Y-149781619D02*
X80264309Y-148781619D01*
X80264309Y-148781619D02*
X80169071Y-148924476D01*
X80169071Y-148924476D02*
X80073833Y-149019714D01*
X80073833Y-149019714D02*
X79978595Y-149067333D01*
X80883357Y-148781619D02*
X81550023Y-148781619D01*
X81550023Y-148781619D02*
X81121452Y-149781619D01*
%TO.C,Y2*%
X57062428Y-139476190D02*
X57538619Y-139476190D01*
X56538619Y-139809523D02*
X57062428Y-139476190D01*
X57062428Y-139476190D02*
X56538619Y-139142857D01*
X56633857Y-138857142D02*
X56586238Y-138809523D01*
X56586238Y-138809523D02*
X56538619Y-138714285D01*
X56538619Y-138714285D02*
X56538619Y-138476190D01*
X56538619Y-138476190D02*
X56586238Y-138380952D01*
X56586238Y-138380952D02*
X56633857Y-138333333D01*
X56633857Y-138333333D02*
X56729095Y-138285714D01*
X56729095Y-138285714D02*
X56824333Y-138285714D01*
X56824333Y-138285714D02*
X56967190Y-138333333D01*
X56967190Y-138333333D02*
X57538619Y-138904761D01*
X57538619Y-138904761D02*
X57538619Y-138285714D01*
%TO.C,C6*%
X55579380Y-158649666D02*
X55627000Y-158697285D01*
X55627000Y-158697285D02*
X55674619Y-158840142D01*
X55674619Y-158840142D02*
X55674619Y-158935380D01*
X55674619Y-158935380D02*
X55627000Y-159078237D01*
X55627000Y-159078237D02*
X55531761Y-159173475D01*
X55531761Y-159173475D02*
X55436523Y-159221094D01*
X55436523Y-159221094D02*
X55246047Y-159268713D01*
X55246047Y-159268713D02*
X55103190Y-159268713D01*
X55103190Y-159268713D02*
X54912714Y-159221094D01*
X54912714Y-159221094D02*
X54817476Y-159173475D01*
X54817476Y-159173475D02*
X54722238Y-159078237D01*
X54722238Y-159078237D02*
X54674619Y-158935380D01*
X54674619Y-158935380D02*
X54674619Y-158840142D01*
X54674619Y-158840142D02*
X54722238Y-158697285D01*
X54722238Y-158697285D02*
X54769857Y-158649666D01*
X54674619Y-157792523D02*
X54674619Y-157982999D01*
X54674619Y-157982999D02*
X54722238Y-158078237D01*
X54722238Y-158078237D02*
X54769857Y-158125856D01*
X54769857Y-158125856D02*
X54912714Y-158221094D01*
X54912714Y-158221094D02*
X55103190Y-158268713D01*
X55103190Y-158268713D02*
X55484142Y-158268713D01*
X55484142Y-158268713D02*
X55579380Y-158221094D01*
X55579380Y-158221094D02*
X55627000Y-158173475D01*
X55627000Y-158173475D02*
X55674619Y-158078237D01*
X55674619Y-158078237D02*
X55674619Y-157887761D01*
X55674619Y-157887761D02*
X55627000Y-157792523D01*
X55627000Y-157792523D02*
X55579380Y-157744904D01*
X55579380Y-157744904D02*
X55484142Y-157697285D01*
X55484142Y-157697285D02*
X55246047Y-157697285D01*
X55246047Y-157697285D02*
X55150809Y-157744904D01*
X55150809Y-157744904D02*
X55103190Y-157792523D01*
X55103190Y-157792523D02*
X55055571Y-157887761D01*
X55055571Y-157887761D02*
X55055571Y-158078237D01*
X55055571Y-158078237D02*
X55103190Y-158173475D01*
X55103190Y-158173475D02*
X55150809Y-158221094D01*
X55150809Y-158221094D02*
X55246047Y-158268713D01*
%TO.C,C16*%
X74641642Y-152165380D02*
X74594023Y-152213000D01*
X74594023Y-152213000D02*
X74451166Y-152260619D01*
X74451166Y-152260619D02*
X74355928Y-152260619D01*
X74355928Y-152260619D02*
X74213071Y-152213000D01*
X74213071Y-152213000D02*
X74117833Y-152117761D01*
X74117833Y-152117761D02*
X74070214Y-152022523D01*
X74070214Y-152022523D02*
X74022595Y-151832047D01*
X74022595Y-151832047D02*
X74022595Y-151689190D01*
X74022595Y-151689190D02*
X74070214Y-151498714D01*
X74070214Y-151498714D02*
X74117833Y-151403476D01*
X74117833Y-151403476D02*
X74213071Y-151308238D01*
X74213071Y-151308238D02*
X74355928Y-151260619D01*
X74355928Y-151260619D02*
X74451166Y-151260619D01*
X74451166Y-151260619D02*
X74594023Y-151308238D01*
X74594023Y-151308238D02*
X74641642Y-151355857D01*
X75594023Y-152260619D02*
X75022595Y-152260619D01*
X75308309Y-152260619D02*
X75308309Y-151260619D01*
X75308309Y-151260619D02*
X75213071Y-151403476D01*
X75213071Y-151403476D02*
X75117833Y-151498714D01*
X75117833Y-151498714D02*
X75022595Y-151546333D01*
X76451166Y-151260619D02*
X76260690Y-151260619D01*
X76260690Y-151260619D02*
X76165452Y-151308238D01*
X76165452Y-151308238D02*
X76117833Y-151355857D01*
X76117833Y-151355857D02*
X76022595Y-151498714D01*
X76022595Y-151498714D02*
X75974976Y-151689190D01*
X75974976Y-151689190D02*
X75974976Y-152070142D01*
X75974976Y-152070142D02*
X76022595Y-152165380D01*
X76022595Y-152165380D02*
X76070214Y-152213000D01*
X76070214Y-152213000D02*
X76165452Y-152260619D01*
X76165452Y-152260619D02*
X76355928Y-152260619D01*
X76355928Y-152260619D02*
X76451166Y-152213000D01*
X76451166Y-152213000D02*
X76498785Y-152165380D01*
X76498785Y-152165380D02*
X76546404Y-152070142D01*
X76546404Y-152070142D02*
X76546404Y-151832047D01*
X76546404Y-151832047D02*
X76498785Y-151736809D01*
X76498785Y-151736809D02*
X76451166Y-151689190D01*
X76451166Y-151689190D02*
X76355928Y-151641571D01*
X76355928Y-151641571D02*
X76165452Y-151641571D01*
X76165452Y-151641571D02*
X76070214Y-151689190D01*
X76070214Y-151689190D02*
X76022595Y-151736809D01*
X76022595Y-151736809D02*
X75974976Y-151832047D01*
%TO.C,R7*%
X110958333Y-157467619D02*
X110625000Y-156991428D01*
X110386905Y-157467619D02*
X110386905Y-156467619D01*
X110386905Y-156467619D02*
X110767857Y-156467619D01*
X110767857Y-156467619D02*
X110863095Y-156515238D01*
X110863095Y-156515238D02*
X110910714Y-156562857D01*
X110910714Y-156562857D02*
X110958333Y-156658095D01*
X110958333Y-156658095D02*
X110958333Y-156800952D01*
X110958333Y-156800952D02*
X110910714Y-156896190D01*
X110910714Y-156896190D02*
X110863095Y-156943809D01*
X110863095Y-156943809D02*
X110767857Y-156991428D01*
X110767857Y-156991428D02*
X110386905Y-156991428D01*
X111291667Y-156467619D02*
X111958333Y-156467619D01*
X111958333Y-156467619D02*
X111529762Y-157467619D01*
%TO.C,U1*%
X64008095Y-132524619D02*
X64008095Y-133334142D01*
X64008095Y-133334142D02*
X64055714Y-133429380D01*
X64055714Y-133429380D02*
X64103333Y-133477000D01*
X64103333Y-133477000D02*
X64198571Y-133524619D01*
X64198571Y-133524619D02*
X64389047Y-133524619D01*
X64389047Y-133524619D02*
X64484285Y-133477000D01*
X64484285Y-133477000D02*
X64531904Y-133429380D01*
X64531904Y-133429380D02*
X64579523Y-133334142D01*
X64579523Y-133334142D02*
X64579523Y-132524619D01*
X65579523Y-133524619D02*
X65008095Y-133524619D01*
X65293809Y-133524619D02*
X65293809Y-132524619D01*
X65293809Y-132524619D02*
X65198571Y-132667476D01*
X65198571Y-132667476D02*
X65103333Y-132762714D01*
X65103333Y-132762714D02*
X65008095Y-132810333D01*
%TO.C,C2*%
X106285833Y-150387380D02*
X106238214Y-150435000D01*
X106238214Y-150435000D02*
X106095357Y-150482619D01*
X106095357Y-150482619D02*
X106000119Y-150482619D01*
X106000119Y-150482619D02*
X105857262Y-150435000D01*
X105857262Y-150435000D02*
X105762024Y-150339761D01*
X105762024Y-150339761D02*
X105714405Y-150244523D01*
X105714405Y-150244523D02*
X105666786Y-150054047D01*
X105666786Y-150054047D02*
X105666786Y-149911190D01*
X105666786Y-149911190D02*
X105714405Y-149720714D01*
X105714405Y-149720714D02*
X105762024Y-149625476D01*
X105762024Y-149625476D02*
X105857262Y-149530238D01*
X105857262Y-149530238D02*
X106000119Y-149482619D01*
X106000119Y-149482619D02*
X106095357Y-149482619D01*
X106095357Y-149482619D02*
X106238214Y-149530238D01*
X106238214Y-149530238D02*
X106285833Y-149577857D01*
X106666786Y-149577857D02*
X106714405Y-149530238D01*
X106714405Y-149530238D02*
X106809643Y-149482619D01*
X106809643Y-149482619D02*
X107047738Y-149482619D01*
X107047738Y-149482619D02*
X107142976Y-149530238D01*
X107142976Y-149530238D02*
X107190595Y-149577857D01*
X107190595Y-149577857D02*
X107238214Y-149673095D01*
X107238214Y-149673095D02*
X107238214Y-149768333D01*
X107238214Y-149768333D02*
X107190595Y-149911190D01*
X107190595Y-149911190D02*
X106619167Y-150482619D01*
X106619167Y-150482619D02*
X107238214Y-150482619D01*
%TO.C,J5*%
X59108619Y-130635333D02*
X59822904Y-130635333D01*
X59822904Y-130635333D02*
X59965761Y-130682952D01*
X59965761Y-130682952D02*
X60061000Y-130778190D01*
X60061000Y-130778190D02*
X60108619Y-130921047D01*
X60108619Y-130921047D02*
X60108619Y-131016285D01*
X59108619Y-129682952D02*
X59108619Y-130159142D01*
X59108619Y-130159142D02*
X59584809Y-130206761D01*
X59584809Y-130206761D02*
X59537190Y-130159142D01*
X59537190Y-130159142D02*
X59489571Y-130063904D01*
X59489571Y-130063904D02*
X59489571Y-129825809D01*
X59489571Y-129825809D02*
X59537190Y-129730571D01*
X59537190Y-129730571D02*
X59584809Y-129682952D01*
X59584809Y-129682952D02*
X59680047Y-129635333D01*
X59680047Y-129635333D02*
X59918142Y-129635333D01*
X59918142Y-129635333D02*
X60013380Y-129682952D01*
X60013380Y-129682952D02*
X60061000Y-129730571D01*
X60061000Y-129730571D02*
X60108619Y-129825809D01*
X60108619Y-129825809D02*
X60108619Y-130063904D01*
X60108619Y-130063904D02*
X60061000Y-130159142D01*
X60061000Y-130159142D02*
X60013380Y-130206761D01*
%TO.C,R16*%
X110482142Y-154419619D02*
X110148809Y-153943428D01*
X109910714Y-154419619D02*
X109910714Y-153419619D01*
X109910714Y-153419619D02*
X110291666Y-153419619D01*
X110291666Y-153419619D02*
X110386904Y-153467238D01*
X110386904Y-153467238D02*
X110434523Y-153514857D01*
X110434523Y-153514857D02*
X110482142Y-153610095D01*
X110482142Y-153610095D02*
X110482142Y-153752952D01*
X110482142Y-153752952D02*
X110434523Y-153848190D01*
X110434523Y-153848190D02*
X110386904Y-153895809D01*
X110386904Y-153895809D02*
X110291666Y-153943428D01*
X110291666Y-153943428D02*
X109910714Y-153943428D01*
X111434523Y-154419619D02*
X110863095Y-154419619D01*
X111148809Y-154419619D02*
X111148809Y-153419619D01*
X111148809Y-153419619D02*
X111053571Y-153562476D01*
X111053571Y-153562476D02*
X110958333Y-153657714D01*
X110958333Y-153657714D02*
X110863095Y-153705333D01*
X112291666Y-153419619D02*
X112101190Y-153419619D01*
X112101190Y-153419619D02*
X112005952Y-153467238D01*
X112005952Y-153467238D02*
X111958333Y-153514857D01*
X111958333Y-153514857D02*
X111863095Y-153657714D01*
X111863095Y-153657714D02*
X111815476Y-153848190D01*
X111815476Y-153848190D02*
X111815476Y-154229142D01*
X111815476Y-154229142D02*
X111863095Y-154324380D01*
X111863095Y-154324380D02*
X111910714Y-154372000D01*
X111910714Y-154372000D02*
X112005952Y-154419619D01*
X112005952Y-154419619D02*
X112196428Y-154419619D01*
X112196428Y-154419619D02*
X112291666Y-154372000D01*
X112291666Y-154372000D02*
X112339285Y-154324380D01*
X112339285Y-154324380D02*
X112386904Y-154229142D01*
X112386904Y-154229142D02*
X112386904Y-153991047D01*
X112386904Y-153991047D02*
X112339285Y-153895809D01*
X112339285Y-153895809D02*
X112291666Y-153848190D01*
X112291666Y-153848190D02*
X112196428Y-153800571D01*
X112196428Y-153800571D02*
X112005952Y-153800571D01*
X112005952Y-153800571D02*
X111910714Y-153848190D01*
X111910714Y-153848190D02*
X111863095Y-153895809D01*
X111863095Y-153895809D02*
X111815476Y-153991047D01*
%TO.C,R5*%
X54851619Y-154145166D02*
X54375428Y-154478499D01*
X54851619Y-154716594D02*
X53851619Y-154716594D01*
X53851619Y-154716594D02*
X53851619Y-154335642D01*
X53851619Y-154335642D02*
X53899238Y-154240404D01*
X53899238Y-154240404D02*
X53946857Y-154192785D01*
X53946857Y-154192785D02*
X54042095Y-154145166D01*
X54042095Y-154145166D02*
X54184952Y-154145166D01*
X54184952Y-154145166D02*
X54280190Y-154192785D01*
X54280190Y-154192785D02*
X54327809Y-154240404D01*
X54327809Y-154240404D02*
X54375428Y-154335642D01*
X54375428Y-154335642D02*
X54375428Y-154716594D01*
X53851619Y-153240404D02*
X53851619Y-153716594D01*
X53851619Y-153716594D02*
X54327809Y-153764213D01*
X54327809Y-153764213D02*
X54280190Y-153716594D01*
X54280190Y-153716594D02*
X54232571Y-153621356D01*
X54232571Y-153621356D02*
X54232571Y-153383261D01*
X54232571Y-153383261D02*
X54280190Y-153288023D01*
X54280190Y-153288023D02*
X54327809Y-153240404D01*
X54327809Y-153240404D02*
X54423047Y-153192785D01*
X54423047Y-153192785D02*
X54661142Y-153192785D01*
X54661142Y-153192785D02*
X54756380Y-153240404D01*
X54756380Y-153240404D02*
X54804000Y-153288023D01*
X54804000Y-153288023D02*
X54851619Y-153383261D01*
X54851619Y-153383261D02*
X54851619Y-153621356D01*
X54851619Y-153621356D02*
X54804000Y-153716594D01*
X54804000Y-153716594D02*
X54756380Y-153764213D01*
%TO.C,C8*%
X56087380Y-141237166D02*
X56135000Y-141284785D01*
X56135000Y-141284785D02*
X56182619Y-141427642D01*
X56182619Y-141427642D02*
X56182619Y-141522880D01*
X56182619Y-141522880D02*
X56135000Y-141665737D01*
X56135000Y-141665737D02*
X56039761Y-141760975D01*
X56039761Y-141760975D02*
X55944523Y-141808594D01*
X55944523Y-141808594D02*
X55754047Y-141856213D01*
X55754047Y-141856213D02*
X55611190Y-141856213D01*
X55611190Y-141856213D02*
X55420714Y-141808594D01*
X55420714Y-141808594D02*
X55325476Y-141760975D01*
X55325476Y-141760975D02*
X55230238Y-141665737D01*
X55230238Y-141665737D02*
X55182619Y-141522880D01*
X55182619Y-141522880D02*
X55182619Y-141427642D01*
X55182619Y-141427642D02*
X55230238Y-141284785D01*
X55230238Y-141284785D02*
X55277857Y-141237166D01*
X55611190Y-140665737D02*
X55563571Y-140760975D01*
X55563571Y-140760975D02*
X55515952Y-140808594D01*
X55515952Y-140808594D02*
X55420714Y-140856213D01*
X55420714Y-140856213D02*
X55373095Y-140856213D01*
X55373095Y-140856213D02*
X55277857Y-140808594D01*
X55277857Y-140808594D02*
X55230238Y-140760975D01*
X55230238Y-140760975D02*
X55182619Y-140665737D01*
X55182619Y-140665737D02*
X55182619Y-140475261D01*
X55182619Y-140475261D02*
X55230238Y-140380023D01*
X55230238Y-140380023D02*
X55277857Y-140332404D01*
X55277857Y-140332404D02*
X55373095Y-140284785D01*
X55373095Y-140284785D02*
X55420714Y-140284785D01*
X55420714Y-140284785D02*
X55515952Y-140332404D01*
X55515952Y-140332404D02*
X55563571Y-140380023D01*
X55563571Y-140380023D02*
X55611190Y-140475261D01*
X55611190Y-140475261D02*
X55611190Y-140665737D01*
X55611190Y-140665737D02*
X55658809Y-140760975D01*
X55658809Y-140760975D02*
X55706428Y-140808594D01*
X55706428Y-140808594D02*
X55801666Y-140856213D01*
X55801666Y-140856213D02*
X55992142Y-140856213D01*
X55992142Y-140856213D02*
X56087380Y-140808594D01*
X56087380Y-140808594D02*
X56135000Y-140760975D01*
X56135000Y-140760975D02*
X56182619Y-140665737D01*
X56182619Y-140665737D02*
X56182619Y-140475261D01*
X56182619Y-140475261D02*
X56135000Y-140380023D01*
X56135000Y-140380023D02*
X56087380Y-140332404D01*
X56087380Y-140332404D02*
X55992142Y-140284785D01*
X55992142Y-140284785D02*
X55801666Y-140284785D01*
X55801666Y-140284785D02*
X55706428Y-140332404D01*
X55706428Y-140332404D02*
X55658809Y-140380023D01*
X55658809Y-140380023D02*
X55611190Y-140475261D01*
%TO.C,R14*%
X79597642Y-154165619D02*
X79264309Y-153689428D01*
X79026214Y-154165619D02*
X79026214Y-153165619D01*
X79026214Y-153165619D02*
X79407166Y-153165619D01*
X79407166Y-153165619D02*
X79502404Y-153213238D01*
X79502404Y-153213238D02*
X79550023Y-153260857D01*
X79550023Y-153260857D02*
X79597642Y-153356095D01*
X79597642Y-153356095D02*
X79597642Y-153498952D01*
X79597642Y-153498952D02*
X79550023Y-153594190D01*
X79550023Y-153594190D02*
X79502404Y-153641809D01*
X79502404Y-153641809D02*
X79407166Y-153689428D01*
X79407166Y-153689428D02*
X79026214Y-153689428D01*
X80550023Y-154165619D02*
X79978595Y-154165619D01*
X80264309Y-154165619D02*
X80264309Y-153165619D01*
X80264309Y-153165619D02*
X80169071Y-153308476D01*
X80169071Y-153308476D02*
X80073833Y-153403714D01*
X80073833Y-153403714D02*
X79978595Y-153451333D01*
X81407166Y-153498952D02*
X81407166Y-154165619D01*
X81169071Y-153118000D02*
X80930976Y-153832285D01*
X80930976Y-153832285D02*
X81550023Y-153832285D01*
%TO.C,J1*%
X90835619Y-149304333D02*
X91549904Y-149304333D01*
X91549904Y-149304333D02*
X91692761Y-149351952D01*
X91692761Y-149351952D02*
X91788000Y-149447190D01*
X91788000Y-149447190D02*
X91835619Y-149590047D01*
X91835619Y-149590047D02*
X91835619Y-149685285D01*
X91835619Y-148304333D02*
X91835619Y-148875761D01*
X91835619Y-148590047D02*
X90835619Y-148590047D01*
X90835619Y-148590047D02*
X90978476Y-148685285D01*
X90978476Y-148685285D02*
X91073714Y-148780523D01*
X91073714Y-148780523D02*
X91121333Y-148875761D01*
%TO.C,U4*%
X59334619Y-165353904D02*
X60144142Y-165353904D01*
X60144142Y-165353904D02*
X60239380Y-165306285D01*
X60239380Y-165306285D02*
X60287000Y-165258666D01*
X60287000Y-165258666D02*
X60334619Y-165163428D01*
X60334619Y-165163428D02*
X60334619Y-164972952D01*
X60334619Y-164972952D02*
X60287000Y-164877714D01*
X60287000Y-164877714D02*
X60239380Y-164830095D01*
X60239380Y-164830095D02*
X60144142Y-164782476D01*
X60144142Y-164782476D02*
X59334619Y-164782476D01*
X59667952Y-163877714D02*
X60334619Y-163877714D01*
X59287000Y-164115809D02*
X60001285Y-164353904D01*
X60001285Y-164353904D02*
X60001285Y-163734857D01*
%TO.C,R18*%
X68694619Y-153804857D02*
X68218428Y-154138190D01*
X68694619Y-154376285D02*
X67694619Y-154376285D01*
X67694619Y-154376285D02*
X67694619Y-153995333D01*
X67694619Y-153995333D02*
X67742238Y-153900095D01*
X67742238Y-153900095D02*
X67789857Y-153852476D01*
X67789857Y-153852476D02*
X67885095Y-153804857D01*
X67885095Y-153804857D02*
X68027952Y-153804857D01*
X68027952Y-153804857D02*
X68123190Y-153852476D01*
X68123190Y-153852476D02*
X68170809Y-153900095D01*
X68170809Y-153900095D02*
X68218428Y-153995333D01*
X68218428Y-153995333D02*
X68218428Y-154376285D01*
X68694619Y-152852476D02*
X68694619Y-153423904D01*
X68694619Y-153138190D02*
X67694619Y-153138190D01*
X67694619Y-153138190D02*
X67837476Y-153233428D01*
X67837476Y-153233428D02*
X67932714Y-153328666D01*
X67932714Y-153328666D02*
X67980333Y-153423904D01*
X68123190Y-152281047D02*
X68075571Y-152376285D01*
X68075571Y-152376285D02*
X68027952Y-152423904D01*
X68027952Y-152423904D02*
X67932714Y-152471523D01*
X67932714Y-152471523D02*
X67885095Y-152471523D01*
X67885095Y-152471523D02*
X67789857Y-152423904D01*
X67789857Y-152423904D02*
X67742238Y-152376285D01*
X67742238Y-152376285D02*
X67694619Y-152281047D01*
X67694619Y-152281047D02*
X67694619Y-152090571D01*
X67694619Y-152090571D02*
X67742238Y-151995333D01*
X67742238Y-151995333D02*
X67789857Y-151947714D01*
X67789857Y-151947714D02*
X67885095Y-151900095D01*
X67885095Y-151900095D02*
X67932714Y-151900095D01*
X67932714Y-151900095D02*
X68027952Y-151947714D01*
X68027952Y-151947714D02*
X68075571Y-151995333D01*
X68075571Y-151995333D02*
X68123190Y-152090571D01*
X68123190Y-152090571D02*
X68123190Y-152281047D01*
X68123190Y-152281047D02*
X68170809Y-152376285D01*
X68170809Y-152376285D02*
X68218428Y-152423904D01*
X68218428Y-152423904D02*
X68313666Y-152471523D01*
X68313666Y-152471523D02*
X68504142Y-152471523D01*
X68504142Y-152471523D02*
X68599380Y-152423904D01*
X68599380Y-152423904D02*
X68647000Y-152376285D01*
X68647000Y-152376285D02*
X68694619Y-152281047D01*
X68694619Y-152281047D02*
X68694619Y-152090571D01*
X68694619Y-152090571D02*
X68647000Y-151995333D01*
X68647000Y-151995333D02*
X68599380Y-151947714D01*
X68599380Y-151947714D02*
X68504142Y-151900095D01*
X68504142Y-151900095D02*
X68313666Y-151900095D01*
X68313666Y-151900095D02*
X68218428Y-151947714D01*
X68218428Y-151947714D02*
X68170809Y-151995333D01*
X68170809Y-151995333D02*
X68123190Y-152090571D01*
%TO.C,C11*%
X76828980Y-131860357D02*
X76876600Y-131907976D01*
X76876600Y-131907976D02*
X76924219Y-132050833D01*
X76924219Y-132050833D02*
X76924219Y-132146071D01*
X76924219Y-132146071D02*
X76876600Y-132288928D01*
X76876600Y-132288928D02*
X76781361Y-132384166D01*
X76781361Y-132384166D02*
X76686123Y-132431785D01*
X76686123Y-132431785D02*
X76495647Y-132479404D01*
X76495647Y-132479404D02*
X76352790Y-132479404D01*
X76352790Y-132479404D02*
X76162314Y-132431785D01*
X76162314Y-132431785D02*
X76067076Y-132384166D01*
X76067076Y-132384166D02*
X75971838Y-132288928D01*
X75971838Y-132288928D02*
X75924219Y-132146071D01*
X75924219Y-132146071D02*
X75924219Y-132050833D01*
X75924219Y-132050833D02*
X75971838Y-131907976D01*
X75971838Y-131907976D02*
X76019457Y-131860357D01*
X76924219Y-130907976D02*
X76924219Y-131479404D01*
X76924219Y-131193690D02*
X75924219Y-131193690D01*
X75924219Y-131193690D02*
X76067076Y-131288928D01*
X76067076Y-131288928D02*
X76162314Y-131384166D01*
X76162314Y-131384166D02*
X76209933Y-131479404D01*
X76924219Y-129955595D02*
X76924219Y-130527023D01*
X76924219Y-130241309D02*
X75924219Y-130241309D01*
X75924219Y-130241309D02*
X76067076Y-130336547D01*
X76067076Y-130336547D02*
X76162314Y-130431785D01*
X76162314Y-130431785D02*
X76209933Y-130527023D01*
%TO.C,R12*%
X72250619Y-155940357D02*
X71774428Y-156273690D01*
X72250619Y-156511785D02*
X71250619Y-156511785D01*
X71250619Y-156511785D02*
X71250619Y-156130833D01*
X71250619Y-156130833D02*
X71298238Y-156035595D01*
X71298238Y-156035595D02*
X71345857Y-155987976D01*
X71345857Y-155987976D02*
X71441095Y-155940357D01*
X71441095Y-155940357D02*
X71583952Y-155940357D01*
X71583952Y-155940357D02*
X71679190Y-155987976D01*
X71679190Y-155987976D02*
X71726809Y-156035595D01*
X71726809Y-156035595D02*
X71774428Y-156130833D01*
X71774428Y-156130833D02*
X71774428Y-156511785D01*
X72250619Y-154987976D02*
X72250619Y-155559404D01*
X72250619Y-155273690D02*
X71250619Y-155273690D01*
X71250619Y-155273690D02*
X71393476Y-155368928D01*
X71393476Y-155368928D02*
X71488714Y-155464166D01*
X71488714Y-155464166D02*
X71536333Y-155559404D01*
X71345857Y-154607023D02*
X71298238Y-154559404D01*
X71298238Y-154559404D02*
X71250619Y-154464166D01*
X71250619Y-154464166D02*
X71250619Y-154226071D01*
X71250619Y-154226071D02*
X71298238Y-154130833D01*
X71298238Y-154130833D02*
X71345857Y-154083214D01*
X71345857Y-154083214D02*
X71441095Y-154035595D01*
X71441095Y-154035595D02*
X71536333Y-154035595D01*
X71536333Y-154035595D02*
X71679190Y-154083214D01*
X71679190Y-154083214D02*
X72250619Y-154654642D01*
X72250619Y-154654642D02*
X72250619Y-154035595D01*
%TO.C,C18*%
X74541142Y-150387380D02*
X74493523Y-150435000D01*
X74493523Y-150435000D02*
X74350666Y-150482619D01*
X74350666Y-150482619D02*
X74255428Y-150482619D01*
X74255428Y-150482619D02*
X74112571Y-150435000D01*
X74112571Y-150435000D02*
X74017333Y-150339761D01*
X74017333Y-150339761D02*
X73969714Y-150244523D01*
X73969714Y-150244523D02*
X73922095Y-150054047D01*
X73922095Y-150054047D02*
X73922095Y-149911190D01*
X73922095Y-149911190D02*
X73969714Y-149720714D01*
X73969714Y-149720714D02*
X74017333Y-149625476D01*
X74017333Y-149625476D02*
X74112571Y-149530238D01*
X74112571Y-149530238D02*
X74255428Y-149482619D01*
X74255428Y-149482619D02*
X74350666Y-149482619D01*
X74350666Y-149482619D02*
X74493523Y-149530238D01*
X74493523Y-149530238D02*
X74541142Y-149577857D01*
X75493523Y-150482619D02*
X74922095Y-150482619D01*
X75207809Y-150482619D02*
X75207809Y-149482619D01*
X75207809Y-149482619D02*
X75112571Y-149625476D01*
X75112571Y-149625476D02*
X75017333Y-149720714D01*
X75017333Y-149720714D02*
X74922095Y-149768333D01*
X76064952Y-149911190D02*
X75969714Y-149863571D01*
X75969714Y-149863571D02*
X75922095Y-149815952D01*
X75922095Y-149815952D02*
X75874476Y-149720714D01*
X75874476Y-149720714D02*
X75874476Y-149673095D01*
X75874476Y-149673095D02*
X75922095Y-149577857D01*
X75922095Y-149577857D02*
X75969714Y-149530238D01*
X75969714Y-149530238D02*
X76064952Y-149482619D01*
X76064952Y-149482619D02*
X76255428Y-149482619D01*
X76255428Y-149482619D02*
X76350666Y-149530238D01*
X76350666Y-149530238D02*
X76398285Y-149577857D01*
X76398285Y-149577857D02*
X76445904Y-149673095D01*
X76445904Y-149673095D02*
X76445904Y-149720714D01*
X76445904Y-149720714D02*
X76398285Y-149815952D01*
X76398285Y-149815952D02*
X76350666Y-149863571D01*
X76350666Y-149863571D02*
X76255428Y-149911190D01*
X76255428Y-149911190D02*
X76064952Y-149911190D01*
X76064952Y-149911190D02*
X75969714Y-149958809D01*
X75969714Y-149958809D02*
X75922095Y-150006428D01*
X75922095Y-150006428D02*
X75874476Y-150101666D01*
X75874476Y-150101666D02*
X75874476Y-150292142D01*
X75874476Y-150292142D02*
X75922095Y-150387380D01*
X75922095Y-150387380D02*
X75969714Y-150435000D01*
X75969714Y-150435000D02*
X76064952Y-150482619D01*
X76064952Y-150482619D02*
X76255428Y-150482619D01*
X76255428Y-150482619D02*
X76350666Y-150435000D01*
X76350666Y-150435000D02*
X76398285Y-150387380D01*
X76398285Y-150387380D02*
X76445904Y-150292142D01*
X76445904Y-150292142D02*
X76445904Y-150101666D01*
X76445904Y-150101666D02*
X76398285Y-150006428D01*
X76398285Y-150006428D02*
X76350666Y-149958809D01*
X76350666Y-149958809D02*
X76255428Y-149911190D01*
%TO.C,R10*%
X104381619Y-156749357D02*
X103905428Y-157082690D01*
X104381619Y-157320785D02*
X103381619Y-157320785D01*
X103381619Y-157320785D02*
X103381619Y-156939833D01*
X103381619Y-156939833D02*
X103429238Y-156844595D01*
X103429238Y-156844595D02*
X103476857Y-156796976D01*
X103476857Y-156796976D02*
X103572095Y-156749357D01*
X103572095Y-156749357D02*
X103714952Y-156749357D01*
X103714952Y-156749357D02*
X103810190Y-156796976D01*
X103810190Y-156796976D02*
X103857809Y-156844595D01*
X103857809Y-156844595D02*
X103905428Y-156939833D01*
X103905428Y-156939833D02*
X103905428Y-157320785D01*
X104381619Y-155796976D02*
X104381619Y-156368404D01*
X104381619Y-156082690D02*
X103381619Y-156082690D01*
X103381619Y-156082690D02*
X103524476Y-156177928D01*
X103524476Y-156177928D02*
X103619714Y-156273166D01*
X103619714Y-156273166D02*
X103667333Y-156368404D01*
X103381619Y-155177928D02*
X103381619Y-155082690D01*
X103381619Y-155082690D02*
X103429238Y-154987452D01*
X103429238Y-154987452D02*
X103476857Y-154939833D01*
X103476857Y-154939833D02*
X103572095Y-154892214D01*
X103572095Y-154892214D02*
X103762571Y-154844595D01*
X103762571Y-154844595D02*
X104000666Y-154844595D01*
X104000666Y-154844595D02*
X104191142Y-154892214D01*
X104191142Y-154892214D02*
X104286380Y-154939833D01*
X104286380Y-154939833D02*
X104334000Y-154987452D01*
X104334000Y-154987452D02*
X104381619Y-155082690D01*
X104381619Y-155082690D02*
X104381619Y-155177928D01*
X104381619Y-155177928D02*
X104334000Y-155273166D01*
X104334000Y-155273166D02*
X104286380Y-155320785D01*
X104286380Y-155320785D02*
X104191142Y-155368404D01*
X104191142Y-155368404D02*
X104000666Y-155416023D01*
X104000666Y-155416023D02*
X103762571Y-155416023D01*
X103762571Y-155416023D02*
X103572095Y-155368404D01*
X103572095Y-155368404D02*
X103476857Y-155320785D01*
X103476857Y-155320785D02*
X103429238Y-155273166D01*
X103429238Y-155273166D02*
X103381619Y-155177928D01*
%TO.C,user_led1*%
X51935427Y-143399952D02*
X51935427Y-144066619D01*
X51506856Y-143399952D02*
X51506856Y-143923761D01*
X51506856Y-143923761D02*
X51554475Y-144019000D01*
X51554475Y-144019000D02*
X51649713Y-144066619D01*
X51649713Y-144066619D02*
X51792570Y-144066619D01*
X51792570Y-144066619D02*
X51887808Y-144019000D01*
X51887808Y-144019000D02*
X51935427Y-143971380D01*
X52363999Y-144019000D02*
X52459237Y-144066619D01*
X52459237Y-144066619D02*
X52649713Y-144066619D01*
X52649713Y-144066619D02*
X52744951Y-144019000D01*
X52744951Y-144019000D02*
X52792570Y-143923761D01*
X52792570Y-143923761D02*
X52792570Y-143876142D01*
X52792570Y-143876142D02*
X52744951Y-143780904D01*
X52744951Y-143780904D02*
X52649713Y-143733285D01*
X52649713Y-143733285D02*
X52506856Y-143733285D01*
X52506856Y-143733285D02*
X52411618Y-143685666D01*
X52411618Y-143685666D02*
X52363999Y-143590428D01*
X52363999Y-143590428D02*
X52363999Y-143542809D01*
X52363999Y-143542809D02*
X52411618Y-143447571D01*
X52411618Y-143447571D02*
X52506856Y-143399952D01*
X52506856Y-143399952D02*
X52649713Y-143399952D01*
X52649713Y-143399952D02*
X52744951Y-143447571D01*
X53602094Y-144019000D02*
X53506856Y-144066619D01*
X53506856Y-144066619D02*
X53316380Y-144066619D01*
X53316380Y-144066619D02*
X53221142Y-144019000D01*
X53221142Y-144019000D02*
X53173523Y-143923761D01*
X53173523Y-143923761D02*
X53173523Y-143542809D01*
X53173523Y-143542809D02*
X53221142Y-143447571D01*
X53221142Y-143447571D02*
X53316380Y-143399952D01*
X53316380Y-143399952D02*
X53506856Y-143399952D01*
X53506856Y-143399952D02*
X53602094Y-143447571D01*
X53602094Y-143447571D02*
X53649713Y-143542809D01*
X53649713Y-143542809D02*
X53649713Y-143638047D01*
X53649713Y-143638047D02*
X53173523Y-143733285D01*
X54078285Y-144066619D02*
X54078285Y-143399952D01*
X54078285Y-143590428D02*
X54125904Y-143495190D01*
X54125904Y-143495190D02*
X54173523Y-143447571D01*
X54173523Y-143447571D02*
X54268761Y-143399952D01*
X54268761Y-143399952D02*
X54363999Y-143399952D01*
X54459238Y-144161857D02*
X55221142Y-144161857D01*
X55602095Y-144066619D02*
X55506857Y-144019000D01*
X55506857Y-144019000D02*
X55459238Y-143923761D01*
X55459238Y-143923761D02*
X55459238Y-143066619D01*
X56364000Y-144019000D02*
X56268762Y-144066619D01*
X56268762Y-144066619D02*
X56078286Y-144066619D01*
X56078286Y-144066619D02*
X55983048Y-144019000D01*
X55983048Y-144019000D02*
X55935429Y-143923761D01*
X55935429Y-143923761D02*
X55935429Y-143542809D01*
X55935429Y-143542809D02*
X55983048Y-143447571D01*
X55983048Y-143447571D02*
X56078286Y-143399952D01*
X56078286Y-143399952D02*
X56268762Y-143399952D01*
X56268762Y-143399952D02*
X56364000Y-143447571D01*
X56364000Y-143447571D02*
X56411619Y-143542809D01*
X56411619Y-143542809D02*
X56411619Y-143638047D01*
X56411619Y-143638047D02*
X55935429Y-143733285D01*
X57268762Y-144066619D02*
X57268762Y-143066619D01*
X57268762Y-144019000D02*
X57173524Y-144066619D01*
X57173524Y-144066619D02*
X56983048Y-144066619D01*
X56983048Y-144066619D02*
X56887810Y-144019000D01*
X56887810Y-144019000D02*
X56840191Y-143971380D01*
X56840191Y-143971380D02*
X56792572Y-143876142D01*
X56792572Y-143876142D02*
X56792572Y-143590428D01*
X56792572Y-143590428D02*
X56840191Y-143495190D01*
X56840191Y-143495190D02*
X56887810Y-143447571D01*
X56887810Y-143447571D02*
X56983048Y-143399952D01*
X56983048Y-143399952D02*
X57173524Y-143399952D01*
X57173524Y-143399952D02*
X57268762Y-143447571D01*
X58268762Y-144066619D02*
X57697334Y-144066619D01*
X57983048Y-144066619D02*
X57983048Y-143066619D01*
X57983048Y-143066619D02*
X57887810Y-143209476D01*
X57887810Y-143209476D02*
X57792572Y-143304714D01*
X57792572Y-143304714D02*
X57697334Y-143352333D01*
%TO.C,C10*%
X75355780Y-131861457D02*
X75403400Y-131909076D01*
X75403400Y-131909076D02*
X75451019Y-132051933D01*
X75451019Y-132051933D02*
X75451019Y-132147171D01*
X75451019Y-132147171D02*
X75403400Y-132290028D01*
X75403400Y-132290028D02*
X75308161Y-132385266D01*
X75308161Y-132385266D02*
X75212923Y-132432885D01*
X75212923Y-132432885D02*
X75022447Y-132480504D01*
X75022447Y-132480504D02*
X74879590Y-132480504D01*
X74879590Y-132480504D02*
X74689114Y-132432885D01*
X74689114Y-132432885D02*
X74593876Y-132385266D01*
X74593876Y-132385266D02*
X74498638Y-132290028D01*
X74498638Y-132290028D02*
X74451019Y-132147171D01*
X74451019Y-132147171D02*
X74451019Y-132051933D01*
X74451019Y-132051933D02*
X74498638Y-131909076D01*
X74498638Y-131909076D02*
X74546257Y-131861457D01*
X75451019Y-130909076D02*
X75451019Y-131480504D01*
X75451019Y-131194790D02*
X74451019Y-131194790D01*
X74451019Y-131194790D02*
X74593876Y-131290028D01*
X74593876Y-131290028D02*
X74689114Y-131385266D01*
X74689114Y-131385266D02*
X74736733Y-131480504D01*
X74451019Y-130290028D02*
X74451019Y-130194790D01*
X74451019Y-130194790D02*
X74498638Y-130099552D01*
X74498638Y-130099552D02*
X74546257Y-130051933D01*
X74546257Y-130051933D02*
X74641495Y-130004314D01*
X74641495Y-130004314D02*
X74831971Y-129956695D01*
X74831971Y-129956695D02*
X75070066Y-129956695D01*
X75070066Y-129956695D02*
X75260542Y-130004314D01*
X75260542Y-130004314D02*
X75355780Y-130051933D01*
X75355780Y-130051933D02*
X75403400Y-130099552D01*
X75403400Y-130099552D02*
X75451019Y-130194790D01*
X75451019Y-130194790D02*
X75451019Y-130290028D01*
X75451019Y-130290028D02*
X75403400Y-130385266D01*
X75403400Y-130385266D02*
X75355780Y-130432885D01*
X75355780Y-130432885D02*
X75260542Y-130480504D01*
X75260542Y-130480504D02*
X75070066Y-130528123D01*
X75070066Y-130528123D02*
X74831971Y-130528123D01*
X74831971Y-130528123D02*
X74641495Y-130480504D01*
X74641495Y-130480504D02*
X74546257Y-130432885D01*
X74546257Y-130432885D02*
X74498638Y-130385266D01*
X74498638Y-130385266D02*
X74451019Y-130290028D01*
%TO.C,R3*%
X75880833Y-165155619D02*
X75547500Y-164679428D01*
X75309405Y-165155619D02*
X75309405Y-164155619D01*
X75309405Y-164155619D02*
X75690357Y-164155619D01*
X75690357Y-164155619D02*
X75785595Y-164203238D01*
X75785595Y-164203238D02*
X75833214Y-164250857D01*
X75833214Y-164250857D02*
X75880833Y-164346095D01*
X75880833Y-164346095D02*
X75880833Y-164488952D01*
X75880833Y-164488952D02*
X75833214Y-164584190D01*
X75833214Y-164584190D02*
X75785595Y-164631809D01*
X75785595Y-164631809D02*
X75690357Y-164679428D01*
X75690357Y-164679428D02*
X75309405Y-164679428D01*
X76214167Y-164155619D02*
X76833214Y-164155619D01*
X76833214Y-164155619D02*
X76499881Y-164536571D01*
X76499881Y-164536571D02*
X76642738Y-164536571D01*
X76642738Y-164536571D02*
X76737976Y-164584190D01*
X76737976Y-164584190D02*
X76785595Y-164631809D01*
X76785595Y-164631809D02*
X76833214Y-164727047D01*
X76833214Y-164727047D02*
X76833214Y-164965142D01*
X76833214Y-164965142D02*
X76785595Y-165060380D01*
X76785595Y-165060380D02*
X76737976Y-165108000D01*
X76737976Y-165108000D02*
X76642738Y-165155619D01*
X76642738Y-165155619D02*
X76357024Y-165155619D01*
X76357024Y-165155619D02*
X76261786Y-165108000D01*
X76261786Y-165108000D02*
X76214167Y-165060380D01*
%TO.C,C1*%
X106259333Y-151911380D02*
X106211714Y-151959000D01*
X106211714Y-151959000D02*
X106068857Y-152006619D01*
X106068857Y-152006619D02*
X105973619Y-152006619D01*
X105973619Y-152006619D02*
X105830762Y-151959000D01*
X105830762Y-151959000D02*
X105735524Y-151863761D01*
X105735524Y-151863761D02*
X105687905Y-151768523D01*
X105687905Y-151768523D02*
X105640286Y-151578047D01*
X105640286Y-151578047D02*
X105640286Y-151435190D01*
X105640286Y-151435190D02*
X105687905Y-151244714D01*
X105687905Y-151244714D02*
X105735524Y-151149476D01*
X105735524Y-151149476D02*
X105830762Y-151054238D01*
X105830762Y-151054238D02*
X105973619Y-151006619D01*
X105973619Y-151006619D02*
X106068857Y-151006619D01*
X106068857Y-151006619D02*
X106211714Y-151054238D01*
X106211714Y-151054238D02*
X106259333Y-151101857D01*
X107211714Y-152006619D02*
X106640286Y-152006619D01*
X106926000Y-152006619D02*
X106926000Y-151006619D01*
X106926000Y-151006619D02*
X106830762Y-151149476D01*
X106830762Y-151149476D02*
X106735524Y-151244714D01*
X106735524Y-151244714D02*
X106640286Y-151292333D01*
%TO.C,R17*%
X101521619Y-150098357D02*
X101045428Y-150431690D01*
X101521619Y-150669785D02*
X100521619Y-150669785D01*
X100521619Y-150669785D02*
X100521619Y-150288833D01*
X100521619Y-150288833D02*
X100569238Y-150193595D01*
X100569238Y-150193595D02*
X100616857Y-150145976D01*
X100616857Y-150145976D02*
X100712095Y-150098357D01*
X100712095Y-150098357D02*
X100854952Y-150098357D01*
X100854952Y-150098357D02*
X100950190Y-150145976D01*
X100950190Y-150145976D02*
X100997809Y-150193595D01*
X100997809Y-150193595D02*
X101045428Y-150288833D01*
X101045428Y-150288833D02*
X101045428Y-150669785D01*
X101521619Y-149145976D02*
X101521619Y-149717404D01*
X101521619Y-149431690D02*
X100521619Y-149431690D01*
X100521619Y-149431690D02*
X100664476Y-149526928D01*
X100664476Y-149526928D02*
X100759714Y-149622166D01*
X100759714Y-149622166D02*
X100807333Y-149717404D01*
X100521619Y-148812642D02*
X100521619Y-148145976D01*
X100521619Y-148145976D02*
X101521619Y-148574547D01*
%TO.C,C19*%
X110455642Y-152988380D02*
X110408023Y-153036000D01*
X110408023Y-153036000D02*
X110265166Y-153083619D01*
X110265166Y-153083619D02*
X110169928Y-153083619D01*
X110169928Y-153083619D02*
X110027071Y-153036000D01*
X110027071Y-153036000D02*
X109931833Y-152940761D01*
X109931833Y-152940761D02*
X109884214Y-152845523D01*
X109884214Y-152845523D02*
X109836595Y-152655047D01*
X109836595Y-152655047D02*
X109836595Y-152512190D01*
X109836595Y-152512190D02*
X109884214Y-152321714D01*
X109884214Y-152321714D02*
X109931833Y-152226476D01*
X109931833Y-152226476D02*
X110027071Y-152131238D01*
X110027071Y-152131238D02*
X110169928Y-152083619D01*
X110169928Y-152083619D02*
X110265166Y-152083619D01*
X110265166Y-152083619D02*
X110408023Y-152131238D01*
X110408023Y-152131238D02*
X110455642Y-152178857D01*
X111408023Y-153083619D02*
X110836595Y-153083619D01*
X111122309Y-153083619D02*
X111122309Y-152083619D01*
X111122309Y-152083619D02*
X111027071Y-152226476D01*
X111027071Y-152226476D02*
X110931833Y-152321714D01*
X110931833Y-152321714D02*
X110836595Y-152369333D01*
X111884214Y-153083619D02*
X112074690Y-153083619D01*
X112074690Y-153083619D02*
X112169928Y-153036000D01*
X112169928Y-153036000D02*
X112217547Y-152988380D01*
X112217547Y-152988380D02*
X112312785Y-152845523D01*
X112312785Y-152845523D02*
X112360404Y-152655047D01*
X112360404Y-152655047D02*
X112360404Y-152274095D01*
X112360404Y-152274095D02*
X112312785Y-152178857D01*
X112312785Y-152178857D02*
X112265166Y-152131238D01*
X112265166Y-152131238D02*
X112169928Y-152083619D01*
X112169928Y-152083619D02*
X111979452Y-152083619D01*
X111979452Y-152083619D02*
X111884214Y-152131238D01*
X111884214Y-152131238D02*
X111836595Y-152178857D01*
X111836595Y-152178857D02*
X111788976Y-152274095D01*
X111788976Y-152274095D02*
X111788976Y-152512190D01*
X111788976Y-152512190D02*
X111836595Y-152607428D01*
X111836595Y-152607428D02*
X111884214Y-152655047D01*
X111884214Y-152655047D02*
X111979452Y-152702666D01*
X111979452Y-152702666D02*
X112169928Y-152702666D01*
X112169928Y-152702666D02*
X112265166Y-152655047D01*
X112265166Y-152655047D02*
X112312785Y-152607428D01*
X112312785Y-152607428D02*
X112360404Y-152512190D01*
%TO.C,U2*%
X102587819Y-154939904D02*
X103397342Y-154939904D01*
X103397342Y-154939904D02*
X103492580Y-154892285D01*
X103492580Y-154892285D02*
X103540200Y-154844666D01*
X103540200Y-154844666D02*
X103587819Y-154749428D01*
X103587819Y-154749428D02*
X103587819Y-154558952D01*
X103587819Y-154558952D02*
X103540200Y-154463714D01*
X103540200Y-154463714D02*
X103492580Y-154416095D01*
X103492580Y-154416095D02*
X103397342Y-154368476D01*
X103397342Y-154368476D02*
X102587819Y-154368476D01*
X102683057Y-153939904D02*
X102635438Y-153892285D01*
X102635438Y-153892285D02*
X102587819Y-153797047D01*
X102587819Y-153797047D02*
X102587819Y-153558952D01*
X102587819Y-153558952D02*
X102635438Y-153463714D01*
X102635438Y-153463714D02*
X102683057Y-153416095D01*
X102683057Y-153416095D02*
X102778295Y-153368476D01*
X102778295Y-153368476D02*
X102873533Y-153368476D01*
X102873533Y-153368476D02*
X103016390Y-153416095D01*
X103016390Y-153416095D02*
X103587819Y-153987523D01*
X103587819Y-153987523D02*
X103587819Y-153368476D01*
%TO.C,C9*%
X73882580Y-131385266D02*
X73930200Y-131432885D01*
X73930200Y-131432885D02*
X73977819Y-131575742D01*
X73977819Y-131575742D02*
X73977819Y-131670980D01*
X73977819Y-131670980D02*
X73930200Y-131813837D01*
X73930200Y-131813837D02*
X73834961Y-131909075D01*
X73834961Y-131909075D02*
X73739723Y-131956694D01*
X73739723Y-131956694D02*
X73549247Y-132004313D01*
X73549247Y-132004313D02*
X73406390Y-132004313D01*
X73406390Y-132004313D02*
X73215914Y-131956694D01*
X73215914Y-131956694D02*
X73120676Y-131909075D01*
X73120676Y-131909075D02*
X73025438Y-131813837D01*
X73025438Y-131813837D02*
X72977819Y-131670980D01*
X72977819Y-131670980D02*
X72977819Y-131575742D01*
X72977819Y-131575742D02*
X73025438Y-131432885D01*
X73025438Y-131432885D02*
X73073057Y-131385266D01*
X73977819Y-130909075D02*
X73977819Y-130718599D01*
X73977819Y-130718599D02*
X73930200Y-130623361D01*
X73930200Y-130623361D02*
X73882580Y-130575742D01*
X73882580Y-130575742D02*
X73739723Y-130480504D01*
X73739723Y-130480504D02*
X73549247Y-130432885D01*
X73549247Y-130432885D02*
X73168295Y-130432885D01*
X73168295Y-130432885D02*
X73073057Y-130480504D01*
X73073057Y-130480504D02*
X73025438Y-130528123D01*
X73025438Y-130528123D02*
X72977819Y-130623361D01*
X72977819Y-130623361D02*
X72977819Y-130813837D01*
X72977819Y-130813837D02*
X73025438Y-130909075D01*
X73025438Y-130909075D02*
X73073057Y-130956694D01*
X73073057Y-130956694D02*
X73168295Y-131004313D01*
X73168295Y-131004313D02*
X73406390Y-131004313D01*
X73406390Y-131004313D02*
X73501628Y-130956694D01*
X73501628Y-130956694D02*
X73549247Y-130909075D01*
X73549247Y-130909075D02*
X73596866Y-130813837D01*
X73596866Y-130813837D02*
X73596866Y-130623361D01*
X73596866Y-130623361D02*
X73549247Y-130528123D01*
X73549247Y-130528123D02*
X73501628Y-130480504D01*
X73501628Y-130480504D02*
X73406390Y-130432885D01*
%TO.C,C5*%
X54055380Y-158649666D02*
X54103000Y-158697285D01*
X54103000Y-158697285D02*
X54150619Y-158840142D01*
X54150619Y-158840142D02*
X54150619Y-158935380D01*
X54150619Y-158935380D02*
X54103000Y-159078237D01*
X54103000Y-159078237D02*
X54007761Y-159173475D01*
X54007761Y-159173475D02*
X53912523Y-159221094D01*
X53912523Y-159221094D02*
X53722047Y-159268713D01*
X53722047Y-159268713D02*
X53579190Y-159268713D01*
X53579190Y-159268713D02*
X53388714Y-159221094D01*
X53388714Y-159221094D02*
X53293476Y-159173475D01*
X53293476Y-159173475D02*
X53198238Y-159078237D01*
X53198238Y-159078237D02*
X53150619Y-158935380D01*
X53150619Y-158935380D02*
X53150619Y-158840142D01*
X53150619Y-158840142D02*
X53198238Y-158697285D01*
X53198238Y-158697285D02*
X53245857Y-158649666D01*
X53150619Y-157744904D02*
X53150619Y-158221094D01*
X53150619Y-158221094D02*
X53626809Y-158268713D01*
X53626809Y-158268713D02*
X53579190Y-158221094D01*
X53579190Y-158221094D02*
X53531571Y-158125856D01*
X53531571Y-158125856D02*
X53531571Y-157887761D01*
X53531571Y-157887761D02*
X53579190Y-157792523D01*
X53579190Y-157792523D02*
X53626809Y-157744904D01*
X53626809Y-157744904D02*
X53722047Y-157697285D01*
X53722047Y-157697285D02*
X53960142Y-157697285D01*
X53960142Y-157697285D02*
X54055380Y-157744904D01*
X54055380Y-157744904D02*
X54103000Y-157792523D01*
X54103000Y-157792523D02*
X54150619Y-157887761D01*
X54150619Y-157887761D02*
X54150619Y-158125856D01*
X54150619Y-158125856D02*
X54103000Y-158221094D01*
X54103000Y-158221094D02*
X54055380Y-158268713D01*
%TO.C,R15*%
X79597642Y-151117619D02*
X79264309Y-150641428D01*
X79026214Y-151117619D02*
X79026214Y-150117619D01*
X79026214Y-150117619D02*
X79407166Y-150117619D01*
X79407166Y-150117619D02*
X79502404Y-150165238D01*
X79502404Y-150165238D02*
X79550023Y-150212857D01*
X79550023Y-150212857D02*
X79597642Y-150308095D01*
X79597642Y-150308095D02*
X79597642Y-150450952D01*
X79597642Y-150450952D02*
X79550023Y-150546190D01*
X79550023Y-150546190D02*
X79502404Y-150593809D01*
X79502404Y-150593809D02*
X79407166Y-150641428D01*
X79407166Y-150641428D02*
X79026214Y-150641428D01*
X80550023Y-151117619D02*
X79978595Y-151117619D01*
X80264309Y-151117619D02*
X80264309Y-150117619D01*
X80264309Y-150117619D02*
X80169071Y-150260476D01*
X80169071Y-150260476D02*
X80073833Y-150355714D01*
X80073833Y-150355714D02*
X79978595Y-150403333D01*
X81454785Y-150117619D02*
X80978595Y-150117619D01*
X80978595Y-150117619D02*
X80930976Y-150593809D01*
X80930976Y-150593809D02*
X80978595Y-150546190D01*
X80978595Y-150546190D02*
X81073833Y-150498571D01*
X81073833Y-150498571D02*
X81311928Y-150498571D01*
X81311928Y-150498571D02*
X81407166Y-150546190D01*
X81407166Y-150546190D02*
X81454785Y-150593809D01*
X81454785Y-150593809D02*
X81502404Y-150689047D01*
X81502404Y-150689047D02*
X81502404Y-150927142D01*
X81502404Y-150927142D02*
X81454785Y-151022380D01*
X81454785Y-151022380D02*
X81407166Y-151070000D01*
X81407166Y-151070000D02*
X81311928Y-151117619D01*
X81311928Y-151117619D02*
X81073833Y-151117619D01*
X81073833Y-151117619D02*
X80978595Y-151070000D01*
X80978595Y-151070000D02*
X80930976Y-151022380D01*
%TO.C,C13*%
X79775380Y-131860357D02*
X79823000Y-131907976D01*
X79823000Y-131907976D02*
X79870619Y-132050833D01*
X79870619Y-132050833D02*
X79870619Y-132146071D01*
X79870619Y-132146071D02*
X79823000Y-132288928D01*
X79823000Y-132288928D02*
X79727761Y-132384166D01*
X79727761Y-132384166D02*
X79632523Y-132431785D01*
X79632523Y-132431785D02*
X79442047Y-132479404D01*
X79442047Y-132479404D02*
X79299190Y-132479404D01*
X79299190Y-132479404D02*
X79108714Y-132431785D01*
X79108714Y-132431785D02*
X79013476Y-132384166D01*
X79013476Y-132384166D02*
X78918238Y-132288928D01*
X78918238Y-132288928D02*
X78870619Y-132146071D01*
X78870619Y-132146071D02*
X78870619Y-132050833D01*
X78870619Y-132050833D02*
X78918238Y-131907976D01*
X78918238Y-131907976D02*
X78965857Y-131860357D01*
X79870619Y-130907976D02*
X79870619Y-131479404D01*
X79870619Y-131193690D02*
X78870619Y-131193690D01*
X78870619Y-131193690D02*
X79013476Y-131288928D01*
X79013476Y-131288928D02*
X79108714Y-131384166D01*
X79108714Y-131384166D02*
X79156333Y-131479404D01*
X78870619Y-130574642D02*
X78870619Y-129955595D01*
X78870619Y-129955595D02*
X79251571Y-130288928D01*
X79251571Y-130288928D02*
X79251571Y-130146071D01*
X79251571Y-130146071D02*
X79299190Y-130050833D01*
X79299190Y-130050833D02*
X79346809Y-130003214D01*
X79346809Y-130003214D02*
X79442047Y-129955595D01*
X79442047Y-129955595D02*
X79680142Y-129955595D01*
X79680142Y-129955595D02*
X79775380Y-130003214D01*
X79775380Y-130003214D02*
X79823000Y-130050833D01*
X79823000Y-130050833D02*
X79870619Y-130146071D01*
X79870619Y-130146071D02*
X79870619Y-130431785D01*
X79870619Y-130431785D02*
X79823000Y-130527023D01*
X79823000Y-130527023D02*
X79775380Y-130574642D01*
%TO.C,D1*%
X77734619Y-166854094D02*
X76734619Y-166854094D01*
X76734619Y-166854094D02*
X76734619Y-166615999D01*
X76734619Y-166615999D02*
X76782238Y-166473142D01*
X76782238Y-166473142D02*
X76877476Y-166377904D01*
X76877476Y-166377904D02*
X76972714Y-166330285D01*
X76972714Y-166330285D02*
X77163190Y-166282666D01*
X77163190Y-166282666D02*
X77306047Y-166282666D01*
X77306047Y-166282666D02*
X77496523Y-166330285D01*
X77496523Y-166330285D02*
X77591761Y-166377904D01*
X77591761Y-166377904D02*
X77687000Y-166473142D01*
X77687000Y-166473142D02*
X77734619Y-166615999D01*
X77734619Y-166615999D02*
X77734619Y-166854094D01*
X77734619Y-165330285D02*
X77734619Y-165901713D01*
X77734619Y-165615999D02*
X76734619Y-165615999D01*
X76734619Y-165615999D02*
X76877476Y-165711237D01*
X76877476Y-165711237D02*
X76972714Y-165806475D01*
X76972714Y-165806475D02*
X77020333Y-165901713D01*
X79634619Y-169980285D02*
X79634619Y-170551713D01*
X79634619Y-170265999D02*
X78634619Y-170265999D01*
X78634619Y-170265999D02*
X78777476Y-170361237D01*
X78777476Y-170361237D02*
X78872714Y-170456475D01*
X78872714Y-170456475D02*
X78920333Y-170551713D01*
D11*
%TO.C,R2*%
X72500500Y-165573224D02*
X72500500Y-165063776D01*
X73545500Y-165573224D02*
X73545500Y-165063776D01*
%TO.C,J2*%
X89435000Y-138441000D02*
X89435000Y-140851000D01*
X87025000Y-138441000D02*
X89435000Y-138441000D01*
X89135000Y-138741000D02*
X86605000Y-138741000D01*
X86605000Y-138741000D02*
X86605000Y-138871000D01*
X84795000Y-138741000D02*
X83815000Y-138741000D01*
X83815000Y-138741000D02*
X83815000Y-145051000D01*
X86605000Y-138871000D02*
X84795000Y-138871000D01*
X84795000Y-138871000D02*
X84795000Y-138741000D01*
X83815000Y-145051000D02*
X82315000Y-145051000D01*
X82315000Y-145051000D02*
X82315000Y-152891000D01*
X83815000Y-152891000D02*
X83815000Y-159201000D01*
X82315000Y-152891000D02*
X83815000Y-152891000D01*
X86605000Y-159071000D02*
X86605000Y-159201000D01*
X84795000Y-159071000D02*
X86605000Y-159071000D01*
X89135000Y-159201000D02*
X89135000Y-138741000D01*
X86605000Y-159201000D02*
X89135000Y-159201000D01*
X84795000Y-159201000D02*
X84795000Y-159071000D01*
X83815000Y-159201000D02*
X84795000Y-159201000D01*
%TO.C,R8*%
X101966500Y-153012224D02*
X101966500Y-152502776D01*
X103011500Y-153012224D02*
X103011500Y-152502776D01*
%TO.C,C4*%
X52464580Y-159768000D02*
X52183420Y-159768000D01*
X52464580Y-158748000D02*
X52183420Y-158748000D01*
%TO.C,C3*%
X52451580Y-158244000D02*
X52170420Y-158244000D01*
X52451580Y-157224000D02*
X52170420Y-157224000D01*
%TO.C,R11*%
X69835500Y-152250224D02*
X69835500Y-151740776D01*
X70880500Y-152250224D02*
X70880500Y-151740776D01*
%TO.C,J4*%
X76902000Y-136144000D02*
X76902000Y-143824000D01*
X76902000Y-136144000D02*
X79562000Y-136144000D01*
X76902000Y-143824000D02*
X79562000Y-143824000D01*
X78232000Y-133544000D02*
X79562000Y-133544000D01*
X79562000Y-133544000D02*
X79562000Y-134874000D01*
X79562000Y-136144000D02*
X79562000Y-143824000D01*
D10*
%TO.C,U5*%
X62333000Y-157885000D02*
X62558000Y-157885000D01*
X62333000Y-157885000D02*
X62333000Y-154535000D01*
X62558000Y-157885000D02*
X62558000Y-159110000D01*
X65683000Y-157885000D02*
X65383000Y-157885000D01*
X65683000Y-157885000D02*
X65683000Y-154535000D01*
X62333000Y-154535000D02*
X62633000Y-154535000D01*
X65683000Y-154535000D02*
X65383000Y-154535000D01*
D11*
%TO.C,R13*%
X71613500Y-151281224D02*
X71613500Y-150771776D01*
X72658500Y-151281224D02*
X72658500Y-150771776D01*
D10*
%TO.C,U3*%
X73584000Y-155778000D02*
X73584000Y-155378000D01*
X76784000Y-155778000D02*
X76384000Y-155778000D01*
X76784000Y-155778000D02*
X76784000Y-155378000D01*
X73584000Y-152578000D02*
X73584000Y-152978000D01*
X73584000Y-152578000D02*
X73984000Y-152578000D01*
X76784000Y-152578000D02*
X76784000Y-152978000D01*
X76784000Y-152578000D02*
X76384000Y-152578000D01*
D11*
%TO.C,C12*%
X77014800Y-131073433D02*
X77014800Y-131365967D01*
X75994800Y-131073433D02*
X75994800Y-131365967D01*
%TO.C,uart_led1*%
X68058500Y-151357000D02*
X68058500Y-149887000D01*
X68058500Y-149887000D02*
X65773500Y-149887000D01*
X65773500Y-151357000D02*
X68058500Y-151357000D01*
%TO.C,J6*%
X53146000Y-141538000D02*
X51816000Y-141538000D01*
X53146000Y-140208000D02*
X53146000Y-141538000D01*
X53146000Y-138938000D02*
X53146000Y-133798000D01*
X53146000Y-138938000D02*
X50486000Y-138938000D01*
X53146000Y-133798000D02*
X50486000Y-133798000D01*
X50486000Y-138938000D02*
X50486000Y-133798000D01*
%TO.C,C17*%
X80094233Y-150239000D02*
X80386767Y-150239000D01*
X80094233Y-151259000D02*
X80386767Y-151259000D01*
%TO.C,Y2*%
X56226000Y-137650000D02*
X53926000Y-137650000D01*
X53926000Y-137650000D02*
X53926000Y-140350000D01*
%TO.C,power_led1*%
X77403500Y-165522000D02*
X77403500Y-164052000D01*
X77403500Y-164052000D02*
X75118500Y-164052000D01*
X75118500Y-165522000D02*
X77403500Y-165522000D01*
%TO.C,C6*%
X56132000Y-158623580D02*
X56132000Y-158342420D01*
X57152000Y-158623580D02*
X57152000Y-158342420D01*
%TO.C,C16*%
X75430767Y-150878000D02*
X75138233Y-150878000D01*
X75430767Y-149858000D02*
X75138233Y-149858000D01*
%TO.C,R7*%
X111379724Y-156097500D02*
X110870276Y-156097500D01*
X111379724Y-155052500D02*
X110870276Y-155052500D01*
%TO.C,U1*%
X59660000Y-135352000D02*
X59660000Y-136302000D01*
X59660000Y-136302000D02*
X58320000Y-136302000D01*
X59660000Y-145572000D02*
X59660000Y-144622000D01*
X60610000Y-135352000D02*
X59660000Y-135352000D01*
X60610000Y-145572000D02*
X59660000Y-145572000D01*
X68930000Y-135352000D02*
X69880000Y-135352000D01*
X68930000Y-145572000D02*
X69880000Y-145572000D01*
X69880000Y-135352000D02*
X69880000Y-136302000D01*
X69880000Y-145572000D02*
X69880000Y-144622000D01*
%TO.C,C7*%
X57660000Y-136659233D02*
X57660000Y-136951767D01*
X56640000Y-136659233D02*
X56640000Y-136951767D01*
%TO.C,C2*%
X106598767Y-149100000D02*
X106306233Y-149100000D01*
X106598767Y-148080000D02*
X106306233Y-148080000D01*
%TO.C,C14*%
X50417000Y-154174767D02*
X50417000Y-153882233D01*
X51437000Y-154174767D02*
X51437000Y-153882233D01*
%TO.C,J3*%
X62222000Y-163953000D02*
X62222000Y-165873000D01*
X62222000Y-169588000D02*
X62222000Y-167883000D01*
X71382000Y-165873000D02*
X71382000Y-163953000D01*
X71382000Y-167883000D02*
X71382000Y-169588000D01*
X71382000Y-169588000D02*
X62222000Y-169588000D01*
%TO.C,J5*%
X60646000Y-131632000D02*
X60646000Y-130302000D01*
X61976000Y-131632000D02*
X60646000Y-131632000D01*
X63246000Y-131632000D02*
X70926000Y-131632000D01*
X63246000Y-131632000D02*
X63246000Y-128972000D01*
X70926000Y-131632000D02*
X70926000Y-128972000D01*
X63246000Y-128972000D02*
X70926000Y-128972000D01*
%TO.C,R1*%
X61226500Y-165016776D02*
X61226500Y-165526224D01*
X60181500Y-165016776D02*
X60181500Y-165526224D01*
%TO.C,R16*%
X111379724Y-153049500D02*
X110870276Y-153049500D01*
X111379724Y-152004500D02*
X110870276Y-152004500D01*
%TO.C,R5*%
X53481500Y-153723776D02*
X53481500Y-154233224D01*
X52436500Y-153723776D02*
X52436500Y-154233224D01*
%TO.C,C8*%
X56640000Y-141216767D02*
X56640000Y-140924233D01*
X57660000Y-141216767D02*
X57660000Y-140924233D01*
%TO.C,R14*%
X80495224Y-152795500D02*
X79985776Y-152795500D01*
X80495224Y-151750500D02*
X79985776Y-151750500D01*
%TO.C,J1*%
X92163000Y-159501000D02*
X92163000Y-157091000D01*
X94573000Y-159501000D02*
X92163000Y-159501000D01*
X92463000Y-159201000D02*
X94993000Y-159201000D01*
X94993000Y-159201000D02*
X94993000Y-159071000D01*
X96803000Y-159201000D02*
X97783000Y-159201000D01*
X97783000Y-159201000D02*
X97783000Y-152891000D01*
X94993000Y-159071000D02*
X96803000Y-159071000D01*
X96803000Y-159071000D02*
X96803000Y-159201000D01*
X97783000Y-152891000D02*
X99283000Y-152891000D01*
X99283000Y-152891000D02*
X99283000Y-145051000D01*
X97783000Y-145051000D02*
X97783000Y-138741000D01*
X99283000Y-145051000D02*
X97783000Y-145051000D01*
X94993000Y-138871000D02*
X94993000Y-138741000D01*
X96803000Y-138871000D02*
X94993000Y-138871000D01*
X92463000Y-138741000D02*
X92463000Y-159201000D01*
X94993000Y-138741000D02*
X92463000Y-138741000D01*
X96803000Y-138741000D02*
X96803000Y-138871000D01*
X97783000Y-138741000D02*
X96803000Y-138741000D01*
%TO.C,U4*%
X58782000Y-160492000D02*
X58782000Y-166502000D01*
X51962000Y-162742000D02*
X51962000Y-166502000D01*
X58782000Y-166502000D02*
X57522000Y-166502000D01*
X51962000Y-166502000D02*
X53222000Y-166502000D01*
%TO.C,R4*%
X51967224Y-145556500D02*
X51457776Y-145556500D01*
X51967224Y-144511500D02*
X51457776Y-144511500D01*
%TO.C,R9*%
X55625276Y-152385500D02*
X56134724Y-152385500D01*
X55625276Y-153430500D02*
X56134724Y-153430500D01*
%TO.C,R18*%
X67324500Y-152907276D02*
X67324500Y-153416724D01*
X66279500Y-152907276D02*
X66279500Y-153416724D01*
%TO.C,C11*%
X75541600Y-131071233D02*
X75541600Y-131363767D01*
X74521600Y-131071233D02*
X74521600Y-131363767D01*
%TO.C,R12*%
X70880500Y-155042776D02*
X70880500Y-155552224D01*
X69835500Y-155042776D02*
X69835500Y-155552224D01*
%TO.C,C15*%
X58676000Y-149130233D02*
X58676000Y-149422767D01*
X57656000Y-149130233D02*
X57656000Y-149422767D01*
%TO.C,SW2*%
X54226000Y-150826000D02*
X54226000Y-147526000D01*
X54526000Y-150826000D02*
X54226000Y-150826000D01*
X56726000Y-150826000D02*
X57026000Y-150826000D01*
X57026000Y-150826000D02*
X57026000Y-147526000D01*
X54226000Y-147526000D02*
X54526000Y-147526000D01*
X57026000Y-147526000D02*
X56726000Y-147526000D01*
%TO.C,C18*%
X75330267Y-149100000D02*
X75037733Y-149100000D01*
X75330267Y-148080000D02*
X75037733Y-148080000D01*
%TO.C,R10*%
X103011500Y-155851776D02*
X103011500Y-156361224D01*
X101966500Y-155851776D02*
X101966500Y-156361224D01*
%TO.C,user_led1*%
X53379000Y-144299000D02*
X53379000Y-145769000D01*
X53379000Y-145769000D02*
X55664000Y-145769000D01*
X55664000Y-144299000D02*
X53379000Y-144299000D01*
%TO.C,C10*%
X74068400Y-131072333D02*
X74068400Y-131364867D01*
X73048400Y-131072333D02*
X73048400Y-131364867D01*
%TO.C,R3*%
X76302224Y-163785500D02*
X75792776Y-163785500D01*
X76302224Y-162740500D02*
X75792776Y-162740500D01*
%TO.C,C1*%
X106572267Y-150624000D02*
X106279733Y-150624000D01*
X106572267Y-149604000D02*
X106279733Y-149604000D01*
%TO.C,R17*%
X101966500Y-149710224D02*
X101966500Y-149200776D01*
X103011500Y-149710224D02*
X103011500Y-149200776D01*
%TO.C,C19*%
X110952233Y-153541000D02*
X111244767Y-153541000D01*
X110952233Y-154561000D02*
X111244767Y-154561000D01*
D10*
%TO.C,U2*%
X104775200Y-155778000D02*
X104775200Y-155378000D01*
X107975200Y-155778000D02*
X107575200Y-155778000D01*
X107975200Y-155778000D02*
X107975200Y-155378000D01*
X104775200Y-152578000D02*
X104775200Y-152978000D01*
X104775200Y-152578000D02*
X105175200Y-152578000D01*
X107975200Y-152578000D02*
X107975200Y-152978000D01*
X107975200Y-152578000D02*
X107575200Y-152578000D01*
D11*
%TO.C,C9*%
X72595200Y-131072333D02*
X72595200Y-131364867D01*
X71575200Y-131072333D02*
X71575200Y-131364867D01*
%TO.C,C5*%
X54608000Y-158623580D02*
X54608000Y-158342420D01*
X55628000Y-158623580D02*
X55628000Y-158342420D01*
%TO.C,R15*%
X80495224Y-149747500D02*
X79985776Y-149747500D01*
X80495224Y-148702500D02*
X79985776Y-148702500D01*
%TO.C,C13*%
X78488000Y-131071233D02*
X78488000Y-131363767D01*
X77468000Y-131071233D02*
X77468000Y-131363767D01*
%TO.C,D1*%
X78022000Y-169766000D02*
X78022000Y-162466000D01*
X83522000Y-169766000D02*
X83522000Y-162466000D01*
X83522000Y-162466000D02*
X82372000Y-162466000D01*
%TO.C,SW1*%
X52962000Y-147526000D02*
X52962000Y-150826000D01*
X52662000Y-147526000D02*
X52962000Y-147526000D01*
X50462000Y-147526000D02*
X50162000Y-147526000D01*
X50162000Y-147526000D02*
X50162000Y-150826000D01*
X52962000Y-150826000D02*
X52662000Y-150826000D01*
X50162000Y-150826000D02*
X50462000Y-150826000D01*
%TD*%
%LPC*%
D12*
%TO.C,R2*%
X73023000Y-166231000D03*
X73023000Y-164406000D03*
%TD*%
D13*
%TO.C,J2*%
X86475000Y-141351000D03*
D14*
X86475000Y-143891000D03*
X86475000Y-146431000D03*
X86475000Y-148971000D03*
X86475000Y-151511000D03*
X86475000Y-154051000D03*
X86475000Y-156591000D03*
%TD*%
D12*
%TO.C,R8*%
X102489000Y-153670000D03*
X102489000Y-151845000D03*
%TD*%
D15*
%TO.C,C4*%
X53099000Y-159258000D03*
X51549000Y-159258000D03*
%TD*%
%TO.C,C3*%
X53086000Y-157734000D03*
X51536000Y-157734000D03*
%TD*%
D12*
%TO.C,R11*%
X70358000Y-152908000D03*
X70358000Y-151083000D03*
%TD*%
D16*
%TO.C,J4*%
X78232000Y-134874000D03*
D17*
X78232000Y-137414000D03*
X78232000Y-139954000D03*
X78232000Y-142494000D03*
%TD*%
D18*
%TO.C,U5*%
X63008000Y-158410000D03*
X63508000Y-158410000D03*
X64008000Y-158410000D03*
X64508000Y-158410000D03*
X65008000Y-158410000D03*
X65008000Y-154010000D03*
X64508000Y-154010000D03*
X64008000Y-154010000D03*
X63508000Y-154010000D03*
X63008000Y-154010000D03*
%TD*%
D12*
%TO.C,R13*%
X72136000Y-151939000D03*
X72136000Y-150114000D03*
%TD*%
D19*
%TO.C,U3*%
X74184000Y-155678000D03*
X74584000Y-155678000D03*
X74984000Y-155678000D03*
X75384000Y-155678000D03*
X75784000Y-155678000D03*
X76184000Y-155678000D03*
D20*
X76684000Y-155178000D03*
X76684000Y-154778000D03*
X76684000Y-154378000D03*
X76684000Y-153978000D03*
X76684000Y-153578000D03*
X76684000Y-153178000D03*
D19*
X76184000Y-152678000D03*
X75784000Y-152678000D03*
X75384000Y-152678000D03*
X74984000Y-152678000D03*
X74584000Y-152678000D03*
X74184000Y-152678000D03*
D20*
X73684000Y-153178000D03*
X73684000Y-153578000D03*
X73684000Y-153978000D03*
X73684000Y-154378000D03*
X73684000Y-154778000D03*
X73684000Y-155178000D03*
%TD*%
D21*
%TO.C,C12*%
X76504800Y-130357200D03*
X76504800Y-132082200D03*
%TD*%
D22*
%TO.C,uart_led1*%
X67361000Y-150622000D03*
X65786000Y-150622000D03*
%TD*%
D16*
%TO.C,J6*%
X51816000Y-140208000D03*
D17*
X51816000Y-137668000D03*
X51816000Y-135128000D03*
%TD*%
D23*
%TO.C,C17*%
X79378000Y-150749000D03*
X81103000Y-150749000D03*
%TD*%
D24*
%TO.C,Y2*%
X54526000Y-138300000D03*
X54526000Y-139700000D03*
X55626000Y-139700000D03*
X55626000Y-138300000D03*
%TD*%
D22*
%TO.C,power_led1*%
X76706000Y-164787000D03*
X75131000Y-164787000D03*
%TD*%
D25*
%TO.C,C6*%
X56642000Y-159258000D03*
X56642000Y-157708000D03*
%TD*%
D26*
%TO.C,C16*%
X76147000Y-150368000D03*
X74422000Y-150368000D03*
%TD*%
D27*
%TO.C,R7*%
X112037500Y-155575000D03*
X110212500Y-155575000D03*
%TD*%
D28*
%TO.C,U1*%
X59095000Y-136712000D03*
X59095000Y-137212000D03*
X59095000Y-137712000D03*
X59095000Y-138212000D03*
X59095000Y-138712000D03*
X59095000Y-139212000D03*
X59095000Y-139712000D03*
X59095000Y-140212000D03*
X59095000Y-140712000D03*
X59095000Y-141212000D03*
X59095000Y-141712000D03*
X59095000Y-142212000D03*
X59095000Y-142712000D03*
X59095000Y-143212000D03*
X59095000Y-143712000D03*
X59095000Y-144212000D03*
D29*
X61020000Y-146137000D03*
X61520000Y-146137000D03*
X62020000Y-146137000D03*
X62520000Y-146137000D03*
X63020000Y-146137000D03*
X63520000Y-146137000D03*
X64020000Y-146137000D03*
X64520000Y-146137000D03*
X65020000Y-146137000D03*
X65520000Y-146137000D03*
X66020000Y-146137000D03*
X66520000Y-146137000D03*
X67020000Y-146137000D03*
X67520000Y-146137000D03*
X68020000Y-146137000D03*
X68520000Y-146137000D03*
D28*
X70445000Y-144212000D03*
X70445000Y-143712000D03*
X70445000Y-143212000D03*
X70445000Y-142712000D03*
X70445000Y-142212000D03*
X70445000Y-141712000D03*
X70445000Y-141212000D03*
X70445000Y-140712000D03*
X70445000Y-140212000D03*
X70445000Y-139712000D03*
X70445000Y-139212000D03*
X70445000Y-138712000D03*
X70445000Y-138212000D03*
X70445000Y-137712000D03*
X70445000Y-137212000D03*
X70445000Y-136712000D03*
D29*
X68520000Y-134787000D03*
X68020000Y-134787000D03*
X67520000Y-134787000D03*
X67020000Y-134787000D03*
X66520000Y-134787000D03*
X66020000Y-134787000D03*
X65520000Y-134787000D03*
X65020000Y-134787000D03*
X64520000Y-134787000D03*
X64020000Y-134787000D03*
X63520000Y-134787000D03*
X63020000Y-134787000D03*
X62520000Y-134787000D03*
X62020000Y-134787000D03*
X61520000Y-134787000D03*
X61020000Y-134787000D03*
%TD*%
D21*
%TO.C,C7*%
X57150000Y-135943000D03*
X57150000Y-137668000D03*
%TD*%
D26*
%TO.C,C2*%
X107315000Y-148590000D03*
X105590000Y-148590000D03*
%TD*%
D30*
%TO.C,C14*%
X50927000Y-154891000D03*
X50927000Y-153166000D03*
%TD*%
D31*
%TO.C,J3*%
X63912000Y-163198000D03*
X69692000Y-163198000D03*
D32*
X63602000Y-162078000D03*
X64402000Y-162078000D03*
D33*
X65552000Y-162078000D03*
X66552000Y-162078000D03*
X67052000Y-162078000D03*
X68052000Y-162078000D03*
D32*
X69202000Y-162078000D03*
X70002000Y-162078000D03*
X70002000Y-162078000D03*
X69202000Y-162078000D03*
D33*
X68552000Y-162078000D03*
X67552000Y-162078000D03*
X66052000Y-162078000D03*
X65052000Y-162078000D03*
D32*
X64402000Y-162078000D03*
X63602000Y-162078000D03*
D34*
X62482000Y-162678000D03*
D35*
X62482000Y-166878000D03*
D34*
X71122000Y-162678000D03*
D35*
X71122000Y-166878000D03*
%TD*%
D16*
%TO.C,J5*%
X61976000Y-130302000D03*
D17*
X64516000Y-130302000D03*
X67056000Y-130302000D03*
X69596000Y-130302000D03*
%TD*%
D36*
%TO.C,R1*%
X60704000Y-164359000D03*
X60704000Y-166184000D03*
%TD*%
D27*
%TO.C,R16*%
X112037500Y-152527000D03*
X110212500Y-152527000D03*
%TD*%
D36*
%TO.C,R5*%
X52959000Y-153066000D03*
X52959000Y-154891000D03*
%TD*%
D30*
%TO.C,C8*%
X57150000Y-141933000D03*
X57150000Y-140208000D03*
%TD*%
D27*
%TO.C,R14*%
X81153000Y-152273000D03*
X79328000Y-152273000D03*
%TD*%
D37*
%TO.C,J1*%
X95123000Y-156591000D03*
D14*
X95123000Y-154051000D03*
X95123000Y-151511000D03*
X95123000Y-148971000D03*
X95123000Y-146431000D03*
X95123000Y-143891000D03*
X95123000Y-141351000D03*
%TD*%
D38*
%TO.C,U4*%
X57672000Y-161442000D03*
X55372000Y-161442000D03*
D39*
X55372000Y-167742000D03*
D38*
X53072000Y-161442000D03*
%TD*%
D27*
%TO.C,R4*%
X52625000Y-145034000D03*
X50800000Y-145034000D03*
%TD*%
D40*
%TO.C,R9*%
X54967500Y-152908000D03*
X56792500Y-152908000D03*
%TD*%
D36*
%TO.C,R18*%
X66802000Y-152249500D03*
X66802000Y-154074500D03*
%TD*%
D21*
%TO.C,C11*%
X75031600Y-130355000D03*
X75031600Y-132080000D03*
%TD*%
D36*
%TO.C,R12*%
X70358000Y-154385000D03*
X70358000Y-156210000D03*
%TD*%
D21*
%TO.C,C15*%
X58166000Y-148414000D03*
X58166000Y-150139000D03*
%TD*%
D41*
%TO.C,SW2*%
X55626000Y-150876000D03*
X55626000Y-147476000D03*
%TD*%
D26*
%TO.C,C18*%
X76046500Y-148590000D03*
X74321500Y-148590000D03*
%TD*%
D36*
%TO.C,R10*%
X102489000Y-155194000D03*
X102489000Y-157019000D03*
%TD*%
D42*
%TO.C,user_led1*%
X54076500Y-145034000D03*
X55651500Y-145034000D03*
%TD*%
D21*
%TO.C,C10*%
X73558400Y-130356100D03*
X73558400Y-132081100D03*
%TD*%
D27*
%TO.C,R3*%
X76960000Y-163263000D03*
X75135000Y-163263000D03*
%TD*%
D26*
%TO.C,C1*%
X107288500Y-150114000D03*
X105563500Y-150114000D03*
%TD*%
D12*
%TO.C,R17*%
X102489000Y-150368000D03*
X102489000Y-148543000D03*
%TD*%
D23*
%TO.C,C19*%
X110236000Y-154051000D03*
X111961000Y-154051000D03*
%TD*%
D19*
%TO.C,U2*%
X105375200Y-155678000D03*
X105775200Y-155678000D03*
X106175200Y-155678000D03*
X106575200Y-155678000D03*
X106975200Y-155678000D03*
X107375200Y-155678000D03*
D20*
X107875200Y-155178000D03*
X107875200Y-154778000D03*
X107875200Y-154378000D03*
X107875200Y-153978000D03*
X107875200Y-153578000D03*
X107875200Y-153178000D03*
D19*
X107375200Y-152678000D03*
X106975200Y-152678000D03*
X106575200Y-152678000D03*
X106175200Y-152678000D03*
X105775200Y-152678000D03*
X105375200Y-152678000D03*
D20*
X104875200Y-153178000D03*
X104875200Y-153578000D03*
X104875200Y-153978000D03*
X104875200Y-154378000D03*
X104875200Y-154778000D03*
X104875200Y-155178000D03*
%TD*%
D21*
%TO.C,C9*%
X72085200Y-130356100D03*
X72085200Y-132081100D03*
%TD*%
D25*
%TO.C,C5*%
X55118000Y-159258000D03*
X55118000Y-157708000D03*
%TD*%
D27*
%TO.C,R15*%
X81153000Y-149225000D03*
X79328000Y-149225000D03*
%TD*%
D21*
%TO.C,C13*%
X77978000Y-130355000D03*
X77978000Y-132080000D03*
%TD*%
D43*
%TO.C,D1*%
X79122000Y-168566000D03*
X82422000Y-168566000D03*
X82422000Y-163666000D03*
X79122000Y-163666000D03*
%TD*%
D41*
%TO.C,SW1*%
X51562000Y-147476000D03*
X51562000Y-150876000D03*
%TD*%
%LPD*%
D44*
X49276000Y-167259000D02*
G75*
G03*
X52705000Y-170688000I3429000J0D01*
G01*
X128701800Y-170764200D02*
G75*
G03*
X132130800Y-167335200I0J3429000D01*
G01*
X52705000Y-128524000D02*
X128701800Y-128600200D01*
X49276000Y-167259000D02*
X49276000Y-131953000D01*
X132130800Y-132029200D02*
X132130800Y-167335200D01*
X52705000Y-128524000D02*
G75*
G03*
X49276000Y-131953000I0J-3429000D01*
G01*
X128701800Y-170764200D02*
X52705000Y-170688000D01*
X132130800Y-132029200D02*
G75*
G03*
X128701800Y-128600200I-3429000J0D01*
G01*
M02*
