%TF.GenerationSoftware,KiCad,Pcbnew,7.0.2-0*%
%TF.CreationDate,2024-06-12T14:29:42+08:00*%
%TF.ProjectId,angle_detect,616e676c-655f-4646-9574-6563742e6b69,rev?*%
%TF.SameCoordinates,Original*%
%TF.FileFunction,Drillmap*%
%TF.FilePolarity,Positive*%
%FSLAX45Y45*%
G04 Gerber Fmt 4.5, Leading zero omitted, Abs format (unit mm)*
G04 Created by KiCad (PCBNEW 7.0.2-0) date 2024-06-12 14:29:42*
%MOMM*%
%LPD*%
G01*
G04 APERTURE LIST*
%ADD10C,0.100000*%
%ADD11C,0.200000*%
%ADD12C,0.030000*%
%ADD13C,0.060000*%
%ADD14C,0.080000*%
%ADD15C,0.109000*%
%ADD16C,0.170000*%
%ADD17C,0.065000*%
G04 APERTURE END LIST*
D10*
X4927600Y-16725900D02*
G75*
G03*
X5270500Y-17068800I342900J0D01*
G01*
X12870180Y-17076420D02*
G75*
G03*
X13213080Y-16733520I0J342900D01*
G01*
X5270500Y-12852400D02*
X12870180Y-12860020D01*
X4927600Y-16725900D02*
X4927600Y-13195300D01*
X13213080Y-13202920D02*
X13213080Y-16733520D01*
X5270500Y-12852400D02*
G75*
G03*
X4927600Y-13195300I0J-342900D01*
G01*
X12870180Y-17076420D02*
X5270500Y-17068800D01*
X13213080Y-13202920D02*
G75*
G03*
X12870180Y-12860020I-342900J0D01*
G01*
D11*
D12*
X5344400Y-16520400D02*
X5374400Y-16550400D01*
X5374400Y-16520400D02*
X5344400Y-16550400D01*
X5369800Y-13421600D02*
X5399800Y-13451600D01*
X5399800Y-13421600D02*
X5369800Y-13451600D01*
X5369800Y-13485100D02*
X5399800Y-13515100D01*
X5399800Y-13485100D02*
X5369800Y-13515100D01*
X5369800Y-13548600D02*
X5399800Y-13578600D01*
X5399800Y-13548600D02*
X5369800Y-13578600D01*
X5369800Y-13612100D02*
X5399800Y-13642100D01*
X5399800Y-13612100D02*
X5369800Y-13642100D01*
X5369800Y-13675600D02*
X5399800Y-13705600D01*
X5399800Y-13675600D02*
X5369800Y-13705600D01*
X5369800Y-14043900D02*
X5399800Y-14073900D01*
X5399800Y-14043900D02*
X5369800Y-14073900D01*
X5369800Y-14107400D02*
X5399800Y-14137400D01*
X5399800Y-14107400D02*
X5369800Y-14137400D01*
X5369800Y-14170900D02*
X5399800Y-14200900D01*
X5399800Y-14170900D02*
X5369800Y-14200900D01*
X5369800Y-14234400D02*
X5399800Y-14264400D01*
X5399800Y-14234400D02*
X5369800Y-14264400D01*
X5433300Y-13421600D02*
X5463300Y-13451600D01*
X5463300Y-13421600D02*
X5433300Y-13451600D01*
X5433300Y-13485100D02*
X5463300Y-13515100D01*
X5463300Y-13485100D02*
X5433300Y-13515100D01*
X5433300Y-13548600D02*
X5463300Y-13578600D01*
X5463300Y-13548600D02*
X5433300Y-13578600D01*
X5433300Y-14107400D02*
X5463300Y-14137400D01*
X5463300Y-14107400D02*
X5433300Y-14137400D01*
X5433300Y-14170900D02*
X5463300Y-14200900D01*
X5463300Y-14170900D02*
X5433300Y-14200900D01*
X5433300Y-14234400D02*
X5463300Y-14264400D01*
X5463300Y-14234400D02*
X5433300Y-14264400D01*
X5496800Y-13421600D02*
X5526800Y-13451600D01*
X5526800Y-13421600D02*
X5496800Y-13451600D01*
X5496800Y-13485100D02*
X5526800Y-13515100D01*
X5526800Y-13485100D02*
X5496800Y-13515100D01*
X5496800Y-13548600D02*
X5526800Y-13578600D01*
X5526800Y-13548600D02*
X5496800Y-13578600D01*
X5496800Y-14170900D02*
X5526800Y-14200900D01*
X5526800Y-14170900D02*
X5496800Y-14200900D01*
X5496800Y-14234400D02*
X5526800Y-14264400D01*
X5526800Y-14234400D02*
X5496800Y-14264400D01*
X5546844Y-13676356D02*
X5576844Y-13706356D01*
X5576844Y-13676356D02*
X5546844Y-13706356D01*
X5560300Y-13421600D02*
X5590300Y-13451600D01*
X5590300Y-13421600D02*
X5560300Y-13451600D01*
X5560300Y-13485100D02*
X5590300Y-13515100D01*
X5590300Y-13485100D02*
X5560300Y-13515100D01*
X5560300Y-14234400D02*
X5590300Y-14264400D01*
X5590300Y-14234400D02*
X5560300Y-14264400D01*
X5599156Y-13573244D02*
X5629156Y-13603244D01*
X5629156Y-13573244D02*
X5599156Y-13603244D01*
X5623800Y-13421600D02*
X5653800Y-13451600D01*
X5653800Y-13421600D02*
X5623800Y-13451600D01*
X5623800Y-13485100D02*
X5653800Y-13515100D01*
X5653800Y-13485100D02*
X5623800Y-13515100D01*
X5687300Y-13421600D02*
X5717300Y-13451600D01*
X5717300Y-13421600D02*
X5687300Y-13451600D01*
X5687300Y-13485100D02*
X5717300Y-13515100D01*
X5717300Y-13485100D02*
X5687300Y-13515100D01*
X5801600Y-14543350D02*
X5831600Y-14573350D01*
X5831600Y-14543350D02*
X5801600Y-14573350D01*
X5928600Y-14590000D02*
X5958600Y-14620000D01*
X5958600Y-14590000D02*
X5928600Y-14620000D01*
X6055600Y-13955000D02*
X6085600Y-13985000D01*
X6085600Y-13955000D02*
X6055600Y-13985000D01*
X6061850Y-13320000D02*
X6091850Y-13350000D01*
X6091850Y-13320000D02*
X6061850Y-13350000D01*
X6081000Y-13188850D02*
X6111000Y-13218850D01*
X6111000Y-13188850D02*
X6081000Y-13218850D01*
X6110550Y-14056600D02*
X6140550Y-14086600D01*
X6140550Y-14056600D02*
X6110550Y-14086600D01*
X6131800Y-13320000D02*
X6161800Y-13350000D01*
X6161800Y-13320000D02*
X6131800Y-13350000D01*
X6182600Y-14005800D02*
X6212600Y-14035800D01*
X6212600Y-14005800D02*
X6182600Y-14035800D01*
X6296900Y-14336000D02*
X6326900Y-14366000D01*
X6326900Y-14336000D02*
X6296900Y-14366000D01*
X6296900Y-14475700D02*
X6326900Y-14505700D01*
X6326900Y-14475700D02*
X6296900Y-14505700D01*
X6360400Y-14336000D02*
X6390400Y-14366000D01*
X6390400Y-14336000D02*
X6360400Y-14366000D01*
X6360400Y-14475700D02*
X6390400Y-14505700D01*
X6390400Y-14475700D02*
X6360400Y-14505700D01*
X6423900Y-14336000D02*
X6453900Y-14366000D01*
X6453900Y-14336000D02*
X6423900Y-14366000D01*
X6423900Y-14475700D02*
X6453900Y-14505700D01*
X6453900Y-14475700D02*
X6423900Y-14505700D01*
X6487400Y-14336000D02*
X6517400Y-14366000D01*
X6517400Y-14336000D02*
X6487400Y-14366000D01*
X6487400Y-14475700D02*
X6517400Y-14505700D01*
X6517400Y-14475700D02*
X6487400Y-14505700D01*
X6487400Y-16317200D02*
X6517400Y-16347200D01*
X6517400Y-16317200D02*
X6487400Y-16347200D01*
X6589000Y-13167600D02*
X6619000Y-13197600D01*
X6619000Y-13167600D02*
X6589000Y-13197600D01*
X6589000Y-13802600D02*
X6619000Y-13832600D01*
X6619000Y-13802600D02*
X6589000Y-13832600D01*
X6589000Y-14793200D02*
X6619000Y-14823200D01*
X6619000Y-14793200D02*
X6589000Y-14823200D01*
X6614400Y-14336000D02*
X6644400Y-14366000D01*
X6644400Y-14336000D02*
X6614400Y-14366000D01*
X6639800Y-16393400D02*
X6669800Y-16423400D01*
X6669800Y-16393400D02*
X6639800Y-16423400D01*
X6652500Y-15910800D02*
X6682500Y-15940800D01*
X6682500Y-15910800D02*
X6652500Y-15940800D01*
X6741400Y-13777200D02*
X6771400Y-13807200D01*
X6771400Y-13777200D02*
X6741400Y-13807200D01*
X6768492Y-16377150D02*
X6798492Y-16407150D01*
X6798492Y-16377150D02*
X6768492Y-16407150D01*
X6792200Y-14742400D02*
X6822200Y-14772400D01*
X6822200Y-14742400D02*
X6792200Y-14772400D01*
X6812100Y-14336000D02*
X6842100Y-14366000D01*
X6842100Y-14336000D02*
X6812100Y-14366000D01*
X6817600Y-14869400D02*
X6847600Y-14899400D01*
X6847600Y-14869400D02*
X6817600Y-14899400D01*
X6843000Y-16317200D02*
X6873000Y-16347200D01*
X6873000Y-16317200D02*
X6843000Y-16347200D01*
X6867644Y-13981156D02*
X6897644Y-14011156D01*
X6897644Y-13981156D02*
X6867644Y-14011156D01*
X6881100Y-14742400D02*
X6911100Y-14772400D01*
X6911100Y-14742400D02*
X6881100Y-14772400D01*
X6944600Y-14742400D02*
X6974600Y-14772400D01*
X6974600Y-14742400D02*
X6944600Y-14772400D01*
X6970000Y-13231100D02*
X7000000Y-13261100D01*
X7000000Y-13231100D02*
X6970000Y-13261100D01*
X7020800Y-14742400D02*
X7050800Y-14772400D01*
X7050800Y-14742400D02*
X7020800Y-14772400D01*
X7097000Y-14882100D02*
X7127000Y-14912100D01*
X7127000Y-14882100D02*
X7097000Y-14912100D01*
X7122400Y-14522350D02*
X7152400Y-14552350D01*
X7152400Y-14522350D02*
X7122400Y-14552350D01*
X7160500Y-13421600D02*
X7190500Y-13451600D01*
X7190500Y-13421600D02*
X7160500Y-13451600D01*
X7193520Y-13193110D02*
X7223520Y-13223110D01*
X7223520Y-13193110D02*
X7193520Y-13223110D01*
X7198600Y-15546050D02*
X7228600Y-15576050D01*
X7228600Y-15546050D02*
X7198600Y-15576050D01*
X7224000Y-13599400D02*
X7254000Y-13629400D01*
X7254000Y-13599400D02*
X7224000Y-13629400D01*
X7389100Y-14285200D02*
X7419100Y-14315200D01*
X7419100Y-14285200D02*
X7389100Y-14315200D01*
X7389100Y-14348700D02*
X7419100Y-14378700D01*
X7419100Y-14348700D02*
X7389100Y-14378700D01*
X7389100Y-14412200D02*
X7419100Y-14442200D01*
X7419100Y-14412200D02*
X7389100Y-14442200D01*
X7389100Y-14678900D02*
X7419100Y-14708900D01*
X7419100Y-14678900D02*
X7389100Y-14708900D01*
X7452600Y-14678900D02*
X7482600Y-14708900D01*
X7482600Y-14678900D02*
X7452600Y-14708900D01*
X7465300Y-14285200D02*
X7495300Y-14315200D01*
X7495300Y-14285200D02*
X7465300Y-14315200D01*
X7465300Y-14348700D02*
X7495300Y-14378700D01*
X7495300Y-14348700D02*
X7465300Y-14378700D01*
X7465300Y-14412200D02*
X7495300Y-14442200D01*
X7495300Y-14412200D02*
X7465300Y-14442200D01*
X7498100Y-16596600D02*
X7528100Y-16626600D01*
X7528100Y-16596600D02*
X7498100Y-16626600D01*
X7516100Y-14678900D02*
X7546100Y-14708900D01*
X7546100Y-14678900D02*
X7516100Y-14708900D01*
X7541500Y-14285200D02*
X7571500Y-14315200D01*
X7571500Y-14285200D02*
X7541500Y-14315200D01*
X7541500Y-14348700D02*
X7571500Y-14378700D01*
X7571500Y-14348700D02*
X7541500Y-14378700D01*
X7541500Y-14412200D02*
X7571500Y-14442200D01*
X7571500Y-14412200D02*
X7541500Y-14442200D01*
X7579600Y-14678900D02*
X7609600Y-14708900D01*
X7609600Y-14678900D02*
X7579600Y-14708900D01*
X7643100Y-14678900D02*
X7673100Y-14708900D01*
X7673100Y-14678900D02*
X7643100Y-14708900D01*
X7706600Y-14678900D02*
X7736600Y-14708900D01*
X7736600Y-14678900D02*
X7706600Y-14708900D01*
X7795500Y-15504400D02*
X7825500Y-15534400D01*
X7825500Y-15504400D02*
X7795500Y-15534400D01*
X7795500Y-15580600D02*
X7825500Y-15610600D01*
X7825500Y-15580600D02*
X7795500Y-15610600D01*
X7795500Y-15656800D02*
X7825500Y-15686800D01*
X7825500Y-15656800D02*
X7795500Y-15686800D01*
X7795500Y-15733000D02*
X7825500Y-15763000D01*
X7825500Y-15733000D02*
X7795500Y-15763000D01*
X7795500Y-15809200D02*
X7825500Y-15839200D01*
X7825500Y-15809200D02*
X7795500Y-15839200D01*
X7795500Y-15885400D02*
X7825500Y-15915400D01*
X7825500Y-15885400D02*
X7795500Y-15915400D01*
X7795500Y-15961600D02*
X7825500Y-15991600D01*
X7825500Y-15961600D02*
X7795500Y-15991600D01*
X7795500Y-16037800D02*
X7825500Y-16067800D01*
X7825500Y-16037800D02*
X7795500Y-16067800D01*
X7808200Y-14844000D02*
X7838200Y-14874000D01*
X7838200Y-14844000D02*
X7808200Y-14874000D01*
X7884400Y-15504400D02*
X7914400Y-15534400D01*
X7914400Y-15504400D02*
X7884400Y-15534400D01*
X7884400Y-15580600D02*
X7914400Y-15610600D01*
X7914400Y-15580600D02*
X7884400Y-15610600D01*
X7884400Y-15656800D02*
X7914400Y-15686800D01*
X7914400Y-15656800D02*
X7884400Y-15686800D01*
X7884400Y-15733000D02*
X7914400Y-15763000D01*
X7914400Y-15733000D02*
X7884400Y-15763000D01*
X7884400Y-15809200D02*
X7914400Y-15839200D01*
X7914400Y-15809200D02*
X7884400Y-15839200D01*
X7884400Y-15885400D02*
X7914400Y-15915400D01*
X7914400Y-15885400D02*
X7884400Y-15915400D01*
X7884400Y-15961600D02*
X7914400Y-15991600D01*
X7914400Y-15961600D02*
X7884400Y-15991600D01*
X7884400Y-16037800D02*
X7914400Y-16067800D01*
X7914400Y-16037800D02*
X7884400Y-16067800D01*
X7944350Y-15352000D02*
X7974350Y-15382000D01*
X7974350Y-15352000D02*
X7944350Y-15382000D01*
X7973300Y-15504400D02*
X8003300Y-15534400D01*
X8003300Y-15504400D02*
X7973300Y-15534400D01*
X7973300Y-15580600D02*
X8003300Y-15610600D01*
X8003300Y-15580600D02*
X7973300Y-15610600D01*
X7973300Y-15656800D02*
X8003300Y-15686800D01*
X8003300Y-15656800D02*
X7973300Y-15686800D01*
X7973300Y-15733000D02*
X8003300Y-15763000D01*
X8003300Y-15733000D02*
X7973300Y-15763000D01*
X7973300Y-15809200D02*
X8003300Y-15839200D01*
X8003300Y-15809200D02*
X7973300Y-15839200D01*
X7973300Y-15885400D02*
X8003300Y-15915400D01*
X8003300Y-15885400D02*
X7973300Y-15915400D01*
X7973300Y-15961600D02*
X8003300Y-15991600D01*
X8003300Y-15961600D02*
X7973300Y-15991600D01*
X7973300Y-16037800D02*
X8003300Y-16067800D01*
X8003300Y-16037800D02*
X7973300Y-16067800D01*
X8062200Y-13447000D02*
X8092200Y-13477000D01*
X8092200Y-13447000D02*
X8062200Y-13477000D01*
X8062200Y-13523200D02*
X8092200Y-13553200D01*
X8092200Y-13523200D02*
X8062200Y-13553200D01*
X8062200Y-13599400D02*
X8092200Y-13629400D01*
X8092200Y-13599400D02*
X8062200Y-13629400D01*
X8062200Y-13675600D02*
X8092200Y-13705600D01*
X8092200Y-13675600D02*
X8062200Y-13705600D01*
X8062200Y-13751800D02*
X8092200Y-13781800D01*
X8092200Y-13751800D02*
X8062200Y-13781800D01*
X8062200Y-13828000D02*
X8092200Y-13858000D01*
X8092200Y-13828000D02*
X8062200Y-13858000D01*
X8062200Y-13904200D02*
X8092200Y-13934200D01*
X8092200Y-13904200D02*
X8062200Y-13934200D01*
X8062200Y-13980400D02*
X8092200Y-14010400D01*
X8092200Y-13980400D02*
X8062200Y-14010400D01*
X8062200Y-14056600D02*
X8092200Y-14086600D01*
X8092200Y-14056600D02*
X8062200Y-14086600D01*
X8062200Y-14132800D02*
X8092200Y-14162800D01*
X8092200Y-14132800D02*
X8062200Y-14162800D01*
X8062200Y-14209000D02*
X8092200Y-14239000D01*
X8092200Y-14209000D02*
X8062200Y-14239000D01*
X8062200Y-14285200D02*
X8092200Y-14315200D01*
X8092200Y-14285200D02*
X8062200Y-14315200D01*
X8062200Y-14361400D02*
X8092200Y-14391400D01*
X8092200Y-14361400D02*
X8062200Y-14391400D01*
X8062200Y-15504400D02*
X8092200Y-15534400D01*
X8092200Y-15504400D02*
X8062200Y-15534400D01*
X8062200Y-15580600D02*
X8092200Y-15610600D01*
X8092200Y-15580600D02*
X8062200Y-15610600D01*
X8062200Y-15656800D02*
X8092200Y-15686800D01*
X8092200Y-15656800D02*
X8062200Y-15686800D01*
X8062200Y-15733000D02*
X8092200Y-15763000D01*
X8092200Y-15733000D02*
X8062200Y-15763000D01*
X8062200Y-15809200D02*
X8092200Y-15839200D01*
X8092200Y-15809200D02*
X8062200Y-15839200D01*
X8062200Y-15885400D02*
X8092200Y-15915400D01*
X8092200Y-15885400D02*
X8062200Y-15915400D01*
X8062200Y-15961600D02*
X8092200Y-15991600D01*
X8092200Y-15961600D02*
X8062200Y-15991600D01*
X8062200Y-16037800D02*
X8092200Y-16067800D01*
X8092200Y-16037800D02*
X8062200Y-16067800D01*
X8138400Y-13447000D02*
X8168400Y-13477000D01*
X8168400Y-13447000D02*
X8138400Y-13477000D01*
X8138400Y-13523200D02*
X8168400Y-13553200D01*
X8168400Y-13523200D02*
X8138400Y-13553200D01*
X8138400Y-13599400D02*
X8168400Y-13629400D01*
X8168400Y-13599400D02*
X8138400Y-13629400D01*
X8138400Y-13675600D02*
X8168400Y-13705600D01*
X8168400Y-13675600D02*
X8138400Y-13705600D01*
X8138400Y-13751800D02*
X8168400Y-13781800D01*
X8168400Y-13751800D02*
X8138400Y-13781800D01*
X8138400Y-13828000D02*
X8168400Y-13858000D01*
X8168400Y-13828000D02*
X8138400Y-13858000D01*
X8138400Y-13904200D02*
X8168400Y-13934200D01*
X8168400Y-13904200D02*
X8138400Y-13934200D01*
X8138400Y-13980400D02*
X8168400Y-14010400D01*
X8168400Y-13980400D02*
X8138400Y-14010400D01*
X8138400Y-14056600D02*
X8168400Y-14086600D01*
X8168400Y-14056600D02*
X8138400Y-14086600D01*
X8138400Y-14132800D02*
X8168400Y-14162800D01*
X8168400Y-14132800D02*
X8138400Y-14162800D01*
X8138400Y-14209000D02*
X8168400Y-14239000D01*
X8168400Y-14209000D02*
X8138400Y-14239000D01*
X8138400Y-14285200D02*
X8168400Y-14315200D01*
X8168400Y-14285200D02*
X8138400Y-14315200D01*
X8138400Y-14361400D02*
X8168400Y-14391400D01*
X8168400Y-14361400D02*
X8138400Y-14391400D01*
X8392400Y-15313900D02*
X8422400Y-15343900D01*
X8422400Y-15313900D02*
X8392400Y-15343900D01*
X9992600Y-15390100D02*
X10022600Y-15420100D01*
X10022600Y-15390100D02*
X9992600Y-15420100D01*
X10088606Y-15281394D02*
X10118606Y-15311394D01*
X10118606Y-15281394D02*
X10088606Y-15311394D01*
X10145000Y-15199600D02*
X10175000Y-15229600D01*
X10175000Y-15199600D02*
X10145000Y-15229600D01*
X10157700Y-15606000D02*
X10187700Y-15636000D01*
X10187700Y-15606000D02*
X10157700Y-15636000D01*
X10614900Y-15123400D02*
X10644900Y-15153400D01*
X10644900Y-15123400D02*
X10614900Y-15153400D01*
X10856200Y-15263100D02*
X10886200Y-15293100D01*
X10886200Y-15263100D02*
X10856200Y-15293100D01*
X10856200Y-15477750D02*
X10886200Y-15507750D01*
X10886200Y-15477750D02*
X10856200Y-15507750D01*
X11186400Y-15123400D02*
X11216400Y-15153400D01*
X11216400Y-15123400D02*
X11186400Y-15153400D01*
D13*
X6278200Y-16267800D02*
G75*
G03*
X6278200Y-16267800I-30000J0D01*
G01*
D11*
X6218200Y-16212800D02*
X6218200Y-16322800D01*
X6218200Y-16322800D02*
G75*
G03*
X6278200Y-16322800I30000J0D01*
G01*
X6278200Y-16322800D02*
X6278200Y-16212800D01*
X6278200Y-16212800D02*
G75*
G03*
X6218200Y-16212800I-30000J0D01*
G01*
D13*
X6278200Y-16687800D02*
G75*
G03*
X6278200Y-16687800I-30000J0D01*
G01*
D11*
X6218200Y-16647800D02*
X6218200Y-16727800D01*
X6218200Y-16727800D02*
G75*
G03*
X6278200Y-16727800I30000J0D01*
G01*
X6278200Y-16727800D02*
X6278200Y-16647800D01*
X6278200Y-16647800D02*
G75*
G03*
X6218200Y-16647800I-30000J0D01*
G01*
D13*
X7142200Y-16267800D02*
G75*
G03*
X7142200Y-16267800I-30000J0D01*
G01*
D11*
X7082200Y-16212800D02*
X7082200Y-16322800D01*
X7082200Y-16322800D02*
G75*
G03*
X7142200Y-16322800I30000J0D01*
G01*
X7142200Y-16322800D02*
X7142200Y-16212800D01*
X7142200Y-16212800D02*
G75*
G03*
X7082200Y-16212800I-30000J0D01*
G01*
D13*
X7142200Y-16687800D02*
G75*
G03*
X7142200Y-16687800I-30000J0D01*
G01*
D11*
X7082200Y-16647800D02*
X7082200Y-16727800D01*
X7082200Y-16727800D02*
G75*
G03*
X7142200Y-16727800I30000J0D01*
G01*
X7142200Y-16727800D02*
X7142200Y-16647800D01*
X7142200Y-16647800D02*
G75*
G03*
X7082200Y-16647800I-30000J0D01*
G01*
D14*
X9067800Y-12926700D02*
X9067800Y-13006700D01*
X9027800Y-12966700D02*
X9107800Y-12966700D01*
X9067800Y-13041000D02*
X9067800Y-13121000D01*
X9027800Y-13081000D02*
X9107800Y-13081000D01*
X9067800Y-13155300D02*
X9067800Y-13235300D01*
X9027800Y-13195300D02*
X9107800Y-13195300D01*
X9067800Y-13269600D02*
X9067800Y-13349600D01*
X9027800Y-13309600D02*
X9107800Y-13309600D01*
X9067800Y-13383900D02*
X9067800Y-13463900D01*
X9027800Y-13423900D02*
X9107800Y-13423900D01*
X9067800Y-13498200D02*
X9067800Y-13578200D01*
X9027800Y-13538200D02*
X9107800Y-13538200D01*
X9067800Y-13612500D02*
X9067800Y-13692500D01*
X9027800Y-13652500D02*
X9107800Y-13652500D01*
X9067800Y-13726800D02*
X9067800Y-13806800D01*
X9027800Y-13766800D02*
X9107800Y-13766800D01*
X9067800Y-13841100D02*
X9067800Y-13921100D01*
X9027800Y-13881100D02*
X9107800Y-13881100D01*
X9067800Y-13955400D02*
X9067800Y-14035400D01*
X9027800Y-13995400D02*
X9107800Y-13995400D01*
X9067800Y-14069700D02*
X9067800Y-14149700D01*
X9027800Y-14109700D02*
X9107800Y-14109700D01*
X9067800Y-14184000D02*
X9067800Y-14264000D01*
X9027800Y-14224000D02*
X9107800Y-14224000D01*
X9067800Y-14298300D02*
X9067800Y-14378300D01*
X9027800Y-14338300D02*
X9107800Y-14338300D01*
X9067800Y-14412600D02*
X9067800Y-14492600D01*
X9027800Y-14452600D02*
X9107800Y-14452600D01*
X9067800Y-14526900D02*
X9067800Y-14606900D01*
X9027800Y-14566900D02*
X9107800Y-14566900D01*
X9067800Y-14641200D02*
X9067800Y-14721200D01*
X9027800Y-14681200D02*
X9107800Y-14681200D01*
X9067800Y-14755500D02*
X9067800Y-14835500D01*
X9027800Y-14795500D02*
X9107800Y-14795500D01*
X9067800Y-14869800D02*
X9067800Y-14949800D01*
X9027800Y-14909800D02*
X9107800Y-14909800D01*
X9067800Y-14984100D02*
X9067800Y-15064100D01*
X9027800Y-15024100D02*
X9107800Y-15024100D01*
X9067800Y-15098400D02*
X9067800Y-15178400D01*
X9027800Y-15138400D02*
X9107800Y-15138400D01*
X9067800Y-15212700D02*
X9067800Y-15292700D01*
X9027800Y-15252700D02*
X9107800Y-15252700D01*
X9067800Y-15327000D02*
X9067800Y-15407000D01*
X9027800Y-15367000D02*
X9107800Y-15367000D01*
X9067800Y-15441300D02*
X9067800Y-15521300D01*
X9027800Y-15481300D02*
X9107800Y-15481300D01*
X9067800Y-15555600D02*
X9067800Y-15635600D01*
X9027800Y-15595600D02*
X9107800Y-15595600D01*
X9067800Y-15669900D02*
X9067800Y-15749900D01*
X9027800Y-15709900D02*
X9107800Y-15709900D01*
X9067800Y-15784200D02*
X9067800Y-15864200D01*
X9027800Y-15824200D02*
X9107800Y-15824200D01*
X9067800Y-15898500D02*
X9067800Y-15978500D01*
X9027800Y-15938500D02*
X9107800Y-15938500D01*
X9067800Y-16012800D02*
X9067800Y-16092800D01*
X9027800Y-16052800D02*
X9107800Y-16052800D01*
X9067800Y-16127100D02*
X9067800Y-16207100D01*
X9027800Y-16167100D02*
X9107800Y-16167100D01*
X9067800Y-16241400D02*
X9067800Y-16321400D01*
X9027800Y-16281400D02*
X9107800Y-16281400D01*
X9067800Y-16368400D02*
X9067800Y-16448400D01*
X9027800Y-16408400D02*
X9107800Y-16408400D01*
X9067800Y-16482700D02*
X9067800Y-16562700D01*
X9027800Y-16522700D02*
X9107800Y-16522700D01*
X9067800Y-16597000D02*
X9067800Y-16677000D01*
X9027800Y-16637000D02*
X9107800Y-16637000D01*
X9067800Y-16711300D02*
X9067800Y-16791300D01*
X9027800Y-16751300D02*
X9107800Y-16751300D01*
X9067800Y-16825600D02*
X9067800Y-16905600D01*
X9027800Y-16865600D02*
X9107800Y-16865600D01*
X9067800Y-16939900D02*
X9067800Y-17019900D01*
X9027800Y-16979900D02*
X9107800Y-16979900D01*
D10*
X5216956Y-13548156D02*
X5216956Y-13477444D01*
X5146244Y-13477444D01*
X5146244Y-13548156D01*
X5216956Y-13548156D01*
X5216956Y-13802156D02*
X5216956Y-13731444D01*
X5146244Y-13731444D01*
X5146244Y-13802156D01*
X5216956Y-13802156D01*
X5216956Y-14056156D02*
X5216956Y-13985444D01*
X5146244Y-13985444D01*
X5146244Y-14056156D01*
X5216956Y-14056156D01*
X6232956Y-13065556D02*
X6232956Y-12994844D01*
X6162244Y-12994844D01*
X6162244Y-13065556D01*
X6232956Y-13065556D01*
X6486956Y-13065556D02*
X6486956Y-12994844D01*
X6416244Y-12994844D01*
X6416244Y-13065556D01*
X6486956Y-13065556D01*
X6740956Y-13065556D02*
X6740956Y-12994844D01*
X6670244Y-12994844D01*
X6670244Y-13065556D01*
X6740956Y-13065556D01*
X6994956Y-13065556D02*
X6994956Y-12994844D01*
X6924244Y-12994844D01*
X6924244Y-13065556D01*
X6994956Y-13065556D01*
X7833156Y-13522756D02*
X7833156Y-13452044D01*
X7762444Y-13452044D01*
X7762444Y-13522756D01*
X7833156Y-13522756D01*
X7833156Y-13776756D02*
X7833156Y-13706044D01*
X7762444Y-13706044D01*
X7762444Y-13776756D01*
X7833156Y-13776756D01*
X7833156Y-14030756D02*
X7833156Y-13960044D01*
X7762444Y-13960044D01*
X7762444Y-14030756D01*
X7833156Y-14030756D01*
X7833156Y-14284756D02*
X7833156Y-14214044D01*
X7762444Y-14214044D01*
X7762444Y-14284756D01*
X7833156Y-14284756D01*
D15*
X8647500Y-14189600D02*
X8702000Y-14135100D01*
X8647500Y-14080600D01*
X8593000Y-14135100D01*
X8647500Y-14189600D01*
X8647500Y-14443600D02*
X8702000Y-14389100D01*
X8647500Y-14334600D01*
X8593000Y-14389100D01*
X8647500Y-14443600D01*
X8647500Y-14697600D02*
X8702000Y-14643100D01*
X8647500Y-14588600D01*
X8593000Y-14643100D01*
X8647500Y-14697600D01*
X8647500Y-14951600D02*
X8702000Y-14897100D01*
X8647500Y-14842600D01*
X8593000Y-14897100D01*
X8647500Y-14951600D01*
X8647500Y-15205600D02*
X8702000Y-15151100D01*
X8647500Y-15096600D01*
X8593000Y-15151100D01*
X8647500Y-15205600D01*
X8647500Y-15459600D02*
X8702000Y-15405100D01*
X8647500Y-15350600D01*
X8593000Y-15405100D01*
X8647500Y-15459600D01*
X8647500Y-15713600D02*
X8702000Y-15659100D01*
X8647500Y-15604600D01*
X8593000Y-15659100D01*
X8647500Y-15713600D01*
X9512300Y-14189600D02*
X9566800Y-14135100D01*
X9512300Y-14080600D01*
X9457800Y-14135100D01*
X9512300Y-14189600D01*
X9512300Y-14443600D02*
X9566800Y-14389100D01*
X9512300Y-14334600D01*
X9457800Y-14389100D01*
X9512300Y-14443600D01*
X9512300Y-14697600D02*
X9566800Y-14643100D01*
X9512300Y-14588600D01*
X9457800Y-14643100D01*
X9512300Y-14697600D01*
X9512300Y-14951600D02*
X9566800Y-14897100D01*
X9512300Y-14842600D01*
X9457800Y-14897100D01*
X9512300Y-14951600D01*
X9512300Y-15205600D02*
X9566800Y-15151100D01*
X9512300Y-15096600D01*
X9457800Y-15151100D01*
X9512300Y-15205600D01*
X9512300Y-15459600D02*
X9566800Y-15405100D01*
X9512300Y-15350600D01*
X9457800Y-15405100D01*
X9512300Y-15459600D01*
X9512300Y-15713600D02*
X9566800Y-15659100D01*
X9512300Y-15604600D01*
X9457800Y-15659100D01*
X9512300Y-15713600D01*
D16*
X8678000Y-13046800D02*
X8848000Y-13216800D01*
X8848000Y-13046800D02*
X8678000Y-13216800D01*
X8848000Y-13131800D02*
G75*
G03*
X8848000Y-13131800I-85000J0D01*
G01*
X8678000Y-13542100D02*
X8848000Y-13712100D01*
X8848000Y-13542100D02*
X8678000Y-13712100D01*
X8848000Y-13627100D02*
G75*
G03*
X8848000Y-13627100I-85000J0D01*
G01*
X8678000Y-16196400D02*
X8848000Y-16366400D01*
X8848000Y-16196400D02*
X8678000Y-16366400D01*
X8848000Y-16281400D02*
G75*
G03*
X8848000Y-16281400I-85000J0D01*
G01*
X8678000Y-16691700D02*
X8848000Y-16861700D01*
X8848000Y-16691700D02*
X8678000Y-16861700D01*
X8848000Y-16776700D02*
G75*
G03*
X8848000Y-16776700I-85000J0D01*
G01*
X9262200Y-13059500D02*
X9432200Y-13229500D01*
X9432200Y-13059500D02*
X9262200Y-13229500D01*
X9432200Y-13144500D02*
G75*
G03*
X9432200Y-13144500I-85000J0D01*
G01*
X9262200Y-13554800D02*
X9432200Y-13724800D01*
X9432200Y-13554800D02*
X9262200Y-13724800D01*
X9432200Y-13639800D02*
G75*
G03*
X9432200Y-13639800I-85000J0D01*
G01*
X9262200Y-16196400D02*
X9432200Y-16366400D01*
X9432200Y-16196400D02*
X9262200Y-16366400D01*
X9432200Y-16281400D02*
G75*
G03*
X9432200Y-16281400I-85000J0D01*
G01*
X9262200Y-16691700D02*
X9432200Y-16861700D01*
X9432200Y-16691700D02*
X9262200Y-16861700D01*
X9432200Y-16776700D02*
G75*
G03*
X9432200Y-16776700I-85000J0D01*
G01*
D17*
X6358700Y-16287300D02*
X6423700Y-16352300D01*
X6423700Y-16287300D02*
X6358700Y-16352300D01*
X6391200Y-16287300D02*
X6391200Y-16352300D01*
X6358700Y-16319800D02*
X6423700Y-16319800D01*
X6936700Y-16287300D02*
X7001700Y-16352300D01*
X7001700Y-16287300D02*
X6936700Y-16352300D01*
X6969200Y-16287300D02*
X6969200Y-16352300D01*
X6936700Y-16319800D02*
X7001700Y-16319800D01*
D11*
X5170219Y-17393944D02*
X5170219Y-17193944D01*
X5170219Y-17193944D02*
X5217838Y-17193944D01*
X5217838Y-17193944D02*
X5246410Y-17203468D01*
X5246410Y-17203468D02*
X5265457Y-17222515D01*
X5265457Y-17222515D02*
X5274981Y-17241563D01*
X5274981Y-17241563D02*
X5284505Y-17279658D01*
X5284505Y-17279658D02*
X5284505Y-17308230D01*
X5284505Y-17308230D02*
X5274981Y-17346325D01*
X5274981Y-17346325D02*
X5265457Y-17365372D01*
X5265457Y-17365372D02*
X5246410Y-17384420D01*
X5246410Y-17384420D02*
X5217838Y-17393944D01*
X5217838Y-17393944D02*
X5170219Y-17393944D01*
X5370219Y-17393944D02*
X5370219Y-17260610D01*
X5370219Y-17298706D02*
X5379743Y-17279658D01*
X5379743Y-17279658D02*
X5389267Y-17270134D01*
X5389267Y-17270134D02*
X5408314Y-17260610D01*
X5408314Y-17260610D02*
X5427362Y-17260610D01*
X5494029Y-17393944D02*
X5494029Y-17260610D01*
X5494029Y-17193944D02*
X5484505Y-17203468D01*
X5484505Y-17203468D02*
X5494029Y-17212991D01*
X5494029Y-17212991D02*
X5503552Y-17203468D01*
X5503552Y-17203468D02*
X5494029Y-17193944D01*
X5494029Y-17193944D02*
X5494029Y-17212991D01*
X5617838Y-17393944D02*
X5598790Y-17384420D01*
X5598790Y-17384420D02*
X5589267Y-17365372D01*
X5589267Y-17365372D02*
X5589267Y-17193944D01*
X5722600Y-17393944D02*
X5703552Y-17384420D01*
X5703552Y-17384420D02*
X5694028Y-17365372D01*
X5694028Y-17365372D02*
X5694028Y-17193944D01*
X5951171Y-17393944D02*
X5951171Y-17193944D01*
X5951171Y-17193944D02*
X6017838Y-17336801D01*
X6017838Y-17336801D02*
X6084505Y-17193944D01*
X6084505Y-17193944D02*
X6084505Y-17393944D01*
X6265457Y-17393944D02*
X6265457Y-17289182D01*
X6265457Y-17289182D02*
X6255933Y-17270134D01*
X6255933Y-17270134D02*
X6236886Y-17260610D01*
X6236886Y-17260610D02*
X6198790Y-17260610D01*
X6198790Y-17260610D02*
X6179743Y-17270134D01*
X6265457Y-17384420D02*
X6246409Y-17393944D01*
X6246409Y-17393944D02*
X6198790Y-17393944D01*
X6198790Y-17393944D02*
X6179743Y-17384420D01*
X6179743Y-17384420D02*
X6170219Y-17365372D01*
X6170219Y-17365372D02*
X6170219Y-17346325D01*
X6170219Y-17346325D02*
X6179743Y-17327277D01*
X6179743Y-17327277D02*
X6198790Y-17317753D01*
X6198790Y-17317753D02*
X6246409Y-17317753D01*
X6246409Y-17317753D02*
X6265457Y-17308230D01*
X6360695Y-17260610D02*
X6360695Y-17460610D01*
X6360695Y-17270134D02*
X6379743Y-17260610D01*
X6379743Y-17260610D02*
X6417838Y-17260610D01*
X6417838Y-17260610D02*
X6436886Y-17270134D01*
X6436886Y-17270134D02*
X6446409Y-17279658D01*
X6446409Y-17279658D02*
X6455933Y-17298706D01*
X6455933Y-17298706D02*
X6455933Y-17355849D01*
X6455933Y-17355849D02*
X6446409Y-17374896D01*
X6446409Y-17374896D02*
X6436886Y-17384420D01*
X6436886Y-17384420D02*
X6417838Y-17393944D01*
X6417838Y-17393944D02*
X6379743Y-17393944D01*
X6379743Y-17393944D02*
X6360695Y-17384420D01*
X6541648Y-17374896D02*
X6551171Y-17384420D01*
X6551171Y-17384420D02*
X6541648Y-17393944D01*
X6541648Y-17393944D02*
X6532124Y-17384420D01*
X6532124Y-17384420D02*
X6541648Y-17374896D01*
X6541648Y-17374896D02*
X6541648Y-17393944D01*
X6541648Y-17270134D02*
X6551171Y-17279658D01*
X6551171Y-17279658D02*
X6541648Y-17289182D01*
X6541648Y-17289182D02*
X6532124Y-17279658D01*
X6532124Y-17279658D02*
X6541648Y-17270134D01*
X6541648Y-17270134D02*
X6541648Y-17289182D01*
D12*
X4892600Y-17706420D02*
X4922600Y-17736420D01*
X4922600Y-17706420D02*
X4892600Y-17736420D01*
D11*
X5208314Y-17613944D02*
X5227362Y-17613944D01*
X5227362Y-17613944D02*
X5246410Y-17623468D01*
X5246410Y-17623468D02*
X5255933Y-17632991D01*
X5255933Y-17632991D02*
X5265457Y-17652039D01*
X5265457Y-17652039D02*
X5274981Y-17690134D01*
X5274981Y-17690134D02*
X5274981Y-17737753D01*
X5274981Y-17737753D02*
X5265457Y-17775849D01*
X5265457Y-17775849D02*
X5255933Y-17794896D01*
X5255933Y-17794896D02*
X5246410Y-17804420D01*
X5246410Y-17804420D02*
X5227362Y-17813944D01*
X5227362Y-17813944D02*
X5208314Y-17813944D01*
X5208314Y-17813944D02*
X5189267Y-17804420D01*
X5189267Y-17804420D02*
X5179743Y-17794896D01*
X5179743Y-17794896D02*
X5170219Y-17775849D01*
X5170219Y-17775849D02*
X5160695Y-17737753D01*
X5160695Y-17737753D02*
X5160695Y-17690134D01*
X5160695Y-17690134D02*
X5170219Y-17652039D01*
X5170219Y-17652039D02*
X5179743Y-17632991D01*
X5179743Y-17632991D02*
X5189267Y-17623468D01*
X5189267Y-17623468D02*
X5208314Y-17613944D01*
X5360695Y-17794896D02*
X5370219Y-17804420D01*
X5370219Y-17804420D02*
X5360695Y-17813944D01*
X5360695Y-17813944D02*
X5351171Y-17804420D01*
X5351171Y-17804420D02*
X5360695Y-17794896D01*
X5360695Y-17794896D02*
X5360695Y-17813944D01*
X5436886Y-17613944D02*
X5560695Y-17613944D01*
X5560695Y-17613944D02*
X5494029Y-17690134D01*
X5494029Y-17690134D02*
X5522600Y-17690134D01*
X5522600Y-17690134D02*
X5541648Y-17699658D01*
X5541648Y-17699658D02*
X5551171Y-17709182D01*
X5551171Y-17709182D02*
X5560695Y-17728230D01*
X5560695Y-17728230D02*
X5560695Y-17775849D01*
X5560695Y-17775849D02*
X5551171Y-17794896D01*
X5551171Y-17794896D02*
X5541648Y-17804420D01*
X5541648Y-17804420D02*
X5522600Y-17813944D01*
X5522600Y-17813944D02*
X5465457Y-17813944D01*
X5465457Y-17813944D02*
X5446410Y-17804420D01*
X5446410Y-17804420D02*
X5436886Y-17794896D01*
X5684505Y-17613944D02*
X5703552Y-17613944D01*
X5703552Y-17613944D02*
X5722600Y-17623468D01*
X5722600Y-17623468D02*
X5732124Y-17632991D01*
X5732124Y-17632991D02*
X5741648Y-17652039D01*
X5741648Y-17652039D02*
X5751171Y-17690134D01*
X5751171Y-17690134D02*
X5751171Y-17737753D01*
X5751171Y-17737753D02*
X5741648Y-17775849D01*
X5741648Y-17775849D02*
X5732124Y-17794896D01*
X5732124Y-17794896D02*
X5722600Y-17804420D01*
X5722600Y-17804420D02*
X5703552Y-17813944D01*
X5703552Y-17813944D02*
X5684505Y-17813944D01*
X5684505Y-17813944D02*
X5665457Y-17804420D01*
X5665457Y-17804420D02*
X5655933Y-17794896D01*
X5655933Y-17794896D02*
X5646409Y-17775849D01*
X5646409Y-17775849D02*
X5636886Y-17737753D01*
X5636886Y-17737753D02*
X5636886Y-17690134D01*
X5636886Y-17690134D02*
X5646409Y-17652039D01*
X5646409Y-17652039D02*
X5655933Y-17632991D01*
X5655933Y-17632991D02*
X5665457Y-17623468D01*
X5665457Y-17623468D02*
X5684505Y-17613944D01*
X5874981Y-17613944D02*
X5894029Y-17613944D01*
X5894029Y-17613944D02*
X5913076Y-17623468D01*
X5913076Y-17623468D02*
X5922600Y-17632991D01*
X5922600Y-17632991D02*
X5932124Y-17652039D01*
X5932124Y-17652039D02*
X5941648Y-17690134D01*
X5941648Y-17690134D02*
X5941648Y-17737753D01*
X5941648Y-17737753D02*
X5932124Y-17775849D01*
X5932124Y-17775849D02*
X5922600Y-17794896D01*
X5922600Y-17794896D02*
X5913076Y-17804420D01*
X5913076Y-17804420D02*
X5894029Y-17813944D01*
X5894029Y-17813944D02*
X5874981Y-17813944D01*
X5874981Y-17813944D02*
X5855933Y-17804420D01*
X5855933Y-17804420D02*
X5846409Y-17794896D01*
X5846409Y-17794896D02*
X5836886Y-17775849D01*
X5836886Y-17775849D02*
X5827362Y-17737753D01*
X5827362Y-17737753D02*
X5827362Y-17690134D01*
X5827362Y-17690134D02*
X5836886Y-17652039D01*
X5836886Y-17652039D02*
X5846409Y-17632991D01*
X5846409Y-17632991D02*
X5855933Y-17623468D01*
X5855933Y-17623468D02*
X5874981Y-17613944D01*
X6027362Y-17813944D02*
X6027362Y-17680610D01*
X6027362Y-17699658D02*
X6036886Y-17690134D01*
X6036886Y-17690134D02*
X6055933Y-17680610D01*
X6055933Y-17680610D02*
X6084505Y-17680610D01*
X6084505Y-17680610D02*
X6103552Y-17690134D01*
X6103552Y-17690134D02*
X6113076Y-17709182D01*
X6113076Y-17709182D02*
X6113076Y-17813944D01*
X6113076Y-17709182D02*
X6122600Y-17690134D01*
X6122600Y-17690134D02*
X6141648Y-17680610D01*
X6141648Y-17680610D02*
X6170219Y-17680610D01*
X6170219Y-17680610D02*
X6189267Y-17690134D01*
X6189267Y-17690134D02*
X6198790Y-17709182D01*
X6198790Y-17709182D02*
X6198790Y-17813944D01*
X6294029Y-17813944D02*
X6294029Y-17680610D01*
X6294029Y-17699658D02*
X6303552Y-17690134D01*
X6303552Y-17690134D02*
X6322600Y-17680610D01*
X6322600Y-17680610D02*
X6351171Y-17680610D01*
X6351171Y-17680610D02*
X6370219Y-17690134D01*
X6370219Y-17690134D02*
X6379743Y-17709182D01*
X6379743Y-17709182D02*
X6379743Y-17813944D01*
X6379743Y-17709182D02*
X6389267Y-17690134D01*
X6389267Y-17690134D02*
X6408314Y-17680610D01*
X6408314Y-17680610D02*
X6436886Y-17680610D01*
X6436886Y-17680610D02*
X6455933Y-17690134D01*
X6455933Y-17690134D02*
X6465457Y-17709182D01*
X6465457Y-17709182D02*
X6465457Y-17813944D01*
X6855933Y-17604420D02*
X6684505Y-17861563D01*
X7113076Y-17613944D02*
X7132124Y-17613944D01*
X7132124Y-17613944D02*
X7151172Y-17623468D01*
X7151172Y-17623468D02*
X7160695Y-17632991D01*
X7160695Y-17632991D02*
X7170219Y-17652039D01*
X7170219Y-17652039D02*
X7179743Y-17690134D01*
X7179743Y-17690134D02*
X7179743Y-17737753D01*
X7179743Y-17737753D02*
X7170219Y-17775849D01*
X7170219Y-17775849D02*
X7160695Y-17794896D01*
X7160695Y-17794896D02*
X7151172Y-17804420D01*
X7151172Y-17804420D02*
X7132124Y-17813944D01*
X7132124Y-17813944D02*
X7113076Y-17813944D01*
X7113076Y-17813944D02*
X7094029Y-17804420D01*
X7094029Y-17804420D02*
X7084505Y-17794896D01*
X7084505Y-17794896D02*
X7074981Y-17775849D01*
X7074981Y-17775849D02*
X7065457Y-17737753D01*
X7065457Y-17737753D02*
X7065457Y-17690134D01*
X7065457Y-17690134D02*
X7074981Y-17652039D01*
X7074981Y-17652039D02*
X7084505Y-17632991D01*
X7084505Y-17632991D02*
X7094029Y-17623468D01*
X7094029Y-17623468D02*
X7113076Y-17613944D01*
X7265457Y-17794896D02*
X7274981Y-17804420D01*
X7274981Y-17804420D02*
X7265457Y-17813944D01*
X7265457Y-17813944D02*
X7255933Y-17804420D01*
X7255933Y-17804420D02*
X7265457Y-17794896D01*
X7265457Y-17794896D02*
X7265457Y-17813944D01*
X7398791Y-17613944D02*
X7417838Y-17613944D01*
X7417838Y-17613944D02*
X7436886Y-17623468D01*
X7436886Y-17623468D02*
X7446410Y-17632991D01*
X7446410Y-17632991D02*
X7455933Y-17652039D01*
X7455933Y-17652039D02*
X7465457Y-17690134D01*
X7465457Y-17690134D02*
X7465457Y-17737753D01*
X7465457Y-17737753D02*
X7455933Y-17775849D01*
X7455933Y-17775849D02*
X7446410Y-17794896D01*
X7446410Y-17794896D02*
X7436886Y-17804420D01*
X7436886Y-17804420D02*
X7417838Y-17813944D01*
X7417838Y-17813944D02*
X7398791Y-17813944D01*
X7398791Y-17813944D02*
X7379743Y-17804420D01*
X7379743Y-17804420D02*
X7370219Y-17794896D01*
X7370219Y-17794896D02*
X7360695Y-17775849D01*
X7360695Y-17775849D02*
X7351172Y-17737753D01*
X7351172Y-17737753D02*
X7351172Y-17690134D01*
X7351172Y-17690134D02*
X7360695Y-17652039D01*
X7360695Y-17652039D02*
X7370219Y-17632991D01*
X7370219Y-17632991D02*
X7379743Y-17623468D01*
X7379743Y-17623468D02*
X7398791Y-17613944D01*
X7655933Y-17813944D02*
X7541648Y-17813944D01*
X7598791Y-17813944D02*
X7598791Y-17613944D01*
X7598791Y-17613944D02*
X7579743Y-17642515D01*
X7579743Y-17642515D02*
X7560695Y-17661563D01*
X7560695Y-17661563D02*
X7541648Y-17671087D01*
X7846410Y-17813944D02*
X7732124Y-17813944D01*
X7789267Y-17813944D02*
X7789267Y-17613944D01*
X7789267Y-17613944D02*
X7770219Y-17642515D01*
X7770219Y-17642515D02*
X7751172Y-17661563D01*
X7751172Y-17661563D02*
X7732124Y-17671087D01*
X7960695Y-17699658D02*
X7941648Y-17690134D01*
X7941648Y-17690134D02*
X7932124Y-17680610D01*
X7932124Y-17680610D02*
X7922600Y-17661563D01*
X7922600Y-17661563D02*
X7922600Y-17652039D01*
X7922600Y-17652039D02*
X7932124Y-17632991D01*
X7932124Y-17632991D02*
X7941648Y-17623468D01*
X7941648Y-17623468D02*
X7960695Y-17613944D01*
X7960695Y-17613944D02*
X7998791Y-17613944D01*
X7998791Y-17613944D02*
X8017838Y-17623468D01*
X8017838Y-17623468D02*
X8027362Y-17632991D01*
X8027362Y-17632991D02*
X8036886Y-17652039D01*
X8036886Y-17652039D02*
X8036886Y-17661563D01*
X8036886Y-17661563D02*
X8027362Y-17680610D01*
X8027362Y-17680610D02*
X8017838Y-17690134D01*
X8017838Y-17690134D02*
X7998791Y-17699658D01*
X7998791Y-17699658D02*
X7960695Y-17699658D01*
X7960695Y-17699658D02*
X7941648Y-17709182D01*
X7941648Y-17709182D02*
X7932124Y-17718706D01*
X7932124Y-17718706D02*
X7922600Y-17737753D01*
X7922600Y-17737753D02*
X7922600Y-17775849D01*
X7922600Y-17775849D02*
X7932124Y-17794896D01*
X7932124Y-17794896D02*
X7941648Y-17804420D01*
X7941648Y-17804420D02*
X7960695Y-17813944D01*
X7960695Y-17813944D02*
X7998791Y-17813944D01*
X7998791Y-17813944D02*
X8017838Y-17804420D01*
X8017838Y-17804420D02*
X8027362Y-17794896D01*
X8027362Y-17794896D02*
X8036886Y-17775849D01*
X8036886Y-17775849D02*
X8036886Y-17737753D01*
X8036886Y-17737753D02*
X8027362Y-17718706D01*
X8027362Y-17718706D02*
X8017838Y-17709182D01*
X8017838Y-17709182D02*
X7998791Y-17699658D01*
X8113076Y-17613944D02*
X8113076Y-17652039D01*
X8189267Y-17613944D02*
X8189267Y-17652039D01*
X8484505Y-17890134D02*
X8474981Y-17880610D01*
X8474981Y-17880610D02*
X8455934Y-17852039D01*
X8455934Y-17852039D02*
X8446410Y-17832991D01*
X8446410Y-17832991D02*
X8436886Y-17804420D01*
X8436886Y-17804420D02*
X8427362Y-17756801D01*
X8427362Y-17756801D02*
X8427362Y-17718706D01*
X8427362Y-17718706D02*
X8436886Y-17671087D01*
X8436886Y-17671087D02*
X8446410Y-17642515D01*
X8446410Y-17642515D02*
X8455934Y-17623468D01*
X8455934Y-17623468D02*
X8474981Y-17594896D01*
X8474981Y-17594896D02*
X8484505Y-17585372D01*
X8665457Y-17813944D02*
X8551172Y-17813944D01*
X8608315Y-17813944D02*
X8608315Y-17613944D01*
X8608315Y-17613944D02*
X8589267Y-17642515D01*
X8589267Y-17642515D02*
X8570219Y-17661563D01*
X8570219Y-17661563D02*
X8551172Y-17671087D01*
X8846410Y-17613944D02*
X8751172Y-17613944D01*
X8751172Y-17613944D02*
X8741648Y-17709182D01*
X8741648Y-17709182D02*
X8751172Y-17699658D01*
X8751172Y-17699658D02*
X8770219Y-17690134D01*
X8770219Y-17690134D02*
X8817838Y-17690134D01*
X8817838Y-17690134D02*
X8836886Y-17699658D01*
X8836886Y-17699658D02*
X8846410Y-17709182D01*
X8846410Y-17709182D02*
X8855934Y-17728230D01*
X8855934Y-17728230D02*
X8855934Y-17775849D01*
X8855934Y-17775849D02*
X8846410Y-17794896D01*
X8846410Y-17794896D02*
X8836886Y-17804420D01*
X8836886Y-17804420D02*
X8817838Y-17813944D01*
X8817838Y-17813944D02*
X8770219Y-17813944D01*
X8770219Y-17813944D02*
X8751172Y-17804420D01*
X8751172Y-17804420D02*
X8741648Y-17794896D01*
X9036886Y-17613944D02*
X8941648Y-17613944D01*
X8941648Y-17613944D02*
X8932124Y-17709182D01*
X8932124Y-17709182D02*
X8941648Y-17699658D01*
X8941648Y-17699658D02*
X8960696Y-17690134D01*
X8960696Y-17690134D02*
X9008315Y-17690134D01*
X9008315Y-17690134D02*
X9027362Y-17699658D01*
X9027362Y-17699658D02*
X9036886Y-17709182D01*
X9036886Y-17709182D02*
X9046410Y-17728230D01*
X9046410Y-17728230D02*
X9046410Y-17775849D01*
X9046410Y-17775849D02*
X9036886Y-17794896D01*
X9036886Y-17794896D02*
X9027362Y-17804420D01*
X9027362Y-17804420D02*
X9008315Y-17813944D01*
X9008315Y-17813944D02*
X8960696Y-17813944D01*
X8960696Y-17813944D02*
X8941648Y-17804420D01*
X8941648Y-17804420D02*
X8932124Y-17794896D01*
X9284505Y-17813944D02*
X9284505Y-17613944D01*
X9370219Y-17813944D02*
X9370219Y-17709182D01*
X9370219Y-17709182D02*
X9360696Y-17690134D01*
X9360696Y-17690134D02*
X9341648Y-17680610D01*
X9341648Y-17680610D02*
X9313077Y-17680610D01*
X9313077Y-17680610D02*
X9294029Y-17690134D01*
X9294029Y-17690134D02*
X9284505Y-17699658D01*
X9494029Y-17813944D02*
X9474981Y-17804420D01*
X9474981Y-17804420D02*
X9465458Y-17794896D01*
X9465458Y-17794896D02*
X9455934Y-17775849D01*
X9455934Y-17775849D02*
X9455934Y-17718706D01*
X9455934Y-17718706D02*
X9465458Y-17699658D01*
X9465458Y-17699658D02*
X9474981Y-17690134D01*
X9474981Y-17690134D02*
X9494029Y-17680610D01*
X9494029Y-17680610D02*
X9522600Y-17680610D01*
X9522600Y-17680610D02*
X9541648Y-17690134D01*
X9541648Y-17690134D02*
X9551172Y-17699658D01*
X9551172Y-17699658D02*
X9560696Y-17718706D01*
X9560696Y-17718706D02*
X9560696Y-17775849D01*
X9560696Y-17775849D02*
X9551172Y-17794896D01*
X9551172Y-17794896D02*
X9541648Y-17804420D01*
X9541648Y-17804420D02*
X9522600Y-17813944D01*
X9522600Y-17813944D02*
X9494029Y-17813944D01*
X9674981Y-17813944D02*
X9655934Y-17804420D01*
X9655934Y-17804420D02*
X9646410Y-17785372D01*
X9646410Y-17785372D02*
X9646410Y-17613944D01*
X9827362Y-17804420D02*
X9808315Y-17813944D01*
X9808315Y-17813944D02*
X9770219Y-17813944D01*
X9770219Y-17813944D02*
X9751172Y-17804420D01*
X9751172Y-17804420D02*
X9741648Y-17785372D01*
X9741648Y-17785372D02*
X9741648Y-17709182D01*
X9741648Y-17709182D02*
X9751172Y-17690134D01*
X9751172Y-17690134D02*
X9770219Y-17680610D01*
X9770219Y-17680610D02*
X9808315Y-17680610D01*
X9808315Y-17680610D02*
X9827362Y-17690134D01*
X9827362Y-17690134D02*
X9836886Y-17709182D01*
X9836886Y-17709182D02*
X9836886Y-17728230D01*
X9836886Y-17728230D02*
X9741648Y-17747277D01*
X9913077Y-17804420D02*
X9932124Y-17813944D01*
X9932124Y-17813944D02*
X9970219Y-17813944D01*
X9970219Y-17813944D02*
X9989267Y-17804420D01*
X9989267Y-17804420D02*
X9998791Y-17785372D01*
X9998791Y-17785372D02*
X9998791Y-17775849D01*
X9998791Y-17775849D02*
X9989267Y-17756801D01*
X9989267Y-17756801D02*
X9970219Y-17747277D01*
X9970219Y-17747277D02*
X9941648Y-17747277D01*
X9941648Y-17747277D02*
X9922600Y-17737753D01*
X9922600Y-17737753D02*
X9913077Y-17718706D01*
X9913077Y-17718706D02*
X9913077Y-17709182D01*
X9913077Y-17709182D02*
X9922600Y-17690134D01*
X9922600Y-17690134D02*
X9941648Y-17680610D01*
X9941648Y-17680610D02*
X9970219Y-17680610D01*
X9970219Y-17680610D02*
X9989267Y-17690134D01*
X10065458Y-17890134D02*
X10074981Y-17880610D01*
X10074981Y-17880610D02*
X10094029Y-17852039D01*
X10094029Y-17852039D02*
X10103553Y-17832991D01*
X10103553Y-17832991D02*
X10113077Y-17804420D01*
X10113077Y-17804420D02*
X10122600Y-17756801D01*
X10122600Y-17756801D02*
X10122600Y-17718706D01*
X10122600Y-17718706D02*
X10113077Y-17671087D01*
X10113077Y-17671087D02*
X10103553Y-17642515D01*
X10103553Y-17642515D02*
X10094029Y-17623468D01*
X10094029Y-17623468D02*
X10074981Y-17594896D01*
X10074981Y-17594896D02*
X10065458Y-17585372D01*
D13*
X4922600Y-17985420D02*
G75*
G03*
X4922600Y-17985420I-30000J0D01*
G01*
D11*
X5208314Y-17877944D02*
X5227362Y-17877944D01*
X5227362Y-17877944D02*
X5246410Y-17887468D01*
X5246410Y-17887468D02*
X5255933Y-17896991D01*
X5255933Y-17896991D02*
X5265457Y-17916039D01*
X5265457Y-17916039D02*
X5274981Y-17954134D01*
X5274981Y-17954134D02*
X5274981Y-18001753D01*
X5274981Y-18001753D02*
X5265457Y-18039849D01*
X5265457Y-18039849D02*
X5255933Y-18058896D01*
X5255933Y-18058896D02*
X5246410Y-18068420D01*
X5246410Y-18068420D02*
X5227362Y-18077944D01*
X5227362Y-18077944D02*
X5208314Y-18077944D01*
X5208314Y-18077944D02*
X5189267Y-18068420D01*
X5189267Y-18068420D02*
X5179743Y-18058896D01*
X5179743Y-18058896D02*
X5170219Y-18039849D01*
X5170219Y-18039849D02*
X5160695Y-18001753D01*
X5160695Y-18001753D02*
X5160695Y-17954134D01*
X5160695Y-17954134D02*
X5170219Y-17916039D01*
X5170219Y-17916039D02*
X5179743Y-17896991D01*
X5179743Y-17896991D02*
X5189267Y-17887468D01*
X5189267Y-17887468D02*
X5208314Y-17877944D01*
X5360695Y-18058896D02*
X5370219Y-18068420D01*
X5370219Y-18068420D02*
X5360695Y-18077944D01*
X5360695Y-18077944D02*
X5351171Y-18068420D01*
X5351171Y-18068420D02*
X5360695Y-18058896D01*
X5360695Y-18058896D02*
X5360695Y-18077944D01*
X5541648Y-17877944D02*
X5503552Y-17877944D01*
X5503552Y-17877944D02*
X5484505Y-17887468D01*
X5484505Y-17887468D02*
X5474981Y-17896991D01*
X5474981Y-17896991D02*
X5455933Y-17925563D01*
X5455933Y-17925563D02*
X5446410Y-17963658D01*
X5446410Y-17963658D02*
X5446410Y-18039849D01*
X5446410Y-18039849D02*
X5455933Y-18058896D01*
X5455933Y-18058896D02*
X5465457Y-18068420D01*
X5465457Y-18068420D02*
X5484505Y-18077944D01*
X5484505Y-18077944D02*
X5522600Y-18077944D01*
X5522600Y-18077944D02*
X5541648Y-18068420D01*
X5541648Y-18068420D02*
X5551171Y-18058896D01*
X5551171Y-18058896D02*
X5560695Y-18039849D01*
X5560695Y-18039849D02*
X5560695Y-17992230D01*
X5560695Y-17992230D02*
X5551171Y-17973182D01*
X5551171Y-17973182D02*
X5541648Y-17963658D01*
X5541648Y-17963658D02*
X5522600Y-17954134D01*
X5522600Y-17954134D02*
X5484505Y-17954134D01*
X5484505Y-17954134D02*
X5465457Y-17963658D01*
X5465457Y-17963658D02*
X5455933Y-17973182D01*
X5455933Y-17973182D02*
X5446410Y-17992230D01*
X5684505Y-17877944D02*
X5703552Y-17877944D01*
X5703552Y-17877944D02*
X5722600Y-17887468D01*
X5722600Y-17887468D02*
X5732124Y-17896991D01*
X5732124Y-17896991D02*
X5741648Y-17916039D01*
X5741648Y-17916039D02*
X5751171Y-17954134D01*
X5751171Y-17954134D02*
X5751171Y-18001753D01*
X5751171Y-18001753D02*
X5741648Y-18039849D01*
X5741648Y-18039849D02*
X5732124Y-18058896D01*
X5732124Y-18058896D02*
X5722600Y-18068420D01*
X5722600Y-18068420D02*
X5703552Y-18077944D01*
X5703552Y-18077944D02*
X5684505Y-18077944D01*
X5684505Y-18077944D02*
X5665457Y-18068420D01*
X5665457Y-18068420D02*
X5655933Y-18058896D01*
X5655933Y-18058896D02*
X5646409Y-18039849D01*
X5646409Y-18039849D02*
X5636886Y-18001753D01*
X5636886Y-18001753D02*
X5636886Y-17954134D01*
X5636886Y-17954134D02*
X5646409Y-17916039D01*
X5646409Y-17916039D02*
X5655933Y-17896991D01*
X5655933Y-17896991D02*
X5665457Y-17887468D01*
X5665457Y-17887468D02*
X5684505Y-17877944D01*
X5874981Y-17877944D02*
X5894029Y-17877944D01*
X5894029Y-17877944D02*
X5913076Y-17887468D01*
X5913076Y-17887468D02*
X5922600Y-17896991D01*
X5922600Y-17896991D02*
X5932124Y-17916039D01*
X5932124Y-17916039D02*
X5941648Y-17954134D01*
X5941648Y-17954134D02*
X5941648Y-18001753D01*
X5941648Y-18001753D02*
X5932124Y-18039849D01*
X5932124Y-18039849D02*
X5922600Y-18058896D01*
X5922600Y-18058896D02*
X5913076Y-18068420D01*
X5913076Y-18068420D02*
X5894029Y-18077944D01*
X5894029Y-18077944D02*
X5874981Y-18077944D01*
X5874981Y-18077944D02*
X5855933Y-18068420D01*
X5855933Y-18068420D02*
X5846409Y-18058896D01*
X5846409Y-18058896D02*
X5836886Y-18039849D01*
X5836886Y-18039849D02*
X5827362Y-18001753D01*
X5827362Y-18001753D02*
X5827362Y-17954134D01*
X5827362Y-17954134D02*
X5836886Y-17916039D01*
X5836886Y-17916039D02*
X5846409Y-17896991D01*
X5846409Y-17896991D02*
X5855933Y-17887468D01*
X5855933Y-17887468D02*
X5874981Y-17877944D01*
X6027362Y-18077944D02*
X6027362Y-17944610D01*
X6027362Y-17963658D02*
X6036886Y-17954134D01*
X6036886Y-17954134D02*
X6055933Y-17944610D01*
X6055933Y-17944610D02*
X6084505Y-17944610D01*
X6084505Y-17944610D02*
X6103552Y-17954134D01*
X6103552Y-17954134D02*
X6113076Y-17973182D01*
X6113076Y-17973182D02*
X6113076Y-18077944D01*
X6113076Y-17973182D02*
X6122600Y-17954134D01*
X6122600Y-17954134D02*
X6141648Y-17944610D01*
X6141648Y-17944610D02*
X6170219Y-17944610D01*
X6170219Y-17944610D02*
X6189267Y-17954134D01*
X6189267Y-17954134D02*
X6198790Y-17973182D01*
X6198790Y-17973182D02*
X6198790Y-18077944D01*
X6294029Y-18077944D02*
X6294029Y-17944610D01*
X6294029Y-17963658D02*
X6303552Y-17954134D01*
X6303552Y-17954134D02*
X6322600Y-17944610D01*
X6322600Y-17944610D02*
X6351171Y-17944610D01*
X6351171Y-17944610D02*
X6370219Y-17954134D01*
X6370219Y-17954134D02*
X6379743Y-17973182D01*
X6379743Y-17973182D02*
X6379743Y-18077944D01*
X6379743Y-17973182D02*
X6389267Y-17954134D01*
X6389267Y-17954134D02*
X6408314Y-17944610D01*
X6408314Y-17944610D02*
X6436886Y-17944610D01*
X6436886Y-17944610D02*
X6455933Y-17954134D01*
X6455933Y-17954134D02*
X6465457Y-17973182D01*
X6465457Y-17973182D02*
X6465457Y-18077944D01*
X6855933Y-17868420D02*
X6684505Y-18125563D01*
X7113076Y-17877944D02*
X7132124Y-17877944D01*
X7132124Y-17877944D02*
X7151172Y-17887468D01*
X7151172Y-17887468D02*
X7160695Y-17896991D01*
X7160695Y-17896991D02*
X7170219Y-17916039D01*
X7170219Y-17916039D02*
X7179743Y-17954134D01*
X7179743Y-17954134D02*
X7179743Y-18001753D01*
X7179743Y-18001753D02*
X7170219Y-18039849D01*
X7170219Y-18039849D02*
X7160695Y-18058896D01*
X7160695Y-18058896D02*
X7151172Y-18068420D01*
X7151172Y-18068420D02*
X7132124Y-18077944D01*
X7132124Y-18077944D02*
X7113076Y-18077944D01*
X7113076Y-18077944D02*
X7094029Y-18068420D01*
X7094029Y-18068420D02*
X7084505Y-18058896D01*
X7084505Y-18058896D02*
X7074981Y-18039849D01*
X7074981Y-18039849D02*
X7065457Y-18001753D01*
X7065457Y-18001753D02*
X7065457Y-17954134D01*
X7065457Y-17954134D02*
X7074981Y-17916039D01*
X7074981Y-17916039D02*
X7084505Y-17896991D01*
X7084505Y-17896991D02*
X7094029Y-17887468D01*
X7094029Y-17887468D02*
X7113076Y-17877944D01*
X7265457Y-18058896D02*
X7274981Y-18068420D01*
X7274981Y-18068420D02*
X7265457Y-18077944D01*
X7265457Y-18077944D02*
X7255933Y-18068420D01*
X7255933Y-18068420D02*
X7265457Y-18058896D01*
X7265457Y-18058896D02*
X7265457Y-18077944D01*
X7398791Y-17877944D02*
X7417838Y-17877944D01*
X7417838Y-17877944D02*
X7436886Y-17887468D01*
X7436886Y-17887468D02*
X7446410Y-17896991D01*
X7446410Y-17896991D02*
X7455933Y-17916039D01*
X7455933Y-17916039D02*
X7465457Y-17954134D01*
X7465457Y-17954134D02*
X7465457Y-18001753D01*
X7465457Y-18001753D02*
X7455933Y-18039849D01*
X7455933Y-18039849D02*
X7446410Y-18058896D01*
X7446410Y-18058896D02*
X7436886Y-18068420D01*
X7436886Y-18068420D02*
X7417838Y-18077944D01*
X7417838Y-18077944D02*
X7398791Y-18077944D01*
X7398791Y-18077944D02*
X7379743Y-18068420D01*
X7379743Y-18068420D02*
X7370219Y-18058896D01*
X7370219Y-18058896D02*
X7360695Y-18039849D01*
X7360695Y-18039849D02*
X7351172Y-18001753D01*
X7351172Y-18001753D02*
X7351172Y-17954134D01*
X7351172Y-17954134D02*
X7360695Y-17916039D01*
X7360695Y-17916039D02*
X7370219Y-17896991D01*
X7370219Y-17896991D02*
X7379743Y-17887468D01*
X7379743Y-17887468D02*
X7398791Y-17877944D01*
X7541648Y-17896991D02*
X7551172Y-17887468D01*
X7551172Y-17887468D02*
X7570219Y-17877944D01*
X7570219Y-17877944D02*
X7617838Y-17877944D01*
X7617838Y-17877944D02*
X7636886Y-17887468D01*
X7636886Y-17887468D02*
X7646410Y-17896991D01*
X7646410Y-17896991D02*
X7655933Y-17916039D01*
X7655933Y-17916039D02*
X7655933Y-17935087D01*
X7655933Y-17935087D02*
X7646410Y-17963658D01*
X7646410Y-17963658D02*
X7532124Y-18077944D01*
X7532124Y-18077944D02*
X7655933Y-18077944D01*
X7722600Y-17877944D02*
X7846410Y-17877944D01*
X7846410Y-17877944D02*
X7779743Y-17954134D01*
X7779743Y-17954134D02*
X7808314Y-17954134D01*
X7808314Y-17954134D02*
X7827362Y-17963658D01*
X7827362Y-17963658D02*
X7836886Y-17973182D01*
X7836886Y-17973182D02*
X7846410Y-17992230D01*
X7846410Y-17992230D02*
X7846410Y-18039849D01*
X7846410Y-18039849D02*
X7836886Y-18058896D01*
X7836886Y-18058896D02*
X7827362Y-18068420D01*
X7827362Y-18068420D02*
X7808314Y-18077944D01*
X7808314Y-18077944D02*
X7751172Y-18077944D01*
X7751172Y-18077944D02*
X7732124Y-18068420D01*
X7732124Y-18068420D02*
X7722600Y-18058896D01*
X8017838Y-17877944D02*
X7979743Y-17877944D01*
X7979743Y-17877944D02*
X7960695Y-17887468D01*
X7960695Y-17887468D02*
X7951172Y-17896991D01*
X7951172Y-17896991D02*
X7932124Y-17925563D01*
X7932124Y-17925563D02*
X7922600Y-17963658D01*
X7922600Y-17963658D02*
X7922600Y-18039849D01*
X7922600Y-18039849D02*
X7932124Y-18058896D01*
X7932124Y-18058896D02*
X7941648Y-18068420D01*
X7941648Y-18068420D02*
X7960695Y-18077944D01*
X7960695Y-18077944D02*
X7998791Y-18077944D01*
X7998791Y-18077944D02*
X8017838Y-18068420D01*
X8017838Y-18068420D02*
X8027362Y-18058896D01*
X8027362Y-18058896D02*
X8036886Y-18039849D01*
X8036886Y-18039849D02*
X8036886Y-17992230D01*
X8036886Y-17992230D02*
X8027362Y-17973182D01*
X8027362Y-17973182D02*
X8017838Y-17963658D01*
X8017838Y-17963658D02*
X7998791Y-17954134D01*
X7998791Y-17954134D02*
X7960695Y-17954134D01*
X7960695Y-17954134D02*
X7941648Y-17963658D01*
X7941648Y-17963658D02*
X7932124Y-17973182D01*
X7932124Y-17973182D02*
X7922600Y-17992230D01*
X8113076Y-17877944D02*
X8113076Y-17916039D01*
X8189267Y-17877944D02*
X8189267Y-17916039D01*
X8484505Y-18154134D02*
X8474981Y-18144610D01*
X8474981Y-18144610D02*
X8455934Y-18116039D01*
X8455934Y-18116039D02*
X8446410Y-18096991D01*
X8446410Y-18096991D02*
X8436886Y-18068420D01*
X8436886Y-18068420D02*
X8427362Y-18020801D01*
X8427362Y-18020801D02*
X8427362Y-17982706D01*
X8427362Y-17982706D02*
X8436886Y-17935087D01*
X8436886Y-17935087D02*
X8446410Y-17906515D01*
X8446410Y-17906515D02*
X8455934Y-17887468D01*
X8455934Y-17887468D02*
X8474981Y-17858896D01*
X8474981Y-17858896D02*
X8484505Y-17849372D01*
X8598791Y-17877944D02*
X8617838Y-17877944D01*
X8617838Y-17877944D02*
X8636886Y-17887468D01*
X8636886Y-17887468D02*
X8646410Y-17896991D01*
X8646410Y-17896991D02*
X8655934Y-17916039D01*
X8655934Y-17916039D02*
X8665457Y-17954134D01*
X8665457Y-17954134D02*
X8665457Y-18001753D01*
X8665457Y-18001753D02*
X8655934Y-18039849D01*
X8655934Y-18039849D02*
X8646410Y-18058896D01*
X8646410Y-18058896D02*
X8636886Y-18068420D01*
X8636886Y-18068420D02*
X8617838Y-18077944D01*
X8617838Y-18077944D02*
X8598791Y-18077944D01*
X8598791Y-18077944D02*
X8579743Y-18068420D01*
X8579743Y-18068420D02*
X8570219Y-18058896D01*
X8570219Y-18058896D02*
X8560696Y-18039849D01*
X8560696Y-18039849D02*
X8551172Y-18001753D01*
X8551172Y-18001753D02*
X8551172Y-17954134D01*
X8551172Y-17954134D02*
X8560696Y-17916039D01*
X8560696Y-17916039D02*
X8570219Y-17896991D01*
X8570219Y-17896991D02*
X8579743Y-17887468D01*
X8579743Y-17887468D02*
X8598791Y-17877944D01*
X8903553Y-18077944D02*
X8903553Y-17877944D01*
X8989267Y-18077944D02*
X8989267Y-17973182D01*
X8989267Y-17973182D02*
X8979743Y-17954134D01*
X8979743Y-17954134D02*
X8960696Y-17944610D01*
X8960696Y-17944610D02*
X8932124Y-17944610D01*
X8932124Y-17944610D02*
X8913077Y-17954134D01*
X8913077Y-17954134D02*
X8903553Y-17963658D01*
X9113077Y-18077944D02*
X9094029Y-18068420D01*
X9094029Y-18068420D02*
X9084505Y-18058896D01*
X9084505Y-18058896D02*
X9074981Y-18039849D01*
X9074981Y-18039849D02*
X9074981Y-17982706D01*
X9074981Y-17982706D02*
X9084505Y-17963658D01*
X9084505Y-17963658D02*
X9094029Y-17954134D01*
X9094029Y-17954134D02*
X9113077Y-17944610D01*
X9113077Y-17944610D02*
X9141648Y-17944610D01*
X9141648Y-17944610D02*
X9160696Y-17954134D01*
X9160696Y-17954134D02*
X9170219Y-17963658D01*
X9170219Y-17963658D02*
X9179743Y-17982706D01*
X9179743Y-17982706D02*
X9179743Y-18039849D01*
X9179743Y-18039849D02*
X9170219Y-18058896D01*
X9170219Y-18058896D02*
X9160696Y-18068420D01*
X9160696Y-18068420D02*
X9141648Y-18077944D01*
X9141648Y-18077944D02*
X9113077Y-18077944D01*
X9294029Y-18077944D02*
X9274981Y-18068420D01*
X9274981Y-18068420D02*
X9265458Y-18049372D01*
X9265458Y-18049372D02*
X9265458Y-17877944D01*
X9446410Y-18068420D02*
X9427362Y-18077944D01*
X9427362Y-18077944D02*
X9389267Y-18077944D01*
X9389267Y-18077944D02*
X9370219Y-18068420D01*
X9370219Y-18068420D02*
X9360696Y-18049372D01*
X9360696Y-18049372D02*
X9360696Y-17973182D01*
X9360696Y-17973182D02*
X9370219Y-17954134D01*
X9370219Y-17954134D02*
X9389267Y-17944610D01*
X9389267Y-17944610D02*
X9427362Y-17944610D01*
X9427362Y-17944610D02*
X9446410Y-17954134D01*
X9446410Y-17954134D02*
X9455934Y-17973182D01*
X9455934Y-17973182D02*
X9455934Y-17992230D01*
X9455934Y-17992230D02*
X9360696Y-18011277D01*
X9532124Y-18068420D02*
X9551172Y-18077944D01*
X9551172Y-18077944D02*
X9589267Y-18077944D01*
X9589267Y-18077944D02*
X9608315Y-18068420D01*
X9608315Y-18068420D02*
X9617839Y-18049372D01*
X9617839Y-18049372D02*
X9617839Y-18039849D01*
X9617839Y-18039849D02*
X9608315Y-18020801D01*
X9608315Y-18020801D02*
X9589267Y-18011277D01*
X9589267Y-18011277D02*
X9560696Y-18011277D01*
X9560696Y-18011277D02*
X9541648Y-18001753D01*
X9541648Y-18001753D02*
X9532124Y-17982706D01*
X9532124Y-17982706D02*
X9532124Y-17973182D01*
X9532124Y-17973182D02*
X9541648Y-17954134D01*
X9541648Y-17954134D02*
X9560696Y-17944610D01*
X9560696Y-17944610D02*
X9589267Y-17944610D01*
X9589267Y-17944610D02*
X9608315Y-17954134D01*
X9855934Y-18001753D02*
X10008315Y-18001753D01*
X9932124Y-18077944D02*
X9932124Y-17925563D01*
X10341648Y-17944610D02*
X10341648Y-18077944D01*
X10294029Y-17868420D02*
X10246410Y-18011277D01*
X10246410Y-18011277D02*
X10370220Y-18011277D01*
X10589267Y-18068420D02*
X10608315Y-18077944D01*
X10608315Y-18077944D02*
X10646410Y-18077944D01*
X10646410Y-18077944D02*
X10665458Y-18068420D01*
X10665458Y-18068420D02*
X10674982Y-18049372D01*
X10674982Y-18049372D02*
X10674982Y-18039849D01*
X10674982Y-18039849D02*
X10665458Y-18020801D01*
X10665458Y-18020801D02*
X10646410Y-18011277D01*
X10646410Y-18011277D02*
X10617839Y-18011277D01*
X10617839Y-18011277D02*
X10598791Y-18001753D01*
X10598791Y-18001753D02*
X10589267Y-17982706D01*
X10589267Y-17982706D02*
X10589267Y-17973182D01*
X10589267Y-17973182D02*
X10598791Y-17954134D01*
X10598791Y-17954134D02*
X10617839Y-17944610D01*
X10617839Y-17944610D02*
X10646410Y-17944610D01*
X10646410Y-17944610D02*
X10665458Y-17954134D01*
X10789267Y-18077944D02*
X10770220Y-18068420D01*
X10770220Y-18068420D02*
X10760696Y-18049372D01*
X10760696Y-18049372D02*
X10760696Y-17877944D01*
X10894029Y-18077944D02*
X10874982Y-18068420D01*
X10874982Y-18068420D02*
X10865458Y-18058896D01*
X10865458Y-18058896D02*
X10855934Y-18039849D01*
X10855934Y-18039849D02*
X10855934Y-17982706D01*
X10855934Y-17982706D02*
X10865458Y-17963658D01*
X10865458Y-17963658D02*
X10874982Y-17954134D01*
X10874982Y-17954134D02*
X10894029Y-17944610D01*
X10894029Y-17944610D02*
X10922601Y-17944610D01*
X10922601Y-17944610D02*
X10941648Y-17954134D01*
X10941648Y-17954134D02*
X10951172Y-17963658D01*
X10951172Y-17963658D02*
X10960696Y-17982706D01*
X10960696Y-17982706D02*
X10960696Y-18039849D01*
X10960696Y-18039849D02*
X10951172Y-18058896D01*
X10951172Y-18058896D02*
X10941648Y-18068420D01*
X10941648Y-18068420D02*
X10922601Y-18077944D01*
X10922601Y-18077944D02*
X10894029Y-18077944D01*
X11017839Y-17944610D02*
X11094029Y-17944610D01*
X11046410Y-17877944D02*
X11046410Y-18049372D01*
X11046410Y-18049372D02*
X11055934Y-18068420D01*
X11055934Y-18068420D02*
X11074982Y-18077944D01*
X11074982Y-18077944D02*
X11094029Y-18077944D01*
X11151172Y-18068420D02*
X11170220Y-18077944D01*
X11170220Y-18077944D02*
X11208315Y-18077944D01*
X11208315Y-18077944D02*
X11227362Y-18068420D01*
X11227362Y-18068420D02*
X11236886Y-18049372D01*
X11236886Y-18049372D02*
X11236886Y-18039849D01*
X11236886Y-18039849D02*
X11227362Y-18020801D01*
X11227362Y-18020801D02*
X11208315Y-18011277D01*
X11208315Y-18011277D02*
X11179743Y-18011277D01*
X11179743Y-18011277D02*
X11160696Y-18001753D01*
X11160696Y-18001753D02*
X11151172Y-17982706D01*
X11151172Y-17982706D02*
X11151172Y-17973182D01*
X11151172Y-17973182D02*
X11160696Y-17954134D01*
X11160696Y-17954134D02*
X11179743Y-17944610D01*
X11179743Y-17944610D02*
X11208315Y-17944610D01*
X11208315Y-17944610D02*
X11227362Y-17954134D01*
X11303553Y-18154134D02*
X11313077Y-18144610D01*
X11313077Y-18144610D02*
X11332124Y-18116039D01*
X11332124Y-18116039D02*
X11341648Y-18096991D01*
X11341648Y-18096991D02*
X11351172Y-18068420D01*
X11351172Y-18068420D02*
X11360696Y-18020801D01*
X11360696Y-18020801D02*
X11360696Y-17982706D01*
X11360696Y-17982706D02*
X11351172Y-17935087D01*
X11351172Y-17935087D02*
X11341648Y-17906515D01*
X11341648Y-17906515D02*
X11332124Y-17887468D01*
X11332124Y-17887468D02*
X11313077Y-17858896D01*
X11313077Y-17858896D02*
X11303553Y-17849372D01*
D14*
X4882600Y-18209420D02*
X4882600Y-18289420D01*
X4842600Y-18249420D02*
X4922600Y-18249420D01*
D11*
X5208314Y-18141944D02*
X5227362Y-18141944D01*
X5227362Y-18141944D02*
X5246410Y-18151468D01*
X5246410Y-18151468D02*
X5255933Y-18160991D01*
X5255933Y-18160991D02*
X5265457Y-18180039D01*
X5265457Y-18180039D02*
X5274981Y-18218134D01*
X5274981Y-18218134D02*
X5274981Y-18265753D01*
X5274981Y-18265753D02*
X5265457Y-18303849D01*
X5265457Y-18303849D02*
X5255933Y-18322896D01*
X5255933Y-18322896D02*
X5246410Y-18332420D01*
X5246410Y-18332420D02*
X5227362Y-18341944D01*
X5227362Y-18341944D02*
X5208314Y-18341944D01*
X5208314Y-18341944D02*
X5189267Y-18332420D01*
X5189267Y-18332420D02*
X5179743Y-18322896D01*
X5179743Y-18322896D02*
X5170219Y-18303849D01*
X5170219Y-18303849D02*
X5160695Y-18265753D01*
X5160695Y-18265753D02*
X5160695Y-18218134D01*
X5160695Y-18218134D02*
X5170219Y-18180039D01*
X5170219Y-18180039D02*
X5179743Y-18160991D01*
X5179743Y-18160991D02*
X5189267Y-18151468D01*
X5189267Y-18151468D02*
X5208314Y-18141944D01*
X5360695Y-18322896D02*
X5370219Y-18332420D01*
X5370219Y-18332420D02*
X5360695Y-18341944D01*
X5360695Y-18341944D02*
X5351171Y-18332420D01*
X5351171Y-18332420D02*
X5360695Y-18322896D01*
X5360695Y-18322896D02*
X5360695Y-18341944D01*
X5484505Y-18227658D02*
X5465457Y-18218134D01*
X5465457Y-18218134D02*
X5455933Y-18208610D01*
X5455933Y-18208610D02*
X5446410Y-18189563D01*
X5446410Y-18189563D02*
X5446410Y-18180039D01*
X5446410Y-18180039D02*
X5455933Y-18160991D01*
X5455933Y-18160991D02*
X5465457Y-18151468D01*
X5465457Y-18151468D02*
X5484505Y-18141944D01*
X5484505Y-18141944D02*
X5522600Y-18141944D01*
X5522600Y-18141944D02*
X5541648Y-18151468D01*
X5541648Y-18151468D02*
X5551171Y-18160991D01*
X5551171Y-18160991D02*
X5560695Y-18180039D01*
X5560695Y-18180039D02*
X5560695Y-18189563D01*
X5560695Y-18189563D02*
X5551171Y-18208610D01*
X5551171Y-18208610D02*
X5541648Y-18218134D01*
X5541648Y-18218134D02*
X5522600Y-18227658D01*
X5522600Y-18227658D02*
X5484505Y-18227658D01*
X5484505Y-18227658D02*
X5465457Y-18237182D01*
X5465457Y-18237182D02*
X5455933Y-18246706D01*
X5455933Y-18246706D02*
X5446410Y-18265753D01*
X5446410Y-18265753D02*
X5446410Y-18303849D01*
X5446410Y-18303849D02*
X5455933Y-18322896D01*
X5455933Y-18322896D02*
X5465457Y-18332420D01*
X5465457Y-18332420D02*
X5484505Y-18341944D01*
X5484505Y-18341944D02*
X5522600Y-18341944D01*
X5522600Y-18341944D02*
X5541648Y-18332420D01*
X5541648Y-18332420D02*
X5551171Y-18322896D01*
X5551171Y-18322896D02*
X5560695Y-18303849D01*
X5560695Y-18303849D02*
X5560695Y-18265753D01*
X5560695Y-18265753D02*
X5551171Y-18246706D01*
X5551171Y-18246706D02*
X5541648Y-18237182D01*
X5541648Y-18237182D02*
X5522600Y-18227658D01*
X5684505Y-18141944D02*
X5703552Y-18141944D01*
X5703552Y-18141944D02*
X5722600Y-18151468D01*
X5722600Y-18151468D02*
X5732124Y-18160991D01*
X5732124Y-18160991D02*
X5741648Y-18180039D01*
X5741648Y-18180039D02*
X5751171Y-18218134D01*
X5751171Y-18218134D02*
X5751171Y-18265753D01*
X5751171Y-18265753D02*
X5741648Y-18303849D01*
X5741648Y-18303849D02*
X5732124Y-18322896D01*
X5732124Y-18322896D02*
X5722600Y-18332420D01*
X5722600Y-18332420D02*
X5703552Y-18341944D01*
X5703552Y-18341944D02*
X5684505Y-18341944D01*
X5684505Y-18341944D02*
X5665457Y-18332420D01*
X5665457Y-18332420D02*
X5655933Y-18322896D01*
X5655933Y-18322896D02*
X5646409Y-18303849D01*
X5646409Y-18303849D02*
X5636886Y-18265753D01*
X5636886Y-18265753D02*
X5636886Y-18218134D01*
X5636886Y-18218134D02*
X5646409Y-18180039D01*
X5646409Y-18180039D02*
X5655933Y-18160991D01*
X5655933Y-18160991D02*
X5665457Y-18151468D01*
X5665457Y-18151468D02*
X5684505Y-18141944D01*
X5874981Y-18141944D02*
X5894029Y-18141944D01*
X5894029Y-18141944D02*
X5913076Y-18151468D01*
X5913076Y-18151468D02*
X5922600Y-18160991D01*
X5922600Y-18160991D02*
X5932124Y-18180039D01*
X5932124Y-18180039D02*
X5941648Y-18218134D01*
X5941648Y-18218134D02*
X5941648Y-18265753D01*
X5941648Y-18265753D02*
X5932124Y-18303849D01*
X5932124Y-18303849D02*
X5922600Y-18322896D01*
X5922600Y-18322896D02*
X5913076Y-18332420D01*
X5913076Y-18332420D02*
X5894029Y-18341944D01*
X5894029Y-18341944D02*
X5874981Y-18341944D01*
X5874981Y-18341944D02*
X5855933Y-18332420D01*
X5855933Y-18332420D02*
X5846409Y-18322896D01*
X5846409Y-18322896D02*
X5836886Y-18303849D01*
X5836886Y-18303849D02*
X5827362Y-18265753D01*
X5827362Y-18265753D02*
X5827362Y-18218134D01*
X5827362Y-18218134D02*
X5836886Y-18180039D01*
X5836886Y-18180039D02*
X5846409Y-18160991D01*
X5846409Y-18160991D02*
X5855933Y-18151468D01*
X5855933Y-18151468D02*
X5874981Y-18141944D01*
X6027362Y-18341944D02*
X6027362Y-18208610D01*
X6027362Y-18227658D02*
X6036886Y-18218134D01*
X6036886Y-18218134D02*
X6055933Y-18208610D01*
X6055933Y-18208610D02*
X6084505Y-18208610D01*
X6084505Y-18208610D02*
X6103552Y-18218134D01*
X6103552Y-18218134D02*
X6113076Y-18237182D01*
X6113076Y-18237182D02*
X6113076Y-18341944D01*
X6113076Y-18237182D02*
X6122600Y-18218134D01*
X6122600Y-18218134D02*
X6141648Y-18208610D01*
X6141648Y-18208610D02*
X6170219Y-18208610D01*
X6170219Y-18208610D02*
X6189267Y-18218134D01*
X6189267Y-18218134D02*
X6198790Y-18237182D01*
X6198790Y-18237182D02*
X6198790Y-18341944D01*
X6294029Y-18341944D02*
X6294029Y-18208610D01*
X6294029Y-18227658D02*
X6303552Y-18218134D01*
X6303552Y-18218134D02*
X6322600Y-18208610D01*
X6322600Y-18208610D02*
X6351171Y-18208610D01*
X6351171Y-18208610D02*
X6370219Y-18218134D01*
X6370219Y-18218134D02*
X6379743Y-18237182D01*
X6379743Y-18237182D02*
X6379743Y-18341944D01*
X6379743Y-18237182D02*
X6389267Y-18218134D01*
X6389267Y-18218134D02*
X6408314Y-18208610D01*
X6408314Y-18208610D02*
X6436886Y-18208610D01*
X6436886Y-18208610D02*
X6455933Y-18218134D01*
X6455933Y-18218134D02*
X6465457Y-18237182D01*
X6465457Y-18237182D02*
X6465457Y-18341944D01*
X6855933Y-18132420D02*
X6684505Y-18389563D01*
X7113076Y-18141944D02*
X7132124Y-18141944D01*
X7132124Y-18141944D02*
X7151172Y-18151468D01*
X7151172Y-18151468D02*
X7160695Y-18160991D01*
X7160695Y-18160991D02*
X7170219Y-18180039D01*
X7170219Y-18180039D02*
X7179743Y-18218134D01*
X7179743Y-18218134D02*
X7179743Y-18265753D01*
X7179743Y-18265753D02*
X7170219Y-18303849D01*
X7170219Y-18303849D02*
X7160695Y-18322896D01*
X7160695Y-18322896D02*
X7151172Y-18332420D01*
X7151172Y-18332420D02*
X7132124Y-18341944D01*
X7132124Y-18341944D02*
X7113076Y-18341944D01*
X7113076Y-18341944D02*
X7094029Y-18332420D01*
X7094029Y-18332420D02*
X7084505Y-18322896D01*
X7084505Y-18322896D02*
X7074981Y-18303849D01*
X7074981Y-18303849D02*
X7065457Y-18265753D01*
X7065457Y-18265753D02*
X7065457Y-18218134D01*
X7065457Y-18218134D02*
X7074981Y-18180039D01*
X7074981Y-18180039D02*
X7084505Y-18160991D01*
X7084505Y-18160991D02*
X7094029Y-18151468D01*
X7094029Y-18151468D02*
X7113076Y-18141944D01*
X7265457Y-18322896D02*
X7274981Y-18332420D01*
X7274981Y-18332420D02*
X7265457Y-18341944D01*
X7265457Y-18341944D02*
X7255933Y-18332420D01*
X7255933Y-18332420D02*
X7265457Y-18322896D01*
X7265457Y-18322896D02*
X7265457Y-18341944D01*
X7398791Y-18141944D02*
X7417838Y-18141944D01*
X7417838Y-18141944D02*
X7436886Y-18151468D01*
X7436886Y-18151468D02*
X7446410Y-18160991D01*
X7446410Y-18160991D02*
X7455933Y-18180039D01*
X7455933Y-18180039D02*
X7465457Y-18218134D01*
X7465457Y-18218134D02*
X7465457Y-18265753D01*
X7465457Y-18265753D02*
X7455933Y-18303849D01*
X7455933Y-18303849D02*
X7446410Y-18322896D01*
X7446410Y-18322896D02*
X7436886Y-18332420D01*
X7436886Y-18332420D02*
X7417838Y-18341944D01*
X7417838Y-18341944D02*
X7398791Y-18341944D01*
X7398791Y-18341944D02*
X7379743Y-18332420D01*
X7379743Y-18332420D02*
X7370219Y-18322896D01*
X7370219Y-18322896D02*
X7360695Y-18303849D01*
X7360695Y-18303849D02*
X7351172Y-18265753D01*
X7351172Y-18265753D02*
X7351172Y-18218134D01*
X7351172Y-18218134D02*
X7360695Y-18180039D01*
X7360695Y-18180039D02*
X7370219Y-18160991D01*
X7370219Y-18160991D02*
X7379743Y-18151468D01*
X7379743Y-18151468D02*
X7398791Y-18141944D01*
X7532124Y-18141944D02*
X7655933Y-18141944D01*
X7655933Y-18141944D02*
X7589267Y-18218134D01*
X7589267Y-18218134D02*
X7617838Y-18218134D01*
X7617838Y-18218134D02*
X7636886Y-18227658D01*
X7636886Y-18227658D02*
X7646410Y-18237182D01*
X7646410Y-18237182D02*
X7655933Y-18256230D01*
X7655933Y-18256230D02*
X7655933Y-18303849D01*
X7655933Y-18303849D02*
X7646410Y-18322896D01*
X7646410Y-18322896D02*
X7636886Y-18332420D01*
X7636886Y-18332420D02*
X7617838Y-18341944D01*
X7617838Y-18341944D02*
X7560695Y-18341944D01*
X7560695Y-18341944D02*
X7541648Y-18332420D01*
X7541648Y-18332420D02*
X7532124Y-18322896D01*
X7846410Y-18341944D02*
X7732124Y-18341944D01*
X7789267Y-18341944D02*
X7789267Y-18141944D01*
X7789267Y-18141944D02*
X7770219Y-18170515D01*
X7770219Y-18170515D02*
X7751172Y-18189563D01*
X7751172Y-18189563D02*
X7732124Y-18199087D01*
X8027362Y-18141944D02*
X7932124Y-18141944D01*
X7932124Y-18141944D02*
X7922600Y-18237182D01*
X7922600Y-18237182D02*
X7932124Y-18227658D01*
X7932124Y-18227658D02*
X7951172Y-18218134D01*
X7951172Y-18218134D02*
X7998791Y-18218134D01*
X7998791Y-18218134D02*
X8017838Y-18227658D01*
X8017838Y-18227658D02*
X8027362Y-18237182D01*
X8027362Y-18237182D02*
X8036886Y-18256230D01*
X8036886Y-18256230D02*
X8036886Y-18303849D01*
X8036886Y-18303849D02*
X8027362Y-18322896D01*
X8027362Y-18322896D02*
X8017838Y-18332420D01*
X8017838Y-18332420D02*
X7998791Y-18341944D01*
X7998791Y-18341944D02*
X7951172Y-18341944D01*
X7951172Y-18341944D02*
X7932124Y-18332420D01*
X7932124Y-18332420D02*
X7922600Y-18322896D01*
X8113076Y-18141944D02*
X8113076Y-18180039D01*
X8189267Y-18141944D02*
X8189267Y-18180039D01*
X8484505Y-18418134D02*
X8474981Y-18408610D01*
X8474981Y-18408610D02*
X8455934Y-18380039D01*
X8455934Y-18380039D02*
X8446410Y-18360991D01*
X8446410Y-18360991D02*
X8436886Y-18332420D01*
X8436886Y-18332420D02*
X8427362Y-18284801D01*
X8427362Y-18284801D02*
X8427362Y-18246706D01*
X8427362Y-18246706D02*
X8436886Y-18199087D01*
X8436886Y-18199087D02*
X8446410Y-18170515D01*
X8446410Y-18170515D02*
X8455934Y-18151468D01*
X8455934Y-18151468D02*
X8474981Y-18122896D01*
X8474981Y-18122896D02*
X8484505Y-18113372D01*
X8541648Y-18141944D02*
X8665457Y-18141944D01*
X8665457Y-18141944D02*
X8598791Y-18218134D01*
X8598791Y-18218134D02*
X8627362Y-18218134D01*
X8627362Y-18218134D02*
X8646410Y-18227658D01*
X8646410Y-18227658D02*
X8655934Y-18237182D01*
X8655934Y-18237182D02*
X8665457Y-18256230D01*
X8665457Y-18256230D02*
X8665457Y-18303849D01*
X8665457Y-18303849D02*
X8655934Y-18322896D01*
X8655934Y-18322896D02*
X8646410Y-18332420D01*
X8646410Y-18332420D02*
X8627362Y-18341944D01*
X8627362Y-18341944D02*
X8570219Y-18341944D01*
X8570219Y-18341944D02*
X8551172Y-18332420D01*
X8551172Y-18332420D02*
X8541648Y-18322896D01*
X8836886Y-18141944D02*
X8798791Y-18141944D01*
X8798791Y-18141944D02*
X8779743Y-18151468D01*
X8779743Y-18151468D02*
X8770219Y-18160991D01*
X8770219Y-18160991D02*
X8751172Y-18189563D01*
X8751172Y-18189563D02*
X8741648Y-18227658D01*
X8741648Y-18227658D02*
X8741648Y-18303849D01*
X8741648Y-18303849D02*
X8751172Y-18322896D01*
X8751172Y-18322896D02*
X8760696Y-18332420D01*
X8760696Y-18332420D02*
X8779743Y-18341944D01*
X8779743Y-18341944D02*
X8817838Y-18341944D01*
X8817838Y-18341944D02*
X8836886Y-18332420D01*
X8836886Y-18332420D02*
X8846410Y-18322896D01*
X8846410Y-18322896D02*
X8855934Y-18303849D01*
X8855934Y-18303849D02*
X8855934Y-18256230D01*
X8855934Y-18256230D02*
X8846410Y-18237182D01*
X8846410Y-18237182D02*
X8836886Y-18227658D01*
X8836886Y-18227658D02*
X8817838Y-18218134D01*
X8817838Y-18218134D02*
X8779743Y-18218134D01*
X8779743Y-18218134D02*
X8760696Y-18227658D01*
X8760696Y-18227658D02*
X8751172Y-18237182D01*
X8751172Y-18237182D02*
X8741648Y-18256230D01*
X9094029Y-18341944D02*
X9094029Y-18141944D01*
X9179743Y-18341944D02*
X9179743Y-18237182D01*
X9179743Y-18237182D02*
X9170219Y-18218134D01*
X9170219Y-18218134D02*
X9151172Y-18208610D01*
X9151172Y-18208610D02*
X9122600Y-18208610D01*
X9122600Y-18208610D02*
X9103553Y-18218134D01*
X9103553Y-18218134D02*
X9094029Y-18227658D01*
X9303553Y-18341944D02*
X9284505Y-18332420D01*
X9284505Y-18332420D02*
X9274981Y-18322896D01*
X9274981Y-18322896D02*
X9265458Y-18303849D01*
X9265458Y-18303849D02*
X9265458Y-18246706D01*
X9265458Y-18246706D02*
X9274981Y-18227658D01*
X9274981Y-18227658D02*
X9284505Y-18218134D01*
X9284505Y-18218134D02*
X9303553Y-18208610D01*
X9303553Y-18208610D02*
X9332124Y-18208610D01*
X9332124Y-18208610D02*
X9351172Y-18218134D01*
X9351172Y-18218134D02*
X9360696Y-18227658D01*
X9360696Y-18227658D02*
X9370219Y-18246706D01*
X9370219Y-18246706D02*
X9370219Y-18303849D01*
X9370219Y-18303849D02*
X9360696Y-18322896D01*
X9360696Y-18322896D02*
X9351172Y-18332420D01*
X9351172Y-18332420D02*
X9332124Y-18341944D01*
X9332124Y-18341944D02*
X9303553Y-18341944D01*
X9484505Y-18341944D02*
X9465458Y-18332420D01*
X9465458Y-18332420D02*
X9455934Y-18313372D01*
X9455934Y-18313372D02*
X9455934Y-18141944D01*
X9636886Y-18332420D02*
X9617839Y-18341944D01*
X9617839Y-18341944D02*
X9579743Y-18341944D01*
X9579743Y-18341944D02*
X9560696Y-18332420D01*
X9560696Y-18332420D02*
X9551172Y-18313372D01*
X9551172Y-18313372D02*
X9551172Y-18237182D01*
X9551172Y-18237182D02*
X9560696Y-18218134D01*
X9560696Y-18218134D02*
X9579743Y-18208610D01*
X9579743Y-18208610D02*
X9617839Y-18208610D01*
X9617839Y-18208610D02*
X9636886Y-18218134D01*
X9636886Y-18218134D02*
X9646410Y-18237182D01*
X9646410Y-18237182D02*
X9646410Y-18256230D01*
X9646410Y-18256230D02*
X9551172Y-18275277D01*
X9722600Y-18332420D02*
X9741648Y-18341944D01*
X9741648Y-18341944D02*
X9779743Y-18341944D01*
X9779743Y-18341944D02*
X9798791Y-18332420D01*
X9798791Y-18332420D02*
X9808315Y-18313372D01*
X9808315Y-18313372D02*
X9808315Y-18303849D01*
X9808315Y-18303849D02*
X9798791Y-18284801D01*
X9798791Y-18284801D02*
X9779743Y-18275277D01*
X9779743Y-18275277D02*
X9751172Y-18275277D01*
X9751172Y-18275277D02*
X9732124Y-18265753D01*
X9732124Y-18265753D02*
X9722600Y-18246706D01*
X9722600Y-18246706D02*
X9722600Y-18237182D01*
X9722600Y-18237182D02*
X9732124Y-18218134D01*
X9732124Y-18218134D02*
X9751172Y-18208610D01*
X9751172Y-18208610D02*
X9779743Y-18208610D01*
X9779743Y-18208610D02*
X9798791Y-18218134D01*
X9874981Y-18418134D02*
X9884505Y-18408610D01*
X9884505Y-18408610D02*
X9903553Y-18380039D01*
X9903553Y-18380039D02*
X9913077Y-18360991D01*
X9913077Y-18360991D02*
X9922600Y-18332420D01*
X9922600Y-18332420D02*
X9932124Y-18284801D01*
X9932124Y-18284801D02*
X9932124Y-18246706D01*
X9932124Y-18246706D02*
X9922600Y-18199087D01*
X9922600Y-18199087D02*
X9913077Y-18170515D01*
X9913077Y-18170515D02*
X9903553Y-18151468D01*
X9903553Y-18151468D02*
X9884505Y-18122896D01*
X9884505Y-18122896D02*
X9874981Y-18113372D01*
D10*
X4907956Y-18548776D02*
X4907956Y-18478064D01*
X4837244Y-18478064D01*
X4837244Y-18548776D01*
X4907956Y-18548776D01*
D11*
X5274981Y-18605944D02*
X5160695Y-18605944D01*
X5217838Y-18605944D02*
X5217838Y-18405944D01*
X5217838Y-18405944D02*
X5198790Y-18434515D01*
X5198790Y-18434515D02*
X5179743Y-18453563D01*
X5179743Y-18453563D02*
X5160695Y-18463087D01*
X5360695Y-18586896D02*
X5370219Y-18596420D01*
X5370219Y-18596420D02*
X5360695Y-18605944D01*
X5360695Y-18605944D02*
X5351171Y-18596420D01*
X5351171Y-18596420D02*
X5360695Y-18586896D01*
X5360695Y-18586896D02*
X5360695Y-18605944D01*
X5494029Y-18405944D02*
X5513076Y-18405944D01*
X5513076Y-18405944D02*
X5532124Y-18415468D01*
X5532124Y-18415468D02*
X5541648Y-18424991D01*
X5541648Y-18424991D02*
X5551171Y-18444039D01*
X5551171Y-18444039D02*
X5560695Y-18482134D01*
X5560695Y-18482134D02*
X5560695Y-18529753D01*
X5560695Y-18529753D02*
X5551171Y-18567849D01*
X5551171Y-18567849D02*
X5541648Y-18586896D01*
X5541648Y-18586896D02*
X5532124Y-18596420D01*
X5532124Y-18596420D02*
X5513076Y-18605944D01*
X5513076Y-18605944D02*
X5494029Y-18605944D01*
X5494029Y-18605944D02*
X5474981Y-18596420D01*
X5474981Y-18596420D02*
X5465457Y-18586896D01*
X5465457Y-18586896D02*
X5455933Y-18567849D01*
X5455933Y-18567849D02*
X5446410Y-18529753D01*
X5446410Y-18529753D02*
X5446410Y-18482134D01*
X5446410Y-18482134D02*
X5455933Y-18444039D01*
X5455933Y-18444039D02*
X5465457Y-18424991D01*
X5465457Y-18424991D02*
X5474981Y-18415468D01*
X5474981Y-18415468D02*
X5494029Y-18405944D01*
X5684505Y-18405944D02*
X5703552Y-18405944D01*
X5703552Y-18405944D02*
X5722600Y-18415468D01*
X5722600Y-18415468D02*
X5732124Y-18424991D01*
X5732124Y-18424991D02*
X5741648Y-18444039D01*
X5741648Y-18444039D02*
X5751171Y-18482134D01*
X5751171Y-18482134D02*
X5751171Y-18529753D01*
X5751171Y-18529753D02*
X5741648Y-18567849D01*
X5741648Y-18567849D02*
X5732124Y-18586896D01*
X5732124Y-18586896D02*
X5722600Y-18596420D01*
X5722600Y-18596420D02*
X5703552Y-18605944D01*
X5703552Y-18605944D02*
X5684505Y-18605944D01*
X5684505Y-18605944D02*
X5665457Y-18596420D01*
X5665457Y-18596420D02*
X5655933Y-18586896D01*
X5655933Y-18586896D02*
X5646409Y-18567849D01*
X5646409Y-18567849D02*
X5636886Y-18529753D01*
X5636886Y-18529753D02*
X5636886Y-18482134D01*
X5636886Y-18482134D02*
X5646409Y-18444039D01*
X5646409Y-18444039D02*
X5655933Y-18424991D01*
X5655933Y-18424991D02*
X5665457Y-18415468D01*
X5665457Y-18415468D02*
X5684505Y-18405944D01*
X5874981Y-18405944D02*
X5894029Y-18405944D01*
X5894029Y-18405944D02*
X5913076Y-18415468D01*
X5913076Y-18415468D02*
X5922600Y-18424991D01*
X5922600Y-18424991D02*
X5932124Y-18444039D01*
X5932124Y-18444039D02*
X5941648Y-18482134D01*
X5941648Y-18482134D02*
X5941648Y-18529753D01*
X5941648Y-18529753D02*
X5932124Y-18567849D01*
X5932124Y-18567849D02*
X5922600Y-18586896D01*
X5922600Y-18586896D02*
X5913076Y-18596420D01*
X5913076Y-18596420D02*
X5894029Y-18605944D01*
X5894029Y-18605944D02*
X5874981Y-18605944D01*
X5874981Y-18605944D02*
X5855933Y-18596420D01*
X5855933Y-18596420D02*
X5846409Y-18586896D01*
X5846409Y-18586896D02*
X5836886Y-18567849D01*
X5836886Y-18567849D02*
X5827362Y-18529753D01*
X5827362Y-18529753D02*
X5827362Y-18482134D01*
X5827362Y-18482134D02*
X5836886Y-18444039D01*
X5836886Y-18444039D02*
X5846409Y-18424991D01*
X5846409Y-18424991D02*
X5855933Y-18415468D01*
X5855933Y-18415468D02*
X5874981Y-18405944D01*
X6027362Y-18605944D02*
X6027362Y-18472610D01*
X6027362Y-18491658D02*
X6036886Y-18482134D01*
X6036886Y-18482134D02*
X6055933Y-18472610D01*
X6055933Y-18472610D02*
X6084505Y-18472610D01*
X6084505Y-18472610D02*
X6103552Y-18482134D01*
X6103552Y-18482134D02*
X6113076Y-18501182D01*
X6113076Y-18501182D02*
X6113076Y-18605944D01*
X6113076Y-18501182D02*
X6122600Y-18482134D01*
X6122600Y-18482134D02*
X6141648Y-18472610D01*
X6141648Y-18472610D02*
X6170219Y-18472610D01*
X6170219Y-18472610D02*
X6189267Y-18482134D01*
X6189267Y-18482134D02*
X6198790Y-18501182D01*
X6198790Y-18501182D02*
X6198790Y-18605944D01*
X6294029Y-18605944D02*
X6294029Y-18472610D01*
X6294029Y-18491658D02*
X6303552Y-18482134D01*
X6303552Y-18482134D02*
X6322600Y-18472610D01*
X6322600Y-18472610D02*
X6351171Y-18472610D01*
X6351171Y-18472610D02*
X6370219Y-18482134D01*
X6370219Y-18482134D02*
X6379743Y-18501182D01*
X6379743Y-18501182D02*
X6379743Y-18605944D01*
X6379743Y-18501182D02*
X6389267Y-18482134D01*
X6389267Y-18482134D02*
X6408314Y-18472610D01*
X6408314Y-18472610D02*
X6436886Y-18472610D01*
X6436886Y-18472610D02*
X6455933Y-18482134D01*
X6455933Y-18482134D02*
X6465457Y-18501182D01*
X6465457Y-18501182D02*
X6465457Y-18605944D01*
X6855933Y-18396420D02*
X6684505Y-18653563D01*
X7113076Y-18405944D02*
X7132124Y-18405944D01*
X7132124Y-18405944D02*
X7151172Y-18415468D01*
X7151172Y-18415468D02*
X7160695Y-18424991D01*
X7160695Y-18424991D02*
X7170219Y-18444039D01*
X7170219Y-18444039D02*
X7179743Y-18482134D01*
X7179743Y-18482134D02*
X7179743Y-18529753D01*
X7179743Y-18529753D02*
X7170219Y-18567849D01*
X7170219Y-18567849D02*
X7160695Y-18586896D01*
X7160695Y-18586896D02*
X7151172Y-18596420D01*
X7151172Y-18596420D02*
X7132124Y-18605944D01*
X7132124Y-18605944D02*
X7113076Y-18605944D01*
X7113076Y-18605944D02*
X7094029Y-18596420D01*
X7094029Y-18596420D02*
X7084505Y-18586896D01*
X7084505Y-18586896D02*
X7074981Y-18567849D01*
X7074981Y-18567849D02*
X7065457Y-18529753D01*
X7065457Y-18529753D02*
X7065457Y-18482134D01*
X7065457Y-18482134D02*
X7074981Y-18444039D01*
X7074981Y-18444039D02*
X7084505Y-18424991D01*
X7084505Y-18424991D02*
X7094029Y-18415468D01*
X7094029Y-18415468D02*
X7113076Y-18405944D01*
X7265457Y-18586896D02*
X7274981Y-18596420D01*
X7274981Y-18596420D02*
X7265457Y-18605944D01*
X7265457Y-18605944D02*
X7255933Y-18596420D01*
X7255933Y-18596420D02*
X7265457Y-18586896D01*
X7265457Y-18586896D02*
X7265457Y-18605944D01*
X7398791Y-18405944D02*
X7417838Y-18405944D01*
X7417838Y-18405944D02*
X7436886Y-18415468D01*
X7436886Y-18415468D02*
X7446410Y-18424991D01*
X7446410Y-18424991D02*
X7455933Y-18444039D01*
X7455933Y-18444039D02*
X7465457Y-18482134D01*
X7465457Y-18482134D02*
X7465457Y-18529753D01*
X7465457Y-18529753D02*
X7455933Y-18567849D01*
X7455933Y-18567849D02*
X7446410Y-18586896D01*
X7446410Y-18586896D02*
X7436886Y-18596420D01*
X7436886Y-18596420D02*
X7417838Y-18605944D01*
X7417838Y-18605944D02*
X7398791Y-18605944D01*
X7398791Y-18605944D02*
X7379743Y-18596420D01*
X7379743Y-18596420D02*
X7370219Y-18586896D01*
X7370219Y-18586896D02*
X7360695Y-18567849D01*
X7360695Y-18567849D02*
X7351172Y-18529753D01*
X7351172Y-18529753D02*
X7351172Y-18482134D01*
X7351172Y-18482134D02*
X7360695Y-18444039D01*
X7360695Y-18444039D02*
X7370219Y-18424991D01*
X7370219Y-18424991D02*
X7379743Y-18415468D01*
X7379743Y-18415468D02*
X7398791Y-18405944D01*
X7532124Y-18405944D02*
X7655933Y-18405944D01*
X7655933Y-18405944D02*
X7589267Y-18482134D01*
X7589267Y-18482134D02*
X7617838Y-18482134D01*
X7617838Y-18482134D02*
X7636886Y-18491658D01*
X7636886Y-18491658D02*
X7646410Y-18501182D01*
X7646410Y-18501182D02*
X7655933Y-18520230D01*
X7655933Y-18520230D02*
X7655933Y-18567849D01*
X7655933Y-18567849D02*
X7646410Y-18586896D01*
X7646410Y-18586896D02*
X7636886Y-18596420D01*
X7636886Y-18596420D02*
X7617838Y-18605944D01*
X7617838Y-18605944D02*
X7560695Y-18605944D01*
X7560695Y-18605944D02*
X7541648Y-18596420D01*
X7541648Y-18596420D02*
X7532124Y-18586896D01*
X7751172Y-18605944D02*
X7789267Y-18605944D01*
X7789267Y-18605944D02*
X7808314Y-18596420D01*
X7808314Y-18596420D02*
X7817838Y-18586896D01*
X7817838Y-18586896D02*
X7836886Y-18558325D01*
X7836886Y-18558325D02*
X7846410Y-18520230D01*
X7846410Y-18520230D02*
X7846410Y-18444039D01*
X7846410Y-18444039D02*
X7836886Y-18424991D01*
X7836886Y-18424991D02*
X7827362Y-18415468D01*
X7827362Y-18415468D02*
X7808314Y-18405944D01*
X7808314Y-18405944D02*
X7770219Y-18405944D01*
X7770219Y-18405944D02*
X7751172Y-18415468D01*
X7751172Y-18415468D02*
X7741648Y-18424991D01*
X7741648Y-18424991D02*
X7732124Y-18444039D01*
X7732124Y-18444039D02*
X7732124Y-18491658D01*
X7732124Y-18491658D02*
X7741648Y-18510706D01*
X7741648Y-18510706D02*
X7751172Y-18520230D01*
X7751172Y-18520230D02*
X7770219Y-18529753D01*
X7770219Y-18529753D02*
X7808314Y-18529753D01*
X7808314Y-18529753D02*
X7827362Y-18520230D01*
X7827362Y-18520230D02*
X7836886Y-18510706D01*
X7836886Y-18510706D02*
X7846410Y-18491658D01*
X8017838Y-18472610D02*
X8017838Y-18605944D01*
X7970219Y-18396420D02*
X7922600Y-18539277D01*
X7922600Y-18539277D02*
X8046410Y-18539277D01*
X8113076Y-18405944D02*
X8113076Y-18444039D01*
X8189267Y-18405944D02*
X8189267Y-18444039D01*
X8484505Y-18682134D02*
X8474981Y-18672610D01*
X8474981Y-18672610D02*
X8455934Y-18644039D01*
X8455934Y-18644039D02*
X8446410Y-18624991D01*
X8446410Y-18624991D02*
X8436886Y-18596420D01*
X8436886Y-18596420D02*
X8427362Y-18548801D01*
X8427362Y-18548801D02*
X8427362Y-18510706D01*
X8427362Y-18510706D02*
X8436886Y-18463087D01*
X8436886Y-18463087D02*
X8446410Y-18434515D01*
X8446410Y-18434515D02*
X8455934Y-18415468D01*
X8455934Y-18415468D02*
X8474981Y-18386896D01*
X8474981Y-18386896D02*
X8484505Y-18377372D01*
X8665457Y-18605944D02*
X8551172Y-18605944D01*
X8608315Y-18605944D02*
X8608315Y-18405944D01*
X8608315Y-18405944D02*
X8589267Y-18434515D01*
X8589267Y-18434515D02*
X8570219Y-18453563D01*
X8570219Y-18453563D02*
X8551172Y-18463087D01*
X8855934Y-18605944D02*
X8741648Y-18605944D01*
X8798791Y-18605944D02*
X8798791Y-18405944D01*
X8798791Y-18405944D02*
X8779743Y-18434515D01*
X8779743Y-18434515D02*
X8760696Y-18453563D01*
X8760696Y-18453563D02*
X8741648Y-18463087D01*
X9094029Y-18605944D02*
X9094029Y-18405944D01*
X9179743Y-18605944D02*
X9179743Y-18501182D01*
X9179743Y-18501182D02*
X9170219Y-18482134D01*
X9170219Y-18482134D02*
X9151172Y-18472610D01*
X9151172Y-18472610D02*
X9122600Y-18472610D01*
X9122600Y-18472610D02*
X9103553Y-18482134D01*
X9103553Y-18482134D02*
X9094029Y-18491658D01*
X9303553Y-18605944D02*
X9284505Y-18596420D01*
X9284505Y-18596420D02*
X9274981Y-18586896D01*
X9274981Y-18586896D02*
X9265458Y-18567849D01*
X9265458Y-18567849D02*
X9265458Y-18510706D01*
X9265458Y-18510706D02*
X9274981Y-18491658D01*
X9274981Y-18491658D02*
X9284505Y-18482134D01*
X9284505Y-18482134D02*
X9303553Y-18472610D01*
X9303553Y-18472610D02*
X9332124Y-18472610D01*
X9332124Y-18472610D02*
X9351172Y-18482134D01*
X9351172Y-18482134D02*
X9360696Y-18491658D01*
X9360696Y-18491658D02*
X9370219Y-18510706D01*
X9370219Y-18510706D02*
X9370219Y-18567849D01*
X9370219Y-18567849D02*
X9360696Y-18586896D01*
X9360696Y-18586896D02*
X9351172Y-18596420D01*
X9351172Y-18596420D02*
X9332124Y-18605944D01*
X9332124Y-18605944D02*
X9303553Y-18605944D01*
X9484505Y-18605944D02*
X9465458Y-18596420D01*
X9465458Y-18596420D02*
X9455934Y-18577372D01*
X9455934Y-18577372D02*
X9455934Y-18405944D01*
X9636886Y-18596420D02*
X9617839Y-18605944D01*
X9617839Y-18605944D02*
X9579743Y-18605944D01*
X9579743Y-18605944D02*
X9560696Y-18596420D01*
X9560696Y-18596420D02*
X9551172Y-18577372D01*
X9551172Y-18577372D02*
X9551172Y-18501182D01*
X9551172Y-18501182D02*
X9560696Y-18482134D01*
X9560696Y-18482134D02*
X9579743Y-18472610D01*
X9579743Y-18472610D02*
X9617839Y-18472610D01*
X9617839Y-18472610D02*
X9636886Y-18482134D01*
X9636886Y-18482134D02*
X9646410Y-18501182D01*
X9646410Y-18501182D02*
X9646410Y-18520230D01*
X9646410Y-18520230D02*
X9551172Y-18539277D01*
X9722600Y-18596420D02*
X9741648Y-18605944D01*
X9741648Y-18605944D02*
X9779743Y-18605944D01*
X9779743Y-18605944D02*
X9798791Y-18596420D01*
X9798791Y-18596420D02*
X9808315Y-18577372D01*
X9808315Y-18577372D02*
X9808315Y-18567849D01*
X9808315Y-18567849D02*
X9798791Y-18548801D01*
X9798791Y-18548801D02*
X9779743Y-18539277D01*
X9779743Y-18539277D02*
X9751172Y-18539277D01*
X9751172Y-18539277D02*
X9732124Y-18529753D01*
X9732124Y-18529753D02*
X9722600Y-18510706D01*
X9722600Y-18510706D02*
X9722600Y-18501182D01*
X9722600Y-18501182D02*
X9732124Y-18482134D01*
X9732124Y-18482134D02*
X9751172Y-18472610D01*
X9751172Y-18472610D02*
X9779743Y-18472610D01*
X9779743Y-18472610D02*
X9798791Y-18482134D01*
X9874981Y-18682134D02*
X9884505Y-18672610D01*
X9884505Y-18672610D02*
X9903553Y-18644039D01*
X9903553Y-18644039D02*
X9913077Y-18624991D01*
X9913077Y-18624991D02*
X9922600Y-18596420D01*
X9922600Y-18596420D02*
X9932124Y-18548801D01*
X9932124Y-18548801D02*
X9932124Y-18510706D01*
X9932124Y-18510706D02*
X9922600Y-18463087D01*
X9922600Y-18463087D02*
X9913077Y-18434515D01*
X9913077Y-18434515D02*
X9903553Y-18415468D01*
X9903553Y-18415468D02*
X9884505Y-18386896D01*
X9884505Y-18386896D02*
X9874981Y-18377372D01*
D15*
X4868100Y-18831920D02*
X4922600Y-18777420D01*
X4868100Y-18722920D01*
X4813600Y-18777420D01*
X4868100Y-18831920D01*
D11*
X5274981Y-18869944D02*
X5160695Y-18869944D01*
X5217838Y-18869944D02*
X5217838Y-18669944D01*
X5217838Y-18669944D02*
X5198790Y-18698515D01*
X5198790Y-18698515D02*
X5179743Y-18717563D01*
X5179743Y-18717563D02*
X5160695Y-18727087D01*
X5360695Y-18850896D02*
X5370219Y-18860420D01*
X5370219Y-18860420D02*
X5360695Y-18869944D01*
X5360695Y-18869944D02*
X5351171Y-18860420D01*
X5351171Y-18860420D02*
X5360695Y-18850896D01*
X5360695Y-18850896D02*
X5360695Y-18869944D01*
X5494029Y-18669944D02*
X5513076Y-18669944D01*
X5513076Y-18669944D02*
X5532124Y-18679468D01*
X5532124Y-18679468D02*
X5541648Y-18688991D01*
X5541648Y-18688991D02*
X5551171Y-18708039D01*
X5551171Y-18708039D02*
X5560695Y-18746134D01*
X5560695Y-18746134D02*
X5560695Y-18793753D01*
X5560695Y-18793753D02*
X5551171Y-18831849D01*
X5551171Y-18831849D02*
X5541648Y-18850896D01*
X5541648Y-18850896D02*
X5532124Y-18860420D01*
X5532124Y-18860420D02*
X5513076Y-18869944D01*
X5513076Y-18869944D02*
X5494029Y-18869944D01*
X5494029Y-18869944D02*
X5474981Y-18860420D01*
X5474981Y-18860420D02*
X5465457Y-18850896D01*
X5465457Y-18850896D02*
X5455933Y-18831849D01*
X5455933Y-18831849D02*
X5446410Y-18793753D01*
X5446410Y-18793753D02*
X5446410Y-18746134D01*
X5446410Y-18746134D02*
X5455933Y-18708039D01*
X5455933Y-18708039D02*
X5465457Y-18688991D01*
X5465457Y-18688991D02*
X5474981Y-18679468D01*
X5474981Y-18679468D02*
X5494029Y-18669944D01*
X5655933Y-18869944D02*
X5694028Y-18869944D01*
X5694028Y-18869944D02*
X5713076Y-18860420D01*
X5713076Y-18860420D02*
X5722600Y-18850896D01*
X5722600Y-18850896D02*
X5741648Y-18822325D01*
X5741648Y-18822325D02*
X5751171Y-18784230D01*
X5751171Y-18784230D02*
X5751171Y-18708039D01*
X5751171Y-18708039D02*
X5741648Y-18688991D01*
X5741648Y-18688991D02*
X5732124Y-18679468D01*
X5732124Y-18679468D02*
X5713076Y-18669944D01*
X5713076Y-18669944D02*
X5674981Y-18669944D01*
X5674981Y-18669944D02*
X5655933Y-18679468D01*
X5655933Y-18679468D02*
X5646409Y-18688991D01*
X5646409Y-18688991D02*
X5636886Y-18708039D01*
X5636886Y-18708039D02*
X5636886Y-18755658D01*
X5636886Y-18755658D02*
X5646409Y-18774706D01*
X5646409Y-18774706D02*
X5655933Y-18784230D01*
X5655933Y-18784230D02*
X5674981Y-18793753D01*
X5674981Y-18793753D02*
X5713076Y-18793753D01*
X5713076Y-18793753D02*
X5732124Y-18784230D01*
X5732124Y-18784230D02*
X5741648Y-18774706D01*
X5741648Y-18774706D02*
X5751171Y-18755658D01*
X5874981Y-18669944D02*
X5894029Y-18669944D01*
X5894029Y-18669944D02*
X5913076Y-18679468D01*
X5913076Y-18679468D02*
X5922600Y-18688991D01*
X5922600Y-18688991D02*
X5932124Y-18708039D01*
X5932124Y-18708039D02*
X5941648Y-18746134D01*
X5941648Y-18746134D02*
X5941648Y-18793753D01*
X5941648Y-18793753D02*
X5932124Y-18831849D01*
X5932124Y-18831849D02*
X5922600Y-18850896D01*
X5922600Y-18850896D02*
X5913076Y-18860420D01*
X5913076Y-18860420D02*
X5894029Y-18869944D01*
X5894029Y-18869944D02*
X5874981Y-18869944D01*
X5874981Y-18869944D02*
X5855933Y-18860420D01*
X5855933Y-18860420D02*
X5846409Y-18850896D01*
X5846409Y-18850896D02*
X5836886Y-18831849D01*
X5836886Y-18831849D02*
X5827362Y-18793753D01*
X5827362Y-18793753D02*
X5827362Y-18746134D01*
X5827362Y-18746134D02*
X5836886Y-18708039D01*
X5836886Y-18708039D02*
X5846409Y-18688991D01*
X5846409Y-18688991D02*
X5855933Y-18679468D01*
X5855933Y-18679468D02*
X5874981Y-18669944D01*
X6027362Y-18869944D02*
X6027362Y-18736610D01*
X6027362Y-18755658D02*
X6036886Y-18746134D01*
X6036886Y-18746134D02*
X6055933Y-18736610D01*
X6055933Y-18736610D02*
X6084505Y-18736610D01*
X6084505Y-18736610D02*
X6103552Y-18746134D01*
X6103552Y-18746134D02*
X6113076Y-18765182D01*
X6113076Y-18765182D02*
X6113076Y-18869944D01*
X6113076Y-18765182D02*
X6122600Y-18746134D01*
X6122600Y-18746134D02*
X6141648Y-18736610D01*
X6141648Y-18736610D02*
X6170219Y-18736610D01*
X6170219Y-18736610D02*
X6189267Y-18746134D01*
X6189267Y-18746134D02*
X6198790Y-18765182D01*
X6198790Y-18765182D02*
X6198790Y-18869944D01*
X6294029Y-18869944D02*
X6294029Y-18736610D01*
X6294029Y-18755658D02*
X6303552Y-18746134D01*
X6303552Y-18746134D02*
X6322600Y-18736610D01*
X6322600Y-18736610D02*
X6351171Y-18736610D01*
X6351171Y-18736610D02*
X6370219Y-18746134D01*
X6370219Y-18746134D02*
X6379743Y-18765182D01*
X6379743Y-18765182D02*
X6379743Y-18869944D01*
X6379743Y-18765182D02*
X6389267Y-18746134D01*
X6389267Y-18746134D02*
X6408314Y-18736610D01*
X6408314Y-18736610D02*
X6436886Y-18736610D01*
X6436886Y-18736610D02*
X6455933Y-18746134D01*
X6455933Y-18746134D02*
X6465457Y-18765182D01*
X6465457Y-18765182D02*
X6465457Y-18869944D01*
X6855933Y-18660420D02*
X6684505Y-18917563D01*
X7113076Y-18669944D02*
X7132124Y-18669944D01*
X7132124Y-18669944D02*
X7151172Y-18679468D01*
X7151172Y-18679468D02*
X7160695Y-18688991D01*
X7160695Y-18688991D02*
X7170219Y-18708039D01*
X7170219Y-18708039D02*
X7179743Y-18746134D01*
X7179743Y-18746134D02*
X7179743Y-18793753D01*
X7179743Y-18793753D02*
X7170219Y-18831849D01*
X7170219Y-18831849D02*
X7160695Y-18850896D01*
X7160695Y-18850896D02*
X7151172Y-18860420D01*
X7151172Y-18860420D02*
X7132124Y-18869944D01*
X7132124Y-18869944D02*
X7113076Y-18869944D01*
X7113076Y-18869944D02*
X7094029Y-18860420D01*
X7094029Y-18860420D02*
X7084505Y-18850896D01*
X7084505Y-18850896D02*
X7074981Y-18831849D01*
X7074981Y-18831849D02*
X7065457Y-18793753D01*
X7065457Y-18793753D02*
X7065457Y-18746134D01*
X7065457Y-18746134D02*
X7074981Y-18708039D01*
X7074981Y-18708039D02*
X7084505Y-18688991D01*
X7084505Y-18688991D02*
X7094029Y-18679468D01*
X7094029Y-18679468D02*
X7113076Y-18669944D01*
X7265457Y-18850896D02*
X7274981Y-18860420D01*
X7274981Y-18860420D02*
X7265457Y-18869944D01*
X7265457Y-18869944D02*
X7255933Y-18860420D01*
X7255933Y-18860420D02*
X7265457Y-18850896D01*
X7265457Y-18850896D02*
X7265457Y-18869944D01*
X7398791Y-18669944D02*
X7417838Y-18669944D01*
X7417838Y-18669944D02*
X7436886Y-18679468D01*
X7436886Y-18679468D02*
X7446410Y-18688991D01*
X7446410Y-18688991D02*
X7455933Y-18708039D01*
X7455933Y-18708039D02*
X7465457Y-18746134D01*
X7465457Y-18746134D02*
X7465457Y-18793753D01*
X7465457Y-18793753D02*
X7455933Y-18831849D01*
X7455933Y-18831849D02*
X7446410Y-18850896D01*
X7446410Y-18850896D02*
X7436886Y-18860420D01*
X7436886Y-18860420D02*
X7417838Y-18869944D01*
X7417838Y-18869944D02*
X7398791Y-18869944D01*
X7398791Y-18869944D02*
X7379743Y-18860420D01*
X7379743Y-18860420D02*
X7370219Y-18850896D01*
X7370219Y-18850896D02*
X7360695Y-18831849D01*
X7360695Y-18831849D02*
X7351172Y-18793753D01*
X7351172Y-18793753D02*
X7351172Y-18746134D01*
X7351172Y-18746134D02*
X7360695Y-18708039D01*
X7360695Y-18708039D02*
X7370219Y-18688991D01*
X7370219Y-18688991D02*
X7379743Y-18679468D01*
X7379743Y-18679468D02*
X7398791Y-18669944D01*
X7636886Y-18736610D02*
X7636886Y-18869944D01*
X7589267Y-18660420D02*
X7541648Y-18803277D01*
X7541648Y-18803277D02*
X7665457Y-18803277D01*
X7732124Y-18688991D02*
X7741648Y-18679468D01*
X7741648Y-18679468D02*
X7760695Y-18669944D01*
X7760695Y-18669944D02*
X7808314Y-18669944D01*
X7808314Y-18669944D02*
X7827362Y-18679468D01*
X7827362Y-18679468D02*
X7836886Y-18688991D01*
X7836886Y-18688991D02*
X7846410Y-18708039D01*
X7846410Y-18708039D02*
X7846410Y-18727087D01*
X7846410Y-18727087D02*
X7836886Y-18755658D01*
X7836886Y-18755658D02*
X7722600Y-18869944D01*
X7722600Y-18869944D02*
X7846410Y-18869944D01*
X7941648Y-18869944D02*
X7979743Y-18869944D01*
X7979743Y-18869944D02*
X7998791Y-18860420D01*
X7998791Y-18860420D02*
X8008314Y-18850896D01*
X8008314Y-18850896D02*
X8027362Y-18822325D01*
X8027362Y-18822325D02*
X8036886Y-18784230D01*
X8036886Y-18784230D02*
X8036886Y-18708039D01*
X8036886Y-18708039D02*
X8027362Y-18688991D01*
X8027362Y-18688991D02*
X8017838Y-18679468D01*
X8017838Y-18679468D02*
X7998791Y-18669944D01*
X7998791Y-18669944D02*
X7960695Y-18669944D01*
X7960695Y-18669944D02*
X7941648Y-18679468D01*
X7941648Y-18679468D02*
X7932124Y-18688991D01*
X7932124Y-18688991D02*
X7922600Y-18708039D01*
X7922600Y-18708039D02*
X7922600Y-18755658D01*
X7922600Y-18755658D02*
X7932124Y-18774706D01*
X7932124Y-18774706D02*
X7941648Y-18784230D01*
X7941648Y-18784230D02*
X7960695Y-18793753D01*
X7960695Y-18793753D02*
X7998791Y-18793753D01*
X7998791Y-18793753D02*
X8017838Y-18784230D01*
X8017838Y-18784230D02*
X8027362Y-18774706D01*
X8027362Y-18774706D02*
X8036886Y-18755658D01*
X8113076Y-18669944D02*
X8113076Y-18708039D01*
X8189267Y-18669944D02*
X8189267Y-18708039D01*
X8484505Y-18946134D02*
X8474981Y-18936610D01*
X8474981Y-18936610D02*
X8455934Y-18908039D01*
X8455934Y-18908039D02*
X8446410Y-18888991D01*
X8446410Y-18888991D02*
X8436886Y-18860420D01*
X8436886Y-18860420D02*
X8427362Y-18812801D01*
X8427362Y-18812801D02*
X8427362Y-18774706D01*
X8427362Y-18774706D02*
X8436886Y-18727087D01*
X8436886Y-18727087D02*
X8446410Y-18698515D01*
X8446410Y-18698515D02*
X8455934Y-18679468D01*
X8455934Y-18679468D02*
X8474981Y-18650896D01*
X8474981Y-18650896D02*
X8484505Y-18641372D01*
X8665457Y-18869944D02*
X8551172Y-18869944D01*
X8608315Y-18869944D02*
X8608315Y-18669944D01*
X8608315Y-18669944D02*
X8589267Y-18698515D01*
X8589267Y-18698515D02*
X8570219Y-18717563D01*
X8570219Y-18717563D02*
X8551172Y-18727087D01*
X8836886Y-18736610D02*
X8836886Y-18869944D01*
X8789267Y-18660420D02*
X8741648Y-18803277D01*
X8741648Y-18803277D02*
X8865457Y-18803277D01*
X9094029Y-18869944D02*
X9094029Y-18669944D01*
X9179743Y-18869944D02*
X9179743Y-18765182D01*
X9179743Y-18765182D02*
X9170219Y-18746134D01*
X9170219Y-18746134D02*
X9151172Y-18736610D01*
X9151172Y-18736610D02*
X9122600Y-18736610D01*
X9122600Y-18736610D02*
X9103553Y-18746134D01*
X9103553Y-18746134D02*
X9094029Y-18755658D01*
X9303553Y-18869944D02*
X9284505Y-18860420D01*
X9284505Y-18860420D02*
X9274981Y-18850896D01*
X9274981Y-18850896D02*
X9265458Y-18831849D01*
X9265458Y-18831849D02*
X9265458Y-18774706D01*
X9265458Y-18774706D02*
X9274981Y-18755658D01*
X9274981Y-18755658D02*
X9284505Y-18746134D01*
X9284505Y-18746134D02*
X9303553Y-18736610D01*
X9303553Y-18736610D02*
X9332124Y-18736610D01*
X9332124Y-18736610D02*
X9351172Y-18746134D01*
X9351172Y-18746134D02*
X9360696Y-18755658D01*
X9360696Y-18755658D02*
X9370219Y-18774706D01*
X9370219Y-18774706D02*
X9370219Y-18831849D01*
X9370219Y-18831849D02*
X9360696Y-18850896D01*
X9360696Y-18850896D02*
X9351172Y-18860420D01*
X9351172Y-18860420D02*
X9332124Y-18869944D01*
X9332124Y-18869944D02*
X9303553Y-18869944D01*
X9484505Y-18869944D02*
X9465458Y-18860420D01*
X9465458Y-18860420D02*
X9455934Y-18841372D01*
X9455934Y-18841372D02*
X9455934Y-18669944D01*
X9636886Y-18860420D02*
X9617839Y-18869944D01*
X9617839Y-18869944D02*
X9579743Y-18869944D01*
X9579743Y-18869944D02*
X9560696Y-18860420D01*
X9560696Y-18860420D02*
X9551172Y-18841372D01*
X9551172Y-18841372D02*
X9551172Y-18765182D01*
X9551172Y-18765182D02*
X9560696Y-18746134D01*
X9560696Y-18746134D02*
X9579743Y-18736610D01*
X9579743Y-18736610D02*
X9617839Y-18736610D01*
X9617839Y-18736610D02*
X9636886Y-18746134D01*
X9636886Y-18746134D02*
X9646410Y-18765182D01*
X9646410Y-18765182D02*
X9646410Y-18784230D01*
X9646410Y-18784230D02*
X9551172Y-18803277D01*
X9722600Y-18860420D02*
X9741648Y-18869944D01*
X9741648Y-18869944D02*
X9779743Y-18869944D01*
X9779743Y-18869944D02*
X9798791Y-18860420D01*
X9798791Y-18860420D02*
X9808315Y-18841372D01*
X9808315Y-18841372D02*
X9808315Y-18831849D01*
X9808315Y-18831849D02*
X9798791Y-18812801D01*
X9798791Y-18812801D02*
X9779743Y-18803277D01*
X9779743Y-18803277D02*
X9751172Y-18803277D01*
X9751172Y-18803277D02*
X9732124Y-18793753D01*
X9732124Y-18793753D02*
X9722600Y-18774706D01*
X9722600Y-18774706D02*
X9722600Y-18765182D01*
X9722600Y-18765182D02*
X9732124Y-18746134D01*
X9732124Y-18746134D02*
X9751172Y-18736610D01*
X9751172Y-18736610D02*
X9779743Y-18736610D01*
X9779743Y-18736610D02*
X9798791Y-18746134D01*
X9874981Y-18946134D02*
X9884505Y-18936610D01*
X9884505Y-18936610D02*
X9903553Y-18908039D01*
X9903553Y-18908039D02*
X9913077Y-18888991D01*
X9913077Y-18888991D02*
X9922600Y-18860420D01*
X9922600Y-18860420D02*
X9932124Y-18812801D01*
X9932124Y-18812801D02*
X9932124Y-18774706D01*
X9932124Y-18774706D02*
X9922600Y-18727087D01*
X9922600Y-18727087D02*
X9913077Y-18698515D01*
X9913077Y-18698515D02*
X9903553Y-18679468D01*
X9903553Y-18679468D02*
X9884505Y-18650896D01*
X9884505Y-18650896D02*
X9874981Y-18641372D01*
D16*
X4752600Y-18956420D02*
X4922600Y-19126420D01*
X4922600Y-18956420D02*
X4752600Y-19126420D01*
X4922600Y-19041420D02*
G75*
G03*
X4922600Y-19041420I-85000J0D01*
G01*
D11*
X5274981Y-19133944D02*
X5160695Y-19133944D01*
X5217838Y-19133944D02*
X5217838Y-18933944D01*
X5217838Y-18933944D02*
X5198790Y-18962515D01*
X5198790Y-18962515D02*
X5179743Y-18981563D01*
X5179743Y-18981563D02*
X5160695Y-18991087D01*
X5360695Y-19114896D02*
X5370219Y-19124420D01*
X5370219Y-19124420D02*
X5360695Y-19133944D01*
X5360695Y-19133944D02*
X5351171Y-19124420D01*
X5351171Y-19124420D02*
X5360695Y-19114896D01*
X5360695Y-19114896D02*
X5360695Y-19133944D01*
X5436886Y-18933944D02*
X5570219Y-18933944D01*
X5570219Y-18933944D02*
X5484505Y-19133944D01*
X5684505Y-18933944D02*
X5703552Y-18933944D01*
X5703552Y-18933944D02*
X5722600Y-18943468D01*
X5722600Y-18943468D02*
X5732124Y-18952991D01*
X5732124Y-18952991D02*
X5741648Y-18972039D01*
X5741648Y-18972039D02*
X5751171Y-19010134D01*
X5751171Y-19010134D02*
X5751171Y-19057753D01*
X5751171Y-19057753D02*
X5741648Y-19095849D01*
X5741648Y-19095849D02*
X5732124Y-19114896D01*
X5732124Y-19114896D02*
X5722600Y-19124420D01*
X5722600Y-19124420D02*
X5703552Y-19133944D01*
X5703552Y-19133944D02*
X5684505Y-19133944D01*
X5684505Y-19133944D02*
X5665457Y-19124420D01*
X5665457Y-19124420D02*
X5655933Y-19114896D01*
X5655933Y-19114896D02*
X5646409Y-19095849D01*
X5646409Y-19095849D02*
X5636886Y-19057753D01*
X5636886Y-19057753D02*
X5636886Y-19010134D01*
X5636886Y-19010134D02*
X5646409Y-18972039D01*
X5646409Y-18972039D02*
X5655933Y-18952991D01*
X5655933Y-18952991D02*
X5665457Y-18943468D01*
X5665457Y-18943468D02*
X5684505Y-18933944D01*
X5874981Y-18933944D02*
X5894029Y-18933944D01*
X5894029Y-18933944D02*
X5913076Y-18943468D01*
X5913076Y-18943468D02*
X5922600Y-18952991D01*
X5922600Y-18952991D02*
X5932124Y-18972039D01*
X5932124Y-18972039D02*
X5941648Y-19010134D01*
X5941648Y-19010134D02*
X5941648Y-19057753D01*
X5941648Y-19057753D02*
X5932124Y-19095849D01*
X5932124Y-19095849D02*
X5922600Y-19114896D01*
X5922600Y-19114896D02*
X5913076Y-19124420D01*
X5913076Y-19124420D02*
X5894029Y-19133944D01*
X5894029Y-19133944D02*
X5874981Y-19133944D01*
X5874981Y-19133944D02*
X5855933Y-19124420D01*
X5855933Y-19124420D02*
X5846409Y-19114896D01*
X5846409Y-19114896D02*
X5836886Y-19095849D01*
X5836886Y-19095849D02*
X5827362Y-19057753D01*
X5827362Y-19057753D02*
X5827362Y-19010134D01*
X5827362Y-19010134D02*
X5836886Y-18972039D01*
X5836886Y-18972039D02*
X5846409Y-18952991D01*
X5846409Y-18952991D02*
X5855933Y-18943468D01*
X5855933Y-18943468D02*
X5874981Y-18933944D01*
X6027362Y-19133944D02*
X6027362Y-19000610D01*
X6027362Y-19019658D02*
X6036886Y-19010134D01*
X6036886Y-19010134D02*
X6055933Y-19000610D01*
X6055933Y-19000610D02*
X6084505Y-19000610D01*
X6084505Y-19000610D02*
X6103552Y-19010134D01*
X6103552Y-19010134D02*
X6113076Y-19029182D01*
X6113076Y-19029182D02*
X6113076Y-19133944D01*
X6113076Y-19029182D02*
X6122600Y-19010134D01*
X6122600Y-19010134D02*
X6141648Y-19000610D01*
X6141648Y-19000610D02*
X6170219Y-19000610D01*
X6170219Y-19000610D02*
X6189267Y-19010134D01*
X6189267Y-19010134D02*
X6198790Y-19029182D01*
X6198790Y-19029182D02*
X6198790Y-19133944D01*
X6294029Y-19133944D02*
X6294029Y-19000610D01*
X6294029Y-19019658D02*
X6303552Y-19010134D01*
X6303552Y-19010134D02*
X6322600Y-19000610D01*
X6322600Y-19000610D02*
X6351171Y-19000610D01*
X6351171Y-19000610D02*
X6370219Y-19010134D01*
X6370219Y-19010134D02*
X6379743Y-19029182D01*
X6379743Y-19029182D02*
X6379743Y-19133944D01*
X6379743Y-19029182D02*
X6389267Y-19010134D01*
X6389267Y-19010134D02*
X6408314Y-19000610D01*
X6408314Y-19000610D02*
X6436886Y-19000610D01*
X6436886Y-19000610D02*
X6455933Y-19010134D01*
X6455933Y-19010134D02*
X6465457Y-19029182D01*
X6465457Y-19029182D02*
X6465457Y-19133944D01*
X6855933Y-18924420D02*
X6684505Y-19181563D01*
X7113076Y-18933944D02*
X7132124Y-18933944D01*
X7132124Y-18933944D02*
X7151172Y-18943468D01*
X7151172Y-18943468D02*
X7160695Y-18952991D01*
X7160695Y-18952991D02*
X7170219Y-18972039D01*
X7170219Y-18972039D02*
X7179743Y-19010134D01*
X7179743Y-19010134D02*
X7179743Y-19057753D01*
X7179743Y-19057753D02*
X7170219Y-19095849D01*
X7170219Y-19095849D02*
X7160695Y-19114896D01*
X7160695Y-19114896D02*
X7151172Y-19124420D01*
X7151172Y-19124420D02*
X7132124Y-19133944D01*
X7132124Y-19133944D02*
X7113076Y-19133944D01*
X7113076Y-19133944D02*
X7094029Y-19124420D01*
X7094029Y-19124420D02*
X7084505Y-19114896D01*
X7084505Y-19114896D02*
X7074981Y-19095849D01*
X7074981Y-19095849D02*
X7065457Y-19057753D01*
X7065457Y-19057753D02*
X7065457Y-19010134D01*
X7065457Y-19010134D02*
X7074981Y-18972039D01*
X7074981Y-18972039D02*
X7084505Y-18952991D01*
X7084505Y-18952991D02*
X7094029Y-18943468D01*
X7094029Y-18943468D02*
X7113076Y-18933944D01*
X7265457Y-19114896D02*
X7274981Y-19124420D01*
X7274981Y-19124420D02*
X7265457Y-19133944D01*
X7265457Y-19133944D02*
X7255933Y-19124420D01*
X7255933Y-19124420D02*
X7265457Y-19114896D01*
X7265457Y-19114896D02*
X7265457Y-19133944D01*
X7398791Y-18933944D02*
X7417838Y-18933944D01*
X7417838Y-18933944D02*
X7436886Y-18943468D01*
X7436886Y-18943468D02*
X7446410Y-18952991D01*
X7446410Y-18952991D02*
X7455933Y-18972039D01*
X7455933Y-18972039D02*
X7465457Y-19010134D01*
X7465457Y-19010134D02*
X7465457Y-19057753D01*
X7465457Y-19057753D02*
X7455933Y-19095849D01*
X7455933Y-19095849D02*
X7446410Y-19114896D01*
X7446410Y-19114896D02*
X7436886Y-19124420D01*
X7436886Y-19124420D02*
X7417838Y-19133944D01*
X7417838Y-19133944D02*
X7398791Y-19133944D01*
X7398791Y-19133944D02*
X7379743Y-19124420D01*
X7379743Y-19124420D02*
X7370219Y-19114896D01*
X7370219Y-19114896D02*
X7360695Y-19095849D01*
X7360695Y-19095849D02*
X7351172Y-19057753D01*
X7351172Y-19057753D02*
X7351172Y-19010134D01*
X7351172Y-19010134D02*
X7360695Y-18972039D01*
X7360695Y-18972039D02*
X7370219Y-18952991D01*
X7370219Y-18952991D02*
X7379743Y-18943468D01*
X7379743Y-18943468D02*
X7398791Y-18933944D01*
X7636886Y-18933944D02*
X7598791Y-18933944D01*
X7598791Y-18933944D02*
X7579743Y-18943468D01*
X7579743Y-18943468D02*
X7570219Y-18952991D01*
X7570219Y-18952991D02*
X7551172Y-18981563D01*
X7551172Y-18981563D02*
X7541648Y-19019658D01*
X7541648Y-19019658D02*
X7541648Y-19095849D01*
X7541648Y-19095849D02*
X7551172Y-19114896D01*
X7551172Y-19114896D02*
X7560695Y-19124420D01*
X7560695Y-19124420D02*
X7579743Y-19133944D01*
X7579743Y-19133944D02*
X7617838Y-19133944D01*
X7617838Y-19133944D02*
X7636886Y-19124420D01*
X7636886Y-19124420D02*
X7646410Y-19114896D01*
X7646410Y-19114896D02*
X7655933Y-19095849D01*
X7655933Y-19095849D02*
X7655933Y-19048230D01*
X7655933Y-19048230D02*
X7646410Y-19029182D01*
X7646410Y-19029182D02*
X7636886Y-19019658D01*
X7636886Y-19019658D02*
X7617838Y-19010134D01*
X7617838Y-19010134D02*
X7579743Y-19010134D01*
X7579743Y-19010134D02*
X7560695Y-19019658D01*
X7560695Y-19019658D02*
X7551172Y-19029182D01*
X7551172Y-19029182D02*
X7541648Y-19048230D01*
X7827362Y-18933944D02*
X7789267Y-18933944D01*
X7789267Y-18933944D02*
X7770219Y-18943468D01*
X7770219Y-18943468D02*
X7760695Y-18952991D01*
X7760695Y-18952991D02*
X7741648Y-18981563D01*
X7741648Y-18981563D02*
X7732124Y-19019658D01*
X7732124Y-19019658D02*
X7732124Y-19095849D01*
X7732124Y-19095849D02*
X7741648Y-19114896D01*
X7741648Y-19114896D02*
X7751172Y-19124420D01*
X7751172Y-19124420D02*
X7770219Y-19133944D01*
X7770219Y-19133944D02*
X7808314Y-19133944D01*
X7808314Y-19133944D02*
X7827362Y-19124420D01*
X7827362Y-19124420D02*
X7836886Y-19114896D01*
X7836886Y-19114896D02*
X7846410Y-19095849D01*
X7846410Y-19095849D02*
X7846410Y-19048230D01*
X7846410Y-19048230D02*
X7836886Y-19029182D01*
X7836886Y-19029182D02*
X7827362Y-19019658D01*
X7827362Y-19019658D02*
X7808314Y-19010134D01*
X7808314Y-19010134D02*
X7770219Y-19010134D01*
X7770219Y-19010134D02*
X7751172Y-19019658D01*
X7751172Y-19019658D02*
X7741648Y-19029182D01*
X7741648Y-19029182D02*
X7732124Y-19048230D01*
X7941648Y-19133944D02*
X7979743Y-19133944D01*
X7979743Y-19133944D02*
X7998791Y-19124420D01*
X7998791Y-19124420D02*
X8008314Y-19114896D01*
X8008314Y-19114896D02*
X8027362Y-19086325D01*
X8027362Y-19086325D02*
X8036886Y-19048230D01*
X8036886Y-19048230D02*
X8036886Y-18972039D01*
X8036886Y-18972039D02*
X8027362Y-18952991D01*
X8027362Y-18952991D02*
X8017838Y-18943468D01*
X8017838Y-18943468D02*
X7998791Y-18933944D01*
X7998791Y-18933944D02*
X7960695Y-18933944D01*
X7960695Y-18933944D02*
X7941648Y-18943468D01*
X7941648Y-18943468D02*
X7932124Y-18952991D01*
X7932124Y-18952991D02*
X7922600Y-18972039D01*
X7922600Y-18972039D02*
X7922600Y-19019658D01*
X7922600Y-19019658D02*
X7932124Y-19038706D01*
X7932124Y-19038706D02*
X7941648Y-19048230D01*
X7941648Y-19048230D02*
X7960695Y-19057753D01*
X7960695Y-19057753D02*
X7998791Y-19057753D01*
X7998791Y-19057753D02*
X8017838Y-19048230D01*
X8017838Y-19048230D02*
X8027362Y-19038706D01*
X8027362Y-19038706D02*
X8036886Y-19019658D01*
X8113076Y-18933944D02*
X8113076Y-18972039D01*
X8189267Y-18933944D02*
X8189267Y-18972039D01*
X8484505Y-19210134D02*
X8474981Y-19200610D01*
X8474981Y-19200610D02*
X8455934Y-19172039D01*
X8455934Y-19172039D02*
X8446410Y-19152991D01*
X8446410Y-19152991D02*
X8436886Y-19124420D01*
X8436886Y-19124420D02*
X8427362Y-19076801D01*
X8427362Y-19076801D02*
X8427362Y-19038706D01*
X8427362Y-19038706D02*
X8436886Y-18991087D01*
X8436886Y-18991087D02*
X8446410Y-18962515D01*
X8446410Y-18962515D02*
X8455934Y-18943468D01*
X8455934Y-18943468D02*
X8474981Y-18914896D01*
X8474981Y-18914896D02*
X8484505Y-18905372D01*
X8589267Y-19019658D02*
X8570219Y-19010134D01*
X8570219Y-19010134D02*
X8560696Y-19000610D01*
X8560696Y-19000610D02*
X8551172Y-18981563D01*
X8551172Y-18981563D02*
X8551172Y-18972039D01*
X8551172Y-18972039D02*
X8560696Y-18952991D01*
X8560696Y-18952991D02*
X8570219Y-18943468D01*
X8570219Y-18943468D02*
X8589267Y-18933944D01*
X8589267Y-18933944D02*
X8627362Y-18933944D01*
X8627362Y-18933944D02*
X8646410Y-18943468D01*
X8646410Y-18943468D02*
X8655934Y-18952991D01*
X8655934Y-18952991D02*
X8665457Y-18972039D01*
X8665457Y-18972039D02*
X8665457Y-18981563D01*
X8665457Y-18981563D02*
X8655934Y-19000610D01*
X8655934Y-19000610D02*
X8646410Y-19010134D01*
X8646410Y-19010134D02*
X8627362Y-19019658D01*
X8627362Y-19019658D02*
X8589267Y-19019658D01*
X8589267Y-19019658D02*
X8570219Y-19029182D01*
X8570219Y-19029182D02*
X8560696Y-19038706D01*
X8560696Y-19038706D02*
X8551172Y-19057753D01*
X8551172Y-19057753D02*
X8551172Y-19095849D01*
X8551172Y-19095849D02*
X8560696Y-19114896D01*
X8560696Y-19114896D02*
X8570219Y-19124420D01*
X8570219Y-19124420D02*
X8589267Y-19133944D01*
X8589267Y-19133944D02*
X8627362Y-19133944D01*
X8627362Y-19133944D02*
X8646410Y-19124420D01*
X8646410Y-19124420D02*
X8655934Y-19114896D01*
X8655934Y-19114896D02*
X8665457Y-19095849D01*
X8665457Y-19095849D02*
X8665457Y-19057753D01*
X8665457Y-19057753D02*
X8655934Y-19038706D01*
X8655934Y-19038706D02*
X8646410Y-19029182D01*
X8646410Y-19029182D02*
X8627362Y-19019658D01*
X8903553Y-19133944D02*
X8903553Y-18933944D01*
X8989267Y-19133944D02*
X8989267Y-19029182D01*
X8989267Y-19029182D02*
X8979743Y-19010134D01*
X8979743Y-19010134D02*
X8960696Y-19000610D01*
X8960696Y-19000610D02*
X8932124Y-19000610D01*
X8932124Y-19000610D02*
X8913077Y-19010134D01*
X8913077Y-19010134D02*
X8903553Y-19019658D01*
X9113077Y-19133944D02*
X9094029Y-19124420D01*
X9094029Y-19124420D02*
X9084505Y-19114896D01*
X9084505Y-19114896D02*
X9074981Y-19095849D01*
X9074981Y-19095849D02*
X9074981Y-19038706D01*
X9074981Y-19038706D02*
X9084505Y-19019658D01*
X9084505Y-19019658D02*
X9094029Y-19010134D01*
X9094029Y-19010134D02*
X9113077Y-19000610D01*
X9113077Y-19000610D02*
X9141648Y-19000610D01*
X9141648Y-19000610D02*
X9160696Y-19010134D01*
X9160696Y-19010134D02*
X9170219Y-19019658D01*
X9170219Y-19019658D02*
X9179743Y-19038706D01*
X9179743Y-19038706D02*
X9179743Y-19095849D01*
X9179743Y-19095849D02*
X9170219Y-19114896D01*
X9170219Y-19114896D02*
X9160696Y-19124420D01*
X9160696Y-19124420D02*
X9141648Y-19133944D01*
X9141648Y-19133944D02*
X9113077Y-19133944D01*
X9294029Y-19133944D02*
X9274981Y-19124420D01*
X9274981Y-19124420D02*
X9265458Y-19105372D01*
X9265458Y-19105372D02*
X9265458Y-18933944D01*
X9446410Y-19124420D02*
X9427362Y-19133944D01*
X9427362Y-19133944D02*
X9389267Y-19133944D01*
X9389267Y-19133944D02*
X9370219Y-19124420D01*
X9370219Y-19124420D02*
X9360696Y-19105372D01*
X9360696Y-19105372D02*
X9360696Y-19029182D01*
X9360696Y-19029182D02*
X9370219Y-19010134D01*
X9370219Y-19010134D02*
X9389267Y-19000610D01*
X9389267Y-19000610D02*
X9427362Y-19000610D01*
X9427362Y-19000610D02*
X9446410Y-19010134D01*
X9446410Y-19010134D02*
X9455934Y-19029182D01*
X9455934Y-19029182D02*
X9455934Y-19048230D01*
X9455934Y-19048230D02*
X9360696Y-19067277D01*
X9532124Y-19124420D02*
X9551172Y-19133944D01*
X9551172Y-19133944D02*
X9589267Y-19133944D01*
X9589267Y-19133944D02*
X9608315Y-19124420D01*
X9608315Y-19124420D02*
X9617839Y-19105372D01*
X9617839Y-19105372D02*
X9617839Y-19095849D01*
X9617839Y-19095849D02*
X9608315Y-19076801D01*
X9608315Y-19076801D02*
X9589267Y-19067277D01*
X9589267Y-19067277D02*
X9560696Y-19067277D01*
X9560696Y-19067277D02*
X9541648Y-19057753D01*
X9541648Y-19057753D02*
X9532124Y-19038706D01*
X9532124Y-19038706D02*
X9532124Y-19029182D01*
X9532124Y-19029182D02*
X9541648Y-19010134D01*
X9541648Y-19010134D02*
X9560696Y-19000610D01*
X9560696Y-19000610D02*
X9589267Y-19000610D01*
X9589267Y-19000610D02*
X9608315Y-19010134D01*
X9684505Y-19210134D02*
X9694029Y-19200610D01*
X9694029Y-19200610D02*
X9713077Y-19172039D01*
X9713077Y-19172039D02*
X9722600Y-19152991D01*
X9722600Y-19152991D02*
X9732124Y-19124420D01*
X9732124Y-19124420D02*
X9741648Y-19076801D01*
X9741648Y-19076801D02*
X9741648Y-19038706D01*
X9741648Y-19038706D02*
X9732124Y-18991087D01*
X9732124Y-18991087D02*
X9722600Y-18962515D01*
X9722600Y-18962515D02*
X9713077Y-18943468D01*
X9713077Y-18943468D02*
X9694029Y-18914896D01*
X9694029Y-18914896D02*
X9684505Y-18905372D01*
D17*
X4857600Y-19298920D02*
X4922600Y-19363920D01*
X4922600Y-19298920D02*
X4857600Y-19363920D01*
X4890100Y-19298920D02*
X4890100Y-19363920D01*
X4857600Y-19331420D02*
X4922600Y-19331420D01*
D11*
X5208314Y-19223944D02*
X5227362Y-19223944D01*
X5227362Y-19223944D02*
X5246410Y-19233468D01*
X5246410Y-19233468D02*
X5255933Y-19242991D01*
X5255933Y-19242991D02*
X5265457Y-19262039D01*
X5265457Y-19262039D02*
X5274981Y-19300134D01*
X5274981Y-19300134D02*
X5274981Y-19347753D01*
X5274981Y-19347753D02*
X5265457Y-19385849D01*
X5265457Y-19385849D02*
X5255933Y-19404896D01*
X5255933Y-19404896D02*
X5246410Y-19414420D01*
X5246410Y-19414420D02*
X5227362Y-19423944D01*
X5227362Y-19423944D02*
X5208314Y-19423944D01*
X5208314Y-19423944D02*
X5189267Y-19414420D01*
X5189267Y-19414420D02*
X5179743Y-19404896D01*
X5179743Y-19404896D02*
X5170219Y-19385849D01*
X5170219Y-19385849D02*
X5160695Y-19347753D01*
X5160695Y-19347753D02*
X5160695Y-19300134D01*
X5160695Y-19300134D02*
X5170219Y-19262039D01*
X5170219Y-19262039D02*
X5179743Y-19242991D01*
X5179743Y-19242991D02*
X5189267Y-19233468D01*
X5189267Y-19233468D02*
X5208314Y-19223944D01*
X5360695Y-19404896D02*
X5370219Y-19414420D01*
X5370219Y-19414420D02*
X5360695Y-19423944D01*
X5360695Y-19423944D02*
X5351171Y-19414420D01*
X5351171Y-19414420D02*
X5360695Y-19404896D01*
X5360695Y-19404896D02*
X5360695Y-19423944D01*
X5541648Y-19223944D02*
X5503552Y-19223944D01*
X5503552Y-19223944D02*
X5484505Y-19233468D01*
X5484505Y-19233468D02*
X5474981Y-19242991D01*
X5474981Y-19242991D02*
X5455933Y-19271563D01*
X5455933Y-19271563D02*
X5446410Y-19309658D01*
X5446410Y-19309658D02*
X5446410Y-19385849D01*
X5446410Y-19385849D02*
X5455933Y-19404896D01*
X5455933Y-19404896D02*
X5465457Y-19414420D01*
X5465457Y-19414420D02*
X5484505Y-19423944D01*
X5484505Y-19423944D02*
X5522600Y-19423944D01*
X5522600Y-19423944D02*
X5541648Y-19414420D01*
X5541648Y-19414420D02*
X5551171Y-19404896D01*
X5551171Y-19404896D02*
X5560695Y-19385849D01*
X5560695Y-19385849D02*
X5560695Y-19338230D01*
X5560695Y-19338230D02*
X5551171Y-19319182D01*
X5551171Y-19319182D02*
X5541648Y-19309658D01*
X5541648Y-19309658D02*
X5522600Y-19300134D01*
X5522600Y-19300134D02*
X5484505Y-19300134D01*
X5484505Y-19300134D02*
X5465457Y-19309658D01*
X5465457Y-19309658D02*
X5455933Y-19319182D01*
X5455933Y-19319182D02*
X5446410Y-19338230D01*
X5741648Y-19223944D02*
X5646409Y-19223944D01*
X5646409Y-19223944D02*
X5636886Y-19319182D01*
X5636886Y-19319182D02*
X5646409Y-19309658D01*
X5646409Y-19309658D02*
X5665457Y-19300134D01*
X5665457Y-19300134D02*
X5713076Y-19300134D01*
X5713076Y-19300134D02*
X5732124Y-19309658D01*
X5732124Y-19309658D02*
X5741648Y-19319182D01*
X5741648Y-19319182D02*
X5751171Y-19338230D01*
X5751171Y-19338230D02*
X5751171Y-19385849D01*
X5751171Y-19385849D02*
X5741648Y-19404896D01*
X5741648Y-19404896D02*
X5732124Y-19414420D01*
X5732124Y-19414420D02*
X5713076Y-19423944D01*
X5713076Y-19423944D02*
X5665457Y-19423944D01*
X5665457Y-19423944D02*
X5646409Y-19414420D01*
X5646409Y-19414420D02*
X5636886Y-19404896D01*
X5874981Y-19223944D02*
X5894029Y-19223944D01*
X5894029Y-19223944D02*
X5913076Y-19233468D01*
X5913076Y-19233468D02*
X5922600Y-19242991D01*
X5922600Y-19242991D02*
X5932124Y-19262039D01*
X5932124Y-19262039D02*
X5941648Y-19300134D01*
X5941648Y-19300134D02*
X5941648Y-19347753D01*
X5941648Y-19347753D02*
X5932124Y-19385849D01*
X5932124Y-19385849D02*
X5922600Y-19404896D01*
X5922600Y-19404896D02*
X5913076Y-19414420D01*
X5913076Y-19414420D02*
X5894029Y-19423944D01*
X5894029Y-19423944D02*
X5874981Y-19423944D01*
X5874981Y-19423944D02*
X5855933Y-19414420D01*
X5855933Y-19414420D02*
X5846409Y-19404896D01*
X5846409Y-19404896D02*
X5836886Y-19385849D01*
X5836886Y-19385849D02*
X5827362Y-19347753D01*
X5827362Y-19347753D02*
X5827362Y-19300134D01*
X5827362Y-19300134D02*
X5836886Y-19262039D01*
X5836886Y-19262039D02*
X5846409Y-19242991D01*
X5846409Y-19242991D02*
X5855933Y-19233468D01*
X5855933Y-19233468D02*
X5874981Y-19223944D01*
X6027362Y-19423944D02*
X6027362Y-19290610D01*
X6027362Y-19309658D02*
X6036886Y-19300134D01*
X6036886Y-19300134D02*
X6055933Y-19290610D01*
X6055933Y-19290610D02*
X6084505Y-19290610D01*
X6084505Y-19290610D02*
X6103552Y-19300134D01*
X6103552Y-19300134D02*
X6113076Y-19319182D01*
X6113076Y-19319182D02*
X6113076Y-19423944D01*
X6113076Y-19319182D02*
X6122600Y-19300134D01*
X6122600Y-19300134D02*
X6141648Y-19290610D01*
X6141648Y-19290610D02*
X6170219Y-19290610D01*
X6170219Y-19290610D02*
X6189267Y-19300134D01*
X6189267Y-19300134D02*
X6198790Y-19319182D01*
X6198790Y-19319182D02*
X6198790Y-19423944D01*
X6294029Y-19423944D02*
X6294029Y-19290610D01*
X6294029Y-19309658D02*
X6303552Y-19300134D01*
X6303552Y-19300134D02*
X6322600Y-19290610D01*
X6322600Y-19290610D02*
X6351171Y-19290610D01*
X6351171Y-19290610D02*
X6370219Y-19300134D01*
X6370219Y-19300134D02*
X6379743Y-19319182D01*
X6379743Y-19319182D02*
X6379743Y-19423944D01*
X6379743Y-19319182D02*
X6389267Y-19300134D01*
X6389267Y-19300134D02*
X6408314Y-19290610D01*
X6408314Y-19290610D02*
X6436886Y-19290610D01*
X6436886Y-19290610D02*
X6455933Y-19300134D01*
X6455933Y-19300134D02*
X6465457Y-19319182D01*
X6465457Y-19319182D02*
X6465457Y-19423944D01*
X6855933Y-19214420D02*
X6684505Y-19471563D01*
X7113076Y-19223944D02*
X7132124Y-19223944D01*
X7132124Y-19223944D02*
X7151172Y-19233468D01*
X7151172Y-19233468D02*
X7160695Y-19242991D01*
X7160695Y-19242991D02*
X7170219Y-19262039D01*
X7170219Y-19262039D02*
X7179743Y-19300134D01*
X7179743Y-19300134D02*
X7179743Y-19347753D01*
X7179743Y-19347753D02*
X7170219Y-19385849D01*
X7170219Y-19385849D02*
X7160695Y-19404896D01*
X7160695Y-19404896D02*
X7151172Y-19414420D01*
X7151172Y-19414420D02*
X7132124Y-19423944D01*
X7132124Y-19423944D02*
X7113076Y-19423944D01*
X7113076Y-19423944D02*
X7094029Y-19414420D01*
X7094029Y-19414420D02*
X7084505Y-19404896D01*
X7084505Y-19404896D02*
X7074981Y-19385849D01*
X7074981Y-19385849D02*
X7065457Y-19347753D01*
X7065457Y-19347753D02*
X7065457Y-19300134D01*
X7065457Y-19300134D02*
X7074981Y-19262039D01*
X7074981Y-19262039D02*
X7084505Y-19242991D01*
X7084505Y-19242991D02*
X7094029Y-19233468D01*
X7094029Y-19233468D02*
X7113076Y-19223944D01*
X7265457Y-19404896D02*
X7274981Y-19414420D01*
X7274981Y-19414420D02*
X7265457Y-19423944D01*
X7265457Y-19423944D02*
X7255933Y-19414420D01*
X7255933Y-19414420D02*
X7265457Y-19404896D01*
X7265457Y-19404896D02*
X7265457Y-19423944D01*
X7398791Y-19223944D02*
X7417838Y-19223944D01*
X7417838Y-19223944D02*
X7436886Y-19233468D01*
X7436886Y-19233468D02*
X7446410Y-19242991D01*
X7446410Y-19242991D02*
X7455933Y-19262039D01*
X7455933Y-19262039D02*
X7465457Y-19300134D01*
X7465457Y-19300134D02*
X7465457Y-19347753D01*
X7465457Y-19347753D02*
X7455933Y-19385849D01*
X7455933Y-19385849D02*
X7446410Y-19404896D01*
X7446410Y-19404896D02*
X7436886Y-19414420D01*
X7436886Y-19414420D02*
X7417838Y-19423944D01*
X7417838Y-19423944D02*
X7398791Y-19423944D01*
X7398791Y-19423944D02*
X7379743Y-19414420D01*
X7379743Y-19414420D02*
X7370219Y-19404896D01*
X7370219Y-19404896D02*
X7360695Y-19385849D01*
X7360695Y-19385849D02*
X7351172Y-19347753D01*
X7351172Y-19347753D02*
X7351172Y-19300134D01*
X7351172Y-19300134D02*
X7360695Y-19262039D01*
X7360695Y-19262039D02*
X7370219Y-19242991D01*
X7370219Y-19242991D02*
X7379743Y-19233468D01*
X7379743Y-19233468D02*
X7398791Y-19223944D01*
X7541648Y-19242991D02*
X7551172Y-19233468D01*
X7551172Y-19233468D02*
X7570219Y-19223944D01*
X7570219Y-19223944D02*
X7617838Y-19223944D01*
X7617838Y-19223944D02*
X7636886Y-19233468D01*
X7636886Y-19233468D02*
X7646410Y-19242991D01*
X7646410Y-19242991D02*
X7655933Y-19262039D01*
X7655933Y-19262039D02*
X7655933Y-19281087D01*
X7655933Y-19281087D02*
X7646410Y-19309658D01*
X7646410Y-19309658D02*
X7532124Y-19423944D01*
X7532124Y-19423944D02*
X7655933Y-19423944D01*
X7836886Y-19223944D02*
X7741648Y-19223944D01*
X7741648Y-19223944D02*
X7732124Y-19319182D01*
X7732124Y-19319182D02*
X7741648Y-19309658D01*
X7741648Y-19309658D02*
X7760695Y-19300134D01*
X7760695Y-19300134D02*
X7808314Y-19300134D01*
X7808314Y-19300134D02*
X7827362Y-19309658D01*
X7827362Y-19309658D02*
X7836886Y-19319182D01*
X7836886Y-19319182D02*
X7846410Y-19338230D01*
X7846410Y-19338230D02*
X7846410Y-19385849D01*
X7846410Y-19385849D02*
X7836886Y-19404896D01*
X7836886Y-19404896D02*
X7827362Y-19414420D01*
X7827362Y-19414420D02*
X7808314Y-19423944D01*
X7808314Y-19423944D02*
X7760695Y-19423944D01*
X7760695Y-19423944D02*
X7741648Y-19414420D01*
X7741648Y-19414420D02*
X7732124Y-19404896D01*
X8017838Y-19223944D02*
X7979743Y-19223944D01*
X7979743Y-19223944D02*
X7960695Y-19233468D01*
X7960695Y-19233468D02*
X7951172Y-19242991D01*
X7951172Y-19242991D02*
X7932124Y-19271563D01*
X7932124Y-19271563D02*
X7922600Y-19309658D01*
X7922600Y-19309658D02*
X7922600Y-19385849D01*
X7922600Y-19385849D02*
X7932124Y-19404896D01*
X7932124Y-19404896D02*
X7941648Y-19414420D01*
X7941648Y-19414420D02*
X7960695Y-19423944D01*
X7960695Y-19423944D02*
X7998791Y-19423944D01*
X7998791Y-19423944D02*
X8017838Y-19414420D01*
X8017838Y-19414420D02*
X8027362Y-19404896D01*
X8027362Y-19404896D02*
X8036886Y-19385849D01*
X8036886Y-19385849D02*
X8036886Y-19338230D01*
X8036886Y-19338230D02*
X8027362Y-19319182D01*
X8027362Y-19319182D02*
X8017838Y-19309658D01*
X8017838Y-19309658D02*
X7998791Y-19300134D01*
X7998791Y-19300134D02*
X7960695Y-19300134D01*
X7960695Y-19300134D02*
X7941648Y-19309658D01*
X7941648Y-19309658D02*
X7932124Y-19319182D01*
X7932124Y-19319182D02*
X7922600Y-19338230D01*
X8113076Y-19223944D02*
X8113076Y-19262039D01*
X8189267Y-19223944D02*
X8189267Y-19262039D01*
X8484505Y-19500134D02*
X8474981Y-19490610D01*
X8474981Y-19490610D02*
X8455934Y-19462039D01*
X8455934Y-19462039D02*
X8446410Y-19442991D01*
X8446410Y-19442991D02*
X8436886Y-19414420D01*
X8436886Y-19414420D02*
X8427362Y-19366801D01*
X8427362Y-19366801D02*
X8427362Y-19328706D01*
X8427362Y-19328706D02*
X8436886Y-19281087D01*
X8436886Y-19281087D02*
X8446410Y-19252515D01*
X8446410Y-19252515D02*
X8455934Y-19233468D01*
X8455934Y-19233468D02*
X8474981Y-19204896D01*
X8474981Y-19204896D02*
X8484505Y-19195372D01*
X8551172Y-19242991D02*
X8560696Y-19233468D01*
X8560696Y-19233468D02*
X8579743Y-19223944D01*
X8579743Y-19223944D02*
X8627362Y-19223944D01*
X8627362Y-19223944D02*
X8646410Y-19233468D01*
X8646410Y-19233468D02*
X8655934Y-19242991D01*
X8655934Y-19242991D02*
X8665457Y-19262039D01*
X8665457Y-19262039D02*
X8665457Y-19281087D01*
X8665457Y-19281087D02*
X8655934Y-19309658D01*
X8655934Y-19309658D02*
X8541648Y-19423944D01*
X8541648Y-19423944D02*
X8665457Y-19423944D01*
X8903553Y-19423944D02*
X8903553Y-19223944D01*
X8989267Y-19423944D02*
X8989267Y-19319182D01*
X8989267Y-19319182D02*
X8979743Y-19300134D01*
X8979743Y-19300134D02*
X8960696Y-19290610D01*
X8960696Y-19290610D02*
X8932124Y-19290610D01*
X8932124Y-19290610D02*
X8913077Y-19300134D01*
X8913077Y-19300134D02*
X8903553Y-19309658D01*
X9113077Y-19423944D02*
X9094029Y-19414420D01*
X9094029Y-19414420D02*
X9084505Y-19404896D01*
X9084505Y-19404896D02*
X9074981Y-19385849D01*
X9074981Y-19385849D02*
X9074981Y-19328706D01*
X9074981Y-19328706D02*
X9084505Y-19309658D01*
X9084505Y-19309658D02*
X9094029Y-19300134D01*
X9094029Y-19300134D02*
X9113077Y-19290610D01*
X9113077Y-19290610D02*
X9141648Y-19290610D01*
X9141648Y-19290610D02*
X9160696Y-19300134D01*
X9160696Y-19300134D02*
X9170219Y-19309658D01*
X9170219Y-19309658D02*
X9179743Y-19328706D01*
X9179743Y-19328706D02*
X9179743Y-19385849D01*
X9179743Y-19385849D02*
X9170219Y-19404896D01*
X9170219Y-19404896D02*
X9160696Y-19414420D01*
X9160696Y-19414420D02*
X9141648Y-19423944D01*
X9141648Y-19423944D02*
X9113077Y-19423944D01*
X9294029Y-19423944D02*
X9274981Y-19414420D01*
X9274981Y-19414420D02*
X9265458Y-19395372D01*
X9265458Y-19395372D02*
X9265458Y-19223944D01*
X9446410Y-19414420D02*
X9427362Y-19423944D01*
X9427362Y-19423944D02*
X9389267Y-19423944D01*
X9389267Y-19423944D02*
X9370219Y-19414420D01*
X9370219Y-19414420D02*
X9360696Y-19395372D01*
X9360696Y-19395372D02*
X9360696Y-19319182D01*
X9360696Y-19319182D02*
X9370219Y-19300134D01*
X9370219Y-19300134D02*
X9389267Y-19290610D01*
X9389267Y-19290610D02*
X9427362Y-19290610D01*
X9427362Y-19290610D02*
X9446410Y-19300134D01*
X9446410Y-19300134D02*
X9455934Y-19319182D01*
X9455934Y-19319182D02*
X9455934Y-19338230D01*
X9455934Y-19338230D02*
X9360696Y-19357277D01*
X9532124Y-19414420D02*
X9551172Y-19423944D01*
X9551172Y-19423944D02*
X9589267Y-19423944D01*
X9589267Y-19423944D02*
X9608315Y-19414420D01*
X9608315Y-19414420D02*
X9617839Y-19395372D01*
X9617839Y-19395372D02*
X9617839Y-19385849D01*
X9617839Y-19385849D02*
X9608315Y-19366801D01*
X9608315Y-19366801D02*
X9589267Y-19357277D01*
X9589267Y-19357277D02*
X9560696Y-19357277D01*
X9560696Y-19357277D02*
X9541648Y-19347753D01*
X9541648Y-19347753D02*
X9532124Y-19328706D01*
X9532124Y-19328706D02*
X9532124Y-19319182D01*
X9532124Y-19319182D02*
X9541648Y-19300134D01*
X9541648Y-19300134D02*
X9560696Y-19290610D01*
X9560696Y-19290610D02*
X9589267Y-19290610D01*
X9589267Y-19290610D02*
X9608315Y-19300134D01*
X9684505Y-19500134D02*
X9694029Y-19490610D01*
X9694029Y-19490610D02*
X9713077Y-19462039D01*
X9713077Y-19462039D02*
X9722600Y-19442991D01*
X9722600Y-19442991D02*
X9732124Y-19414420D01*
X9732124Y-19414420D02*
X9741648Y-19366801D01*
X9741648Y-19366801D02*
X9741648Y-19328706D01*
X9741648Y-19328706D02*
X9732124Y-19281087D01*
X9732124Y-19281087D02*
X9722600Y-19252515D01*
X9722600Y-19252515D02*
X9713077Y-19233468D01*
X9713077Y-19233468D02*
X9694029Y-19204896D01*
X9694029Y-19204896D02*
X9684505Y-19195372D01*
X10046410Y-19500134D02*
X10036886Y-19490610D01*
X10036886Y-19490610D02*
X10017839Y-19462039D01*
X10017839Y-19462039D02*
X10008315Y-19442991D01*
X10008315Y-19442991D02*
X9998791Y-19414420D01*
X9998791Y-19414420D02*
X9989267Y-19366801D01*
X9989267Y-19366801D02*
X9989267Y-19328706D01*
X9989267Y-19328706D02*
X9998791Y-19281087D01*
X9998791Y-19281087D02*
X10008315Y-19252515D01*
X10008315Y-19252515D02*
X10017839Y-19233468D01*
X10017839Y-19233468D02*
X10036886Y-19204896D01*
X10036886Y-19204896D02*
X10046410Y-19195372D01*
X10122600Y-19290610D02*
X10122600Y-19423944D01*
X10122600Y-19309658D02*
X10132124Y-19300134D01*
X10132124Y-19300134D02*
X10151172Y-19290610D01*
X10151172Y-19290610D02*
X10179743Y-19290610D01*
X10179743Y-19290610D02*
X10198791Y-19300134D01*
X10198791Y-19300134D02*
X10208315Y-19319182D01*
X10208315Y-19319182D02*
X10208315Y-19423944D01*
X10332124Y-19423944D02*
X10313077Y-19414420D01*
X10313077Y-19414420D02*
X10303553Y-19404896D01*
X10303553Y-19404896D02*
X10294029Y-19385849D01*
X10294029Y-19385849D02*
X10294029Y-19328706D01*
X10294029Y-19328706D02*
X10303553Y-19309658D01*
X10303553Y-19309658D02*
X10313077Y-19300134D01*
X10313077Y-19300134D02*
X10332124Y-19290610D01*
X10332124Y-19290610D02*
X10360696Y-19290610D01*
X10360696Y-19290610D02*
X10379743Y-19300134D01*
X10379743Y-19300134D02*
X10389267Y-19309658D01*
X10389267Y-19309658D02*
X10398791Y-19328706D01*
X10398791Y-19328706D02*
X10398791Y-19385849D01*
X10398791Y-19385849D02*
X10389267Y-19404896D01*
X10389267Y-19404896D02*
X10379743Y-19414420D01*
X10379743Y-19414420D02*
X10360696Y-19423944D01*
X10360696Y-19423944D02*
X10332124Y-19423944D01*
X10455934Y-19290610D02*
X10532124Y-19290610D01*
X10484505Y-19223944D02*
X10484505Y-19395372D01*
X10484505Y-19395372D02*
X10494029Y-19414420D01*
X10494029Y-19414420D02*
X10513077Y-19423944D01*
X10513077Y-19423944D02*
X10532124Y-19423944D01*
X10751172Y-19290610D02*
X10751172Y-19490610D01*
X10751172Y-19300134D02*
X10770220Y-19290610D01*
X10770220Y-19290610D02*
X10808315Y-19290610D01*
X10808315Y-19290610D02*
X10827362Y-19300134D01*
X10827362Y-19300134D02*
X10836886Y-19309658D01*
X10836886Y-19309658D02*
X10846410Y-19328706D01*
X10846410Y-19328706D02*
X10846410Y-19385849D01*
X10846410Y-19385849D02*
X10836886Y-19404896D01*
X10836886Y-19404896D02*
X10827362Y-19414420D01*
X10827362Y-19414420D02*
X10808315Y-19423944D01*
X10808315Y-19423944D02*
X10770220Y-19423944D01*
X10770220Y-19423944D02*
X10751172Y-19414420D01*
X10960696Y-19423944D02*
X10941648Y-19414420D01*
X10941648Y-19414420D02*
X10932124Y-19395372D01*
X10932124Y-19395372D02*
X10932124Y-19223944D01*
X11122601Y-19423944D02*
X11122601Y-19319182D01*
X11122601Y-19319182D02*
X11113077Y-19300134D01*
X11113077Y-19300134D02*
X11094029Y-19290610D01*
X11094029Y-19290610D02*
X11055934Y-19290610D01*
X11055934Y-19290610D02*
X11036886Y-19300134D01*
X11122601Y-19414420D02*
X11103553Y-19423944D01*
X11103553Y-19423944D02*
X11055934Y-19423944D01*
X11055934Y-19423944D02*
X11036886Y-19414420D01*
X11036886Y-19414420D02*
X11027362Y-19395372D01*
X11027362Y-19395372D02*
X11027362Y-19376325D01*
X11027362Y-19376325D02*
X11036886Y-19357277D01*
X11036886Y-19357277D02*
X11055934Y-19347753D01*
X11055934Y-19347753D02*
X11103553Y-19347753D01*
X11103553Y-19347753D02*
X11122601Y-19338230D01*
X11189267Y-19290610D02*
X11265458Y-19290610D01*
X11217839Y-19223944D02*
X11217839Y-19395372D01*
X11217839Y-19395372D02*
X11227362Y-19414420D01*
X11227362Y-19414420D02*
X11246410Y-19423944D01*
X11246410Y-19423944D02*
X11265458Y-19423944D01*
X11408315Y-19414420D02*
X11389267Y-19423944D01*
X11389267Y-19423944D02*
X11351172Y-19423944D01*
X11351172Y-19423944D02*
X11332124Y-19414420D01*
X11332124Y-19414420D02*
X11322600Y-19395372D01*
X11322600Y-19395372D02*
X11322600Y-19319182D01*
X11322600Y-19319182D02*
X11332124Y-19300134D01*
X11332124Y-19300134D02*
X11351172Y-19290610D01*
X11351172Y-19290610D02*
X11389267Y-19290610D01*
X11389267Y-19290610D02*
X11408315Y-19300134D01*
X11408315Y-19300134D02*
X11417839Y-19319182D01*
X11417839Y-19319182D02*
X11417839Y-19338230D01*
X11417839Y-19338230D02*
X11322600Y-19357277D01*
X11589267Y-19423944D02*
X11589267Y-19223944D01*
X11589267Y-19414420D02*
X11570220Y-19423944D01*
X11570220Y-19423944D02*
X11532124Y-19423944D01*
X11532124Y-19423944D02*
X11513077Y-19414420D01*
X11513077Y-19414420D02*
X11503553Y-19404896D01*
X11503553Y-19404896D02*
X11494029Y-19385849D01*
X11494029Y-19385849D02*
X11494029Y-19328706D01*
X11494029Y-19328706D02*
X11503553Y-19309658D01*
X11503553Y-19309658D02*
X11513077Y-19300134D01*
X11513077Y-19300134D02*
X11532124Y-19290610D01*
X11532124Y-19290610D02*
X11570220Y-19290610D01*
X11570220Y-19290610D02*
X11589267Y-19300134D01*
X11665458Y-19500134D02*
X11674981Y-19490610D01*
X11674981Y-19490610D02*
X11694029Y-19462039D01*
X11694029Y-19462039D02*
X11703553Y-19442991D01*
X11703553Y-19442991D02*
X11713077Y-19414420D01*
X11713077Y-19414420D02*
X11722600Y-19366801D01*
X11722600Y-19366801D02*
X11722600Y-19328706D01*
X11722600Y-19328706D02*
X11713077Y-19281087D01*
X11713077Y-19281087D02*
X11703553Y-19252515D01*
X11703553Y-19252515D02*
X11694029Y-19233468D01*
X11694029Y-19233468D02*
X11674981Y-19204896D01*
X11674981Y-19204896D02*
X11665458Y-19195372D01*
M02*
