M48
; DRILL file {KiCad 7.0.2-0} date 2024 June 08, Saturday 13:48:45
; FORMAT={-:-/ absolute / metric / decimal}
; #@! TF.CreationDate,2024-06-08T13:48:45+08:00
; #@! TF.GenerationSoftware,Kicad,Pcbnew,7.0.2-0
; #@! TF.FileFunction,MixedPlating,1,2
FMAT,2
METRIC
; #@! TA.AperFunction,Plated,PTH,ViaDrill
T1C0.300
; #@! TA.AperFunction,Plated,PTH,ComponentDrill
T2C0.600
; #@! TA.AperFunction,Plated,PTH,ViaDrill
T3C0.800
; #@! TA.AperFunction,Plated,PTH,ComponentDrill
T4C1.000
; #@! TA.AperFunction,Plated,PTH,ComponentDrill
T5C1.090
; #@! TA.AperFunction,Plated,PTH,ViaDrill
T6C1.700
; #@! TA.AperFunction,NonPlated,NPTH,ComponentDrill
T7C0.650
%
G90
G05
T1
X53.594Y-165.354
X53.848Y-134.366
X53.848Y-135.001
X53.848Y-135.636
X53.848Y-136.271
X53.848Y-136.906
X53.848Y-140.589
X53.848Y-141.224
X53.848Y-141.859
X53.848Y-142.494
X54.483Y-134.366
X54.483Y-135.001
X54.483Y-135.636
X54.483Y-141.224
X54.483Y-141.859
X54.483Y-142.494
X55.118Y-134.366
X55.118Y-135.001
X55.118Y-135.636
X55.118Y-141.859
X55.118Y-142.494
X55.618Y-136.914
X55.753Y-134.366
X55.753Y-135.001
X55.753Y-142.494
X56.142Y-135.882
X56.388Y-134.366
X56.388Y-135.001
X57.023Y-134.366
X57.023Y-135.001
X58.166Y-145.583
X59.436Y-146.05
X60.706Y-139.7
X60.768Y-133.35
X60.96Y-132.038
X61.255Y-140.716
X61.468Y-133.35
X61.976Y-140.208
X63.119Y-143.51
X63.119Y-144.907
X63.754Y-143.51
X63.754Y-144.907
X64.389Y-143.51
X64.389Y-144.907
X65.024Y-143.51
X65.024Y-144.907
X65.024Y-163.322
X66.04Y-131.826
X66.04Y-138.176
X66.04Y-148.082
X66.294Y-143.51
X66.548Y-164.084
X66.675Y-159.258
X67.564Y-137.922
X67.835Y-163.921
X68.072Y-147.574
X68.271Y-143.51
X68.326Y-148.844
X68.58Y-163.322
X68.826Y-139.962
X68.961Y-147.574
X69.596Y-147.574
X69.85Y-132.461
X70.358Y-147.574
X71.12Y-148.971
X71.374Y-145.374
X71.755Y-134.366
X72.085Y-132.081
X72.136Y-155.611
X72.39Y-136.144
X72.706Y-139.272
X73.025Y-138.176
X74.041Y-143.002
X74.041Y-143.637
X74.041Y-144.272
X74.041Y-146.939
X74.676Y-146.939
X74.803Y-143.002
X74.803Y-143.637
X74.803Y-144.272
X75.131Y-166.116
X75.311Y-146.939
X75.565Y-143.002
X75.565Y-143.637
X75.565Y-144.272
X75.946Y-146.939
X76.581Y-146.939
X77.216Y-146.939
X78.105Y-155.194
X78.105Y-155.956
X78.105Y-156.718
X78.105Y-157.48
X78.105Y-158.242
X78.105Y-159.004
X78.105Y-159.766
X78.105Y-160.528
X78.232Y-148.59
X78.994Y-155.194
X78.994Y-155.956
X78.994Y-156.718
X78.994Y-157.48
X78.994Y-158.242
X78.994Y-159.004
X78.994Y-159.766
X78.994Y-160.528
X79.593Y-153.67
X79.883Y-155.194
X79.883Y-155.956
X79.883Y-156.718
X79.883Y-157.48
X79.883Y-158.242
X79.883Y-159.004
X79.883Y-159.766
X79.883Y-160.528
X80.772Y-134.62
X80.772Y-135.382
X80.772Y-136.144
X80.772Y-136.906
X80.772Y-137.668
X80.772Y-138.43
X80.772Y-139.192
X80.772Y-139.954
X80.772Y-140.716
X80.772Y-141.478
X80.772Y-142.24
X80.772Y-143.002
X80.772Y-143.764
X80.772Y-155.194
X80.772Y-155.956
X80.772Y-156.718
X80.772Y-157.48
X80.772Y-158.242
X80.772Y-159.004
X80.772Y-159.766
X80.772Y-160.528
X81.534Y-134.62
X81.534Y-135.382
X81.534Y-136.144
X81.534Y-136.906
X81.534Y-137.668
X81.534Y-138.43
X81.534Y-139.192
X81.534Y-139.954
X81.534Y-140.716
X81.534Y-141.478
X81.534Y-142.24
X81.534Y-143.002
X81.534Y-143.764
X84.074Y-153.289
X100.076Y-154.051
X101.036Y-152.964
X101.6Y-152.146
X101.727Y-156.21
X106.299Y-151.384
X108.712Y-152.781
X108.712Y-154.927
X112.014Y-151.384
T3
X90.678Y-129.667
X90.678Y-130.81
X90.678Y-131.953
X90.678Y-133.096
X90.678Y-134.239
X90.678Y-135.382
X90.678Y-136.525
X90.678Y-137.668
X90.678Y-138.811
X90.678Y-139.954
X90.678Y-141.097
X90.678Y-142.24
X90.678Y-143.383
X90.678Y-144.526
X90.678Y-145.669
X90.678Y-146.812
X90.678Y-147.955
X90.678Y-149.098
X90.678Y-150.241
X90.678Y-151.384
X90.678Y-152.527
X90.678Y-153.67
X90.678Y-154.813
X90.678Y-155.956
X90.678Y-157.099
X90.678Y-158.242
X90.678Y-159.385
X90.678Y-160.528
X90.678Y-161.671
X90.678Y-162.814
X90.678Y-164.084
X90.678Y-165.227
X90.678Y-166.37
X90.678Y-167.513
X90.678Y-168.656
X90.678Y-169.799
T4
X51.816Y-135.128
X51.816Y-137.668
X51.816Y-140.208
X61.976Y-130.302
X64.516Y-130.302
X67.056Y-130.302
X69.596Y-130.302
X78.232Y-134.874
X78.232Y-137.414
X78.232Y-139.954
X78.232Y-142.494
T5
X86.475Y-141.351
X86.475Y-143.891
X86.475Y-146.431
X86.475Y-148.971
X86.475Y-151.511
X86.475Y-154.051
X86.475Y-156.591
X95.123Y-141.351
X95.123Y-143.891
X95.123Y-146.431
X95.123Y-148.971
X95.123Y-151.511
X95.123Y-154.051
X95.123Y-156.591
T6
X87.63Y-131.318
X87.63Y-136.271
X87.63Y-162.814
X87.63Y-167.767
X93.472Y-131.445
X93.472Y-136.398
X93.472Y-162.814
X93.472Y-167.767
T7
X63.912Y-163.198
X69.692Y-163.198
T2
G00X62.482Y-162.128
M15
G01X62.482Y-163.228
M16
G05
G00X62.482Y-166.478
M15
G01X62.482Y-167.278
M16
G05
G00X71.122Y-162.128
M15
G01X71.122Y-163.228
M16
G05
G00X71.122Y-166.478
M15
G01X71.122Y-167.278
M16
G05
T0
M30
