%TF.GenerationSoftware,KiCad,Pcbnew,7.0.2-0*%
%TF.CreationDate,2024-06-08T13:48:43+08:00*%
%TF.ProjectId,angle_detect,616e676c-655f-4646-9574-6563742e6b69,rev?*%
%TF.SameCoordinates,Original*%
%TF.FileFunction,Legend,Bot*%
%TF.FilePolarity,Positive*%
%FSLAX46Y46*%
G04 Gerber Fmt 4.6, Leading zero omitted, Abs format (unit mm)*
G04 Created by KiCad (PCBNEW 7.0.2-0) date 2024-06-08 13:48:43*
%MOMM*%
%LPD*%
G01*
G04 APERTURE LIST*
G04 Aperture macros list*
%AMRoundRect*
0 Rectangle with rounded corners*
0 $1 Rounding radius*
0 $2 $3 $4 $5 $6 $7 $8 $9 X,Y pos of 4 corners*
0 Add a 4 corners polygon primitive as box body*
4,1,4,$2,$3,$4,$5,$6,$7,$8,$9,$2,$3,0*
0 Add four circle primitives for the rounded corners*
1,1,$1+$1,$2,$3*
1,1,$1+$1,$4,$5*
1,1,$1+$1,$6,$7*
1,1,$1+$1,$8,$9*
0 Add four rect primitives between the rounded corners*
20,1,$1+$1,$2,$3,$4,$5,0*
20,1,$1+$1,$4,$5,$6,$7,0*
20,1,$1+$1,$6,$7,$8,$9,0*
20,1,$1+$1,$8,$9,$2,$3,0*%
G04 Aperture macros list end*
%ADD10C,0.300000*%
%ADD11RoundRect,0.250000X-0.620000X0.620000X-0.620000X-0.620000X0.620000X-0.620000X0.620000X0.620000X0*%
%ADD12C,1.740000*%
%ADD13R,1.700000X1.700000*%
%ADD14O,1.700000X1.700000*%
%ADD15C,0.650000*%
%ADD16O,1.000000X2.100000*%
%ADD17O,1.000000X1.800000*%
%ADD18RoundRect,0.250000X0.620000X-0.620000X0.620000X0.620000X-0.620000X0.620000X-0.620000X-0.620000X0*%
%TA.AperFunction,Profile*%
%ADD19C,0.100000*%
%TD*%
G04 APERTURE END LIST*
D10*
X58269285Y-129617428D02*
X58269285Y-130688857D01*
X58269285Y-130688857D02*
X58340714Y-130903142D01*
X58340714Y-130903142D02*
X58483571Y-131046000D01*
X58483571Y-131046000D02*
X58697857Y-131117428D01*
X58697857Y-131117428D02*
X58840714Y-131117428D01*
X57340714Y-131117428D02*
X57483571Y-131046000D01*
X57483571Y-131046000D02*
X57555000Y-130974571D01*
X57555000Y-130974571D02*
X57626428Y-130831714D01*
X57626428Y-130831714D02*
X57626428Y-130403142D01*
X57626428Y-130403142D02*
X57555000Y-130260285D01*
X57555000Y-130260285D02*
X57483571Y-130188857D01*
X57483571Y-130188857D02*
X57340714Y-130117428D01*
X57340714Y-130117428D02*
X57126428Y-130117428D01*
X57126428Y-130117428D02*
X56983571Y-130188857D01*
X56983571Y-130188857D02*
X56912143Y-130260285D01*
X56912143Y-130260285D02*
X56840714Y-130403142D01*
X56840714Y-130403142D02*
X56840714Y-130831714D01*
X56840714Y-130831714D02*
X56912143Y-130974571D01*
X56912143Y-130974571D02*
X56983571Y-131046000D01*
X56983571Y-131046000D02*
X57126428Y-131117428D01*
X57126428Y-131117428D02*
X57340714Y-131117428D01*
X56197857Y-131117428D02*
X56197857Y-129617428D01*
X56055000Y-130546000D02*
X55626428Y-131117428D01*
X55626428Y-130117428D02*
X56197857Y-130688857D01*
X54983571Y-130117428D02*
X54983571Y-131117428D01*
X54983571Y-130260285D02*
X54912142Y-130188857D01*
X54912142Y-130188857D02*
X54769285Y-130117428D01*
X54769285Y-130117428D02*
X54554999Y-130117428D01*
X54554999Y-130117428D02*
X54412142Y-130188857D01*
X54412142Y-130188857D02*
X54340714Y-130331714D01*
X54340714Y-130331714D02*
X54340714Y-131117428D01*
X53054999Y-131046000D02*
X53197856Y-131117428D01*
X53197856Y-131117428D02*
X53483571Y-131117428D01*
X53483571Y-131117428D02*
X53626428Y-131046000D01*
X53626428Y-131046000D02*
X53697856Y-130903142D01*
X53697856Y-130903142D02*
X53697856Y-130331714D01*
X53697856Y-130331714D02*
X53626428Y-130188857D01*
X53626428Y-130188857D02*
X53483571Y-130117428D01*
X53483571Y-130117428D02*
X53197856Y-130117428D01*
X53197856Y-130117428D02*
X53054999Y-130188857D01*
X53054999Y-130188857D02*
X52983571Y-130331714D01*
X52983571Y-130331714D02*
X52983571Y-130474571D01*
X52983571Y-130474571D02*
X53697856Y-130617428D01*
X52340714Y-131117428D02*
X52340714Y-130117428D01*
X52340714Y-130260285D02*
X52269285Y-130188857D01*
X52269285Y-130188857D02*
X52126428Y-130117428D01*
X52126428Y-130117428D02*
X51912142Y-130117428D01*
X51912142Y-130117428D02*
X51769285Y-130188857D01*
X51769285Y-130188857D02*
X51697857Y-130331714D01*
X51697857Y-130331714D02*
X51697857Y-131117428D01*
X51697857Y-130331714D02*
X51626428Y-130188857D01*
X51626428Y-130188857D02*
X51483571Y-130117428D01*
X51483571Y-130117428D02*
X51269285Y-130117428D01*
X51269285Y-130117428D02*
X51126428Y-130188857D01*
X51126428Y-130188857D02*
X51054999Y-130331714D01*
X51054999Y-130331714D02*
X51054999Y-131117428D01*
X58912142Y-132047428D02*
X58412142Y-133547428D01*
X58412142Y-133547428D02*
X57912142Y-132047428D01*
X56626428Y-133547428D02*
X57483571Y-133547428D01*
X57055000Y-133547428D02*
X57055000Y-132047428D01*
X57055000Y-132047428D02*
X57197857Y-132261714D01*
X57197857Y-132261714D02*
X57340714Y-132404571D01*
X57340714Y-132404571D02*
X57483571Y-132476000D01*
X55983572Y-133404571D02*
X55912143Y-133476000D01*
X55912143Y-133476000D02*
X55983572Y-133547428D01*
X55983572Y-133547428D02*
X56055000Y-133476000D01*
X56055000Y-133476000D02*
X55983572Y-133404571D01*
X55983572Y-133404571D02*
X55983572Y-133547428D01*
X55340714Y-132190285D02*
X55269286Y-132118857D01*
X55269286Y-132118857D02*
X55126429Y-132047428D01*
X55126429Y-132047428D02*
X54769286Y-132047428D01*
X54769286Y-132047428D02*
X54626429Y-132118857D01*
X54626429Y-132118857D02*
X54555000Y-132190285D01*
X54555000Y-132190285D02*
X54483571Y-132333142D01*
X54483571Y-132333142D02*
X54483571Y-132476000D01*
X54483571Y-132476000D02*
X54555000Y-132690285D01*
X54555000Y-132690285D02*
X55412143Y-133547428D01*
X55412143Y-133547428D02*
X54483571Y-133547428D01*
%LPC*%
D11*
%TO.C,J2*%
X86475000Y-141351000D03*
D12*
X86475000Y-143891000D03*
X86475000Y-146431000D03*
X86475000Y-148971000D03*
X86475000Y-151511000D03*
X86475000Y-154051000D03*
X86475000Y-156591000D03*
%TD*%
D13*
%TO.C,J4*%
X78232000Y-134874000D03*
D14*
X78232000Y-137414000D03*
X78232000Y-139954000D03*
X78232000Y-142494000D03*
%TD*%
D13*
%TO.C,J6*%
X51816000Y-140208000D03*
D14*
X51816000Y-137668000D03*
X51816000Y-135128000D03*
%TD*%
D15*
%TO.C,J3*%
X63912000Y-163198000D03*
X69692000Y-163198000D03*
D16*
X62482000Y-162678000D03*
D17*
X62482000Y-166878000D03*
D16*
X71122000Y-162678000D03*
D17*
X71122000Y-166878000D03*
%TD*%
D13*
%TO.C,J5*%
X61976000Y-130302000D03*
D14*
X64516000Y-130302000D03*
X67056000Y-130302000D03*
X69596000Y-130302000D03*
%TD*%
D18*
%TO.C,J1*%
X95123000Y-156591000D03*
D12*
X95123000Y-154051000D03*
X95123000Y-151511000D03*
X95123000Y-148971000D03*
X95123000Y-146431000D03*
X95123000Y-143891000D03*
X95123000Y-141351000D03*
%TD*%
%LPD*%
D19*
X49276000Y-167259000D02*
G75*
G03*
X52705000Y-170688000I3429000J0D01*
G01*
X128701800Y-170764200D02*
G75*
G03*
X132130800Y-167335200I0J3429000D01*
G01*
X52705000Y-128524000D02*
X128701800Y-128600200D01*
X49276000Y-167259000D02*
X49276000Y-131953000D01*
X132130800Y-132029200D02*
X132130800Y-167335200D01*
X52705000Y-128524000D02*
G75*
G03*
X49276000Y-131953000I0J-3429000D01*
G01*
X128701800Y-170764200D02*
X52705000Y-170688000D01*
X132130800Y-132029200D02*
G75*
G03*
X128701800Y-128600200I-3429000J0D01*
G01*
M02*
