%TF.GenerationSoftware,KiCad,Pcbnew,7.0.2-0*%
%TF.CreationDate,2024-06-12T14:29:37+08:00*%
%TF.ProjectId,angle_detect,616e676c-655f-4646-9574-6563742e6b69,rev?*%
%TF.SameCoordinates,Original*%
%TF.FileFunction,Soldermask,Bot*%
%TF.FilePolarity,Negative*%
%FSLAX46Y46*%
G04 Gerber Fmt 4.6, Leading zero omitted, Abs format (unit mm)*
G04 Created by KiCad (PCBNEW 7.0.2-0) date 2024-06-12 14:29:37*
%MOMM*%
%LPD*%
G01*
G04 APERTURE LIST*
G04 Aperture macros list*
%AMRoundRect*
0 Rectangle with rounded corners*
0 $1 Rounding radius*
0 $2 $3 $4 $5 $6 $7 $8 $9 X,Y pos of 4 corners*
0 Add a 4 corners polygon primitive as box body*
4,1,4,$2,$3,$4,$5,$6,$7,$8,$9,$2,$3,0*
0 Add four circle primitives for the rounded corners*
1,1,$1+$1,$2,$3*
1,1,$1+$1,$4,$5*
1,1,$1+$1,$6,$7*
1,1,$1+$1,$8,$9*
0 Add four rect primitives between the rounded corners*
20,1,$1+$1,$2,$3,$4,$5,0*
20,1,$1+$1,$4,$5,$6,$7,0*
20,1,$1+$1,$6,$7,$8,$9,0*
20,1,$1+$1,$8,$9,$2,$3,0*%
G04 Aperture macros list end*
%ADD10RoundRect,0.250000X-0.620000X0.620000X-0.620000X-0.620000X0.620000X-0.620000X0.620000X0.620000X0*%
%ADD11C,1.740000*%
%ADD12R,1.700000X1.700000*%
%ADD13O,1.700000X1.700000*%
%ADD14C,0.650000*%
%ADD15O,1.000000X2.100000*%
%ADD16O,1.000000X1.800000*%
%ADD17RoundRect,0.250000X0.620000X-0.620000X0.620000X0.620000X-0.620000X0.620000X-0.620000X-0.620000X0*%
%TA.AperFunction,Profile*%
%ADD18C,0.100000*%
%TD*%
G04 APERTURE END LIST*
D10*
%TO.C,J2*%
X86475000Y-141351000D03*
D11*
X86475000Y-143891000D03*
X86475000Y-146431000D03*
X86475000Y-148971000D03*
X86475000Y-151511000D03*
X86475000Y-154051000D03*
X86475000Y-156591000D03*
%TD*%
D12*
%TO.C,J4*%
X77978000Y-142494000D03*
D13*
X77978000Y-139954000D03*
X77978000Y-137414000D03*
X77978000Y-134874000D03*
%TD*%
D12*
%TO.C,J6*%
X51816000Y-140208000D03*
D13*
X51816000Y-137668000D03*
X51816000Y-135128000D03*
%TD*%
D14*
%TO.C,J3*%
X63912000Y-163198000D03*
X69692000Y-163198000D03*
D15*
X62482000Y-162678000D03*
D16*
X62482000Y-166878000D03*
D15*
X71122000Y-162678000D03*
D16*
X71122000Y-166878000D03*
%TD*%
D12*
%TO.C,J5*%
X61976000Y-130302000D03*
D13*
X64516000Y-130302000D03*
X67056000Y-130302000D03*
X69596000Y-130302000D03*
%TD*%
D17*
%TO.C,J1*%
X95123000Y-156591000D03*
D11*
X95123000Y-154051000D03*
X95123000Y-151511000D03*
X95123000Y-148971000D03*
X95123000Y-146431000D03*
X95123000Y-143891000D03*
X95123000Y-141351000D03*
%TD*%
D18*
X49276000Y-167259000D02*
G75*
G03*
X52705000Y-170688000I3429000J0D01*
G01*
X128701800Y-170764200D02*
G75*
G03*
X132130800Y-167335200I0J3429000D01*
G01*
X52705000Y-128524000D02*
X128701800Y-128600200D01*
X49276000Y-167259000D02*
X49276000Y-131953000D01*
X132130800Y-132029200D02*
X132130800Y-167335200D01*
X52705000Y-128524000D02*
G75*
G03*
X49276000Y-131953000I0J-3429000D01*
G01*
X128701800Y-170764200D02*
X52705000Y-170688000D01*
X132130800Y-132029200D02*
G75*
G03*
X128701800Y-128600200I-3429000J0D01*
G01*
M02*
